G04 #@! TF.GenerationSoftware,KiCad,Pcbnew,(6.0.2)*
G04 #@! TF.CreationDate,2022-09-21T19:40:20+09:30*
G04 #@! TF.ProjectId,BSPD,42535044-2e6b-4696-9361-645f70636258,4*
G04 #@! TF.SameCoordinates,Original*
G04 #@! TF.FileFunction,Soldermask,Top*
G04 #@! TF.FilePolarity,Negative*
%FSLAX46Y46*%
G04 Gerber Fmt 4.6, Leading zero omitted, Abs format (unit mm)*
G04 Created by KiCad (PCBNEW (6.0.2)) date 2022-09-21 19:40:20*
%MOMM*%
%LPD*%
G01*
G04 APERTURE LIST*
G04 Aperture macros list*
%AMRoundRect*
0 Rectangle with rounded corners*
0 $1 Rounding radius*
0 $2 $3 $4 $5 $6 $7 $8 $9 X,Y pos of 4 corners*
0 Add a 4 corners polygon primitive as box body*
4,1,4,$2,$3,$4,$5,$6,$7,$8,$9,$2,$3,0*
0 Add four circle primitives for the rounded corners*
1,1,$1+$1,$2,$3*
1,1,$1+$1,$4,$5*
1,1,$1+$1,$6,$7*
1,1,$1+$1,$8,$9*
0 Add four rect primitives between the rounded corners*
20,1,$1+$1,$2,$3,$4,$5,0*
20,1,$1+$1,$4,$5,$6,$7,0*
20,1,$1+$1,$6,$7,$8,$9,0*
20,1,$1+$1,$8,$9,$2,$3,0*%
G04 Aperture macros list end*
%ADD10RoundRect,0.300550X0.450450X-0.325450X0.450450X0.325450X-0.450450X0.325450X-0.450450X-0.325450X0*%
%ADD11RoundRect,0.301000X0.450000X-0.325000X0.450000X0.325000X-0.450000X0.325000X-0.450000X-0.325000X0*%
%ADD12RoundRect,0.300550X0.325450X0.450450X-0.325450X0.450450X-0.325450X-0.450450X0.325450X-0.450450X0*%
%ADD13RoundRect,0.301000X0.325000X0.450000X-0.325000X0.450000X-0.325000X-0.450000X0.325000X-0.450000X0*%
%ADD14RoundRect,0.051000X0.400000X0.450000X-0.400000X0.450000X-0.400000X-0.450000X0.400000X-0.450000X0*%
%ADD15RoundRect,0.301000X-0.325000X-0.450000X0.325000X-0.450000X0.325000X0.450000X-0.325000X0.450000X0*%
%ADD16RoundRect,0.051000X0.600000X0.800000X-0.600000X0.800000X-0.600000X-0.800000X0.600000X-0.800000X0*%
%ADD17RoundRect,0.051000X1.650000X-0.800000X1.650000X0.800000X-1.650000X0.800000X-1.650000X-0.800000X0*%
%ADD18RoundRect,0.051000X-0.775000X0.300000X-0.775000X-0.300000X0.775000X-0.300000X0.775000X0.300000X0*%
%ADD19RoundRect,0.301000X-0.450000X0.325000X-0.450000X-0.325000X0.450000X-0.325000X0.450000X0.325000X0*%
%ADD20RoundRect,0.051000X-0.850000X0.850000X-0.850000X-0.850000X0.850000X-0.850000X0.850000X0.850000X0*%
%ADD21O,1.802000X1.802000*%
%ADD22C,0.902000*%
%ADD23C,6.502000*%
%ADD24C,1.372000*%
%ADD25RoundRect,0.301001X-0.759999X0.499999X-0.759999X-0.499999X0.759999X-0.499999X0.759999X0.499999X0*%
%ADD26O,2.122000X1.602000*%
%ADD27RoundRect,0.051000X-0.900000X-0.900000X0.900000X-0.900000X0.900000X0.900000X-0.900000X0.900000X0*%
%ADD28C,1.902000*%
%ADD29RoundRect,0.051000X0.280000X2.000000X-0.280000X2.000000X-0.280000X-2.000000X0.280000X-2.000000X0*%
%ADD30C,6.102000*%
%ADD31RoundRect,0.301001X0.462499X0.624999X-0.462499X0.624999X-0.462499X-0.624999X0.462499X-0.624999X0*%
%ADD32RoundRect,0.051000X-1.000000X-1.000000X1.000000X-1.000000X1.000000X1.000000X-1.000000X1.000000X0*%
%ADD33C,2.102000*%
G04 APERTURE END LIST*
D10*
X156635000Y-95125000D03*
D11*
X156635000Y-93075000D03*
D10*
X139135000Y-95125000D03*
D11*
X139135000Y-93075000D03*
D10*
X148635000Y-95125000D03*
D11*
X148635000Y-93075000D03*
D10*
X129135000Y-95125000D03*
D11*
X129135000Y-93075000D03*
D10*
X109735000Y-105425000D03*
D11*
X109735000Y-103375000D03*
D10*
X119135000Y-105425000D03*
D11*
X119135000Y-103375000D03*
D12*
X148660000Y-109600000D03*
D13*
X146610000Y-109600000D03*
D14*
X117710000Y-151600000D03*
X119610000Y-151600000D03*
X118660000Y-149600000D03*
D13*
X152660000Y-109600000D03*
X150610000Y-109600000D03*
D15*
X153085000Y-160100000D03*
X155135000Y-160100000D03*
X140035000Y-145600000D03*
X142085000Y-145600000D03*
D13*
X155160000Y-145600000D03*
X153110000Y-145600000D03*
D15*
X136860000Y-159350000D03*
X138910000Y-159350000D03*
X127035000Y-145600000D03*
X129085000Y-145600000D03*
X127035000Y-130600000D03*
X129085000Y-130600000D03*
D16*
X112135000Y-107600000D03*
D17*
X114435000Y-101200000D03*
D16*
X114435000Y-107600000D03*
X116735000Y-107600000D03*
D18*
X136635000Y-98790000D03*
X136635000Y-100060000D03*
X136635000Y-101330000D03*
X136635000Y-102600000D03*
X136635000Y-103870000D03*
X136635000Y-105140000D03*
X136635000Y-106410000D03*
X142035000Y-106410000D03*
X142035000Y-105140000D03*
X142035000Y-103870000D03*
X142035000Y-102600000D03*
X142035000Y-101330000D03*
X142035000Y-100060000D03*
X142035000Y-98790000D03*
X145735000Y-98790000D03*
X145735000Y-100060000D03*
X145735000Y-101330000D03*
X145735000Y-102600000D03*
X145735000Y-103870000D03*
X145735000Y-105140000D03*
X145735000Y-106410000D03*
X151135000Y-106410000D03*
X151135000Y-105140000D03*
X151135000Y-103870000D03*
X151135000Y-102600000D03*
X151135000Y-101330000D03*
X151135000Y-100060000D03*
X151135000Y-98790000D03*
X154185000Y-98790000D03*
X154185000Y-100060000D03*
X154185000Y-101330000D03*
X154185000Y-102600000D03*
X154185000Y-103870000D03*
X154185000Y-105140000D03*
X154185000Y-106410000D03*
X159585000Y-106410000D03*
X159585000Y-105140000D03*
X159585000Y-103870000D03*
X159585000Y-102600000D03*
X159585000Y-101330000D03*
X159585000Y-100060000D03*
X159585000Y-98790000D03*
D11*
X121885000Y-114375000D03*
X121885000Y-112325000D03*
D15*
X127035000Y-159370000D03*
X129085000Y-159370000D03*
X140035000Y-130600000D03*
X142085000Y-130600000D03*
D13*
X142040000Y-138045000D03*
X139990000Y-138045000D03*
X142040000Y-122845000D03*
X139990000Y-122845000D03*
X142085000Y-120745000D03*
X140035000Y-120745000D03*
X142085000Y-135845000D03*
X140035000Y-135845000D03*
X155090000Y-137745000D03*
X153040000Y-137745000D03*
X129040000Y-137745000D03*
X126990000Y-137745000D03*
X155135000Y-135645000D03*
X153085000Y-135645000D03*
X129085000Y-135695000D03*
X127035000Y-135695000D03*
X129040000Y-151870000D03*
X126990000Y-151870000D03*
X129040000Y-122770000D03*
X126990000Y-122770000D03*
X129085000Y-149820000D03*
X127035000Y-149820000D03*
X129085000Y-120695000D03*
X127035000Y-120695000D03*
X142085000Y-151770000D03*
X140035000Y-151770000D03*
X142085000Y-149620000D03*
X140035000Y-149620000D03*
X155110000Y-152195000D03*
X153060000Y-152195000D03*
X155135000Y-149995000D03*
X153085000Y-149995000D03*
D18*
X126485000Y-98735000D03*
X126485000Y-100005000D03*
X126485000Y-101275000D03*
X126485000Y-102545000D03*
X126485000Y-103815000D03*
X126485000Y-105085000D03*
X126485000Y-106355000D03*
X131885000Y-106355000D03*
X131885000Y-105085000D03*
X131885000Y-103815000D03*
X131885000Y-102545000D03*
X131885000Y-101275000D03*
X131885000Y-100005000D03*
X131885000Y-98735000D03*
D19*
X121210000Y-99320000D03*
X121210000Y-101370000D03*
D11*
X121185000Y-105420000D03*
X121185000Y-103370000D03*
D19*
X107735000Y-99420000D03*
X107735000Y-101470000D03*
D18*
X145885000Y-112335000D03*
X145885000Y-113605000D03*
X145885000Y-114875000D03*
X145885000Y-116145000D03*
X145885000Y-117415000D03*
X145885000Y-118685000D03*
X145885000Y-119955000D03*
X151285000Y-119955000D03*
X151285000Y-118685000D03*
X151285000Y-117415000D03*
X151285000Y-116145000D03*
X151285000Y-114875000D03*
X151285000Y-113605000D03*
X151285000Y-112335000D03*
D11*
X107735000Y-105395000D03*
X107735000Y-103345000D03*
X125385000Y-116550000D03*
X125385000Y-114500000D03*
D19*
X127535000Y-108050000D03*
X127535000Y-110100000D03*
D11*
X125335000Y-110150000D03*
X125335000Y-108100000D03*
D20*
X141885000Y-141600000D03*
D21*
X139345000Y-141600000D03*
X136805000Y-141600000D03*
D20*
X141925000Y-126600000D03*
D21*
X139385000Y-126600000D03*
X136845000Y-126600000D03*
D20*
X141885000Y-155600000D03*
D21*
X139345000Y-155600000D03*
X136805000Y-155600000D03*
D20*
X128385000Y-141600000D03*
D21*
X125845000Y-141600000D03*
X123305000Y-141600000D03*
D20*
X128385000Y-155600000D03*
D21*
X125845000Y-155600000D03*
X123305000Y-155600000D03*
D20*
X156885000Y-141600000D03*
D21*
X154345000Y-141600000D03*
X151805000Y-141600000D03*
D20*
X156885000Y-155600000D03*
D21*
X154345000Y-155600000D03*
X151805000Y-155600000D03*
D20*
X128385000Y-126600000D03*
D21*
X125845000Y-126600000D03*
X123305000Y-126600000D03*
D22*
X167087500Y-156519620D03*
X167087500Y-161319620D03*
X168784556Y-157222564D03*
X165390444Y-157222564D03*
X169487500Y-158919620D03*
X165390444Y-160616676D03*
X168784556Y-160616676D03*
D23*
X167087500Y-158919620D03*
D22*
X164687500Y-158919620D03*
D24*
X168910000Y-82950000D03*
X168910000Y-91950000D03*
D25*
X166950000Y-85950000D03*
D26*
X166950000Y-88950000D03*
D27*
X129030000Y-71805000D03*
D28*
X131570000Y-71805000D03*
X134110000Y-71805000D03*
X136650000Y-71805000D03*
X139190000Y-71805000D03*
X141730000Y-71805000D03*
X144270000Y-71805000D03*
X146810000Y-71805000D03*
X149350000Y-71805000D03*
X151890000Y-71805000D03*
X154430000Y-71805000D03*
X156970000Y-71805000D03*
D29*
X121842500Y-16419620D03*
X120572500Y-16419620D03*
X119302500Y-16419620D03*
X118032500Y-16419620D03*
X116762500Y-16419620D03*
X115492500Y-16419620D03*
X114222500Y-16419620D03*
X112952500Y-16419620D03*
X111682500Y-16419620D03*
X110412500Y-16419620D03*
X109142500Y-16419620D03*
X107872500Y-16419620D03*
X106602500Y-16419620D03*
X105332500Y-16419620D03*
X104062500Y-16419620D03*
X101522500Y-16419620D03*
X100252500Y-16419620D03*
X98982500Y-16419620D03*
X97712500Y-16419620D03*
X96442500Y-16419620D03*
X95172500Y-16419620D03*
X93902500Y-16419620D03*
X92632500Y-16419620D03*
X91362500Y-16419620D03*
X90092500Y-16419620D03*
X88822500Y-16419620D03*
X87552500Y-16419620D03*
X86282500Y-16419620D03*
X85012500Y-16419620D03*
X83742500Y-16419620D03*
X82472500Y-16419620D03*
X81202500Y-16419620D03*
X79932500Y-16419620D03*
X78662500Y-16419620D03*
X77392500Y-16419620D03*
X76122500Y-16419620D03*
X74852500Y-16419620D03*
X73582500Y-16419620D03*
X72312500Y-16419620D03*
D22*
X27075500Y-101719620D03*
X29475500Y-99319620D03*
X25378444Y-101016676D03*
X27075500Y-96919620D03*
X25378444Y-97622564D03*
D23*
X27075500Y-99319620D03*
D22*
X28772556Y-97622564D03*
X28772556Y-101016676D03*
X24675500Y-99319620D03*
X167075500Y-31563325D03*
X165378444Y-35660381D03*
X169475500Y-33963325D03*
X168772556Y-35660381D03*
X168772556Y-32266269D03*
X167075500Y-36363325D03*
D23*
X167075500Y-33963325D03*
D22*
X164675500Y-33963325D03*
X165378444Y-32266269D03*
D30*
X37715000Y-34855000D03*
X95715000Y-34855000D03*
X95715000Y-83855000D03*
X37715000Y-83855000D03*
D31*
X149487500Y-66350000D03*
X146512500Y-66350000D03*
D22*
X169475500Y-99319620D03*
X164675500Y-99319620D03*
X165378444Y-97622564D03*
X165378444Y-101016676D03*
X168772556Y-97622564D03*
X167075500Y-96919620D03*
X167075500Y-101719620D03*
X168772556Y-101016676D03*
D23*
X167075500Y-99319620D03*
D22*
X25378444Y-35660381D03*
X28772556Y-35660381D03*
X24675500Y-33963325D03*
D23*
X27075500Y-33963325D03*
D22*
X27075500Y-31563325D03*
X27075500Y-36363325D03*
X29475500Y-33963325D03*
X25378444Y-32266269D03*
X28772556Y-32266269D03*
D32*
X131500000Y-86800000D03*
D33*
X136500000Y-86800000D03*
M02*
