G04 #@! TF.GenerationSoftware,KiCad,Pcbnew,(6.0.2)*
G04 #@! TF.CreationDate,2022-09-21T19:40:21+09:30*
G04 #@! TF.ProjectId,BSPD,42535044-2e6b-4696-9361-645f70636258,4*
G04 #@! TF.SameCoordinates,Original*
G04 #@! TF.FileFunction,Profile,NP*
%FSLAX46Y46*%
G04 Gerber Fmt 4.6, Leading zero omitted, Abs format (unit mm)*
G04 Created by KiCad (PCBNEW (6.0.2)) date 2022-09-21 19:40:21*
%MOMM*%
%LPD*%
G01*
G04 APERTURE LIST*
G04 #@! TA.AperFunction,Profile*
%ADD10C,0.050000*%
G04 #@! TD*
G04 #@! TA.AperFunction,Profile*
%ADD11C,0.200000*%
G04 #@! TD*
G04 #@! TA.AperFunction,Profile*
%ADD12C,0.120000*%
G04 #@! TD*
G04 APERTURE END LIST*
D10*
X27075500Y-23963325D02*
G75*
G03*
X17075500Y-33963325I-7J-9999993D01*
G01*
X114087500Y-158981620D02*
G75*
G03*
X124087500Y-168919620I9969000J31000D01*
G01*
D11*
X177087500Y-158919620D02*
X177075500Y-33963325D01*
D10*
X177075500Y-33963325D02*
G75*
G03*
X167075500Y-23963325I-10000003J-3D01*
G01*
D11*
X124087500Y-168919620D02*
X167087500Y-168919620D01*
D10*
X114087500Y-119257620D02*
G75*
G03*
X104087500Y-109319620I-9969000J-31000D01*
G01*
D11*
X114087500Y-158981620D02*
X114087500Y-119257620D01*
D10*
X167075500Y-23963325D02*
X123837500Y-23919620D01*
X27075500Y-23963325D02*
X70337500Y-23919620D01*
D11*
X27075500Y-109319620D02*
X104087500Y-109319620D01*
D10*
X17075500Y-99319620D02*
G75*
G03*
X27075500Y-109319620I9999999J-1D01*
G01*
X17075500Y-99319620D02*
X17075500Y-33963325D01*
X167087500Y-168919620D02*
G75*
G03*
X177087500Y-158919620I1J9999999D01*
G01*
D12*
X123362500Y-13919620D02*
X103412500Y-13919620D01*
X102172500Y-13919620D02*
X70812500Y-13919620D01*
X123837500Y-23919620D02*
X123362500Y-23919620D01*
X102172500Y-13919620D02*
X102172500Y-20919620D01*
X103412500Y-20919620D02*
X102172500Y-20919620D01*
X70337500Y-23919620D02*
X70812500Y-23919620D01*
X123362500Y-13919620D02*
X123362500Y-23919620D01*
X70812500Y-13919620D02*
X70812500Y-23919620D01*
X103412500Y-13919620D02*
X103412500Y-20919620D01*
M02*
