M48
; DRILL file {KiCad (6.0.2)} date Wed Sep 21 19:40:18 2022
; FORMAT={-:-/ absolute / inch / decimal}
; #@! TF.CreationDate,2022-09-21T19:40:18+09:30
; #@! TF.GenerationSoftware,Kicad,Pcbnew,(6.0.2)
; #@! TF.FileFunction,Plated,1,2,PTH
FMAT,2
INCH
; #@! TA.AperFunction,Plated,PTH,ViaDrill
T1C0.0157
; #@! TA.AperFunction,Plated,PTH,ComponentDrill
T2C0.0197
; #@! TA.AperFunction,Plated,PTH,ComponentDrill
T3C0.0394
; #@! TA.AperFunction,Plated,PTH,ComponentDrill
T4C0.0402
; #@! TA.AperFunction,Plated,PTH,ComponentDrill
T5C0.0472
; #@! TA.AperFunction,Plated,PTH,ComponentDrill
T6C0.1260
%
G90
G05
T1
X2.8481Y-0.7606
X2.8964Y-0.7604
X2.9466Y-0.7606
X2.9966Y-0.7606
X3.0477Y-0.7604
X3.0979Y-0.7606
X3.1473Y-0.7626
X3.1956Y-0.7624
X3.2458Y-0.7626
X3.2958Y-0.7626
X3.3469Y-0.7624
X3.3971Y-0.7626
X3.4485Y-0.7626
X3.4968Y-0.7624
X3.5469Y-0.7626
X3.5969Y-0.7626
X3.6481Y-0.7624
X3.6983Y-0.7626
X3.7477Y-0.7626
X3.796Y-0.7624
X3.8462Y-0.7626
X3.8962Y-0.7626
X3.9473Y-0.7624
X3.9975Y-0.7626
X4.0991Y-0.7606
X4.1473Y-0.7604
X4.1969Y-3.7244
X4.1975Y-0.7606
X4.1982Y-3.8228
X4.1982Y-3.9213
X4.2475Y-0.7606
X4.2967Y-3.7244
X4.2967Y-3.8228
X4.2967Y-3.9213
X4.2967Y-4.0197
X4.2987Y-0.7604
X4.3489Y-0.7606
X4.3951Y-3.7244
X4.3951Y-3.8228
X4.3951Y-3.9213
X4.3951Y-4.0197
X4.3971Y-0.7606
X4.4489Y-0.7608
X4.4489Y-3.4646
X4.4935Y-3.7244
X4.4935Y-3.8228
X4.498Y-3.4646
X4.4995Y-0.7606
X4.5472Y-3.4646
X4.5479Y-0.7608
X4.5919Y-3.7244
X4.5919Y-3.8228
X4.5919Y-3.9213
X4.5919Y-4.0197
X4.5971Y-3.4646
X4.5979Y-0.7608
X4.6457Y-3.4646
X4.6491Y-0.7606
X4.6717Y-4.775
X4.6904Y-3.7244
X4.6904Y-3.8228
X4.6949Y-4.0157
X4.6988Y-3.189
X4.6993Y-0.7608
X4.7012Y-5.46
X4.7165Y-4.5669
X4.7493Y-0.7608
X4.7661Y-5.8537
X4.7898Y-4.5624
X4.7972Y-0.7638
X4.7986Y-4.3642
X4.8281Y-4.6693
X4.872Y-1.0354
X4.8872Y-3.8773
X4.9236Y-4.3891
X4.9364Y-4.4528
X5.0043Y-5.1998
X5.0043Y-5.7904
X5.0053Y-4.4331
X5.025Y-4.4764
X5.0358Y-4.0984
X5.0358Y-4.1969
X5.0624Y-4.4213
X5.0644Y-4.0197
X5.0645Y-3.9506
X5.0801Y-4.2953
X5.0939Y-3.9213
X5.1205Y-6.2002
X5.1313Y-4.2429
X5.1317Y-3.9098
X5.1332Y-4.3153
X5.1938Y-4.3862
X5.1963Y-4.1925
X5.2317Y-4.4339
X5.2366Y-4.0394
X5.2506Y-4.0894
X5.2612Y-4.0
X5.2663Y-4.3051
X5.2809Y-5.8504
X5.3203Y-3.7441
X5.3203Y-4.0394
X5.3203Y-4.3051
X5.3203Y-4.4429
X5.3498Y-4.5315
X5.3793Y-3.8677
X5.3793Y-4.3051
X5.4187Y-4.2362
X5.4482Y-4.3051
X5.4679Y-4.1575
X5.4768Y-4.3876
X5.4778Y-4.0787
X5.4811Y-3.964
X5.5073Y-4.1575
X5.5073Y-4.3051
X5.5161Y-5.1998
X5.5161Y-5.7904
X5.5171Y-6.3622
X5.527Y-3.9508
X5.5565Y-4.3051
X5.5854Y-4.6992
X5.5919Y-4.0862
X5.6156Y-4.6004
X5.6185Y-4.378
X5.6549Y-3.8622
X5.6549Y-4.0197
X5.6551Y-4.4726
X5.6653Y-4.2072
X5.6746Y-5.7459
X5.676Y-3.9606
X5.7337Y-4.315
X5.8124Y-3.9606
X5.8203Y-4.6827
X5.8326Y-4.0989
X5.8518Y-4.0394
X5.8557Y-4.378
X5.873Y-4.1394
X5.8805Y-4.6224
X5.9502Y-3.7441
X5.9502Y-3.8622
X6.0199Y-4.5728
X6.028Y-6.3612
X6.0299Y-4.1894
X6.0742Y-5.8246
X6.0868Y-4.8547
X6.1372Y-3.9073
X6.1372Y-4.3325
X6.1648Y-5.4191
X6.1667Y-4.0197
X6.1667Y-4.1378
X6.1864Y-5.9685
X6.2258Y-4.0394
X6.2258Y-4.2657
X6.2445Y-4.8553
X6.2445Y-5.2392
X6.2445Y-5.7904
X6.2455Y-6.2421
T2
X0.9715Y-1.3371
X0.9715Y-3.9102
X0.9992Y-1.2703
X0.9992Y-1.404
X0.9992Y-3.8434
X0.9992Y-3.977
X1.066Y-1.2427
X1.066Y-1.4316
X1.066Y-3.8157
X1.066Y-4.0047
X1.1328Y-1.2703
X1.1328Y-1.404
X1.1328Y-3.8434
X1.1328Y-3.977
X1.1605Y-1.3371
X1.1605Y-3.9102
X6.4833Y-1.3371
X6.4833Y-3.9102
X6.4838Y-6.2567
X6.511Y-1.2703
X6.511Y-1.404
X6.511Y-3.8434
X6.511Y-3.977
X6.5114Y-6.1899
X6.5114Y-6.3235
X6.5778Y-1.2427
X6.5778Y-1.4316
X6.5778Y-3.8157
X6.5778Y-4.0047
X6.5782Y-6.1622
X6.5782Y-6.3512
X6.6446Y-1.2703
X6.6446Y-1.404
X6.6446Y-3.8434
X6.6446Y-3.977
X6.6451Y-6.1899
X6.6451Y-6.3235
X6.6723Y-1.3371
X6.6723Y-3.9102
X6.6727Y-6.2567
T3
X4.8545Y-4.9843
X4.8545Y-5.5748
X4.8545Y-6.126
X4.9545Y-4.9843
X4.9545Y-5.5748
X4.9545Y-6.126
X5.0545Y-4.9843
X5.0545Y-5.5748
X5.0545Y-6.126
X5.1772Y-3.4173
X5.374Y-3.4173
X5.386Y-5.5748
X5.386Y-6.126
X5.3876Y-4.9843
X5.486Y-5.5748
X5.486Y-6.126
X5.4876Y-4.9843
X5.586Y-5.5748
X5.586Y-6.126
X5.5876Y-4.9843
X5.9766Y-5.5748
X5.9766Y-6.126
X6.0766Y-5.5748
X6.0766Y-6.126
X6.1766Y-5.5748
X6.1766Y-6.126
T4
X6.5728Y-3.3839
X6.5728Y-3.502
T5
X5.0799Y-2.827
X5.1799Y-2.827
X5.2799Y-2.827
X5.3799Y-2.827
X5.4799Y-2.827
X5.5799Y-2.827
X5.6799Y-2.827
X5.7799Y-2.827
X5.8799Y-2.827
X5.9799Y-2.827
X6.0799Y-2.827
X6.1799Y-2.827
T6
X1.066Y-1.3371
X1.066Y-3.9102
X6.5778Y-1.3371
X6.5778Y-3.9102
X6.5782Y-6.2567
T0
M30
