G04 #@! TF.GenerationSoftware,KiCad,Pcbnew,(6.0.2)*
G04 #@! TF.CreationDate,2022-09-21T19:40:20+09:30*
G04 #@! TF.ProjectId,BSPD,42535044-2e6b-4696-9361-645f70636258,4*
G04 #@! TF.SameCoordinates,Original*
G04 #@! TF.FileFunction,Legend,Top*
G04 #@! TF.FilePolarity,Positive*
%FSLAX46Y46*%
G04 Gerber Fmt 4.6, Leading zero omitted, Abs format (unit mm)*
G04 Created by KiCad (PCBNEW (6.0.2)) date 2022-09-21 19:40:20*
%MOMM*%
%LPD*%
G01*
G04 APERTURE LIST*
%ADD10C,0.120000*%
%ADD11C,0.150000*%
%ADD12C,0.300000*%
%ADD13C,0.254000*%
%ADD14C,0.200000*%
%ADD15C,0.100000*%
G04 APERTURE END LIST*
D10*
X162135000Y-159100000D02*
X162385000Y-158850000D01*
X132885000Y-144100000D02*
X132635000Y-143850000D01*
X132635000Y-144350000D02*
X132885000Y-144100000D01*
X132885000Y-144100000D02*
G75*
G03*
X132885000Y-145100000I0J-500000D01*
G01*
X132885000Y-128850000D02*
X132635000Y-128600000D01*
X132885000Y-128850000D02*
G75*
G03*
X132885000Y-129850000I0J-500000D01*
G01*
X132635000Y-129100000D02*
X132885000Y-128850000D01*
X146635000Y-144100000D02*
G75*
G03*
X146635000Y-145100000I0J-500000D01*
G01*
X161460000Y-144100000D02*
X161210000Y-143850000D01*
X161210000Y-144350000D02*
X161460000Y-144100000D01*
X146635000Y-129100000D02*
G75*
G03*
X146635000Y-130100000I0J-500000D01*
G01*
X146635000Y-130100000D02*
X146385000Y-129850000D01*
X161460000Y-144100000D02*
G75*
G03*
X161460000Y-145100000I0J-500000D01*
G01*
X146385000Y-145350000D02*
X146635000Y-145100000D01*
X146385000Y-159600000D02*
X146635000Y-159350000D01*
X146385000Y-130350000D02*
X146635000Y-130100000D01*
X146635000Y-145100000D02*
X146385000Y-144850000D01*
X146635000Y-159350000D02*
X146385000Y-159100000D01*
X162385000Y-158850000D02*
X162135000Y-158600000D01*
X132885000Y-158100000D02*
G75*
G03*
X132885000Y-159100000I0J-500000D01*
G01*
X162385000Y-157850000D02*
G75*
G03*
X162385000Y-158850000I0J-500000D01*
G01*
X146635000Y-158350000D02*
G75*
G03*
X146635000Y-159350000I0J-500000D01*
G01*
X132885000Y-159100000D02*
X132635000Y-158850000D01*
X132635000Y-159350000D02*
X132885000Y-159100000D01*
D11*
X145246904Y-159638095D02*
X144446904Y-159638095D01*
X144446904Y-159333333D01*
X144485000Y-159257142D01*
X144523095Y-159219047D01*
X144599285Y-159180952D01*
X144713571Y-159180952D01*
X144789761Y-159219047D01*
X144827857Y-159257142D01*
X144865952Y-159333333D01*
X144865952Y-159638095D01*
X144446904Y-158685714D02*
X144446904Y-158533333D01*
X144485000Y-158457142D01*
X144561190Y-158380952D01*
X144713571Y-158342857D01*
X144980238Y-158342857D01*
X145132619Y-158380952D01*
X145208809Y-158457142D01*
X145246904Y-158533333D01*
X145246904Y-158685714D01*
X145208809Y-158761904D01*
X145132619Y-158838095D01*
X144980238Y-158876190D01*
X144713571Y-158876190D01*
X144561190Y-158838095D01*
X144485000Y-158761904D01*
X144446904Y-158685714D01*
X144446904Y-158076190D02*
X145246904Y-157885714D01*
X144675476Y-157733333D01*
X145246904Y-157580952D01*
X144446904Y-157390476D01*
X144827857Y-157085714D02*
X144827857Y-156819047D01*
X145246904Y-156704761D02*
X145246904Y-157085714D01*
X144446904Y-157085714D01*
X144446904Y-156704761D01*
X145246904Y-155904761D02*
X144865952Y-156171428D01*
X145246904Y-156361904D02*
X144446904Y-156361904D01*
X144446904Y-156057142D01*
X144485000Y-155980952D01*
X144523095Y-155942857D01*
X144599285Y-155904761D01*
X144713571Y-155904761D01*
X144789761Y-155942857D01*
X144827857Y-155980952D01*
X144865952Y-156057142D01*
X144865952Y-156361904D01*
X145208809Y-154990476D02*
X145246904Y-154876190D01*
X145246904Y-154685714D01*
X145208809Y-154609523D01*
X145170714Y-154571428D01*
X145094523Y-154533333D01*
X145018333Y-154533333D01*
X144942142Y-154571428D01*
X144904047Y-154609523D01*
X144865952Y-154685714D01*
X144827857Y-154838095D01*
X144789761Y-154914285D01*
X144751666Y-154952380D01*
X144675476Y-154990476D01*
X144599285Y-154990476D01*
X144523095Y-154952380D01*
X144485000Y-154914285D01*
X144446904Y-154838095D01*
X144446904Y-154647619D01*
X144485000Y-154533333D01*
X145246904Y-154190476D02*
X144446904Y-154190476D01*
X144485000Y-153390476D02*
X144446904Y-153466666D01*
X144446904Y-153580952D01*
X144485000Y-153695238D01*
X144561190Y-153771428D01*
X144637380Y-153809523D01*
X144789761Y-153847619D01*
X144904047Y-153847619D01*
X145056428Y-153809523D01*
X145132619Y-153771428D01*
X145208809Y-153695238D01*
X145246904Y-153580952D01*
X145246904Y-153504761D01*
X145208809Y-153390476D01*
X145170714Y-153352380D01*
X144904047Y-153352380D01*
X144904047Y-153504761D01*
X145246904Y-152400000D02*
X144446904Y-152400000D01*
X144827857Y-152400000D02*
X144827857Y-151942857D01*
X145246904Y-151942857D02*
X144446904Y-151942857D01*
X145246904Y-151561904D02*
X144446904Y-151561904D01*
X133170714Y-143007142D02*
X133208809Y-143045238D01*
X133246904Y-143159523D01*
X133246904Y-143235714D01*
X133208809Y-143350000D01*
X133132619Y-143426190D01*
X133056428Y-143464285D01*
X132904047Y-143502380D01*
X132789761Y-143502380D01*
X132637380Y-143464285D01*
X132561190Y-143426190D01*
X132485000Y-143350000D01*
X132446904Y-143235714D01*
X132446904Y-143159523D01*
X132485000Y-143045238D01*
X132523095Y-143007142D01*
X132713571Y-142321428D02*
X133246904Y-142321428D01*
X132713571Y-142664285D02*
X133132619Y-142664285D01*
X133208809Y-142626190D01*
X133246904Y-142550000D01*
X133246904Y-142435714D01*
X133208809Y-142359523D01*
X133170714Y-142321428D01*
X132713571Y-142054761D02*
X132713571Y-141750000D01*
X132446904Y-141940476D02*
X133132619Y-141940476D01*
X133208809Y-141902380D01*
X133246904Y-141826190D01*
X133246904Y-141750000D01*
X133246904Y-141369047D02*
X133208809Y-141445238D01*
X133170714Y-141483333D01*
X133094523Y-141521428D01*
X132865952Y-141521428D01*
X132789761Y-141483333D01*
X132751666Y-141445238D01*
X132713571Y-141369047D01*
X132713571Y-141254761D01*
X132751666Y-141178571D01*
X132789761Y-141140476D01*
X132865952Y-141102380D01*
X133094523Y-141102380D01*
X133170714Y-141140476D01*
X133208809Y-141178571D01*
X133246904Y-141254761D01*
X133246904Y-141369047D01*
X132713571Y-140873809D02*
X132713571Y-140569047D01*
X133246904Y-140759523D02*
X132561190Y-140759523D01*
X132485000Y-140721428D01*
X132446904Y-140645238D01*
X132446904Y-140569047D01*
X132713571Y-140416666D02*
X132713571Y-140111904D01*
X133246904Y-140302380D02*
X132561190Y-140302380D01*
X132485000Y-140264285D01*
X132446904Y-140188095D01*
X132446904Y-140111904D01*
X132942142Y-139845238D02*
X132942142Y-139235714D01*
X133246904Y-139540476D02*
X132637380Y-139540476D01*
X133170714Y-127757142D02*
X133208809Y-127795238D01*
X133246904Y-127909523D01*
X133246904Y-127985714D01*
X133208809Y-128100000D01*
X133132619Y-128176190D01*
X133056428Y-128214285D01*
X132904047Y-128252380D01*
X132789761Y-128252380D01*
X132637380Y-128214285D01*
X132561190Y-128176190D01*
X132485000Y-128100000D01*
X132446904Y-127985714D01*
X132446904Y-127909523D01*
X132485000Y-127795238D01*
X132523095Y-127757142D01*
X132713571Y-127071428D02*
X133246904Y-127071428D01*
X132713571Y-127414285D02*
X133132619Y-127414285D01*
X133208809Y-127376190D01*
X133246904Y-127300000D01*
X133246904Y-127185714D01*
X133208809Y-127109523D01*
X133170714Y-127071428D01*
X132713571Y-126804761D02*
X132713571Y-126500000D01*
X132446904Y-126690476D02*
X133132619Y-126690476D01*
X133208809Y-126652380D01*
X133246904Y-126576190D01*
X133246904Y-126500000D01*
X133246904Y-126119047D02*
X133208809Y-126195238D01*
X133170714Y-126233333D01*
X133094523Y-126271428D01*
X132865952Y-126271428D01*
X132789761Y-126233333D01*
X132751666Y-126195238D01*
X132713571Y-126119047D01*
X132713571Y-126004761D01*
X132751666Y-125928571D01*
X132789761Y-125890476D01*
X132865952Y-125852380D01*
X133094523Y-125852380D01*
X133170714Y-125890476D01*
X133208809Y-125928571D01*
X133246904Y-126004761D01*
X133246904Y-126119047D01*
X132713571Y-125623809D02*
X132713571Y-125319047D01*
X133246904Y-125509523D02*
X132561190Y-125509523D01*
X132485000Y-125471428D01*
X132446904Y-125395238D01*
X132446904Y-125319047D01*
X132713571Y-125166666D02*
X132713571Y-124861904D01*
X133246904Y-125052380D02*
X132561190Y-125052380D01*
X132485000Y-125014285D01*
X132446904Y-124938095D01*
X132446904Y-124861904D01*
X132942142Y-124595238D02*
X132942142Y-123985714D01*
X133246904Y-124290476D02*
X132637380Y-124290476D01*
X146920714Y-128007142D02*
X146958809Y-128045238D01*
X146996904Y-128159523D01*
X146996904Y-128235714D01*
X146958809Y-128350000D01*
X146882619Y-128426190D01*
X146806428Y-128464285D01*
X146654047Y-128502380D01*
X146539761Y-128502380D01*
X146387380Y-128464285D01*
X146311190Y-128426190D01*
X146235000Y-128350000D01*
X146196904Y-128235714D01*
X146196904Y-128159523D01*
X146235000Y-128045238D01*
X146273095Y-128007142D01*
X146463571Y-127321428D02*
X146996904Y-127321428D01*
X146463571Y-127664285D02*
X146882619Y-127664285D01*
X146958809Y-127626190D01*
X146996904Y-127550000D01*
X146996904Y-127435714D01*
X146958809Y-127359523D01*
X146920714Y-127321428D01*
X146463571Y-127054761D02*
X146463571Y-126750000D01*
X146196904Y-126940476D02*
X146882619Y-126940476D01*
X146958809Y-126902380D01*
X146996904Y-126826190D01*
X146996904Y-126750000D01*
X146996904Y-126369047D02*
X146958809Y-126445238D01*
X146920714Y-126483333D01*
X146844523Y-126521428D01*
X146615952Y-126521428D01*
X146539761Y-126483333D01*
X146501666Y-126445238D01*
X146463571Y-126369047D01*
X146463571Y-126254761D01*
X146501666Y-126178571D01*
X146539761Y-126140476D01*
X146615952Y-126102380D01*
X146844523Y-126102380D01*
X146920714Y-126140476D01*
X146958809Y-126178571D01*
X146996904Y-126254761D01*
X146996904Y-126369047D01*
X146463571Y-125873809D02*
X146463571Y-125569047D01*
X146996904Y-125759523D02*
X146311190Y-125759523D01*
X146235000Y-125721428D01*
X146196904Y-125645238D01*
X146196904Y-125569047D01*
X146463571Y-125416666D02*
X146463571Y-125111904D01*
X146996904Y-125302380D02*
X146311190Y-125302380D01*
X146235000Y-125264285D01*
X146196904Y-125188095D01*
X146196904Y-125111904D01*
X146692142Y-124845238D02*
X146692142Y-124235714D01*
X146996904Y-124540476D02*
X146387380Y-124540476D01*
X160071904Y-144764285D02*
X159690952Y-145030952D01*
X160071904Y-145221428D02*
X159271904Y-145221428D01*
X159271904Y-144916666D01*
X159310000Y-144840476D01*
X159348095Y-144802380D01*
X159424285Y-144764285D01*
X159538571Y-144764285D01*
X159614761Y-144802380D01*
X159652857Y-144840476D01*
X159690952Y-144916666D01*
X159690952Y-145221428D01*
X159995714Y-143964285D02*
X160033809Y-144002380D01*
X160071904Y-144116666D01*
X160071904Y-144192857D01*
X160033809Y-144307142D01*
X159957619Y-144383333D01*
X159881428Y-144421428D01*
X159729047Y-144459523D01*
X159614761Y-144459523D01*
X159462380Y-144421428D01*
X159386190Y-144383333D01*
X159310000Y-144307142D01*
X159271904Y-144192857D01*
X159271904Y-144116666D01*
X159310000Y-144002380D01*
X159348095Y-143964285D01*
X159271904Y-143126190D02*
X159271904Y-142669047D01*
X160071904Y-142897619D02*
X159271904Y-142897619D01*
X160071904Y-141945238D02*
X159690952Y-142211904D01*
X160071904Y-142402380D02*
X159271904Y-142402380D01*
X159271904Y-142097619D01*
X159310000Y-142021428D01*
X159348095Y-141983333D01*
X159424285Y-141945238D01*
X159538571Y-141945238D01*
X159614761Y-141983333D01*
X159652857Y-142021428D01*
X159690952Y-142097619D01*
X159690952Y-142402380D01*
X160071904Y-141602380D02*
X159271904Y-141602380D01*
X159310000Y-140802380D02*
X159271904Y-140878571D01*
X159271904Y-140992857D01*
X159310000Y-141107142D01*
X159386190Y-141183333D01*
X159462380Y-141221428D01*
X159614761Y-141259523D01*
X159729047Y-141259523D01*
X159881428Y-141221428D01*
X159957619Y-141183333D01*
X160033809Y-141107142D01*
X160071904Y-140992857D01*
X160071904Y-140916666D01*
X160033809Y-140802380D01*
X159995714Y-140764285D01*
X159729047Y-140764285D01*
X159729047Y-140916666D01*
X159310000Y-140002380D02*
X159271904Y-140078571D01*
X159271904Y-140192857D01*
X159310000Y-140307142D01*
X159386190Y-140383333D01*
X159462380Y-140421428D01*
X159614761Y-140459523D01*
X159729047Y-140459523D01*
X159881428Y-140421428D01*
X159957619Y-140383333D01*
X160033809Y-140307142D01*
X160071904Y-140192857D01*
X160071904Y-140116666D01*
X160033809Y-140002380D01*
X159995714Y-139964285D01*
X159729047Y-139964285D01*
X159729047Y-140116666D01*
X159652857Y-139621428D02*
X159652857Y-139354761D01*
X160071904Y-139240476D02*
X160071904Y-139621428D01*
X159271904Y-139621428D01*
X159271904Y-139240476D01*
X160071904Y-138440476D02*
X159690952Y-138707142D01*
X160071904Y-138897619D02*
X159271904Y-138897619D01*
X159271904Y-138592857D01*
X159310000Y-138516666D01*
X159348095Y-138478571D01*
X159424285Y-138440476D01*
X159538571Y-138440476D01*
X159614761Y-138478571D01*
X159652857Y-138516666D01*
X159690952Y-138592857D01*
X159690952Y-138897619D01*
X161745714Y-143007142D02*
X161783809Y-143045238D01*
X161821904Y-143159523D01*
X161821904Y-143235714D01*
X161783809Y-143350000D01*
X161707619Y-143426190D01*
X161631428Y-143464285D01*
X161479047Y-143502380D01*
X161364761Y-143502380D01*
X161212380Y-143464285D01*
X161136190Y-143426190D01*
X161060000Y-143350000D01*
X161021904Y-143235714D01*
X161021904Y-143159523D01*
X161060000Y-143045238D01*
X161098095Y-143007142D01*
X161288571Y-142321428D02*
X161821904Y-142321428D01*
X161288571Y-142664285D02*
X161707619Y-142664285D01*
X161783809Y-142626190D01*
X161821904Y-142550000D01*
X161821904Y-142435714D01*
X161783809Y-142359523D01*
X161745714Y-142321428D01*
X161288571Y-142054761D02*
X161288571Y-141750000D01*
X161021904Y-141940476D02*
X161707619Y-141940476D01*
X161783809Y-141902380D01*
X161821904Y-141826190D01*
X161821904Y-141750000D01*
X161821904Y-141369047D02*
X161783809Y-141445238D01*
X161745714Y-141483333D01*
X161669523Y-141521428D01*
X161440952Y-141521428D01*
X161364761Y-141483333D01*
X161326666Y-141445238D01*
X161288571Y-141369047D01*
X161288571Y-141254761D01*
X161326666Y-141178571D01*
X161364761Y-141140476D01*
X161440952Y-141102380D01*
X161669523Y-141102380D01*
X161745714Y-141140476D01*
X161783809Y-141178571D01*
X161821904Y-141254761D01*
X161821904Y-141369047D01*
X161288571Y-140873809D02*
X161288571Y-140569047D01*
X161821904Y-140759523D02*
X161136190Y-140759523D01*
X161060000Y-140721428D01*
X161021904Y-140645238D01*
X161021904Y-140569047D01*
X161288571Y-140416666D02*
X161288571Y-140111904D01*
X161821904Y-140302380D02*
X161136190Y-140302380D01*
X161060000Y-140264285D01*
X161021904Y-140188095D01*
X161021904Y-140111904D01*
X161517142Y-139845238D02*
X161517142Y-139235714D01*
X161821904Y-139540476D02*
X161212380Y-139540476D01*
X146920714Y-143007142D02*
X146958809Y-143045238D01*
X146996904Y-143159523D01*
X146996904Y-143235714D01*
X146958809Y-143350000D01*
X146882619Y-143426190D01*
X146806428Y-143464285D01*
X146654047Y-143502380D01*
X146539761Y-143502380D01*
X146387380Y-143464285D01*
X146311190Y-143426190D01*
X146235000Y-143350000D01*
X146196904Y-143235714D01*
X146196904Y-143159523D01*
X146235000Y-143045238D01*
X146273095Y-143007142D01*
X146463571Y-142321428D02*
X146996904Y-142321428D01*
X146463571Y-142664285D02*
X146882619Y-142664285D01*
X146958809Y-142626190D01*
X146996904Y-142550000D01*
X146996904Y-142435714D01*
X146958809Y-142359523D01*
X146920714Y-142321428D01*
X146463571Y-142054761D02*
X146463571Y-141750000D01*
X146196904Y-141940476D02*
X146882619Y-141940476D01*
X146958809Y-141902380D01*
X146996904Y-141826190D01*
X146996904Y-141750000D01*
X146996904Y-141369047D02*
X146958809Y-141445238D01*
X146920714Y-141483333D01*
X146844523Y-141521428D01*
X146615952Y-141521428D01*
X146539761Y-141483333D01*
X146501666Y-141445238D01*
X146463571Y-141369047D01*
X146463571Y-141254761D01*
X146501666Y-141178571D01*
X146539761Y-141140476D01*
X146615952Y-141102380D01*
X146844523Y-141102380D01*
X146920714Y-141140476D01*
X146958809Y-141178571D01*
X146996904Y-141254761D01*
X146996904Y-141369047D01*
X146463571Y-140873809D02*
X146463571Y-140569047D01*
X146996904Y-140759523D02*
X146311190Y-140759523D01*
X146235000Y-140721428D01*
X146196904Y-140645238D01*
X146196904Y-140569047D01*
X146463571Y-140416666D02*
X146463571Y-140111904D01*
X146996904Y-140302380D02*
X146311190Y-140302380D01*
X146235000Y-140264285D01*
X146196904Y-140188095D01*
X146196904Y-140111904D01*
X146692142Y-139845238D02*
X146692142Y-139235714D01*
X146996904Y-139540476D02*
X146387380Y-139540476D01*
X131077857Y-130621428D02*
X131115952Y-130507142D01*
X131154047Y-130469047D01*
X131230238Y-130430952D01*
X131344523Y-130430952D01*
X131420714Y-130469047D01*
X131458809Y-130507142D01*
X131496904Y-130583333D01*
X131496904Y-130888095D01*
X130696904Y-130888095D01*
X130696904Y-130621428D01*
X130735000Y-130545238D01*
X130773095Y-130507142D01*
X130849285Y-130469047D01*
X130925476Y-130469047D01*
X131001666Y-130507142D01*
X131039761Y-130545238D01*
X131077857Y-130621428D01*
X131077857Y-130888095D01*
X131496904Y-129630952D02*
X131115952Y-129897619D01*
X131496904Y-130088095D02*
X130696904Y-130088095D01*
X130696904Y-129783333D01*
X130735000Y-129707142D01*
X130773095Y-129669047D01*
X130849285Y-129630952D01*
X130963571Y-129630952D01*
X131039761Y-129669047D01*
X131077857Y-129707142D01*
X131115952Y-129783333D01*
X131115952Y-130088095D01*
X131268333Y-129326190D02*
X131268333Y-128945238D01*
X131496904Y-129402380D02*
X130696904Y-129135714D01*
X131496904Y-128869047D01*
X131496904Y-128602380D02*
X130696904Y-128602380D01*
X131496904Y-128145238D02*
X131039761Y-128488095D01*
X130696904Y-128145238D02*
X131154047Y-128602380D01*
X131077857Y-127802380D02*
X131077857Y-127535714D01*
X131496904Y-127421428D02*
X131496904Y-127802380D01*
X130696904Y-127802380D01*
X130696904Y-127421428D01*
X131458809Y-126507142D02*
X131496904Y-126392857D01*
X131496904Y-126202380D01*
X131458809Y-126126190D01*
X131420714Y-126088095D01*
X131344523Y-126050000D01*
X131268333Y-126050000D01*
X131192142Y-126088095D01*
X131154047Y-126126190D01*
X131115952Y-126202380D01*
X131077857Y-126354761D01*
X131039761Y-126430952D01*
X131001666Y-126469047D01*
X130925476Y-126507142D01*
X130849285Y-126507142D01*
X130773095Y-126469047D01*
X130735000Y-126430952D01*
X130696904Y-126354761D01*
X130696904Y-126164285D01*
X130735000Y-126050000D01*
X131496904Y-125707142D02*
X130696904Y-125707142D01*
X130735000Y-124907142D02*
X130696904Y-124983333D01*
X130696904Y-125097619D01*
X130735000Y-125211904D01*
X130811190Y-125288095D01*
X130887380Y-125326190D01*
X131039761Y-125364285D01*
X131154047Y-125364285D01*
X131306428Y-125326190D01*
X131382619Y-125288095D01*
X131458809Y-125211904D01*
X131496904Y-125097619D01*
X131496904Y-125021428D01*
X131458809Y-124907142D01*
X131420714Y-124869047D01*
X131154047Y-124869047D01*
X131154047Y-125021428D01*
X131496904Y-123535714D02*
X131496904Y-123916666D01*
X130696904Y-123916666D01*
X130696904Y-123116666D02*
X130696904Y-122964285D01*
X130735000Y-122888095D01*
X130811190Y-122811904D01*
X130963571Y-122773809D01*
X131230238Y-122773809D01*
X131382619Y-122811904D01*
X131458809Y-122888095D01*
X131496904Y-122964285D01*
X131496904Y-123116666D01*
X131458809Y-123192857D01*
X131382619Y-123269047D01*
X131230238Y-123307142D01*
X130963571Y-123307142D01*
X130811190Y-123269047D01*
X130735000Y-123192857D01*
X130696904Y-123116666D01*
D12*
X125099999Y-166142857D02*
X125314285Y-166214285D01*
X125385714Y-166285714D01*
X125457142Y-166428571D01*
X125457142Y-166642857D01*
X125385714Y-166785714D01*
X125314285Y-166857142D01*
X125171428Y-166928571D01*
X124599999Y-166928571D01*
X124599999Y-165428571D01*
X125099999Y-165428571D01*
X125242857Y-165500000D01*
X125314285Y-165571428D01*
X125385714Y-165714285D01*
X125385714Y-165857142D01*
X125314285Y-166000000D01*
X125242857Y-166071428D01*
X125099999Y-166142857D01*
X124599999Y-166142857D01*
X126028571Y-166857142D02*
X126242857Y-166928571D01*
X126599999Y-166928571D01*
X126742857Y-166857142D01*
X126814285Y-166785714D01*
X126885714Y-166642857D01*
X126885714Y-166500000D01*
X126814285Y-166357142D01*
X126742857Y-166285714D01*
X126599999Y-166214285D01*
X126314285Y-166142857D01*
X126171428Y-166071428D01*
X126099999Y-166000000D01*
X126028571Y-165857142D01*
X126028571Y-165714285D01*
X126099999Y-165571428D01*
X126171428Y-165500000D01*
X126314285Y-165428571D01*
X126671428Y-165428571D01*
X126885714Y-165500000D01*
X127528571Y-166928571D02*
X127528571Y-165428571D01*
X128099999Y-165428571D01*
X128242857Y-165500000D01*
X128314285Y-165571428D01*
X128385714Y-165714285D01*
X128385714Y-165928571D01*
X128314285Y-166071428D01*
X128242857Y-166142857D01*
X128099999Y-166214285D01*
X127528571Y-166214285D01*
X129028571Y-166928571D02*
X129028571Y-165428571D01*
X129385714Y-165428571D01*
X129599999Y-165500000D01*
X129742857Y-165642857D01*
X129814285Y-165785714D01*
X129885714Y-166071428D01*
X129885714Y-166285714D01*
X129814285Y-166571428D01*
X129742857Y-166714285D01*
X129599999Y-166857142D01*
X129385714Y-166928571D01*
X129028571Y-166928571D01*
X132314285Y-166928571D02*
X132314285Y-166142857D01*
X132242857Y-166000000D01*
X132099999Y-165928571D01*
X131814285Y-165928571D01*
X131671428Y-166000000D01*
X132314285Y-166857142D02*
X132171428Y-166928571D01*
X131814285Y-166928571D01*
X131671428Y-166857142D01*
X131599999Y-166714285D01*
X131599999Y-166571428D01*
X131671428Y-166428571D01*
X131814285Y-166357142D01*
X132171428Y-166357142D01*
X132314285Y-166285714D01*
X133028571Y-165928571D02*
X133028571Y-166928571D01*
X133028571Y-166071428D02*
X133099999Y-166000000D01*
X133242857Y-165928571D01*
X133457142Y-165928571D01*
X133599999Y-166000000D01*
X133671428Y-166142857D01*
X133671428Y-166928571D01*
X135028571Y-166928571D02*
X135028571Y-165428571D01*
X135028571Y-166857142D02*
X134885714Y-166928571D01*
X134600000Y-166928571D01*
X134457142Y-166857142D01*
X134385714Y-166785714D01*
X134314285Y-166642857D01*
X134314285Y-166214285D01*
X134385714Y-166071428D01*
X134457142Y-166000000D01*
X134600000Y-165928571D01*
X134885714Y-165928571D01*
X135028571Y-166000000D01*
X137385714Y-166142857D02*
X137600000Y-166214285D01*
X137671428Y-166285714D01*
X137742857Y-166428571D01*
X137742857Y-166642857D01*
X137671428Y-166785714D01*
X137600000Y-166857142D01*
X137457142Y-166928571D01*
X136885714Y-166928571D01*
X136885714Y-165428571D01*
X137385714Y-165428571D01*
X137528571Y-165500000D01*
X137600000Y-165571428D01*
X137671428Y-165714285D01*
X137671428Y-165857142D01*
X137600000Y-166000000D01*
X137528571Y-166071428D01*
X137385714Y-166142857D01*
X136885714Y-166142857D01*
X138385714Y-166928571D02*
X138385714Y-165928571D01*
X138385714Y-166214285D02*
X138457142Y-166071428D01*
X138528571Y-166000000D01*
X138671428Y-165928571D01*
X138814285Y-165928571D01*
X139957142Y-166928571D02*
X139957142Y-166142857D01*
X139885714Y-166000000D01*
X139742857Y-165928571D01*
X139457142Y-165928571D01*
X139314285Y-166000000D01*
X139957142Y-166857142D02*
X139814285Y-166928571D01*
X139457142Y-166928571D01*
X139314285Y-166857142D01*
X139242857Y-166714285D01*
X139242857Y-166571428D01*
X139314285Y-166428571D01*
X139457142Y-166357142D01*
X139814285Y-166357142D01*
X139957142Y-166285714D01*
X140671428Y-166928571D02*
X140671428Y-165428571D01*
X140814285Y-166357142D02*
X141242857Y-166928571D01*
X141242857Y-165928571D02*
X140671428Y-166500000D01*
X142457142Y-166857142D02*
X142314285Y-166928571D01*
X142028571Y-166928571D01*
X141885714Y-166857142D01*
X141814285Y-166714285D01*
X141814285Y-166142857D01*
X141885714Y-166000000D01*
X142028571Y-165928571D01*
X142314285Y-165928571D01*
X142457142Y-166000000D01*
X142528571Y-166142857D01*
X142528571Y-166285714D01*
X141814285Y-166428571D01*
X145028571Y-166928571D02*
X144314285Y-166928571D01*
X144314285Y-165428571D01*
X145528571Y-166928571D02*
X145528571Y-165928571D01*
X145528571Y-165428571D02*
X145457142Y-165500000D01*
X145528571Y-165571428D01*
X145600000Y-165500000D01*
X145528571Y-165428571D01*
X145528571Y-165571428D01*
X146885714Y-165928571D02*
X146885714Y-167142857D01*
X146814285Y-167285714D01*
X146742857Y-167357142D01*
X146600000Y-167428571D01*
X146385714Y-167428571D01*
X146242857Y-167357142D01*
X146885714Y-166857142D02*
X146742857Y-166928571D01*
X146457142Y-166928571D01*
X146314285Y-166857142D01*
X146242857Y-166785714D01*
X146171428Y-166642857D01*
X146171428Y-166214285D01*
X146242857Y-166071428D01*
X146314285Y-166000000D01*
X146457142Y-165928571D01*
X146742857Y-165928571D01*
X146885714Y-166000000D01*
X147600000Y-166928571D02*
X147600000Y-165428571D01*
X148242857Y-166928571D02*
X148242857Y-166142857D01*
X148171428Y-166000000D01*
X148028571Y-165928571D01*
X147814285Y-165928571D01*
X147671428Y-166000000D01*
X147600000Y-166071428D01*
X148742857Y-165928571D02*
X149314285Y-165928571D01*
X148957142Y-165428571D02*
X148957142Y-166714285D01*
X149028571Y-166857142D01*
X149171428Y-166928571D01*
X149314285Y-166928571D01*
X150957142Y-166928571D02*
X150957142Y-165428571D01*
X151528571Y-165428571D01*
X151671428Y-165500000D01*
X151742857Y-165571428D01*
X151814285Y-165714285D01*
X151814285Y-165928571D01*
X151742857Y-166071428D01*
X151671428Y-166142857D01*
X151528571Y-166214285D01*
X150957142Y-166214285D01*
X153314285Y-166785714D02*
X153242857Y-166857142D01*
X153028571Y-166928571D01*
X152885714Y-166928571D01*
X152671428Y-166857142D01*
X152528571Y-166714285D01*
X152457142Y-166571428D01*
X152385714Y-166285714D01*
X152385714Y-166071428D01*
X152457142Y-165785714D01*
X152528571Y-165642857D01*
X152671428Y-165500000D01*
X152885714Y-165428571D01*
X153028571Y-165428571D01*
X153242857Y-165500000D01*
X153314285Y-165571428D01*
X154457142Y-166142857D02*
X154671428Y-166214285D01*
X154742857Y-166285714D01*
X154814285Y-166428571D01*
X154814285Y-166642857D01*
X154742857Y-166785714D01*
X154671428Y-166857142D01*
X154528571Y-166928571D01*
X153957142Y-166928571D01*
X153957142Y-165428571D01*
X154457142Y-165428571D01*
X154600000Y-165500000D01*
X154671428Y-165571428D01*
X154742857Y-165714285D01*
X154742857Y-165857142D01*
X154671428Y-166000000D01*
X154600000Y-166071428D01*
X154457142Y-166142857D01*
X153957142Y-166142857D01*
X156385714Y-165428571D02*
X156885714Y-166928571D01*
X157385714Y-165428571D01*
X157814285Y-165571428D02*
X157885714Y-165500000D01*
X158028571Y-165428571D01*
X158385714Y-165428571D01*
X158528571Y-165500000D01*
X158600000Y-165571428D01*
X158671428Y-165714285D01*
X158671428Y-165857142D01*
X158600000Y-166071428D01*
X157742857Y-166928571D01*
X158671428Y-166928571D01*
X159314285Y-166785714D02*
X159385714Y-166857142D01*
X159314285Y-166928571D01*
X159242857Y-166857142D01*
X159314285Y-166785714D01*
X159314285Y-166928571D01*
X160814285Y-166928571D02*
X159957142Y-166928571D01*
X160385714Y-166928571D02*
X160385714Y-165428571D01*
X160242857Y-165642857D01*
X160100000Y-165785714D01*
X159957142Y-165857142D01*
X162528571Y-165571428D02*
X162600000Y-165500000D01*
X162742857Y-165428571D01*
X163100000Y-165428571D01*
X163242857Y-165500000D01*
X163314285Y-165571428D01*
X163385714Y-165714285D01*
X163385714Y-165857142D01*
X163314285Y-166071428D01*
X162457142Y-166928571D01*
X163385714Y-166928571D01*
X164314285Y-165428571D02*
X164457142Y-165428571D01*
X164599999Y-165500000D01*
X164671428Y-165571428D01*
X164742857Y-165714285D01*
X164814285Y-166000000D01*
X164814285Y-166357142D01*
X164742857Y-166642857D01*
X164671428Y-166785714D01*
X164599999Y-166857142D01*
X164457142Y-166928571D01*
X164314285Y-166928571D01*
X164171428Y-166857142D01*
X164099999Y-166785714D01*
X164028571Y-166642857D01*
X163957142Y-166357142D01*
X163957142Y-166000000D01*
X164028571Y-165714285D01*
X164099999Y-165571428D01*
X164171428Y-165500000D01*
X164314285Y-165428571D01*
X165385714Y-165571428D02*
X165457142Y-165500000D01*
X165599999Y-165428571D01*
X165957142Y-165428571D01*
X166099999Y-165500000D01*
X166171428Y-165571428D01*
X166242857Y-165714285D01*
X166242857Y-165857142D01*
X166171428Y-166071428D01*
X165314285Y-166928571D01*
X166242857Y-166928571D01*
X166814285Y-165571428D02*
X166885714Y-165500000D01*
X167028571Y-165428571D01*
X167385714Y-165428571D01*
X167528571Y-165500000D01*
X167599999Y-165571428D01*
X167671428Y-165714285D01*
X167671428Y-165857142D01*
X167599999Y-166071428D01*
X166742857Y-166928571D01*
X167671428Y-166928571D01*
D11*
X131496904Y-145771428D02*
X130696904Y-145771428D01*
X130696904Y-145466666D01*
X130735000Y-145390476D01*
X130773095Y-145352380D01*
X130849285Y-145314285D01*
X130963571Y-145314285D01*
X131039761Y-145352380D01*
X131077857Y-145390476D01*
X131115952Y-145466666D01*
X131115952Y-145771428D01*
X130696904Y-144819047D02*
X130696904Y-144666666D01*
X130735000Y-144590476D01*
X130811190Y-144514285D01*
X130963571Y-144476190D01*
X131230238Y-144476190D01*
X131382619Y-144514285D01*
X131458809Y-144590476D01*
X131496904Y-144666666D01*
X131496904Y-144819047D01*
X131458809Y-144895238D01*
X131382619Y-144971428D01*
X131230238Y-145009523D01*
X130963571Y-145009523D01*
X130811190Y-144971428D01*
X130735000Y-144895238D01*
X130696904Y-144819047D01*
X130696904Y-144209523D02*
X131496904Y-144019047D01*
X130925476Y-143866666D01*
X131496904Y-143714285D01*
X130696904Y-143523809D01*
X131077857Y-143219047D02*
X131077857Y-142952380D01*
X131496904Y-142838095D02*
X131496904Y-143219047D01*
X130696904Y-143219047D01*
X130696904Y-142838095D01*
X131496904Y-142038095D02*
X131115952Y-142304761D01*
X131496904Y-142495238D02*
X130696904Y-142495238D01*
X130696904Y-142190476D01*
X130735000Y-142114285D01*
X130773095Y-142076190D01*
X130849285Y-142038095D01*
X130963571Y-142038095D01*
X131039761Y-142076190D01*
X131077857Y-142114285D01*
X131115952Y-142190476D01*
X131115952Y-142495238D01*
X131458809Y-141123809D02*
X131496904Y-141009523D01*
X131496904Y-140819047D01*
X131458809Y-140742857D01*
X131420714Y-140704761D01*
X131344523Y-140666666D01*
X131268333Y-140666666D01*
X131192142Y-140704761D01*
X131154047Y-140742857D01*
X131115952Y-140819047D01*
X131077857Y-140971428D01*
X131039761Y-141047619D01*
X131001666Y-141085714D01*
X130925476Y-141123809D01*
X130849285Y-141123809D01*
X130773095Y-141085714D01*
X130735000Y-141047619D01*
X130696904Y-140971428D01*
X130696904Y-140780952D01*
X130735000Y-140666666D01*
X131496904Y-140323809D02*
X130696904Y-140323809D01*
X130735000Y-139523809D02*
X130696904Y-139600000D01*
X130696904Y-139714285D01*
X130735000Y-139828571D01*
X130811190Y-139904761D01*
X130887380Y-139942857D01*
X131039761Y-139980952D01*
X131154047Y-139980952D01*
X131306428Y-139942857D01*
X131382619Y-139904761D01*
X131458809Y-139828571D01*
X131496904Y-139714285D01*
X131496904Y-139638095D01*
X131458809Y-139523809D01*
X131420714Y-139485714D01*
X131154047Y-139485714D01*
X131154047Y-139638095D01*
X131496904Y-138152380D02*
X131496904Y-138533333D01*
X130696904Y-138533333D01*
X130696904Y-137733333D02*
X130696904Y-137580952D01*
X130735000Y-137504761D01*
X130811190Y-137428571D01*
X130963571Y-137390476D01*
X131230238Y-137390476D01*
X131382619Y-137428571D01*
X131458809Y-137504761D01*
X131496904Y-137580952D01*
X131496904Y-137733333D01*
X131458809Y-137809523D01*
X131382619Y-137885714D01*
X131230238Y-137923809D01*
X130963571Y-137923809D01*
X130811190Y-137885714D01*
X130735000Y-137809523D01*
X130696904Y-137733333D01*
X122205714Y-20952380D02*
X121634285Y-20952380D01*
X121920000Y-20952380D02*
X121920000Y-19952380D01*
X121824761Y-20095238D01*
X121729523Y-20190476D01*
X121634285Y-20238095D01*
X145246904Y-145790476D02*
X144446904Y-145790476D01*
X144446904Y-145485714D01*
X144485000Y-145409523D01*
X144523095Y-145371428D01*
X144599285Y-145333333D01*
X144713571Y-145333333D01*
X144789761Y-145371428D01*
X144827857Y-145409523D01*
X144865952Y-145485714D01*
X144865952Y-145790476D01*
X144446904Y-144838095D02*
X144446904Y-144685714D01*
X144485000Y-144609523D01*
X144561190Y-144533333D01*
X144713571Y-144495238D01*
X144980238Y-144495238D01*
X145132619Y-144533333D01*
X145208809Y-144609523D01*
X145246904Y-144685714D01*
X145246904Y-144838095D01*
X145208809Y-144914285D01*
X145132619Y-144990476D01*
X144980238Y-145028571D01*
X144713571Y-145028571D01*
X144561190Y-144990476D01*
X144485000Y-144914285D01*
X144446904Y-144838095D01*
X144446904Y-144228571D02*
X145246904Y-144038095D01*
X144675476Y-143885714D01*
X145246904Y-143733333D01*
X144446904Y-143542857D01*
X144827857Y-143238095D02*
X144827857Y-142971428D01*
X145246904Y-142857142D02*
X145246904Y-143238095D01*
X144446904Y-143238095D01*
X144446904Y-142857142D01*
X145246904Y-142057142D02*
X144865952Y-142323809D01*
X145246904Y-142514285D02*
X144446904Y-142514285D01*
X144446904Y-142209523D01*
X144485000Y-142133333D01*
X144523095Y-142095238D01*
X144599285Y-142057142D01*
X144713571Y-142057142D01*
X144789761Y-142095238D01*
X144827857Y-142133333D01*
X144865952Y-142209523D01*
X144865952Y-142514285D01*
X144713571Y-141104761D02*
X144942142Y-140495238D01*
X145170714Y-141104761D01*
X144446904Y-139123809D02*
X144446904Y-139504761D01*
X144827857Y-139542857D01*
X144789761Y-139504761D01*
X144751666Y-139428571D01*
X144751666Y-139238095D01*
X144789761Y-139161904D01*
X144827857Y-139123809D01*
X144904047Y-139085714D01*
X145094523Y-139085714D01*
X145170714Y-139123809D01*
X145208809Y-139161904D01*
X145246904Y-139238095D01*
X145246904Y-139428571D01*
X145208809Y-139504761D01*
X145170714Y-139542857D01*
X145246904Y-138742857D02*
X144446904Y-138742857D01*
X145246904Y-138285714D02*
X144789761Y-138628571D01*
X144446904Y-138285714D02*
X144904047Y-138742857D01*
X144446904Y-138019047D02*
X145246904Y-137828571D01*
X144675476Y-137676190D01*
X145246904Y-137523809D01*
X144446904Y-137333333D01*
X133170714Y-157007142D02*
X133208809Y-157045238D01*
X133246904Y-157159523D01*
X133246904Y-157235714D01*
X133208809Y-157350000D01*
X133132619Y-157426190D01*
X133056428Y-157464285D01*
X132904047Y-157502380D01*
X132789761Y-157502380D01*
X132637380Y-157464285D01*
X132561190Y-157426190D01*
X132485000Y-157350000D01*
X132446904Y-157235714D01*
X132446904Y-157159523D01*
X132485000Y-157045238D01*
X132523095Y-157007142D01*
X132713571Y-156321428D02*
X133246904Y-156321428D01*
X132713571Y-156664285D02*
X133132619Y-156664285D01*
X133208809Y-156626190D01*
X133246904Y-156550000D01*
X133246904Y-156435714D01*
X133208809Y-156359523D01*
X133170714Y-156321428D01*
X132713571Y-156054761D02*
X132713571Y-155750000D01*
X132446904Y-155940476D02*
X133132619Y-155940476D01*
X133208809Y-155902380D01*
X133246904Y-155826190D01*
X133246904Y-155750000D01*
X133246904Y-155369047D02*
X133208809Y-155445238D01*
X133170714Y-155483333D01*
X133094523Y-155521428D01*
X132865952Y-155521428D01*
X132789761Y-155483333D01*
X132751666Y-155445238D01*
X132713571Y-155369047D01*
X132713571Y-155254761D01*
X132751666Y-155178571D01*
X132789761Y-155140476D01*
X132865952Y-155102380D01*
X133094523Y-155102380D01*
X133170714Y-155140476D01*
X133208809Y-155178571D01*
X133246904Y-155254761D01*
X133246904Y-155369047D01*
X132713571Y-154873809D02*
X132713571Y-154569047D01*
X133246904Y-154759523D02*
X132561190Y-154759523D01*
X132485000Y-154721428D01*
X132446904Y-154645238D01*
X132446904Y-154569047D01*
X132713571Y-154416666D02*
X132713571Y-154111904D01*
X133246904Y-154302380D02*
X132561190Y-154302380D01*
X132485000Y-154264285D01*
X132446904Y-154188095D01*
X132446904Y-154111904D01*
X132942142Y-153845238D02*
X132942142Y-153235714D01*
X133246904Y-153540476D02*
X132637380Y-153540476D01*
X131077857Y-159238095D02*
X131115952Y-159123809D01*
X131154047Y-159085714D01*
X131230238Y-159047619D01*
X131344523Y-159047619D01*
X131420714Y-159085714D01*
X131458809Y-159123809D01*
X131496904Y-159200000D01*
X131496904Y-159504761D01*
X130696904Y-159504761D01*
X130696904Y-159238095D01*
X130735000Y-159161904D01*
X130773095Y-159123809D01*
X130849285Y-159085714D01*
X130925476Y-159085714D01*
X131001666Y-159123809D01*
X131039761Y-159161904D01*
X131077857Y-159238095D01*
X131077857Y-159504761D01*
X131496904Y-158247619D02*
X131115952Y-158514285D01*
X131496904Y-158704761D02*
X130696904Y-158704761D01*
X130696904Y-158400000D01*
X130735000Y-158323809D01*
X130773095Y-158285714D01*
X130849285Y-158247619D01*
X130963571Y-158247619D01*
X131039761Y-158285714D01*
X131077857Y-158323809D01*
X131115952Y-158400000D01*
X131115952Y-158704761D01*
X131268333Y-157942857D02*
X131268333Y-157561904D01*
X131496904Y-158019047D02*
X130696904Y-157752380D01*
X131496904Y-157485714D01*
X131496904Y-157219047D02*
X130696904Y-157219047D01*
X131496904Y-156761904D02*
X131039761Y-157104761D01*
X130696904Y-156761904D02*
X131154047Y-157219047D01*
X131077857Y-156419047D02*
X131077857Y-156152380D01*
X131496904Y-156038095D02*
X131496904Y-156419047D01*
X130696904Y-156419047D01*
X130696904Y-156038095D01*
X131458809Y-155123809D02*
X131496904Y-155009523D01*
X131496904Y-154819047D01*
X131458809Y-154742857D01*
X131420714Y-154704761D01*
X131344523Y-154666666D01*
X131268333Y-154666666D01*
X131192142Y-154704761D01*
X131154047Y-154742857D01*
X131115952Y-154819047D01*
X131077857Y-154971428D01*
X131039761Y-155047619D01*
X131001666Y-155085714D01*
X130925476Y-155123809D01*
X130849285Y-155123809D01*
X130773095Y-155085714D01*
X130735000Y-155047619D01*
X130696904Y-154971428D01*
X130696904Y-154780952D01*
X130735000Y-154666666D01*
X131496904Y-154323809D02*
X130696904Y-154323809D01*
X130735000Y-153523809D02*
X130696904Y-153600000D01*
X130696904Y-153714285D01*
X130735000Y-153828571D01*
X130811190Y-153904761D01*
X130887380Y-153942857D01*
X131039761Y-153980952D01*
X131154047Y-153980952D01*
X131306428Y-153942857D01*
X131382619Y-153904761D01*
X131458809Y-153828571D01*
X131496904Y-153714285D01*
X131496904Y-153638095D01*
X131458809Y-153523809D01*
X131420714Y-153485714D01*
X131154047Y-153485714D01*
X131154047Y-153638095D01*
X131496904Y-152533333D02*
X130696904Y-152533333D01*
X131077857Y-152533333D02*
X131077857Y-152076190D01*
X131496904Y-152076190D02*
X130696904Y-152076190D01*
X131496904Y-151695238D02*
X130696904Y-151695238D01*
X167852380Y-130638095D02*
X168661904Y-130638095D01*
X168757142Y-130590476D01*
X168804761Y-130542857D01*
X168852380Y-130447619D01*
X168852380Y-130257142D01*
X168804761Y-130161904D01*
X168757142Y-130114285D01*
X168661904Y-130066666D01*
X167852380Y-130066666D01*
X168185714Y-129590476D02*
X168852380Y-129590476D01*
X168280952Y-129590476D02*
X168233333Y-129542857D01*
X168185714Y-129447619D01*
X168185714Y-129304761D01*
X168233333Y-129209523D01*
X168328571Y-129161904D01*
X168852380Y-129161904D01*
X168852380Y-128685714D02*
X168185714Y-128685714D01*
X167852380Y-128685714D02*
X167900000Y-128733333D01*
X167947619Y-128685714D01*
X167900000Y-128638095D01*
X167852380Y-128685714D01*
X167947619Y-128685714D01*
X168804761Y-128257142D02*
X168852380Y-128114285D01*
X168852380Y-127876190D01*
X168804761Y-127780952D01*
X168757142Y-127733333D01*
X168661904Y-127685714D01*
X168566666Y-127685714D01*
X168471428Y-127733333D01*
X168423809Y-127780952D01*
X168376190Y-127876190D01*
X168328571Y-128066666D01*
X168280952Y-128161904D01*
X168233333Y-128209523D01*
X168138095Y-128257142D01*
X168042857Y-128257142D01*
X167947619Y-128209523D01*
X167900000Y-128161904D01*
X167852380Y-128066666D01*
X167852380Y-127828571D01*
X167900000Y-127685714D01*
X168566666Y-127304761D02*
X168566666Y-126828571D01*
X168852380Y-127400000D02*
X167852380Y-127066666D01*
X168852380Y-126733333D01*
X168852380Y-125638095D02*
X167852380Y-125638095D01*
X168566666Y-125304761D01*
X167852380Y-124971428D01*
X168852380Y-124971428D01*
X168852380Y-124352380D02*
X168804761Y-124447619D01*
X168757142Y-124495238D01*
X168661904Y-124542857D01*
X168376190Y-124542857D01*
X168280952Y-124495238D01*
X168233333Y-124447619D01*
X168185714Y-124352380D01*
X168185714Y-124209523D01*
X168233333Y-124114285D01*
X168280952Y-124066666D01*
X168376190Y-124019047D01*
X168661904Y-124019047D01*
X168757142Y-124066666D01*
X168804761Y-124114285D01*
X168852380Y-124209523D01*
X168852380Y-124352380D01*
X168185714Y-123733333D02*
X168185714Y-123352380D01*
X167852380Y-123590476D02*
X168709523Y-123590476D01*
X168804761Y-123542857D01*
X168852380Y-123447619D01*
X168852380Y-123352380D01*
X168852380Y-122876190D02*
X168804761Y-122971428D01*
X168757142Y-123019047D01*
X168661904Y-123066666D01*
X168376190Y-123066666D01*
X168280952Y-123019047D01*
X168233333Y-122971428D01*
X168185714Y-122876190D01*
X168185714Y-122733333D01*
X168233333Y-122638095D01*
X168280952Y-122590476D01*
X168376190Y-122542857D01*
X168661904Y-122542857D01*
X168757142Y-122590476D01*
X168804761Y-122638095D01*
X168852380Y-122733333D01*
X168852380Y-122876190D01*
X168852380Y-122114285D02*
X168185714Y-122114285D01*
X168376190Y-122114285D02*
X168280952Y-122066666D01*
X168233333Y-122019047D01*
X168185714Y-121923809D01*
X168185714Y-121828571D01*
X168804761Y-121542857D02*
X168852380Y-121447619D01*
X168852380Y-121257142D01*
X168804761Y-121161904D01*
X168709523Y-121114285D01*
X168661904Y-121114285D01*
X168566666Y-121161904D01*
X168519047Y-121257142D01*
X168519047Y-121400000D01*
X168471428Y-121495238D01*
X168376190Y-121542857D01*
X168328571Y-121542857D01*
X168233333Y-121495238D01*
X168185714Y-121400000D01*
X168185714Y-121257142D01*
X168233333Y-121161904D01*
X168185714Y-120685714D02*
X169185714Y-120685714D01*
X168233333Y-120685714D02*
X168185714Y-120590476D01*
X168185714Y-120400000D01*
X168233333Y-120304761D01*
X168280952Y-120257142D01*
X168376190Y-120209523D01*
X168661904Y-120209523D01*
X168757142Y-120257142D01*
X168804761Y-120304761D01*
X168852380Y-120400000D01*
X168852380Y-120590476D01*
X168804761Y-120685714D01*
X168852380Y-119638095D02*
X168804761Y-119733333D01*
X168757142Y-119780952D01*
X168661904Y-119828571D01*
X168376190Y-119828571D01*
X168280952Y-119780952D01*
X168233333Y-119733333D01*
X168185714Y-119638095D01*
X168185714Y-119495238D01*
X168233333Y-119400000D01*
X168280952Y-119352380D01*
X168376190Y-119304761D01*
X168661904Y-119304761D01*
X168757142Y-119352380D01*
X168804761Y-119400000D01*
X168852380Y-119495238D01*
X168852380Y-119638095D01*
X168852380Y-118876190D02*
X168185714Y-118876190D01*
X168376190Y-118876190D02*
X168280952Y-118828571D01*
X168233333Y-118780952D01*
X168185714Y-118685714D01*
X168185714Y-118590476D01*
X168185714Y-118400000D02*
X168185714Y-118019047D01*
X167852380Y-118257142D02*
X168709523Y-118257142D01*
X168804761Y-118209523D01*
X168852380Y-118114285D01*
X168852380Y-118019047D01*
X170642380Y-128761904D02*
X169642380Y-128761904D01*
X170356666Y-128428571D01*
X169642380Y-128095238D01*
X170642380Y-128095238D01*
X170642380Y-127619047D02*
X169975714Y-127619047D01*
X169642380Y-127619047D02*
X169690000Y-127666666D01*
X169737619Y-127619047D01*
X169690000Y-127571428D01*
X169642380Y-127619047D01*
X169737619Y-127619047D01*
X170594761Y-126714285D02*
X170642380Y-126809523D01*
X170642380Y-127000000D01*
X170594761Y-127095238D01*
X170547142Y-127142857D01*
X170451904Y-127190476D01*
X170166190Y-127190476D01*
X170070952Y-127142857D01*
X170023333Y-127095238D01*
X169975714Y-127000000D01*
X169975714Y-126809523D01*
X170023333Y-126714285D01*
X170642380Y-126285714D02*
X169642380Y-126285714D01*
X170642380Y-125857142D02*
X170118571Y-125857142D01*
X170023333Y-125904761D01*
X169975714Y-126000000D01*
X169975714Y-126142857D01*
X170023333Y-126238095D01*
X170070952Y-126285714D01*
X170642380Y-124952380D02*
X170118571Y-124952380D01*
X170023333Y-125000000D01*
X169975714Y-125095238D01*
X169975714Y-125285714D01*
X170023333Y-125380952D01*
X170594761Y-124952380D02*
X170642380Y-125047619D01*
X170642380Y-125285714D01*
X170594761Y-125380952D01*
X170499523Y-125428571D01*
X170404285Y-125428571D01*
X170309047Y-125380952D01*
X170261428Y-125285714D01*
X170261428Y-125047619D01*
X170213809Y-124952380D01*
X170594761Y-124095238D02*
X170642380Y-124190476D01*
X170642380Y-124380952D01*
X170594761Y-124476190D01*
X170499523Y-124523809D01*
X170118571Y-124523809D01*
X170023333Y-124476190D01*
X169975714Y-124380952D01*
X169975714Y-124190476D01*
X170023333Y-124095238D01*
X170118571Y-124047619D01*
X170213809Y-124047619D01*
X170309047Y-124523809D01*
X170642380Y-123476190D02*
X170594761Y-123571428D01*
X170499523Y-123619047D01*
X169642380Y-123619047D01*
X170642380Y-122333333D02*
X169642380Y-122333333D01*
X169642380Y-122095238D01*
X169690000Y-121952380D01*
X169785238Y-121857142D01*
X169880476Y-121809523D01*
X170070952Y-121761904D01*
X170213809Y-121761904D01*
X170404285Y-121809523D01*
X170499523Y-121857142D01*
X170594761Y-121952380D01*
X170642380Y-122095238D01*
X170642380Y-122333333D01*
X169975714Y-120904761D02*
X170642380Y-120904761D01*
X169975714Y-121333333D02*
X170499523Y-121333333D01*
X170594761Y-121285714D01*
X170642380Y-121190476D01*
X170642380Y-121047619D01*
X170594761Y-120952380D01*
X170547142Y-120904761D01*
X170642380Y-120428571D02*
X169642380Y-120428571D01*
X170261428Y-120333333D02*
X170642380Y-120047619D01*
X169975714Y-120047619D02*
X170356666Y-120428571D01*
X170594761Y-119238095D02*
X170642380Y-119333333D01*
X170642380Y-119523809D01*
X170594761Y-119619047D01*
X170499523Y-119666666D01*
X170118571Y-119666666D01*
X170023333Y-119619047D01*
X169975714Y-119523809D01*
X169975714Y-119333333D01*
X170023333Y-119238095D01*
X170118571Y-119190476D01*
X170213809Y-119190476D01*
X170309047Y-119666666D01*
X171728571Y-128000000D02*
X171728571Y-127666666D01*
X172252380Y-127523809D02*
X172252380Y-128000000D01*
X171252380Y-128000000D01*
X171252380Y-127523809D01*
X171585714Y-127095238D02*
X172252380Y-127095238D01*
X171680952Y-127095238D02*
X171633333Y-127047619D01*
X171585714Y-126952380D01*
X171585714Y-126809523D01*
X171633333Y-126714285D01*
X171728571Y-126666666D01*
X172252380Y-126666666D01*
X171585714Y-126285714D02*
X171585714Y-125761904D01*
X172252380Y-126285714D01*
X172252380Y-125761904D01*
X172252380Y-125238095D02*
X172204761Y-125333333D01*
X172157142Y-125380952D01*
X172061904Y-125428571D01*
X171776190Y-125428571D01*
X171680952Y-125380952D01*
X171633333Y-125333333D01*
X171585714Y-125238095D01*
X171585714Y-125095238D01*
X171633333Y-125000000D01*
X171680952Y-124952380D01*
X171776190Y-124904761D01*
X172061904Y-124904761D01*
X172157142Y-124952380D01*
X172204761Y-125000000D01*
X172252380Y-125095238D01*
X172252380Y-125238095D01*
X172252380Y-123142857D02*
X171776190Y-123476190D01*
X172252380Y-123714285D02*
X171252380Y-123714285D01*
X171252380Y-123333333D01*
X171300000Y-123238095D01*
X171347619Y-123190476D01*
X171442857Y-123142857D01*
X171585714Y-123142857D01*
X171680952Y-123190476D01*
X171728571Y-123238095D01*
X171776190Y-123333333D01*
X171776190Y-123714285D01*
X171585714Y-122285714D02*
X172252380Y-122285714D01*
X171585714Y-122714285D02*
X172109523Y-122714285D01*
X172204761Y-122666666D01*
X172252380Y-122571428D01*
X172252380Y-122428571D01*
X172204761Y-122333333D01*
X172157142Y-122285714D01*
X171585714Y-121380952D02*
X172395238Y-121380952D01*
X172490476Y-121428571D01*
X172538095Y-121476190D01*
X172585714Y-121571428D01*
X172585714Y-121714285D01*
X172538095Y-121809523D01*
X172204761Y-121380952D02*
X172252380Y-121476190D01*
X172252380Y-121666666D01*
X172204761Y-121761904D01*
X172157142Y-121809523D01*
X172061904Y-121857142D01*
X171776190Y-121857142D01*
X171680952Y-121809523D01*
X171633333Y-121761904D01*
X171585714Y-121666666D01*
X171585714Y-121476190D01*
X171633333Y-121380952D01*
X172252380Y-120476190D02*
X171728571Y-120476190D01*
X171633333Y-120523809D01*
X171585714Y-120619047D01*
X171585714Y-120809523D01*
X171633333Y-120904761D01*
X172204761Y-120476190D02*
X172252380Y-120571428D01*
X172252380Y-120809523D01*
X172204761Y-120904761D01*
X172109523Y-120952380D01*
X172014285Y-120952380D01*
X171919047Y-120904761D01*
X171871428Y-120809523D01*
X171871428Y-120571428D01*
X171823809Y-120476190D01*
X172252380Y-120000000D02*
X171585714Y-120000000D01*
X171252380Y-120000000D02*
X171300000Y-120047619D01*
X171347619Y-120000000D01*
X171300000Y-119952380D01*
X171252380Y-120000000D01*
X171347619Y-120000000D01*
X173576666Y-129190476D02*
X173576666Y-128714285D01*
X173862380Y-129285714D02*
X172862380Y-128952380D01*
X173862380Y-128619047D01*
X173195714Y-128285714D02*
X173862380Y-128285714D01*
X173290952Y-128285714D02*
X173243333Y-128238095D01*
X173195714Y-128142857D01*
X173195714Y-128000000D01*
X173243333Y-127904761D01*
X173338571Y-127857142D01*
X173862380Y-127857142D01*
X173195714Y-126952380D02*
X174005238Y-126952380D01*
X174100476Y-127000000D01*
X174148095Y-127047619D01*
X174195714Y-127142857D01*
X174195714Y-127285714D01*
X174148095Y-127380952D01*
X173814761Y-126952380D02*
X173862380Y-127047619D01*
X173862380Y-127238095D01*
X173814761Y-127333333D01*
X173767142Y-127380952D01*
X173671904Y-127428571D01*
X173386190Y-127428571D01*
X173290952Y-127380952D01*
X173243333Y-127333333D01*
X173195714Y-127238095D01*
X173195714Y-127047619D01*
X173243333Y-126952380D01*
X173195714Y-126047619D02*
X173862380Y-126047619D01*
X173195714Y-126476190D02*
X173719523Y-126476190D01*
X173814761Y-126428571D01*
X173862380Y-126333333D01*
X173862380Y-126190476D01*
X173814761Y-126095238D01*
X173767142Y-126047619D01*
X173814761Y-125619047D02*
X173862380Y-125523809D01*
X173862380Y-125333333D01*
X173814761Y-125238095D01*
X173719523Y-125190476D01*
X173671904Y-125190476D01*
X173576666Y-125238095D01*
X173529047Y-125333333D01*
X173529047Y-125476190D01*
X173481428Y-125571428D01*
X173386190Y-125619047D01*
X173338571Y-125619047D01*
X173243333Y-125571428D01*
X173195714Y-125476190D01*
X173195714Y-125333333D01*
X173243333Y-125238095D01*
X173862380Y-123428571D02*
X173386190Y-123761904D01*
X173862380Y-124000000D02*
X172862380Y-124000000D01*
X172862380Y-123619047D01*
X172910000Y-123523809D01*
X172957619Y-123476190D01*
X173052857Y-123428571D01*
X173195714Y-123428571D01*
X173290952Y-123476190D01*
X173338571Y-123523809D01*
X173386190Y-123619047D01*
X173386190Y-124000000D01*
X173862380Y-122571428D02*
X173338571Y-122571428D01*
X173243333Y-122619047D01*
X173195714Y-122714285D01*
X173195714Y-122904761D01*
X173243333Y-123000000D01*
X173814761Y-122571428D02*
X173862380Y-122666666D01*
X173862380Y-122904761D01*
X173814761Y-123000000D01*
X173719523Y-123047619D01*
X173624285Y-123047619D01*
X173529047Y-123000000D01*
X173481428Y-122904761D01*
X173481428Y-122666666D01*
X173433809Y-122571428D01*
X173195714Y-122095238D02*
X173862380Y-122095238D01*
X173290952Y-122095238D02*
X173243333Y-122047619D01*
X173195714Y-121952380D01*
X173195714Y-121809523D01*
X173243333Y-121714285D01*
X173338571Y-121666666D01*
X173862380Y-121666666D01*
X173862380Y-120761904D02*
X172862380Y-120761904D01*
X173814761Y-120761904D02*
X173862380Y-120857142D01*
X173862380Y-121047619D01*
X173814761Y-121142857D01*
X173767142Y-121190476D01*
X173671904Y-121238095D01*
X173386190Y-121238095D01*
X173290952Y-121190476D01*
X173243333Y-121142857D01*
X173195714Y-121047619D01*
X173195714Y-120857142D01*
X173243333Y-120761904D01*
X173814761Y-119904761D02*
X173862380Y-120000000D01*
X173862380Y-120190476D01*
X173814761Y-120285714D01*
X173719523Y-120333333D01*
X173338571Y-120333333D01*
X173243333Y-120285714D01*
X173195714Y-120190476D01*
X173195714Y-120000000D01*
X173243333Y-119904761D01*
X173338571Y-119857142D01*
X173433809Y-119857142D01*
X173529047Y-120333333D01*
X173862380Y-119285714D02*
X173814761Y-119380952D01*
X173719523Y-119428571D01*
X172862380Y-119428571D01*
X173862380Y-118761904D02*
X173814761Y-118857142D01*
X173719523Y-118904761D01*
X172862380Y-118904761D01*
X108162380Y-97414047D02*
X108162380Y-97985476D01*
X108162380Y-97699761D02*
X107162380Y-97699761D01*
X107305238Y-97795000D01*
X107400476Y-97890238D01*
X107448095Y-97985476D01*
X107257619Y-97033095D02*
X107210000Y-96985476D01*
X107162380Y-96890238D01*
X107162380Y-96652142D01*
X107210000Y-96556904D01*
X107257619Y-96509285D01*
X107352857Y-96461666D01*
X107448095Y-96461666D01*
X107590952Y-96509285D01*
X108162380Y-97080714D01*
X108162380Y-96461666D01*
X107162380Y-96175952D02*
X108162380Y-95842619D01*
X107162380Y-95509285D01*
X162670714Y-156757142D02*
X162708809Y-156795238D01*
X162746904Y-156909523D01*
X162746904Y-156985714D01*
X162708809Y-157100000D01*
X162632619Y-157176190D01*
X162556428Y-157214285D01*
X162404047Y-157252380D01*
X162289761Y-157252380D01*
X162137380Y-157214285D01*
X162061190Y-157176190D01*
X161985000Y-157100000D01*
X161946904Y-156985714D01*
X161946904Y-156909523D01*
X161985000Y-156795238D01*
X162023095Y-156757142D01*
X162213571Y-156071428D02*
X162746904Y-156071428D01*
X162213571Y-156414285D02*
X162632619Y-156414285D01*
X162708809Y-156376190D01*
X162746904Y-156300000D01*
X162746904Y-156185714D01*
X162708809Y-156109523D01*
X162670714Y-156071428D01*
X162213571Y-155804761D02*
X162213571Y-155500000D01*
X161946904Y-155690476D02*
X162632619Y-155690476D01*
X162708809Y-155652380D01*
X162746904Y-155576190D01*
X162746904Y-155500000D01*
X162746904Y-155119047D02*
X162708809Y-155195238D01*
X162670714Y-155233333D01*
X162594523Y-155271428D01*
X162365952Y-155271428D01*
X162289761Y-155233333D01*
X162251666Y-155195238D01*
X162213571Y-155119047D01*
X162213571Y-155004761D01*
X162251666Y-154928571D01*
X162289761Y-154890476D01*
X162365952Y-154852380D01*
X162594523Y-154852380D01*
X162670714Y-154890476D01*
X162708809Y-154928571D01*
X162746904Y-155004761D01*
X162746904Y-155119047D01*
X162213571Y-154623809D02*
X162213571Y-154319047D01*
X162746904Y-154509523D02*
X162061190Y-154509523D01*
X161985000Y-154471428D01*
X161946904Y-154395238D01*
X161946904Y-154319047D01*
X162213571Y-154166666D02*
X162213571Y-153861904D01*
X162746904Y-154052380D02*
X162061190Y-154052380D01*
X161985000Y-154014285D01*
X161946904Y-153938095D01*
X161946904Y-153861904D01*
X162442142Y-153595238D02*
X162442142Y-152985714D01*
X162746904Y-153290476D02*
X162137380Y-153290476D01*
X146920714Y-157257142D02*
X146958809Y-157295238D01*
X146996904Y-157409523D01*
X146996904Y-157485714D01*
X146958809Y-157600000D01*
X146882619Y-157676190D01*
X146806428Y-157714285D01*
X146654047Y-157752380D01*
X146539761Y-157752380D01*
X146387380Y-157714285D01*
X146311190Y-157676190D01*
X146235000Y-157600000D01*
X146196904Y-157485714D01*
X146196904Y-157409523D01*
X146235000Y-157295238D01*
X146273095Y-157257142D01*
X146463571Y-156571428D02*
X146996904Y-156571428D01*
X146463571Y-156914285D02*
X146882619Y-156914285D01*
X146958809Y-156876190D01*
X146996904Y-156800000D01*
X146996904Y-156685714D01*
X146958809Y-156609523D01*
X146920714Y-156571428D01*
X146463571Y-156304761D02*
X146463571Y-156000000D01*
X146196904Y-156190476D02*
X146882619Y-156190476D01*
X146958809Y-156152380D01*
X146996904Y-156076190D01*
X146996904Y-156000000D01*
X146996904Y-155619047D02*
X146958809Y-155695238D01*
X146920714Y-155733333D01*
X146844523Y-155771428D01*
X146615952Y-155771428D01*
X146539761Y-155733333D01*
X146501666Y-155695238D01*
X146463571Y-155619047D01*
X146463571Y-155504761D01*
X146501666Y-155428571D01*
X146539761Y-155390476D01*
X146615952Y-155352380D01*
X146844523Y-155352380D01*
X146920714Y-155390476D01*
X146958809Y-155428571D01*
X146996904Y-155504761D01*
X146996904Y-155619047D01*
X146463571Y-155123809D02*
X146463571Y-154819047D01*
X146996904Y-155009523D02*
X146311190Y-155009523D01*
X146235000Y-154971428D01*
X146196904Y-154895238D01*
X146196904Y-154819047D01*
X146463571Y-154666666D02*
X146463571Y-154361904D01*
X146996904Y-154552380D02*
X146311190Y-154552380D01*
X146235000Y-154514285D01*
X146196904Y-154438095D01*
X146196904Y-154361904D01*
X146692142Y-154095238D02*
X146692142Y-153485714D01*
X146996904Y-153790476D02*
X146387380Y-153790476D01*
X120637380Y-97385476D02*
X120637380Y-97861666D01*
X121113571Y-97909285D01*
X121065952Y-97861666D01*
X121018333Y-97766428D01*
X121018333Y-97528333D01*
X121065952Y-97433095D01*
X121113571Y-97385476D01*
X121208809Y-97337857D01*
X121446904Y-97337857D01*
X121542142Y-97385476D01*
X121589761Y-97433095D01*
X121637380Y-97528333D01*
X121637380Y-97766428D01*
X121589761Y-97861666D01*
X121542142Y-97909285D01*
X120637380Y-97052142D02*
X121637380Y-96718809D01*
X120637380Y-96385476D01*
X144827857Y-129323809D02*
X144865952Y-129209523D01*
X144904047Y-129171428D01*
X144980238Y-129133333D01*
X145094523Y-129133333D01*
X145170714Y-129171428D01*
X145208809Y-129209523D01*
X145246904Y-129285714D01*
X145246904Y-129590476D01*
X144446904Y-129590476D01*
X144446904Y-129323809D01*
X144485000Y-129247619D01*
X144523095Y-129209523D01*
X144599285Y-129171428D01*
X144675476Y-129171428D01*
X144751666Y-129209523D01*
X144789761Y-129247619D01*
X144827857Y-129323809D01*
X144827857Y-129590476D01*
X145246904Y-128333333D02*
X144865952Y-128600000D01*
X145246904Y-128790476D02*
X144446904Y-128790476D01*
X144446904Y-128485714D01*
X144485000Y-128409523D01*
X144523095Y-128371428D01*
X144599285Y-128333333D01*
X144713571Y-128333333D01*
X144789761Y-128371428D01*
X144827857Y-128409523D01*
X144865952Y-128485714D01*
X144865952Y-128790476D01*
X145018333Y-128028571D02*
X145018333Y-127647619D01*
X145246904Y-128104761D02*
X144446904Y-127838095D01*
X145246904Y-127571428D01*
X145246904Y-127304761D02*
X144446904Y-127304761D01*
X145246904Y-126847619D02*
X144789761Y-127190476D01*
X144446904Y-126847619D02*
X144904047Y-127304761D01*
X144827857Y-126504761D02*
X144827857Y-126238095D01*
X145246904Y-126123809D02*
X145246904Y-126504761D01*
X144446904Y-126504761D01*
X144446904Y-126123809D01*
X145208809Y-125209523D02*
X145246904Y-125095238D01*
X145246904Y-124904761D01*
X145208809Y-124828571D01*
X145170714Y-124790476D01*
X145094523Y-124752380D01*
X145018333Y-124752380D01*
X144942142Y-124790476D01*
X144904047Y-124828571D01*
X144865952Y-124904761D01*
X144827857Y-125057142D01*
X144789761Y-125133333D01*
X144751666Y-125171428D01*
X144675476Y-125209523D01*
X144599285Y-125209523D01*
X144523095Y-125171428D01*
X144485000Y-125133333D01*
X144446904Y-125057142D01*
X144446904Y-124866666D01*
X144485000Y-124752380D01*
X145246904Y-124409523D02*
X144446904Y-124409523D01*
X144485000Y-123609523D02*
X144446904Y-123685714D01*
X144446904Y-123800000D01*
X144485000Y-123914285D01*
X144561190Y-123990476D01*
X144637380Y-124028571D01*
X144789761Y-124066666D01*
X144904047Y-124066666D01*
X145056428Y-124028571D01*
X145132619Y-123990476D01*
X145208809Y-123914285D01*
X145246904Y-123800000D01*
X145246904Y-123723809D01*
X145208809Y-123609523D01*
X145170714Y-123571428D01*
X144904047Y-123571428D01*
X144904047Y-123723809D01*
X124157380Y-106586190D02*
X123681190Y-106919523D01*
X124157380Y-107157619D02*
X123157380Y-107157619D01*
X123157380Y-106776666D01*
X123205000Y-106681428D01*
X123252619Y-106633809D01*
X123347857Y-106586190D01*
X123490714Y-106586190D01*
X123585952Y-106633809D01*
X123633571Y-106681428D01*
X123681190Y-106776666D01*
X123681190Y-107157619D01*
X123490714Y-106300476D02*
X123490714Y-105919523D01*
X124157380Y-106157619D02*
X123300238Y-106157619D01*
X123205000Y-106110000D01*
X123157380Y-106014761D01*
X123157380Y-105919523D01*
X71440476Y-20202380D02*
X72059523Y-20202380D01*
X71726190Y-20583333D01*
X71869047Y-20583333D01*
X71964285Y-20630952D01*
X72011904Y-20678571D01*
X72059523Y-20773809D01*
X72059523Y-21011904D01*
X72011904Y-21107142D01*
X71964285Y-21154761D01*
X71869047Y-21202380D01*
X71583333Y-21202380D01*
X71488095Y-21154761D01*
X71440476Y-21107142D01*
X72535714Y-21202380D02*
X72726190Y-21202380D01*
X72821428Y-21154761D01*
X72869047Y-21107142D01*
X72964285Y-20964285D01*
X73011904Y-20773809D01*
X73011904Y-20392857D01*
X72964285Y-20297619D01*
X72916666Y-20250000D01*
X72821428Y-20202380D01*
X72630952Y-20202380D01*
X72535714Y-20250000D01*
X72488095Y-20297619D01*
X72440476Y-20392857D01*
X72440476Y-20630952D01*
X72488095Y-20726190D01*
X72535714Y-20773809D01*
X72630952Y-20821428D01*
X72821428Y-20821428D01*
X72916666Y-20773809D01*
X72964285Y-20726190D01*
X73011904Y-20630952D01*
X159683857Y-158990476D02*
X159721952Y-158876190D01*
X159760047Y-158838095D01*
X159836238Y-158800000D01*
X159950523Y-158800000D01*
X160026714Y-158838095D01*
X160064809Y-158876190D01*
X160102904Y-158952380D01*
X160102904Y-159257142D01*
X159302904Y-159257142D01*
X159302904Y-158990476D01*
X159341000Y-158914285D01*
X159379095Y-158876190D01*
X159455285Y-158838095D01*
X159531476Y-158838095D01*
X159607666Y-158876190D01*
X159645761Y-158914285D01*
X159683857Y-158990476D01*
X159683857Y-159257142D01*
X160102904Y-158000000D02*
X159721952Y-158266666D01*
X160102904Y-158457142D02*
X159302904Y-158457142D01*
X159302904Y-158152380D01*
X159341000Y-158076190D01*
X159379095Y-158038095D01*
X159455285Y-158000000D01*
X159569571Y-158000000D01*
X159645761Y-158038095D01*
X159683857Y-158076190D01*
X159721952Y-158152380D01*
X159721952Y-158457142D01*
X159874333Y-157695238D02*
X159874333Y-157314285D01*
X160102904Y-157771428D02*
X159302904Y-157504761D01*
X160102904Y-157238095D01*
X160102904Y-156971428D02*
X159302904Y-156971428D01*
X160102904Y-156514285D02*
X159645761Y-156857142D01*
X159302904Y-156514285D02*
X159760047Y-156971428D01*
X159683857Y-156171428D02*
X159683857Y-155904761D01*
X160102904Y-155790476D02*
X160102904Y-156171428D01*
X159302904Y-156171428D01*
X159302904Y-155790476D01*
X160102904Y-154457142D02*
X160102904Y-154838095D01*
X159302904Y-154838095D01*
X160102904Y-154190476D02*
X159302904Y-154190476D01*
X159341000Y-153390476D02*
X159302904Y-153466666D01*
X159302904Y-153580952D01*
X159341000Y-153695238D01*
X159417190Y-153771428D01*
X159493380Y-153809523D01*
X159645761Y-153847619D01*
X159760047Y-153847619D01*
X159912428Y-153809523D01*
X159988619Y-153771428D01*
X160064809Y-153695238D01*
X160102904Y-153580952D01*
X160102904Y-153504761D01*
X160064809Y-153390476D01*
X160026714Y-153352380D01*
X159760047Y-153352380D01*
X159760047Y-153504761D01*
X160102904Y-153009523D02*
X159302904Y-153009523D01*
X159683857Y-153009523D02*
X159683857Y-152552380D01*
X160102904Y-152552380D02*
X159302904Y-152552380D01*
X159302904Y-152285714D02*
X159302904Y-151828571D01*
X160102904Y-152057142D02*
X159302904Y-152057142D01*
X160590904Y-157980952D02*
X160590904Y-157523809D01*
X161390904Y-157752380D02*
X160590904Y-157752380D01*
X161390904Y-156800000D02*
X161009952Y-157066666D01*
X161390904Y-157257142D02*
X160590904Y-157257142D01*
X160590904Y-156952380D01*
X160629000Y-156876190D01*
X160667095Y-156838095D01*
X160743285Y-156800000D01*
X160857571Y-156800000D01*
X160933761Y-156838095D01*
X160971857Y-156876190D01*
X161009952Y-156952380D01*
X161009952Y-157257142D01*
X161390904Y-156457142D02*
X160590904Y-156457142D01*
X160629000Y-155657142D02*
X160590904Y-155733333D01*
X160590904Y-155847619D01*
X160629000Y-155961904D01*
X160705190Y-156038095D01*
X160781380Y-156076190D01*
X160933761Y-156114285D01*
X161048047Y-156114285D01*
X161200428Y-156076190D01*
X161276619Y-156038095D01*
X161352809Y-155961904D01*
X161390904Y-155847619D01*
X161390904Y-155771428D01*
X161352809Y-155657142D01*
X161314714Y-155619047D01*
X161048047Y-155619047D01*
X161048047Y-155771428D01*
X160629000Y-154857142D02*
X160590904Y-154933333D01*
X160590904Y-155047619D01*
X160629000Y-155161904D01*
X160705190Y-155238095D01*
X160781380Y-155276190D01*
X160933761Y-155314285D01*
X161048047Y-155314285D01*
X161200428Y-155276190D01*
X161276619Y-155238095D01*
X161352809Y-155161904D01*
X161390904Y-155047619D01*
X161390904Y-154971428D01*
X161352809Y-154857142D01*
X161314714Y-154819047D01*
X161048047Y-154819047D01*
X161048047Y-154971428D01*
X160971857Y-154476190D02*
X160971857Y-154209523D01*
X161390904Y-154095238D02*
X161390904Y-154476190D01*
X160590904Y-154476190D01*
X160590904Y-154095238D01*
X161390904Y-153295238D02*
X161009952Y-153561904D01*
X161390904Y-153752380D02*
X160590904Y-153752380D01*
X160590904Y-153447619D01*
X160629000Y-153371428D01*
X160667095Y-153333333D01*
X160743285Y-153295238D01*
X160857571Y-153295238D01*
X160933761Y-153333333D01*
X160971857Y-153371428D01*
X161009952Y-153447619D01*
X161009952Y-153752380D01*
X155270714Y-94233333D02*
X155308809Y-94271428D01*
X155346904Y-94385714D01*
X155346904Y-94461904D01*
X155308809Y-94576190D01*
X155232619Y-94652380D01*
X155156428Y-94690476D01*
X155004047Y-94728571D01*
X154889761Y-94728571D01*
X154737380Y-94690476D01*
X154661190Y-94652380D01*
X154585000Y-94576190D01*
X154546904Y-94461904D01*
X154546904Y-94385714D01*
X154585000Y-94271428D01*
X154623095Y-94233333D01*
X155346904Y-93471428D02*
X155346904Y-93928571D01*
X155346904Y-93700000D02*
X154546904Y-93700000D01*
X154661190Y-93776190D01*
X154737380Y-93852380D01*
X154775476Y-93928571D01*
X137770714Y-94233333D02*
X137808809Y-94271428D01*
X137846904Y-94385714D01*
X137846904Y-94461904D01*
X137808809Y-94576190D01*
X137732619Y-94652380D01*
X137656428Y-94690476D01*
X137504047Y-94728571D01*
X137389761Y-94728571D01*
X137237380Y-94690476D01*
X137161190Y-94652380D01*
X137085000Y-94576190D01*
X137046904Y-94461904D01*
X137046904Y-94385714D01*
X137085000Y-94271428D01*
X137123095Y-94233333D01*
X137123095Y-93928571D02*
X137085000Y-93890476D01*
X137046904Y-93814285D01*
X137046904Y-93623809D01*
X137085000Y-93547619D01*
X137123095Y-93509523D01*
X137199285Y-93471428D01*
X137275476Y-93471428D01*
X137389761Y-93509523D01*
X137846904Y-93966666D01*
X137846904Y-93471428D01*
X147270714Y-94233333D02*
X147308809Y-94271428D01*
X147346904Y-94385714D01*
X147346904Y-94461904D01*
X147308809Y-94576190D01*
X147232619Y-94652380D01*
X147156428Y-94690476D01*
X147004047Y-94728571D01*
X146889761Y-94728571D01*
X146737380Y-94690476D01*
X146661190Y-94652380D01*
X146585000Y-94576190D01*
X146546904Y-94461904D01*
X146546904Y-94385714D01*
X146585000Y-94271428D01*
X146623095Y-94233333D01*
X146546904Y-93966666D02*
X146546904Y-93471428D01*
X146851666Y-93738095D01*
X146851666Y-93623809D01*
X146889761Y-93547619D01*
X146927857Y-93509523D01*
X147004047Y-93471428D01*
X147194523Y-93471428D01*
X147270714Y-93509523D01*
X147308809Y-93547619D01*
X147346904Y-93623809D01*
X147346904Y-93852380D01*
X147308809Y-93928571D01*
X147270714Y-93966666D01*
X127770714Y-94233333D02*
X127808809Y-94271428D01*
X127846904Y-94385714D01*
X127846904Y-94461904D01*
X127808809Y-94576190D01*
X127732619Y-94652380D01*
X127656428Y-94690476D01*
X127504047Y-94728571D01*
X127389761Y-94728571D01*
X127237380Y-94690476D01*
X127161190Y-94652380D01*
X127085000Y-94576190D01*
X127046904Y-94461904D01*
X127046904Y-94385714D01*
X127085000Y-94271428D01*
X127123095Y-94233333D01*
X127313571Y-93547619D02*
X127846904Y-93547619D01*
X127008809Y-93738095D02*
X127580238Y-93928571D01*
X127580238Y-93433333D01*
X110095714Y-107353333D02*
X110133809Y-107391428D01*
X110171904Y-107505714D01*
X110171904Y-107581904D01*
X110133809Y-107696190D01*
X110057619Y-107772380D01*
X109981428Y-107810476D01*
X109829047Y-107848571D01*
X109714761Y-107848571D01*
X109562380Y-107810476D01*
X109486190Y-107772380D01*
X109410000Y-107696190D01*
X109371904Y-107581904D01*
X109371904Y-107505714D01*
X109410000Y-107391428D01*
X109448095Y-107353333D01*
X109371904Y-106629523D02*
X109371904Y-107010476D01*
X109752857Y-107048571D01*
X109714761Y-107010476D01*
X109676666Y-106934285D01*
X109676666Y-106743809D01*
X109714761Y-106667619D01*
X109752857Y-106629523D01*
X109829047Y-106591428D01*
X110019523Y-106591428D01*
X110095714Y-106629523D01*
X110133809Y-106667619D01*
X110171904Y-106743809D01*
X110171904Y-106934285D01*
X110133809Y-107010476D01*
X110095714Y-107048571D01*
X119545714Y-107353333D02*
X119583809Y-107391428D01*
X119621904Y-107505714D01*
X119621904Y-107581904D01*
X119583809Y-107696190D01*
X119507619Y-107772380D01*
X119431428Y-107810476D01*
X119279047Y-107848571D01*
X119164761Y-107848571D01*
X119012380Y-107810476D01*
X118936190Y-107772380D01*
X118860000Y-107696190D01*
X118821904Y-107581904D01*
X118821904Y-107505714D01*
X118860000Y-107391428D01*
X118898095Y-107353333D01*
X118821904Y-106667619D02*
X118821904Y-106820000D01*
X118860000Y-106896190D01*
X118898095Y-106934285D01*
X119012380Y-107010476D01*
X119164761Y-107048571D01*
X119469523Y-107048571D01*
X119545714Y-107010476D01*
X119583809Y-106972380D01*
X119621904Y-106896190D01*
X119621904Y-106743809D01*
X119583809Y-106667619D01*
X119545714Y-106629523D01*
X119469523Y-106591428D01*
X119279047Y-106591428D01*
X119202857Y-106629523D01*
X119164761Y-106667619D01*
X119126666Y-106743809D01*
X119126666Y-106896190D01*
X119164761Y-106972380D01*
X119202857Y-107010476D01*
X119279047Y-107048571D01*
X147431666Y-111195714D02*
X147393571Y-111233809D01*
X147279285Y-111271904D01*
X147203095Y-111271904D01*
X147088809Y-111233809D01*
X147012619Y-111157619D01*
X146974523Y-111081428D01*
X146936428Y-110929047D01*
X146936428Y-110814761D01*
X146974523Y-110662380D01*
X147012619Y-110586190D01*
X147088809Y-110510000D01*
X147203095Y-110471904D01*
X147279285Y-110471904D01*
X147393571Y-110510000D01*
X147431666Y-110548095D01*
X147698333Y-110471904D02*
X148231666Y-110471904D01*
X147888809Y-111271904D01*
X116606355Y-150676190D02*
X116568260Y-150752380D01*
X116492069Y-150828571D01*
X116377783Y-150942857D01*
X116339688Y-151019047D01*
X116339688Y-151095238D01*
X116530164Y-151057142D02*
X116492069Y-151133333D01*
X116415879Y-151209523D01*
X116263498Y-151247619D01*
X115996831Y-151247619D01*
X115844450Y-151209523D01*
X115768260Y-151133333D01*
X115730164Y-151057142D01*
X115730164Y-150904761D01*
X115768260Y-150828571D01*
X115844450Y-150752380D01*
X115996831Y-150714285D01*
X116263498Y-150714285D01*
X116415879Y-150752380D01*
X116492069Y-150828571D01*
X116530164Y-150904761D01*
X116530164Y-151057142D01*
X116530164Y-149952380D02*
X116530164Y-150409523D01*
X116530164Y-150180952D02*
X115730164Y-150180952D01*
X115844450Y-150257142D01*
X115920640Y-150333333D01*
X115958736Y-150409523D01*
X151461666Y-111301904D02*
X151195000Y-110920952D01*
X151004523Y-111301904D02*
X151004523Y-110501904D01*
X151309285Y-110501904D01*
X151385476Y-110540000D01*
X151423571Y-110578095D01*
X151461666Y-110654285D01*
X151461666Y-110768571D01*
X151423571Y-110844761D01*
X151385476Y-110882857D01*
X151309285Y-110920952D01*
X151004523Y-110920952D01*
X152147380Y-110768571D02*
X152147380Y-111301904D01*
X151956904Y-110463809D02*
X151766428Y-111035238D01*
X152261666Y-111035238D01*
X151721904Y-160233333D02*
X151340952Y-160500000D01*
X151721904Y-160690476D02*
X150921904Y-160690476D01*
X150921904Y-160385714D01*
X150960000Y-160309523D01*
X150998095Y-160271428D01*
X151074285Y-160233333D01*
X151188571Y-160233333D01*
X151264761Y-160271428D01*
X151302857Y-160309523D01*
X151340952Y-160385714D01*
X151340952Y-160690476D01*
X150921904Y-159509523D02*
X150921904Y-159890476D01*
X151302857Y-159928571D01*
X151264761Y-159890476D01*
X151226666Y-159814285D01*
X151226666Y-159623809D01*
X151264761Y-159547619D01*
X151302857Y-159509523D01*
X151379047Y-159471428D01*
X151569523Y-159471428D01*
X151645714Y-159509523D01*
X151683809Y-159547619D01*
X151721904Y-159623809D01*
X151721904Y-159814285D01*
X151683809Y-159890476D01*
X151645714Y-159928571D01*
X138671904Y-145733333D02*
X138290952Y-146000000D01*
X138671904Y-146190476D02*
X137871904Y-146190476D01*
X137871904Y-145885714D01*
X137910000Y-145809523D01*
X137948095Y-145771428D01*
X138024285Y-145733333D01*
X138138571Y-145733333D01*
X138214761Y-145771428D01*
X138252857Y-145809523D01*
X138290952Y-145885714D01*
X138290952Y-146190476D01*
X137871904Y-145047619D02*
X137871904Y-145200000D01*
X137910000Y-145276190D01*
X137948095Y-145314285D01*
X138062380Y-145390476D01*
X138214761Y-145428571D01*
X138519523Y-145428571D01*
X138595714Y-145390476D01*
X138633809Y-145352380D01*
X138671904Y-145276190D01*
X138671904Y-145123809D01*
X138633809Y-145047619D01*
X138595714Y-145009523D01*
X138519523Y-144971428D01*
X138329047Y-144971428D01*
X138252857Y-145009523D01*
X138214761Y-145047619D01*
X138176666Y-145123809D01*
X138176666Y-145276190D01*
X138214761Y-145352380D01*
X138252857Y-145390476D01*
X138329047Y-145428571D01*
X151746904Y-145733333D02*
X151365952Y-146000000D01*
X151746904Y-146190476D02*
X150946904Y-146190476D01*
X150946904Y-145885714D01*
X150985000Y-145809523D01*
X151023095Y-145771428D01*
X151099285Y-145733333D01*
X151213571Y-145733333D01*
X151289761Y-145771428D01*
X151327857Y-145809523D01*
X151365952Y-145885714D01*
X151365952Y-146190476D01*
X151289761Y-145276190D02*
X151251666Y-145352380D01*
X151213571Y-145390476D01*
X151137380Y-145428571D01*
X151099285Y-145428571D01*
X151023095Y-145390476D01*
X150985000Y-145352380D01*
X150946904Y-145276190D01*
X150946904Y-145123809D01*
X150985000Y-145047619D01*
X151023095Y-145009523D01*
X151099285Y-144971428D01*
X151137380Y-144971428D01*
X151213571Y-145009523D01*
X151251666Y-145047619D01*
X151289761Y-145123809D01*
X151289761Y-145276190D01*
X151327857Y-145352380D01*
X151365952Y-145390476D01*
X151442142Y-145428571D01*
X151594523Y-145428571D01*
X151670714Y-145390476D01*
X151708809Y-145352380D01*
X151746904Y-145276190D01*
X151746904Y-145123809D01*
X151708809Y-145047619D01*
X151670714Y-145009523D01*
X151594523Y-144971428D01*
X151442142Y-144971428D01*
X151365952Y-145009523D01*
X151327857Y-145047619D01*
X151289761Y-145123809D01*
X140996904Y-159483333D02*
X140615952Y-159750000D01*
X140996904Y-159940476D02*
X140196904Y-159940476D01*
X140196904Y-159635714D01*
X140235000Y-159559523D01*
X140273095Y-159521428D01*
X140349285Y-159483333D01*
X140463571Y-159483333D01*
X140539761Y-159521428D01*
X140577857Y-159559523D01*
X140615952Y-159635714D01*
X140615952Y-159940476D01*
X140996904Y-159102380D02*
X140996904Y-158950000D01*
X140958809Y-158873809D01*
X140920714Y-158835714D01*
X140806428Y-158759523D01*
X140654047Y-158721428D01*
X140349285Y-158721428D01*
X140273095Y-158759523D01*
X140235000Y-158797619D01*
X140196904Y-158873809D01*
X140196904Y-159026190D01*
X140235000Y-159102380D01*
X140273095Y-159140476D01*
X140349285Y-159178571D01*
X140539761Y-159178571D01*
X140615952Y-159140476D01*
X140654047Y-159102380D01*
X140692142Y-159026190D01*
X140692142Y-158873809D01*
X140654047Y-158797619D01*
X140615952Y-158759523D01*
X140539761Y-158721428D01*
X125671904Y-146364285D02*
X125290952Y-146630952D01*
X125671904Y-146821428D02*
X124871904Y-146821428D01*
X124871904Y-146516666D01*
X124910000Y-146440476D01*
X124948095Y-146402380D01*
X125024285Y-146364285D01*
X125138571Y-146364285D01*
X125214761Y-146402380D01*
X125252857Y-146440476D01*
X125290952Y-146516666D01*
X125290952Y-146821428D01*
X125671904Y-145602380D02*
X125671904Y-146059523D01*
X125671904Y-145830952D02*
X124871904Y-145830952D01*
X124986190Y-145907142D01*
X125062380Y-145983333D01*
X125100476Y-146059523D01*
X124871904Y-145107142D02*
X124871904Y-145030952D01*
X124910000Y-144954761D01*
X124948095Y-144916666D01*
X125024285Y-144878571D01*
X125176666Y-144840476D01*
X125367142Y-144840476D01*
X125519523Y-144878571D01*
X125595714Y-144916666D01*
X125633809Y-144954761D01*
X125671904Y-145030952D01*
X125671904Y-145107142D01*
X125633809Y-145183333D01*
X125595714Y-145221428D01*
X125519523Y-145259523D01*
X125367142Y-145297619D01*
X125176666Y-145297619D01*
X125024285Y-145259523D01*
X124948095Y-145221428D01*
X124910000Y-145183333D01*
X124871904Y-145107142D01*
X125671904Y-131364285D02*
X125290952Y-131630952D01*
X125671904Y-131821428D02*
X124871904Y-131821428D01*
X124871904Y-131516666D01*
X124910000Y-131440476D01*
X124948095Y-131402380D01*
X125024285Y-131364285D01*
X125138571Y-131364285D01*
X125214761Y-131402380D01*
X125252857Y-131440476D01*
X125290952Y-131516666D01*
X125290952Y-131821428D01*
X125671904Y-130602380D02*
X125671904Y-131059523D01*
X125671904Y-130830952D02*
X124871904Y-130830952D01*
X124986190Y-130907142D01*
X125062380Y-130983333D01*
X125100476Y-131059523D01*
X124948095Y-130297619D02*
X124910000Y-130259523D01*
X124871904Y-130183333D01*
X124871904Y-129992857D01*
X124910000Y-129916666D01*
X124948095Y-129878571D01*
X125024285Y-129840476D01*
X125100476Y-129840476D01*
X125214761Y-129878571D01*
X125671904Y-130335714D01*
X125671904Y-129840476D01*
X113946904Y-99509523D02*
X114594523Y-99509523D01*
X114670714Y-99471428D01*
X114708809Y-99433333D01*
X114746904Y-99357142D01*
X114746904Y-99204761D01*
X114708809Y-99128571D01*
X114670714Y-99090476D01*
X114594523Y-99052380D01*
X113946904Y-99052380D01*
X114746904Y-98252380D02*
X114746904Y-98709523D01*
X114746904Y-98480952D02*
X113946904Y-98480952D01*
X114061190Y-98557142D01*
X114137380Y-98633333D01*
X114175476Y-98709523D01*
X138725476Y-96551904D02*
X138725476Y-97199523D01*
X138763571Y-97275714D01*
X138801666Y-97313809D01*
X138877857Y-97351904D01*
X139030238Y-97351904D01*
X139106428Y-97313809D01*
X139144523Y-97275714D01*
X139182619Y-97199523D01*
X139182619Y-96551904D01*
X139525476Y-96628095D02*
X139563571Y-96590000D01*
X139639761Y-96551904D01*
X139830238Y-96551904D01*
X139906428Y-96590000D01*
X139944523Y-96628095D01*
X139982619Y-96704285D01*
X139982619Y-96780476D01*
X139944523Y-96894761D01*
X139487380Y-97351904D01*
X139982619Y-97351904D01*
X147825476Y-96551904D02*
X147825476Y-97199523D01*
X147863571Y-97275714D01*
X147901666Y-97313809D01*
X147977857Y-97351904D01*
X148130238Y-97351904D01*
X148206428Y-97313809D01*
X148244523Y-97275714D01*
X148282619Y-97199523D01*
X148282619Y-96551904D01*
X148587380Y-96551904D02*
X149082619Y-96551904D01*
X148815952Y-96856666D01*
X148930238Y-96856666D01*
X149006428Y-96894761D01*
X149044523Y-96932857D01*
X149082619Y-97009047D01*
X149082619Y-97199523D01*
X149044523Y-97275714D01*
X149006428Y-97313809D01*
X148930238Y-97351904D01*
X148701666Y-97351904D01*
X148625476Y-97313809D01*
X148587380Y-97275714D01*
X156275476Y-96551904D02*
X156275476Y-97199523D01*
X156313571Y-97275714D01*
X156351666Y-97313809D01*
X156427857Y-97351904D01*
X156580238Y-97351904D01*
X156656428Y-97313809D01*
X156694523Y-97275714D01*
X156732619Y-97199523D01*
X156732619Y-96551904D01*
X157456428Y-96818571D02*
X157456428Y-97351904D01*
X157265952Y-96513809D02*
X157075476Y-97085238D01*
X157570714Y-97085238D01*
X120596904Y-113483333D02*
X120215952Y-113750000D01*
X120596904Y-113940476D02*
X119796904Y-113940476D01*
X119796904Y-113635714D01*
X119835000Y-113559523D01*
X119873095Y-113521428D01*
X119949285Y-113483333D01*
X120063571Y-113483333D01*
X120139761Y-113521428D01*
X120177857Y-113559523D01*
X120215952Y-113635714D01*
X120215952Y-113940476D01*
X119796904Y-113216666D02*
X119796904Y-112721428D01*
X120101666Y-112988095D01*
X120101666Y-112873809D01*
X120139761Y-112797619D01*
X120177857Y-112759523D01*
X120254047Y-112721428D01*
X120444523Y-112721428D01*
X120520714Y-112759523D01*
X120558809Y-112797619D01*
X120596904Y-112873809D01*
X120596904Y-113102380D01*
X120558809Y-113178571D01*
X120520714Y-113216666D01*
X124370714Y-159711904D02*
X124104047Y-159330952D01*
X123913571Y-159711904D02*
X123913571Y-158911904D01*
X124218333Y-158911904D01*
X124294523Y-158950000D01*
X124332619Y-158988095D01*
X124370714Y-159064285D01*
X124370714Y-159178571D01*
X124332619Y-159254761D01*
X124294523Y-159292857D01*
X124218333Y-159330952D01*
X123913571Y-159330952D01*
X125132619Y-159711904D02*
X124675476Y-159711904D01*
X124904047Y-159711904D02*
X124904047Y-158911904D01*
X124827857Y-159026190D01*
X124751666Y-159102380D01*
X124675476Y-159140476D01*
X125894523Y-159711904D02*
X125437380Y-159711904D01*
X125665952Y-159711904D02*
X125665952Y-158911904D01*
X125589761Y-159026190D01*
X125513571Y-159102380D01*
X125437380Y-159140476D01*
X138671904Y-130733333D02*
X138290952Y-131000000D01*
X138671904Y-131190476D02*
X137871904Y-131190476D01*
X137871904Y-130885714D01*
X137910000Y-130809523D01*
X137948095Y-130771428D01*
X138024285Y-130733333D01*
X138138571Y-130733333D01*
X138214761Y-130771428D01*
X138252857Y-130809523D01*
X138290952Y-130885714D01*
X138290952Y-131190476D01*
X137871904Y-130466666D02*
X137871904Y-129933333D01*
X138671904Y-130276190D01*
X137524523Y-138306904D02*
X137524523Y-137506904D01*
X137715000Y-137506904D01*
X137829285Y-137545000D01*
X137905476Y-137621190D01*
X137943571Y-137697380D01*
X137981666Y-137849761D01*
X137981666Y-137964047D01*
X137943571Y-138116428D01*
X137905476Y-138192619D01*
X137829285Y-138268809D01*
X137715000Y-138306904D01*
X137524523Y-138306904D01*
X138743571Y-138306904D02*
X138286428Y-138306904D01*
X138515000Y-138306904D02*
X138515000Y-137506904D01*
X138438809Y-137621190D01*
X138362619Y-137697380D01*
X138286428Y-137735476D01*
X137499523Y-123131904D02*
X137499523Y-122331904D01*
X137690000Y-122331904D01*
X137804285Y-122370000D01*
X137880476Y-122446190D01*
X137918571Y-122522380D01*
X137956666Y-122674761D01*
X137956666Y-122789047D01*
X137918571Y-122941428D01*
X137880476Y-123017619D01*
X137804285Y-123093809D01*
X137690000Y-123131904D01*
X137499523Y-123131904D01*
X138261428Y-122408095D02*
X138299523Y-122370000D01*
X138375714Y-122331904D01*
X138566190Y-122331904D01*
X138642380Y-122370000D01*
X138680476Y-122408095D01*
X138718571Y-122484285D01*
X138718571Y-122560476D01*
X138680476Y-122674761D01*
X138223333Y-123131904D01*
X138718571Y-123131904D01*
X137145714Y-121056904D02*
X136879047Y-120675952D01*
X136688571Y-121056904D02*
X136688571Y-120256904D01*
X136993333Y-120256904D01*
X137069523Y-120295000D01*
X137107619Y-120333095D01*
X137145714Y-120409285D01*
X137145714Y-120523571D01*
X137107619Y-120599761D01*
X137069523Y-120637857D01*
X136993333Y-120675952D01*
X136688571Y-120675952D01*
X137907619Y-121056904D02*
X137450476Y-121056904D01*
X137679047Y-121056904D02*
X137679047Y-120256904D01*
X137602857Y-120371190D01*
X137526666Y-120447380D01*
X137450476Y-120485476D01*
X138593333Y-120523571D02*
X138593333Y-121056904D01*
X138402857Y-120218809D02*
X138212380Y-120790238D01*
X138707619Y-120790238D01*
X137120714Y-136006904D02*
X136854047Y-135625952D01*
X136663571Y-136006904D02*
X136663571Y-135206904D01*
X136968333Y-135206904D01*
X137044523Y-135245000D01*
X137082619Y-135283095D01*
X137120714Y-135359285D01*
X137120714Y-135473571D01*
X137082619Y-135549761D01*
X137044523Y-135587857D01*
X136968333Y-135625952D01*
X136663571Y-135625952D01*
X137882619Y-136006904D02*
X137425476Y-136006904D01*
X137654047Y-136006904D02*
X137654047Y-135206904D01*
X137577857Y-135321190D01*
X137501666Y-135397380D01*
X137425476Y-135435476D01*
X138149285Y-135206904D02*
X138644523Y-135206904D01*
X138377857Y-135511666D01*
X138492142Y-135511666D01*
X138568333Y-135549761D01*
X138606428Y-135587857D01*
X138644523Y-135664047D01*
X138644523Y-135854523D01*
X138606428Y-135930714D01*
X138568333Y-135968809D01*
X138492142Y-136006904D01*
X138263571Y-136006904D01*
X138187380Y-135968809D01*
X138149285Y-135930714D01*
X150599523Y-138106904D02*
X150599523Y-137306904D01*
X150790000Y-137306904D01*
X150904285Y-137345000D01*
X150980476Y-137421190D01*
X151018571Y-137497380D01*
X151056666Y-137649761D01*
X151056666Y-137764047D01*
X151018571Y-137916428D01*
X150980476Y-137992619D01*
X150904285Y-138068809D01*
X150790000Y-138106904D01*
X150599523Y-138106904D01*
X151323333Y-137306904D02*
X151818571Y-137306904D01*
X151551904Y-137611666D01*
X151666190Y-137611666D01*
X151742380Y-137649761D01*
X151780476Y-137687857D01*
X151818571Y-137764047D01*
X151818571Y-137954523D01*
X151780476Y-138030714D01*
X151742380Y-138068809D01*
X151666190Y-138106904D01*
X151437619Y-138106904D01*
X151361428Y-138068809D01*
X151323333Y-138030714D01*
X124474523Y-138081904D02*
X124474523Y-137281904D01*
X124665000Y-137281904D01*
X124779285Y-137320000D01*
X124855476Y-137396190D01*
X124893571Y-137472380D01*
X124931666Y-137624761D01*
X124931666Y-137739047D01*
X124893571Y-137891428D01*
X124855476Y-137967619D01*
X124779285Y-138043809D01*
X124665000Y-138081904D01*
X124474523Y-138081904D01*
X125617380Y-137548571D02*
X125617380Y-138081904D01*
X125426904Y-137243809D02*
X125236428Y-137815238D01*
X125731666Y-137815238D01*
X150270714Y-135906904D02*
X150004047Y-135525952D01*
X149813571Y-135906904D02*
X149813571Y-135106904D01*
X150118333Y-135106904D01*
X150194523Y-135145000D01*
X150232619Y-135183095D01*
X150270714Y-135259285D01*
X150270714Y-135373571D01*
X150232619Y-135449761D01*
X150194523Y-135487857D01*
X150118333Y-135525952D01*
X149813571Y-135525952D01*
X151032619Y-135906904D02*
X150575476Y-135906904D01*
X150804047Y-135906904D02*
X150804047Y-135106904D01*
X150727857Y-135221190D01*
X150651666Y-135297380D01*
X150575476Y-135335476D01*
X151756428Y-135106904D02*
X151375476Y-135106904D01*
X151337380Y-135487857D01*
X151375476Y-135449761D01*
X151451666Y-135411666D01*
X151642142Y-135411666D01*
X151718333Y-135449761D01*
X151756428Y-135487857D01*
X151794523Y-135564047D01*
X151794523Y-135754523D01*
X151756428Y-135830714D01*
X151718333Y-135868809D01*
X151642142Y-135906904D01*
X151451666Y-135906904D01*
X151375476Y-135868809D01*
X151337380Y-135830714D01*
X124145714Y-136006904D02*
X123879047Y-135625952D01*
X123688571Y-136006904D02*
X123688571Y-135206904D01*
X123993333Y-135206904D01*
X124069523Y-135245000D01*
X124107619Y-135283095D01*
X124145714Y-135359285D01*
X124145714Y-135473571D01*
X124107619Y-135549761D01*
X124069523Y-135587857D01*
X123993333Y-135625952D01*
X123688571Y-135625952D01*
X124907619Y-136006904D02*
X124450476Y-136006904D01*
X124679047Y-136006904D02*
X124679047Y-135206904D01*
X124602857Y-135321190D01*
X124526666Y-135397380D01*
X124450476Y-135435476D01*
X125593333Y-135206904D02*
X125440952Y-135206904D01*
X125364761Y-135245000D01*
X125326666Y-135283095D01*
X125250476Y-135397380D01*
X125212380Y-135549761D01*
X125212380Y-135854523D01*
X125250476Y-135930714D01*
X125288571Y-135968809D01*
X125364761Y-136006904D01*
X125517142Y-136006904D01*
X125593333Y-135968809D01*
X125631428Y-135930714D01*
X125669523Y-135854523D01*
X125669523Y-135664047D01*
X125631428Y-135587857D01*
X125593333Y-135549761D01*
X125517142Y-135511666D01*
X125364761Y-135511666D01*
X125288571Y-135549761D01*
X125250476Y-135587857D01*
X125212380Y-135664047D01*
X124574523Y-152206904D02*
X124574523Y-151406904D01*
X124765000Y-151406904D01*
X124879285Y-151445000D01*
X124955476Y-151521190D01*
X124993571Y-151597380D01*
X125031666Y-151749761D01*
X125031666Y-151864047D01*
X124993571Y-152016428D01*
X124955476Y-152092619D01*
X124879285Y-152168809D01*
X124765000Y-152206904D01*
X124574523Y-152206904D01*
X125755476Y-151406904D02*
X125374523Y-151406904D01*
X125336428Y-151787857D01*
X125374523Y-151749761D01*
X125450714Y-151711666D01*
X125641190Y-151711666D01*
X125717380Y-151749761D01*
X125755476Y-151787857D01*
X125793571Y-151864047D01*
X125793571Y-152054523D01*
X125755476Y-152130714D01*
X125717380Y-152168809D01*
X125641190Y-152206904D01*
X125450714Y-152206904D01*
X125374523Y-152168809D01*
X125336428Y-152130714D01*
X124424523Y-123056904D02*
X124424523Y-122256904D01*
X124615000Y-122256904D01*
X124729285Y-122295000D01*
X124805476Y-122371190D01*
X124843571Y-122447380D01*
X124881666Y-122599761D01*
X124881666Y-122714047D01*
X124843571Y-122866428D01*
X124805476Y-122942619D01*
X124729285Y-123018809D01*
X124615000Y-123056904D01*
X124424523Y-123056904D01*
X125567380Y-122256904D02*
X125415000Y-122256904D01*
X125338809Y-122295000D01*
X125300714Y-122333095D01*
X125224523Y-122447380D01*
X125186428Y-122599761D01*
X125186428Y-122904523D01*
X125224523Y-122980714D01*
X125262619Y-123018809D01*
X125338809Y-123056904D01*
X125491190Y-123056904D01*
X125567380Y-123018809D01*
X125605476Y-122980714D01*
X125643571Y-122904523D01*
X125643571Y-122714047D01*
X125605476Y-122637857D01*
X125567380Y-122599761D01*
X125491190Y-122561666D01*
X125338809Y-122561666D01*
X125262619Y-122599761D01*
X125224523Y-122637857D01*
X125186428Y-122714047D01*
X124195714Y-150081904D02*
X123929047Y-149700952D01*
X123738571Y-150081904D02*
X123738571Y-149281904D01*
X124043333Y-149281904D01*
X124119523Y-149320000D01*
X124157619Y-149358095D01*
X124195714Y-149434285D01*
X124195714Y-149548571D01*
X124157619Y-149624761D01*
X124119523Y-149662857D01*
X124043333Y-149700952D01*
X123738571Y-149700952D01*
X124957619Y-150081904D02*
X124500476Y-150081904D01*
X124729047Y-150081904D02*
X124729047Y-149281904D01*
X124652857Y-149396190D01*
X124576666Y-149472380D01*
X124500476Y-149510476D01*
X125224285Y-149281904D02*
X125757619Y-149281904D01*
X125414761Y-150081904D01*
X124020714Y-120981904D02*
X123754047Y-120600952D01*
X123563571Y-120981904D02*
X123563571Y-120181904D01*
X123868333Y-120181904D01*
X123944523Y-120220000D01*
X123982619Y-120258095D01*
X124020714Y-120334285D01*
X124020714Y-120448571D01*
X123982619Y-120524761D01*
X123944523Y-120562857D01*
X123868333Y-120600952D01*
X123563571Y-120600952D01*
X124782619Y-120981904D02*
X124325476Y-120981904D01*
X124554047Y-120981904D02*
X124554047Y-120181904D01*
X124477857Y-120296190D01*
X124401666Y-120372380D01*
X124325476Y-120410476D01*
X125239761Y-120524761D02*
X125163571Y-120486666D01*
X125125476Y-120448571D01*
X125087380Y-120372380D01*
X125087380Y-120334285D01*
X125125476Y-120258095D01*
X125163571Y-120220000D01*
X125239761Y-120181904D01*
X125392142Y-120181904D01*
X125468333Y-120220000D01*
X125506428Y-120258095D01*
X125544523Y-120334285D01*
X125544523Y-120372380D01*
X125506428Y-120448571D01*
X125468333Y-120486666D01*
X125392142Y-120524761D01*
X125239761Y-120524761D01*
X125163571Y-120562857D01*
X125125476Y-120600952D01*
X125087380Y-120677142D01*
X125087380Y-120829523D01*
X125125476Y-120905714D01*
X125163571Y-120943809D01*
X125239761Y-120981904D01*
X125392142Y-120981904D01*
X125468333Y-120943809D01*
X125506428Y-120905714D01*
X125544523Y-120829523D01*
X125544523Y-120677142D01*
X125506428Y-120600952D01*
X125468333Y-120562857D01*
X125392142Y-120524761D01*
X137419523Y-152106904D02*
X137419523Y-151306904D01*
X137610000Y-151306904D01*
X137724285Y-151345000D01*
X137800476Y-151421190D01*
X137838571Y-151497380D01*
X137876666Y-151649761D01*
X137876666Y-151764047D01*
X137838571Y-151916428D01*
X137800476Y-151992619D01*
X137724285Y-152068809D01*
X137610000Y-152106904D01*
X137419523Y-152106904D01*
X138143333Y-151306904D02*
X138676666Y-151306904D01*
X138333809Y-152106904D01*
X136967142Y-150047380D02*
X136633809Y-149571190D01*
X136395714Y-150047380D02*
X136395714Y-149047380D01*
X136776666Y-149047380D01*
X136871904Y-149095000D01*
X136919523Y-149142619D01*
X136967142Y-149237857D01*
X136967142Y-149380714D01*
X136919523Y-149475952D01*
X136871904Y-149523571D01*
X136776666Y-149571190D01*
X136395714Y-149571190D01*
X137919523Y-150047380D02*
X137348095Y-150047380D01*
X137633809Y-150047380D02*
X137633809Y-149047380D01*
X137538571Y-149190238D01*
X137443333Y-149285476D01*
X137348095Y-149333095D01*
X138395714Y-150047380D02*
X138586190Y-150047380D01*
X138681428Y-149999761D01*
X138729047Y-149952142D01*
X138824285Y-149809285D01*
X138871904Y-149618809D01*
X138871904Y-149237857D01*
X138824285Y-149142619D01*
X138776666Y-149095000D01*
X138681428Y-149047380D01*
X138490952Y-149047380D01*
X138395714Y-149095000D01*
X138348095Y-149142619D01*
X138300476Y-149237857D01*
X138300476Y-149475952D01*
X138348095Y-149571190D01*
X138395714Y-149618809D01*
X138490952Y-149666428D01*
X138681428Y-149666428D01*
X138776666Y-149618809D01*
X138824285Y-149571190D01*
X138871904Y-149475952D01*
X150446904Y-152647380D02*
X150446904Y-151647380D01*
X150685000Y-151647380D01*
X150827857Y-151695000D01*
X150923095Y-151790238D01*
X150970714Y-151885476D01*
X151018333Y-152075952D01*
X151018333Y-152218809D01*
X150970714Y-152409285D01*
X150923095Y-152504523D01*
X150827857Y-152599761D01*
X150685000Y-152647380D01*
X150446904Y-152647380D01*
X151589761Y-152075952D02*
X151494523Y-152028333D01*
X151446904Y-151980714D01*
X151399285Y-151885476D01*
X151399285Y-151837857D01*
X151446904Y-151742619D01*
X151494523Y-151695000D01*
X151589761Y-151647380D01*
X151780238Y-151647380D01*
X151875476Y-151695000D01*
X151923095Y-151742619D01*
X151970714Y-151837857D01*
X151970714Y-151885476D01*
X151923095Y-151980714D01*
X151875476Y-152028333D01*
X151780238Y-152075952D01*
X151589761Y-152075952D01*
X151494523Y-152123571D01*
X151446904Y-152171190D01*
X151399285Y-152266428D01*
X151399285Y-152456904D01*
X151446904Y-152552142D01*
X151494523Y-152599761D01*
X151589761Y-152647380D01*
X151780238Y-152647380D01*
X151875476Y-152599761D01*
X151923095Y-152552142D01*
X151970714Y-152456904D01*
X151970714Y-152266428D01*
X151923095Y-152171190D01*
X151875476Y-152123571D01*
X151780238Y-152075952D01*
X150968333Y-150397380D02*
X150635000Y-149921190D01*
X150396904Y-150397380D02*
X150396904Y-149397380D01*
X150777857Y-149397380D01*
X150873095Y-149445000D01*
X150920714Y-149492619D01*
X150968333Y-149587857D01*
X150968333Y-149730714D01*
X150920714Y-149825952D01*
X150873095Y-149873571D01*
X150777857Y-149921190D01*
X150396904Y-149921190D01*
X151920714Y-150397380D02*
X151349285Y-150397380D01*
X151635000Y-150397380D02*
X151635000Y-149397380D01*
X151539761Y-149540238D01*
X151444523Y-149635476D01*
X151349285Y-149683095D01*
X128423095Y-96387380D02*
X128423095Y-97196904D01*
X128470714Y-97292142D01*
X128518333Y-97339761D01*
X128613571Y-97387380D01*
X128804047Y-97387380D01*
X128899285Y-97339761D01*
X128946904Y-97292142D01*
X128994523Y-97196904D01*
X128994523Y-96387380D01*
X129946904Y-96387380D02*
X129470714Y-96387380D01*
X129423095Y-96863571D01*
X129470714Y-96815952D01*
X129565952Y-96768333D01*
X129804047Y-96768333D01*
X129899285Y-96815952D01*
X129946904Y-96863571D01*
X129994523Y-96958809D01*
X129994523Y-97196904D01*
X129946904Y-97292142D01*
X129899285Y-97339761D01*
X129804047Y-97387380D01*
X129565952Y-97387380D01*
X129470714Y-97339761D01*
X129423095Y-97292142D01*
X119746904Y-101141428D02*
X118946904Y-101141428D01*
X118946904Y-100950952D01*
X118985000Y-100836666D01*
X119061190Y-100760476D01*
X119137380Y-100722380D01*
X119289761Y-100684285D01*
X119404047Y-100684285D01*
X119556428Y-100722380D01*
X119632619Y-100760476D01*
X119708809Y-100836666D01*
X119746904Y-100950952D01*
X119746904Y-101141428D01*
X119746904Y-99922380D02*
X119746904Y-100379523D01*
X119746904Y-100150952D02*
X118946904Y-100150952D01*
X119061190Y-100227142D01*
X119137380Y-100303333D01*
X119175476Y-100379523D01*
X118946904Y-99427142D02*
X118946904Y-99350952D01*
X118985000Y-99274761D01*
X119023095Y-99236666D01*
X119099285Y-99198571D01*
X119251666Y-99160476D01*
X119442142Y-99160476D01*
X119594523Y-99198571D01*
X119670714Y-99236666D01*
X119708809Y-99274761D01*
X119746904Y-99350952D01*
X119746904Y-99427142D01*
X119708809Y-99503333D01*
X119670714Y-99541428D01*
X119594523Y-99579523D01*
X119442142Y-99617619D01*
X119251666Y-99617619D01*
X119099285Y-99579523D01*
X119023095Y-99541428D01*
X118985000Y-99503333D01*
X118946904Y-99427142D01*
X121521904Y-108159285D02*
X121140952Y-108425952D01*
X121521904Y-108616428D02*
X120721904Y-108616428D01*
X120721904Y-108311666D01*
X120760000Y-108235476D01*
X120798095Y-108197380D01*
X120874285Y-108159285D01*
X120988571Y-108159285D01*
X121064761Y-108197380D01*
X121102857Y-108235476D01*
X121140952Y-108311666D01*
X121140952Y-108616428D01*
X120798095Y-107854523D02*
X120760000Y-107816428D01*
X120721904Y-107740238D01*
X120721904Y-107549761D01*
X120760000Y-107473571D01*
X120798095Y-107435476D01*
X120874285Y-107397380D01*
X120950476Y-107397380D01*
X121064761Y-107435476D01*
X121521904Y-107892619D01*
X121521904Y-107397380D01*
X121521904Y-106635476D02*
X121521904Y-107092619D01*
X121521904Y-106864047D02*
X120721904Y-106864047D01*
X120836190Y-106940238D01*
X120912380Y-107016428D01*
X120950476Y-107092619D01*
X106396904Y-101060476D02*
X105596904Y-101060476D01*
X105596904Y-100870000D01*
X105635000Y-100755714D01*
X105711190Y-100679523D01*
X105787380Y-100641428D01*
X105939761Y-100603333D01*
X106054047Y-100603333D01*
X106206428Y-100641428D01*
X106282619Y-100679523D01*
X106358809Y-100755714D01*
X106396904Y-100870000D01*
X106396904Y-101060476D01*
X106396904Y-100222380D02*
X106396904Y-100070000D01*
X106358809Y-99993809D01*
X106320714Y-99955714D01*
X106206428Y-99879523D01*
X106054047Y-99841428D01*
X105749285Y-99841428D01*
X105673095Y-99879523D01*
X105635000Y-99917619D01*
X105596904Y-99993809D01*
X105596904Y-100146190D01*
X105635000Y-100222380D01*
X105673095Y-100260476D01*
X105749285Y-100298571D01*
X105939761Y-100298571D01*
X106015952Y-100260476D01*
X106054047Y-100222380D01*
X106092142Y-100146190D01*
X106092142Y-99993809D01*
X106054047Y-99917619D01*
X106015952Y-99879523D01*
X105939761Y-99841428D01*
X147833095Y-121022380D02*
X147833095Y-121831904D01*
X147880714Y-121927142D01*
X147928333Y-121974761D01*
X148023571Y-122022380D01*
X148214047Y-122022380D01*
X148309285Y-121974761D01*
X148356904Y-121927142D01*
X148404523Y-121831904D01*
X148404523Y-121022380D01*
X149309285Y-121022380D02*
X149118809Y-121022380D01*
X149023571Y-121070000D01*
X148975952Y-121117619D01*
X148880714Y-121260476D01*
X148833095Y-121450952D01*
X148833095Y-121831904D01*
X148880714Y-121927142D01*
X148928333Y-121974761D01*
X149023571Y-122022380D01*
X149214047Y-122022380D01*
X149309285Y-121974761D01*
X149356904Y-121927142D01*
X149404523Y-121831904D01*
X149404523Y-121593809D01*
X149356904Y-121498571D01*
X149309285Y-121450952D01*
X149214047Y-121403333D01*
X149023571Y-121403333D01*
X148928333Y-121450952D01*
X148880714Y-121498571D01*
X148833095Y-121593809D01*
X106446904Y-104884285D02*
X106065952Y-105150952D01*
X106446904Y-105341428D02*
X105646904Y-105341428D01*
X105646904Y-105036666D01*
X105685000Y-104960476D01*
X105723095Y-104922380D01*
X105799285Y-104884285D01*
X105913571Y-104884285D01*
X105989761Y-104922380D01*
X106027857Y-104960476D01*
X106065952Y-105036666D01*
X106065952Y-105341428D01*
X105723095Y-104579523D02*
X105685000Y-104541428D01*
X105646904Y-104465238D01*
X105646904Y-104274761D01*
X105685000Y-104198571D01*
X105723095Y-104160476D01*
X105799285Y-104122380D01*
X105875476Y-104122380D01*
X105989761Y-104160476D01*
X106446904Y-104617619D01*
X106446904Y-104122380D01*
X105646904Y-103627142D02*
X105646904Y-103550952D01*
X105685000Y-103474761D01*
X105723095Y-103436666D01*
X105799285Y-103398571D01*
X105951666Y-103360476D01*
X106142142Y-103360476D01*
X106294523Y-103398571D01*
X106370714Y-103436666D01*
X106408809Y-103474761D01*
X106446904Y-103550952D01*
X106446904Y-103627142D01*
X106408809Y-103703333D01*
X106370714Y-103741428D01*
X106294523Y-103779523D01*
X106142142Y-103817619D01*
X105951666Y-103817619D01*
X105799285Y-103779523D01*
X105723095Y-103741428D01*
X105685000Y-103703333D01*
X105646904Y-103627142D01*
X124096904Y-115658333D02*
X123715952Y-115925000D01*
X124096904Y-116115476D02*
X123296904Y-116115476D01*
X123296904Y-115810714D01*
X123335000Y-115734523D01*
X123373095Y-115696428D01*
X123449285Y-115658333D01*
X123563571Y-115658333D01*
X123639761Y-115696428D01*
X123677857Y-115734523D01*
X123715952Y-115810714D01*
X123715952Y-116115476D01*
X123373095Y-115353571D02*
X123335000Y-115315476D01*
X123296904Y-115239285D01*
X123296904Y-115048809D01*
X123335000Y-114972619D01*
X123373095Y-114934523D01*
X123449285Y-114896428D01*
X123525476Y-114896428D01*
X123639761Y-114934523D01*
X124096904Y-115391666D01*
X124096904Y-114896428D01*
X129637380Y-109717857D02*
X129161190Y-110051190D01*
X129637380Y-110289285D02*
X128637380Y-110289285D01*
X128637380Y-109908333D01*
X128685000Y-109813095D01*
X128732619Y-109765476D01*
X128827857Y-109717857D01*
X128970714Y-109717857D01*
X129065952Y-109765476D01*
X129113571Y-109813095D01*
X129161190Y-109908333D01*
X129161190Y-110289285D01*
X128732619Y-109336904D02*
X128685000Y-109289285D01*
X128637380Y-109194047D01*
X128637380Y-108955952D01*
X128685000Y-108860714D01*
X128732619Y-108813095D01*
X128827857Y-108765476D01*
X128923095Y-108765476D01*
X129065952Y-108813095D01*
X129637380Y-109384523D01*
X129637380Y-108765476D01*
X128732619Y-108384523D02*
X128685000Y-108336904D01*
X128637380Y-108241666D01*
X128637380Y-108003571D01*
X128685000Y-107908333D01*
X128732619Y-107860714D01*
X128827857Y-107813095D01*
X128923095Y-107813095D01*
X129065952Y-107860714D01*
X129637380Y-108432142D01*
X129637380Y-107813095D01*
X124137380Y-109767857D02*
X123661190Y-110101190D01*
X124137380Y-110339285D02*
X123137380Y-110339285D01*
X123137380Y-109958333D01*
X123185000Y-109863095D01*
X123232619Y-109815476D01*
X123327857Y-109767857D01*
X123470714Y-109767857D01*
X123565952Y-109815476D01*
X123613571Y-109863095D01*
X123661190Y-109958333D01*
X123661190Y-110339285D01*
X123232619Y-109386904D02*
X123185000Y-109339285D01*
X123137380Y-109244047D01*
X123137380Y-109005952D01*
X123185000Y-108910714D01*
X123232619Y-108863095D01*
X123327857Y-108815476D01*
X123423095Y-108815476D01*
X123565952Y-108863095D01*
X124137380Y-109434523D01*
X124137380Y-108815476D01*
X123137380Y-108482142D02*
X123137380Y-107863095D01*
X123518333Y-108196428D01*
X123518333Y-108053571D01*
X123565952Y-107958333D01*
X123613571Y-107910714D01*
X123708809Y-107863095D01*
X123946904Y-107863095D01*
X124042142Y-107910714D01*
X124089761Y-107958333D01*
X124137380Y-108053571D01*
X124137380Y-108339285D01*
X124089761Y-108434523D01*
X124042142Y-108482142D01*
X136289761Y-139552380D02*
X135956428Y-139076190D01*
X135718333Y-139552380D02*
X135718333Y-138552380D01*
X136099285Y-138552380D01*
X136194523Y-138600000D01*
X136242142Y-138647619D01*
X136289761Y-138742857D01*
X136289761Y-138885714D01*
X136242142Y-138980952D01*
X136194523Y-139028571D01*
X136099285Y-139076190D01*
X135718333Y-139076190D01*
X136575476Y-138552380D02*
X136908809Y-139552380D01*
X137242142Y-138552380D01*
X137527857Y-138647619D02*
X137575476Y-138600000D01*
X137670714Y-138552380D01*
X137908809Y-138552380D01*
X138004047Y-138600000D01*
X138051666Y-138647619D01*
X138099285Y-138742857D01*
X138099285Y-138838095D01*
X138051666Y-138980952D01*
X137480238Y-139552380D01*
X138099285Y-139552380D01*
X136289761Y-124552380D02*
X135956428Y-124076190D01*
X135718333Y-124552380D02*
X135718333Y-123552380D01*
X136099285Y-123552380D01*
X136194523Y-123600000D01*
X136242142Y-123647619D01*
X136289761Y-123742857D01*
X136289761Y-123885714D01*
X136242142Y-123980952D01*
X136194523Y-124028571D01*
X136099285Y-124076190D01*
X135718333Y-124076190D01*
X136575476Y-123552380D02*
X136908809Y-124552380D01*
X137242142Y-123552380D01*
X137480238Y-123552380D02*
X138099285Y-123552380D01*
X137765952Y-123933333D01*
X137908809Y-123933333D01*
X138004047Y-123980952D01*
X138051666Y-124028571D01*
X138099285Y-124123809D01*
X138099285Y-124361904D01*
X138051666Y-124457142D01*
X138004047Y-124504761D01*
X137908809Y-124552380D01*
X137623095Y-124552380D01*
X137527857Y-124504761D01*
X137480238Y-124457142D01*
X136289761Y-153552380D02*
X135956428Y-153076190D01*
X135718333Y-153552380D02*
X135718333Y-152552380D01*
X136099285Y-152552380D01*
X136194523Y-152600000D01*
X136242142Y-152647619D01*
X136289761Y-152742857D01*
X136289761Y-152885714D01*
X136242142Y-152980952D01*
X136194523Y-153028571D01*
X136099285Y-153076190D01*
X135718333Y-153076190D01*
X136575476Y-152552380D02*
X136908809Y-153552380D01*
X137242142Y-152552380D01*
X138004047Y-152885714D02*
X138004047Y-153552380D01*
X137765952Y-152504761D02*
X137527857Y-153219047D01*
X138146904Y-153219047D01*
X121547380Y-142195238D02*
X121071190Y-142528571D01*
X121547380Y-142766666D02*
X120547380Y-142766666D01*
X120547380Y-142385714D01*
X120595000Y-142290476D01*
X120642619Y-142242857D01*
X120737857Y-142195238D01*
X120880714Y-142195238D01*
X120975952Y-142242857D01*
X121023571Y-142290476D01*
X121071190Y-142385714D01*
X121071190Y-142766666D01*
X120547380Y-141909523D02*
X121547380Y-141576190D01*
X120547380Y-141242857D01*
X120547380Y-140433333D02*
X120547380Y-140909523D01*
X121023571Y-140957142D01*
X120975952Y-140909523D01*
X120928333Y-140814285D01*
X120928333Y-140576190D01*
X120975952Y-140480952D01*
X121023571Y-140433333D01*
X121118809Y-140385714D01*
X121356904Y-140385714D01*
X121452142Y-140433333D01*
X121499761Y-140480952D01*
X121547380Y-140576190D01*
X121547380Y-140814285D01*
X121499761Y-140909523D01*
X121452142Y-140957142D01*
X121587380Y-156195238D02*
X121111190Y-156528571D01*
X121587380Y-156766666D02*
X120587380Y-156766666D01*
X120587380Y-156385714D01*
X120635000Y-156290476D01*
X120682619Y-156242857D01*
X120777857Y-156195238D01*
X120920714Y-156195238D01*
X121015952Y-156242857D01*
X121063571Y-156290476D01*
X121111190Y-156385714D01*
X121111190Y-156766666D01*
X120587380Y-155909523D02*
X121587380Y-155576190D01*
X120587380Y-155242857D01*
X120587380Y-154480952D02*
X120587380Y-154671428D01*
X120635000Y-154766666D01*
X120682619Y-154814285D01*
X120825476Y-154909523D01*
X121015952Y-154957142D01*
X121396904Y-154957142D01*
X121492142Y-154909523D01*
X121539761Y-154861904D01*
X121587380Y-154766666D01*
X121587380Y-154576190D01*
X121539761Y-154480952D01*
X121492142Y-154433333D01*
X121396904Y-154385714D01*
X121158809Y-154385714D01*
X121063571Y-154433333D01*
X121015952Y-154480952D01*
X120968333Y-154576190D01*
X120968333Y-154766666D01*
X121015952Y-154861904D01*
X121063571Y-154909523D01*
X121158809Y-154957142D01*
X151289761Y-139802380D02*
X150956428Y-139326190D01*
X150718333Y-139802380D02*
X150718333Y-138802380D01*
X151099285Y-138802380D01*
X151194523Y-138850000D01*
X151242142Y-138897619D01*
X151289761Y-138992857D01*
X151289761Y-139135714D01*
X151242142Y-139230952D01*
X151194523Y-139278571D01*
X151099285Y-139326190D01*
X150718333Y-139326190D01*
X151575476Y-138802380D02*
X151908809Y-139802380D01*
X152242142Y-138802380D01*
X152718333Y-139230952D02*
X152623095Y-139183333D01*
X152575476Y-139135714D01*
X152527857Y-139040476D01*
X152527857Y-138992857D01*
X152575476Y-138897619D01*
X152623095Y-138850000D01*
X152718333Y-138802380D01*
X152908809Y-138802380D01*
X153004047Y-138850000D01*
X153051666Y-138897619D01*
X153099285Y-138992857D01*
X153099285Y-139040476D01*
X153051666Y-139135714D01*
X153004047Y-139183333D01*
X152908809Y-139230952D01*
X152718333Y-139230952D01*
X152623095Y-139278571D01*
X152575476Y-139326190D01*
X152527857Y-139421428D01*
X152527857Y-139611904D01*
X152575476Y-139707142D01*
X152623095Y-139754761D01*
X152718333Y-139802380D01*
X152908809Y-139802380D01*
X153004047Y-139754761D01*
X153051666Y-139707142D01*
X153099285Y-139611904D01*
X153099285Y-139421428D01*
X153051666Y-139326190D01*
X153004047Y-139278571D01*
X152908809Y-139230952D01*
X149797380Y-156195238D02*
X149321190Y-156528571D01*
X149797380Y-156766666D02*
X148797380Y-156766666D01*
X148797380Y-156385714D01*
X148845000Y-156290476D01*
X148892619Y-156242857D01*
X148987857Y-156195238D01*
X149130714Y-156195238D01*
X149225952Y-156242857D01*
X149273571Y-156290476D01*
X149321190Y-156385714D01*
X149321190Y-156766666D01*
X148797380Y-155909523D02*
X149797380Y-155576190D01*
X148797380Y-155242857D01*
X149797380Y-154385714D02*
X149797380Y-154957142D01*
X149797380Y-154671428D02*
X148797380Y-154671428D01*
X148940238Y-154766666D01*
X149035476Y-154861904D01*
X149083095Y-154957142D01*
X121047380Y-127195238D02*
X120571190Y-127528571D01*
X121047380Y-127766666D02*
X120047380Y-127766666D01*
X120047380Y-127385714D01*
X120095000Y-127290476D01*
X120142619Y-127242857D01*
X120237857Y-127195238D01*
X120380714Y-127195238D01*
X120475952Y-127242857D01*
X120523571Y-127290476D01*
X120571190Y-127385714D01*
X120571190Y-127766666D01*
X120047380Y-126909523D02*
X121047380Y-126576190D01*
X120047380Y-126242857D01*
X120047380Y-126004761D02*
X120047380Y-125338095D01*
X121047380Y-125766666D01*
X166325595Y-155172000D02*
X166325595Y-154172000D01*
X166325595Y-154648191D02*
X166897023Y-154648191D01*
X166897023Y-155172000D02*
X166897023Y-154172000D01*
X167849404Y-154172000D02*
X167373214Y-154172000D01*
X167325595Y-154648191D01*
X167373214Y-154600572D01*
X167468452Y-154552953D01*
X167706547Y-154552953D01*
X167801785Y-154600572D01*
X167849404Y-154648191D01*
X167897023Y-154743429D01*
X167897023Y-154981524D01*
X167849404Y-155076762D01*
X167801785Y-155124381D01*
X167706547Y-155172000D01*
X167468452Y-155172000D01*
X167373214Y-155124381D01*
X167325595Y-155076762D01*
X170072380Y-87783333D02*
X170786666Y-87783333D01*
X170929523Y-87830952D01*
X171024761Y-87926190D01*
X171072380Y-88069047D01*
X171072380Y-88164285D01*
X171072380Y-86783333D02*
X171072380Y-87354761D01*
X171072380Y-87069047D02*
X170072380Y-87069047D01*
X170215238Y-87164285D01*
X170310476Y-87259523D01*
X170358095Y-87354761D01*
D13*
X142032380Y-73654523D02*
X142032380Y-74682619D01*
X142092857Y-74803571D01*
X142153333Y-74864047D01*
X142274285Y-74924523D01*
X142516190Y-74924523D01*
X142637142Y-74864047D01*
X142697619Y-74803571D01*
X142758095Y-74682619D01*
X142758095Y-73654523D01*
X143241904Y-73654523D02*
X144088571Y-73654523D01*
X143544285Y-74924523D01*
D11*
X96754166Y-24322000D02*
X96754166Y-25036286D01*
X96706547Y-25179143D01*
X96611309Y-25274381D01*
X96468452Y-25322000D01*
X96373214Y-25322000D01*
X97182738Y-24417239D02*
X97230357Y-24369620D01*
X97325595Y-24322000D01*
X97563690Y-24322000D01*
X97658928Y-24369620D01*
X97706547Y-24417239D01*
X97754166Y-24512477D01*
X97754166Y-24607715D01*
X97706547Y-24750572D01*
X97135119Y-25322000D01*
X97754166Y-25322000D01*
X26313595Y-95572000D02*
X26313595Y-94572000D01*
X26313595Y-95048191D02*
X26885023Y-95048191D01*
X26885023Y-95572000D02*
X26885023Y-94572000D01*
X27265976Y-94572000D02*
X27885023Y-94572000D01*
X27551690Y-94952953D01*
X27694547Y-94952953D01*
X27789785Y-95000572D01*
X27837404Y-95048191D01*
X27885023Y-95143429D01*
X27885023Y-95381524D01*
X27837404Y-95476762D01*
X27789785Y-95524381D01*
X27694547Y-95572000D01*
X27408833Y-95572000D01*
X27313595Y-95524381D01*
X27265976Y-95476762D01*
X166313595Y-30215705D02*
X166313595Y-29215705D01*
X166313595Y-29691896D02*
X166885023Y-29691896D01*
X166885023Y-30215705D02*
X166885023Y-29215705D01*
X167313595Y-29310944D02*
X167361214Y-29263325D01*
X167456452Y-29215705D01*
X167694547Y-29215705D01*
X167789785Y-29263325D01*
X167837404Y-29310944D01*
X167885023Y-29406182D01*
X167885023Y-29501420D01*
X167837404Y-29644277D01*
X167265976Y-30215705D01*
X167885023Y-30215705D01*
X79173095Y-56207380D02*
X79173095Y-57016904D01*
X79220714Y-57112142D01*
X79268333Y-57159761D01*
X79363571Y-57207380D01*
X79554047Y-57207380D01*
X79649285Y-57159761D01*
X79696904Y-57112142D01*
X79744523Y-57016904D01*
X79744523Y-56207380D01*
X80363571Y-56635952D02*
X80268333Y-56588333D01*
X80220714Y-56540714D01*
X80173095Y-56445476D01*
X80173095Y-56397857D01*
X80220714Y-56302619D01*
X80268333Y-56255000D01*
X80363571Y-56207380D01*
X80554047Y-56207380D01*
X80649285Y-56255000D01*
X80696904Y-56302619D01*
X80744523Y-56397857D01*
X80744523Y-56445476D01*
X80696904Y-56540714D01*
X80649285Y-56588333D01*
X80554047Y-56635952D01*
X80363571Y-56635952D01*
X80268333Y-56683571D01*
X80220714Y-56731190D01*
X80173095Y-56826428D01*
X80173095Y-57016904D01*
X80220714Y-57112142D01*
X80268333Y-57159761D01*
X80363571Y-57207380D01*
X80554047Y-57207380D01*
X80649285Y-57159761D01*
X80696904Y-57112142D01*
X80744523Y-57016904D01*
X80744523Y-56826428D01*
X80696904Y-56731190D01*
X80649285Y-56683571D01*
X80554047Y-56635952D01*
X147833333Y-68527142D02*
X147785714Y-68574761D01*
X147642857Y-68622380D01*
X147547619Y-68622380D01*
X147404761Y-68574761D01*
X147309523Y-68479523D01*
X147261904Y-68384285D01*
X147214285Y-68193809D01*
X147214285Y-68050952D01*
X147261904Y-67860476D01*
X147309523Y-67765238D01*
X147404761Y-67670000D01*
X147547619Y-67622380D01*
X147642857Y-67622380D01*
X147785714Y-67670000D01*
X147833333Y-67717619D01*
X148309523Y-68622380D02*
X148500000Y-68622380D01*
X148595238Y-68574761D01*
X148642857Y-68527142D01*
X148738095Y-68384285D01*
X148785714Y-68193809D01*
X148785714Y-67812857D01*
X148738095Y-67717619D01*
X148690476Y-67670000D01*
X148595238Y-67622380D01*
X148404761Y-67622380D01*
X148309523Y-67670000D01*
X148261904Y-67717619D01*
X148214285Y-67812857D01*
X148214285Y-68050952D01*
X148261904Y-68146190D01*
X148309523Y-68193809D01*
X148404761Y-68241428D01*
X148595238Y-68241428D01*
X148690476Y-68193809D01*
X148738095Y-68146190D01*
X148785714Y-68050952D01*
X166313595Y-95572000D02*
X166313595Y-94572000D01*
X166313595Y-95048191D02*
X166885023Y-95048191D01*
X166885023Y-95572000D02*
X166885023Y-94572000D01*
X167789785Y-94905334D02*
X167789785Y-95572000D01*
X167551690Y-94524381D02*
X167313595Y-95238667D01*
X167932642Y-95238667D01*
X26313595Y-30215705D02*
X26313595Y-29215705D01*
X26313595Y-29691896D02*
X26885023Y-29691896D01*
X26885023Y-30215705D02*
X26885023Y-29215705D01*
X27885023Y-30215705D02*
X27313595Y-30215705D01*
X27599309Y-30215705D02*
X27599309Y-29215705D01*
X27504071Y-29358563D01*
X27408833Y-29453801D01*
X27313595Y-29501420D01*
X133833333Y-80907142D02*
X133785714Y-80954761D01*
X133642857Y-81002380D01*
X133547619Y-81002380D01*
X133404761Y-80954761D01*
X133309523Y-80859523D01*
X133261904Y-80764285D01*
X133214285Y-80573809D01*
X133214285Y-80430952D01*
X133261904Y-80240476D01*
X133309523Y-80145238D01*
X133404761Y-80050000D01*
X133547619Y-80002380D01*
X133642857Y-80002380D01*
X133785714Y-80050000D01*
X133833333Y-80097619D01*
X134404761Y-80430952D02*
X134309523Y-80383333D01*
X134261904Y-80335714D01*
X134214285Y-80240476D01*
X134214285Y-80192857D01*
X134261904Y-80097619D01*
X134309523Y-80050000D01*
X134404761Y-80002380D01*
X134595238Y-80002380D01*
X134690476Y-80050000D01*
X134738095Y-80097619D01*
X134785714Y-80192857D01*
X134785714Y-80240476D01*
X134738095Y-80335714D01*
X134690476Y-80383333D01*
X134595238Y-80430952D01*
X134404761Y-80430952D01*
X134309523Y-80478571D01*
X134261904Y-80526190D01*
X134214285Y-80621428D01*
X134214285Y-80811904D01*
X134261904Y-80907142D01*
X134309523Y-80954761D01*
X134404761Y-81002380D01*
X134595238Y-81002380D01*
X134690476Y-80954761D01*
X134738095Y-80907142D01*
X134785714Y-80811904D01*
X134785714Y-80621428D01*
X134738095Y-80526190D01*
X134690476Y-80478571D01*
X134595238Y-80430952D01*
D10*
X157345000Y-94361252D02*
X157345000Y-93838748D01*
X155925000Y-94361252D02*
X155925000Y-93838748D01*
X139845000Y-94361252D02*
X139845000Y-93838748D01*
X138425000Y-94361252D02*
X138425000Y-93838748D01*
X147925000Y-94361252D02*
X147925000Y-93838748D01*
X149345000Y-94361252D02*
X149345000Y-93838748D01*
X128425000Y-94361252D02*
X128425000Y-93838748D01*
X129845000Y-94361252D02*
X129845000Y-93838748D01*
X109025000Y-104661252D02*
X109025000Y-104138748D01*
X110445000Y-104661252D02*
X110445000Y-104138748D01*
X119845000Y-104661252D02*
X119845000Y-104138748D01*
X118425000Y-104661252D02*
X118425000Y-104138748D01*
X147896252Y-110310000D02*
X147373748Y-110310000D01*
X147896252Y-108890000D02*
X147373748Y-108890000D01*
D14*
X120120000Y-150250000D02*
X120120000Y-150950000D01*
X117200000Y-150950000D02*
X117200000Y-150250000D01*
X117155000Y-151900000D02*
X117155000Y-151300000D01*
X117200000Y-150250000D02*
X120120000Y-150250000D01*
X120120000Y-150950000D02*
X117200000Y-150950000D01*
D10*
X151896252Y-108890000D02*
X151373748Y-108890000D01*
X151896252Y-110310000D02*
X151373748Y-110310000D01*
X153848748Y-159390000D02*
X154371252Y-159390000D01*
X153848748Y-160810000D02*
X154371252Y-160810000D01*
X140798748Y-144890000D02*
X141321252Y-144890000D01*
X140798748Y-146310000D02*
X141321252Y-146310000D01*
X154396252Y-146310000D02*
X153873748Y-146310000D01*
X154396252Y-144890000D02*
X153873748Y-144890000D01*
X137623748Y-160060000D02*
X138146252Y-160060000D01*
X137623748Y-158640000D02*
X138146252Y-158640000D01*
X127798748Y-146310000D02*
X128321252Y-146310000D01*
X127798748Y-144890000D02*
X128321252Y-144890000D01*
X127798748Y-131310000D02*
X128321252Y-131310000D01*
X127798748Y-129890000D02*
X128321252Y-129890000D01*
D14*
X111185000Y-102650000D02*
X117685000Y-102650000D01*
X111310000Y-108400000D02*
X111310000Y-106800000D01*
X117685000Y-102650000D02*
X117685000Y-106150000D01*
X111185000Y-106150000D02*
X111185000Y-102650000D01*
X117685000Y-106150000D02*
X111185000Y-106150000D01*
D10*
X137910000Y-98790000D02*
X138710000Y-97990000D01*
X138710000Y-97990000D02*
X140760000Y-97990000D01*
X140760000Y-97990000D02*
X140760000Y-107210000D01*
X140760000Y-107210000D02*
X137910000Y-107210000D01*
X137910000Y-107210000D02*
X137910000Y-98790000D01*
X147010000Y-98790000D02*
X147810000Y-97990000D01*
X149860000Y-97990000D02*
X149860000Y-107210000D01*
X149860000Y-107210000D02*
X147010000Y-107210000D01*
X147010000Y-107210000D02*
X147010000Y-98790000D01*
X147810000Y-97990000D02*
X149860000Y-97990000D01*
X155460000Y-98790000D02*
X156260000Y-97990000D01*
X156260000Y-97990000D02*
X158310000Y-97990000D01*
X158310000Y-97990000D02*
X158310000Y-107210000D01*
X155460000Y-107210000D02*
X155460000Y-98790000D01*
X158310000Y-107210000D02*
X155460000Y-107210000D01*
X121175000Y-113611252D02*
X121175000Y-113088748D01*
X122595000Y-113611252D02*
X122595000Y-113088748D01*
X127798748Y-160080000D02*
X128321252Y-160080000D01*
X127798748Y-158660000D02*
X128321252Y-158660000D01*
X140798748Y-129890000D02*
X141321252Y-129890000D01*
X140798748Y-131310000D02*
X141321252Y-131310000D01*
X142875000Y-137085000D02*
X140015000Y-137085000D01*
X142875000Y-139005000D02*
X142875000Y-137085000D01*
X140015000Y-139005000D02*
X142875000Y-139005000D01*
X142875000Y-121885000D02*
X140015000Y-121885000D01*
X142875000Y-123805000D02*
X142875000Y-121885000D01*
X140015000Y-123805000D02*
X142875000Y-123805000D01*
X141321252Y-120035000D02*
X140798748Y-120035000D01*
X141321252Y-121455000D02*
X140798748Y-121455000D01*
X141321252Y-136555000D02*
X140798748Y-136555000D01*
X141321252Y-135135000D02*
X140798748Y-135135000D01*
X155925000Y-136785000D02*
X153065000Y-136785000D01*
X153065000Y-138705000D02*
X155925000Y-138705000D01*
X155925000Y-138705000D02*
X155925000Y-136785000D01*
X129875000Y-136785000D02*
X127015000Y-136785000D01*
X127015000Y-138705000D02*
X129875000Y-138705000D01*
X129875000Y-138705000D02*
X129875000Y-136785000D01*
X154371252Y-134935000D02*
X153848748Y-134935000D01*
X154371252Y-136355000D02*
X153848748Y-136355000D01*
X128321252Y-136405000D02*
X127798748Y-136405000D01*
X128321252Y-134985000D02*
X127798748Y-134985000D01*
X129875000Y-150910000D02*
X127015000Y-150910000D01*
X127015000Y-152830000D02*
X129875000Y-152830000D01*
X129875000Y-152830000D02*
X129875000Y-150910000D01*
X127015000Y-123730000D02*
X129875000Y-123730000D01*
X129875000Y-121810000D02*
X127015000Y-121810000D01*
X129875000Y-123730000D02*
X129875000Y-121810000D01*
X128321252Y-150530000D02*
X127798748Y-150530000D01*
X128321252Y-149110000D02*
X127798748Y-149110000D01*
X128321252Y-119985000D02*
X127798748Y-119985000D01*
X128321252Y-121405000D02*
X127798748Y-121405000D01*
X142920000Y-152730000D02*
X142920000Y-150810000D01*
X142920000Y-150810000D02*
X140060000Y-150810000D01*
X140060000Y-152730000D02*
X142920000Y-152730000D01*
X141321252Y-148910000D02*
X140798748Y-148910000D01*
X141321252Y-150330000D02*
X140798748Y-150330000D01*
X155945000Y-153155000D02*
X155945000Y-151235000D01*
X155945000Y-151235000D02*
X153085000Y-151235000D01*
X153085000Y-153155000D02*
X155945000Y-153155000D01*
X154371252Y-149285000D02*
X153848748Y-149285000D01*
X154371252Y-150705000D02*
X153848748Y-150705000D01*
X130610000Y-97935000D02*
X130610000Y-107155000D01*
X128560000Y-97935000D02*
X130610000Y-97935000D01*
X127760000Y-107155000D02*
X127760000Y-98735000D01*
X130610000Y-107155000D02*
X127760000Y-107155000D01*
X127760000Y-98735000D02*
X128560000Y-97935000D01*
X122170000Y-98485000D02*
X120250000Y-98485000D01*
X122170000Y-101345000D02*
X122170000Y-98485000D01*
X120250000Y-98485000D02*
X120250000Y-101345000D01*
X120475000Y-104656252D02*
X120475000Y-104133748D01*
X121895000Y-104656252D02*
X121895000Y-104133748D01*
X108695000Y-98585000D02*
X106775000Y-98585000D01*
X106775000Y-98585000D02*
X106775000Y-101445000D01*
X108695000Y-101445000D02*
X108695000Y-98585000D01*
X150010000Y-120755000D02*
X147160000Y-120755000D01*
X147160000Y-112335000D02*
X147960000Y-111535000D01*
X147960000Y-111535000D02*
X150010000Y-111535000D01*
X150010000Y-111535000D02*
X150010000Y-120755000D01*
X147160000Y-120755000D02*
X147160000Y-112335000D01*
X107025000Y-104631252D02*
X107025000Y-104108748D01*
X108445000Y-104631252D02*
X108445000Y-104108748D01*
X126095000Y-115786252D02*
X126095000Y-115263748D01*
X124675000Y-115786252D02*
X124675000Y-115263748D01*
X126825000Y-108813748D02*
X126825000Y-109336252D01*
X128245000Y-108813748D02*
X128245000Y-109336252D01*
X124625000Y-109386252D02*
X124625000Y-108863748D01*
X126045000Y-109386252D02*
X126045000Y-108863748D01*
X141885000Y-140270000D02*
X143215000Y-140270000D01*
X140615000Y-140270000D02*
X140615000Y-142930000D01*
X140615000Y-140270000D02*
X135475000Y-140270000D01*
X140615000Y-142930000D02*
X135475000Y-142930000D01*
X135475000Y-140270000D02*
X135475000Y-142930000D01*
X143215000Y-140270000D02*
X143215000Y-141600000D01*
X140655000Y-125270000D02*
X140655000Y-127930000D01*
X135515000Y-125270000D02*
X135515000Y-127930000D01*
X141925000Y-125270000D02*
X143255000Y-125270000D01*
X140655000Y-127930000D02*
X135515000Y-127930000D01*
X143255000Y-125270000D02*
X143255000Y-126600000D01*
X140655000Y-125270000D02*
X135515000Y-125270000D01*
X140615000Y-156930000D02*
X135475000Y-156930000D01*
X143215000Y-154270000D02*
X143215000Y-155600000D01*
X141885000Y-154270000D02*
X143215000Y-154270000D01*
X140615000Y-154270000D02*
X140615000Y-156930000D01*
X135475000Y-154270000D02*
X135475000Y-156930000D01*
X140615000Y-154270000D02*
X135475000Y-154270000D01*
X121975000Y-140270000D02*
X121975000Y-142930000D01*
X129715000Y-140270000D02*
X129715000Y-141600000D01*
X127115000Y-142930000D02*
X121975000Y-142930000D01*
X128385000Y-140270000D02*
X129715000Y-140270000D01*
X127115000Y-140270000D02*
X121975000Y-140270000D01*
X127115000Y-140270000D02*
X127115000Y-142930000D01*
X128385000Y-154270000D02*
X129715000Y-154270000D01*
X127115000Y-154270000D02*
X121975000Y-154270000D01*
X127115000Y-156930000D02*
X121975000Y-156930000D01*
X121975000Y-154270000D02*
X121975000Y-156930000D01*
X127115000Y-154270000D02*
X127115000Y-156930000D01*
X129715000Y-154270000D02*
X129715000Y-155600000D01*
X155615000Y-140270000D02*
X155615000Y-142930000D01*
X155615000Y-140270000D02*
X150475000Y-140270000D01*
X156885000Y-140270000D02*
X158215000Y-140270000D01*
X155615000Y-142930000D02*
X150475000Y-142930000D01*
X158215000Y-140270000D02*
X158215000Y-141600000D01*
X150475000Y-140270000D02*
X150475000Y-142930000D01*
X158215000Y-154270000D02*
X158215000Y-155600000D01*
X150475000Y-154270000D02*
X150475000Y-156930000D01*
X156885000Y-154270000D02*
X158215000Y-154270000D01*
X155615000Y-156930000D02*
X150475000Y-156930000D01*
X155615000Y-154270000D02*
X150475000Y-154270000D01*
X155615000Y-154270000D02*
X155615000Y-156930000D01*
X127115000Y-127930000D02*
X121975000Y-127930000D01*
X127115000Y-125270000D02*
X127115000Y-127930000D01*
X127115000Y-125270000D02*
X121975000Y-125270000D01*
X128385000Y-125270000D02*
X129715000Y-125270000D01*
X121975000Y-125270000D02*
X121975000Y-127930000D01*
X129715000Y-125270000D02*
X129715000Y-126600000D01*
X169530000Y-83955000D02*
X169530000Y-83935000D01*
X169030000Y-90965000D02*
X169530000Y-90965000D01*
X169530000Y-90965000D02*
X169530000Y-90945000D01*
X164940000Y-82515000D02*
X164940000Y-92385000D01*
X168015000Y-82515000D02*
X164940000Y-82515000D01*
X164940000Y-92385000D02*
X168015000Y-92385000D01*
X169530000Y-83935000D02*
X169030000Y-83935000D01*
X169030000Y-83935000D02*
X169030000Y-90965000D01*
D14*
X159075000Y-69825000D02*
X159075000Y-78875000D01*
X159075000Y-78875000D02*
X126925000Y-78875000D01*
D15*
X126430000Y-71805000D02*
X126430000Y-71805000D01*
D14*
X126925000Y-69825000D02*
X159075000Y-69825000D01*
X126925000Y-78875000D02*
X126925000Y-69825000D01*
D15*
X126330000Y-71805000D02*
X126330000Y-71805000D01*
X126430000Y-71805000D02*
G75*
G03*
X126330000Y-71805000I-50000J0D01*
G01*
X126330000Y-71805000D02*
G75*
G03*
X126430000Y-71805000I50000J0D01*
G01*
D10*
X123467500Y-24029620D02*
X70707500Y-24029620D01*
X122197500Y-13919620D02*
X123467500Y-15189620D01*
X70707500Y-13919620D02*
X70707500Y-24029620D01*
X123467500Y-15189620D02*
X123467500Y-24029620D01*
X122197500Y-13919620D02*
X70707500Y-13919620D01*
X44885000Y-80385000D02*
X57585000Y-80385000D01*
X57585000Y-80385000D02*
X57585000Y-90545000D01*
X57585000Y-90545000D02*
X44885000Y-90545000D01*
X44885000Y-90545000D02*
X44885000Y-80385000D01*
X119215000Y-54275000D02*
X174215000Y-54275000D01*
X174215000Y-54275000D02*
X174215000Y-64435000D01*
X174215000Y-64435000D02*
X119215000Y-64435000D01*
X119215000Y-64435000D02*
X119215000Y-54275000D01*
X106205000Y-41435000D02*
X121445000Y-41435000D01*
X121445000Y-41435000D02*
X121445000Y-51595000D01*
X121445000Y-51595000D02*
X106205000Y-51595000D01*
X106205000Y-51595000D02*
X106205000Y-41435000D01*
X108665000Y-54275000D02*
X121365000Y-54275000D01*
X121365000Y-54275000D02*
X121365000Y-64435000D01*
X121365000Y-64435000D02*
X108665000Y-64435000D01*
X108665000Y-64435000D02*
X108665000Y-54275000D01*
X34215000Y-31355000D02*
X119215000Y-31355000D01*
X119215000Y-31355000D02*
X119215000Y-87355000D01*
X119215000Y-87355000D02*
X34215000Y-87355000D01*
X34215000Y-87355000D02*
X34215000Y-31355000D01*
X108585000Y-67015000D02*
X121285000Y-67015000D01*
X121285000Y-67015000D02*
X121285000Y-77175000D01*
X121285000Y-77175000D02*
X108585000Y-77175000D01*
X108585000Y-77175000D02*
X108585000Y-67015000D01*
X65875000Y-80385000D02*
X78575000Y-80385000D01*
X78575000Y-80385000D02*
X78575000Y-90545000D01*
X78575000Y-90545000D02*
X65875000Y-90545000D01*
X65875000Y-90545000D02*
X65875000Y-80385000D01*
X89235000Y-80305000D02*
X101935000Y-80305000D01*
X101935000Y-80305000D02*
X101935000Y-90465000D01*
X101935000Y-90465000D02*
X89235000Y-90465000D01*
X89235000Y-90465000D02*
X89235000Y-80305000D01*
X148602064Y-67260000D02*
X147397936Y-67260000D01*
X148602064Y-65440000D02*
X147397936Y-65440000D01*
X134080000Y-81720000D02*
X134080000Y-91880000D01*
X134320000Y-81730000D02*
X134320000Y-91870000D01*
X136521000Y-88041000D02*
X136521000Y-91217000D01*
X136041000Y-88041000D02*
X136041000Y-91457000D01*
X134560000Y-81750000D02*
X134560000Y-91850000D01*
X134160000Y-81722000D02*
X134160000Y-91878000D01*
X134520000Y-81746000D02*
X134520000Y-91854000D01*
X138641000Y-84675000D02*
X138641000Y-88925000D01*
X135281000Y-88041000D02*
X135281000Y-91718000D01*
X134200000Y-81723000D02*
X134200000Y-91877000D01*
X138321000Y-84091000D02*
X138321000Y-89509000D01*
X137401000Y-88041000D02*
X137401000Y-90589000D01*
X136401000Y-82317000D02*
X136401000Y-85559000D01*
X135361000Y-81903000D02*
X135361000Y-85559000D01*
X134120000Y-81721000D02*
X134120000Y-91879000D01*
X137401000Y-83011000D02*
X137401000Y-85559000D01*
X137281000Y-88041000D02*
X137281000Y-90692000D01*
X135241000Y-81872000D02*
X135241000Y-91728000D01*
X135361000Y-88041000D02*
X135361000Y-91697000D01*
X136281000Y-88041000D02*
X136281000Y-91345000D01*
X134480000Y-81742000D02*
X134480000Y-91858000D01*
X138801000Y-85058000D02*
X138801000Y-88542000D01*
X137521000Y-83121000D02*
X137521000Y-85559000D01*
X134640000Y-81760000D02*
X134640000Y-91840000D01*
X137881000Y-83499000D02*
X137881000Y-90101000D01*
X135761000Y-82032000D02*
X135761000Y-85559000D01*
X137081000Y-82750000D02*
X137081000Y-85559000D01*
X136961000Y-82662000D02*
X136961000Y-85559000D01*
X135041000Y-81826000D02*
X135041000Y-91774000D01*
X136881000Y-88041000D02*
X136881000Y-90994000D01*
X138441000Y-84290000D02*
X138441000Y-89310000D01*
X135841000Y-82062000D02*
X135841000Y-85559000D01*
X138561000Y-84511000D02*
X138561000Y-89089000D01*
X135921000Y-88041000D02*
X135921000Y-91507000D01*
X134000000Y-81720000D02*
X134000000Y-91880000D01*
X138161000Y-83855000D02*
X138161000Y-89745000D01*
X137761000Y-83364000D02*
X137761000Y-90236000D01*
X139041000Y-85938000D02*
X139041000Y-87662000D01*
X135521000Y-81950000D02*
X135521000Y-85559000D01*
X136641000Y-88041000D02*
X136641000Y-91147000D01*
X137361000Y-88041000D02*
X137361000Y-90624000D01*
X136241000Y-82236000D02*
X136241000Y-85559000D01*
X134761000Y-81776000D02*
X134761000Y-91824000D01*
X138001000Y-83644000D02*
X138001000Y-89956000D01*
X136961000Y-88041000D02*
X136961000Y-90938000D01*
X135921000Y-82093000D02*
X135921000Y-85559000D01*
X135561000Y-88041000D02*
X135561000Y-91637000D01*
X134721000Y-81770000D02*
X134721000Y-91830000D01*
X138601000Y-84591000D02*
X138601000Y-89009000D01*
X136321000Y-88041000D02*
X136321000Y-91325000D01*
X137241000Y-82875000D02*
X137241000Y-85559000D01*
X136801000Y-88041000D02*
X136801000Y-91047000D01*
X138841000Y-85170000D02*
X138841000Y-88430000D01*
X136841000Y-88041000D02*
X136841000Y-91021000D01*
X136481000Y-82360000D02*
X136481000Y-85559000D01*
X135401000Y-88041000D02*
X135401000Y-91685000D01*
X137281000Y-82908000D02*
X137281000Y-85559000D01*
X135321000Y-81893000D02*
X135321000Y-85559000D01*
X134360000Y-81732000D02*
X134360000Y-91868000D01*
X136521000Y-82383000D02*
X136521000Y-85559000D01*
X138361000Y-84155000D02*
X138361000Y-89445000D01*
X137321000Y-88041000D02*
X137321000Y-90658000D01*
X136161000Y-88041000D02*
X136161000Y-91403000D01*
X135601000Y-88041000D02*
X135601000Y-91624000D01*
X138721000Y-84856000D02*
X138721000Y-88744000D01*
X136721000Y-82502000D02*
X136721000Y-85559000D01*
X136081000Y-88041000D02*
X136081000Y-91439000D01*
X137161000Y-82811000D02*
X137161000Y-85559000D01*
X137001000Y-88041000D02*
X137001000Y-90910000D01*
X137961000Y-83594000D02*
X137961000Y-90006000D01*
X137481000Y-83084000D02*
X137481000Y-85559000D01*
X135681000Y-88041000D02*
X135681000Y-91597000D01*
X136201000Y-82216000D02*
X136201000Y-85559000D01*
X134240000Y-81725000D02*
X134240000Y-91875000D01*
X137481000Y-88041000D02*
X137481000Y-90516000D01*
X136681000Y-82477000D02*
X136681000Y-85559000D01*
X135561000Y-81963000D02*
X135561000Y-85559000D01*
X134280000Y-81727000D02*
X134280000Y-91873000D01*
X136601000Y-82429000D02*
X136601000Y-85559000D01*
X136241000Y-88041000D02*
X136241000Y-91364000D01*
X136761000Y-88041000D02*
X136761000Y-91073000D01*
X136681000Y-88041000D02*
X136681000Y-91123000D01*
X137841000Y-83453000D02*
X137841000Y-90147000D01*
X134440000Y-81738000D02*
X134440000Y-91862000D01*
X135281000Y-81882000D02*
X135281000Y-85559000D01*
X137561000Y-83160000D02*
X137561000Y-85559000D01*
X138681000Y-84763000D02*
X138681000Y-88837000D01*
X136161000Y-82197000D02*
X136161000Y-85559000D01*
X136601000Y-88041000D02*
X136601000Y-91171000D01*
X138281000Y-84030000D02*
X138281000Y-89570000D01*
X134881000Y-81796000D02*
X134881000Y-91804000D01*
X137001000Y-82690000D02*
X137001000Y-85559000D01*
X136041000Y-82143000D02*
X136041000Y-85559000D01*
X137681000Y-83280000D02*
X137681000Y-85559000D01*
X135081000Y-81835000D02*
X135081000Y-91765000D01*
X136481000Y-88041000D02*
X136481000Y-91240000D01*
X138081000Y-83746000D02*
X138081000Y-89854000D01*
X135441000Y-81926000D02*
X135441000Y-85559000D01*
X136641000Y-82453000D02*
X136641000Y-85559000D01*
X137241000Y-88041000D02*
X137241000Y-90725000D01*
X135441000Y-88041000D02*
X135441000Y-91674000D01*
X136281000Y-82255000D02*
X136281000Y-85559000D01*
X135721000Y-82017000D02*
X135721000Y-85559000D01*
X129020354Y-83425000D02*
X129020354Y-84425000D01*
X138921000Y-85422000D02*
X138921000Y-88178000D01*
X138121000Y-83800000D02*
X138121000Y-89800000D01*
X128520354Y-83925000D02*
X129520354Y-83925000D01*
X135881000Y-88041000D02*
X135881000Y-91523000D01*
X138401000Y-84221000D02*
X138401000Y-89379000D01*
X138201000Y-83911000D02*
X138201000Y-89689000D01*
X136001000Y-82126000D02*
X136001000Y-85559000D01*
X135801000Y-82046000D02*
X135801000Y-85559000D01*
X136121000Y-82179000D02*
X136121000Y-85559000D01*
X135641000Y-81989000D02*
X135641000Y-85559000D01*
X135761000Y-88041000D02*
X135761000Y-91568000D01*
X134400000Y-81735000D02*
X134400000Y-91865000D01*
X137561000Y-88041000D02*
X137561000Y-90440000D01*
X135001000Y-81818000D02*
X135001000Y-91782000D01*
X137641000Y-83239000D02*
X137641000Y-85559000D01*
X134921000Y-81803000D02*
X134921000Y-91797000D01*
X136081000Y-82161000D02*
X136081000Y-85559000D01*
X136441000Y-88041000D02*
X136441000Y-91262000D01*
X137441000Y-88041000D02*
X137441000Y-90553000D01*
X136361000Y-88041000D02*
X136361000Y-91304000D01*
X137641000Y-88041000D02*
X137641000Y-90361000D01*
X137601000Y-83199000D02*
X137601000Y-85559000D01*
X135321000Y-88041000D02*
X135321000Y-91707000D01*
X136401000Y-88041000D02*
X136401000Y-91283000D01*
X135681000Y-82003000D02*
X135681000Y-85559000D01*
X134961000Y-81810000D02*
X134961000Y-91790000D01*
X136441000Y-82338000D02*
X136441000Y-85559000D01*
X136721000Y-88041000D02*
X136721000Y-91098000D01*
X137041000Y-88041000D02*
X137041000Y-90880000D01*
X139081000Y-86201000D02*
X139081000Y-87399000D01*
X137081000Y-88041000D02*
X137081000Y-90850000D01*
X135401000Y-81915000D02*
X135401000Y-85559000D01*
X137201000Y-88041000D02*
X137201000Y-90757000D01*
X136361000Y-82296000D02*
X136361000Y-85559000D01*
X136561000Y-88041000D02*
X136561000Y-91195000D01*
X139001000Y-85738000D02*
X139001000Y-87862000D01*
X136881000Y-82606000D02*
X136881000Y-85559000D01*
X137441000Y-83047000D02*
X137441000Y-85559000D01*
X134841000Y-81789000D02*
X134841000Y-91811000D01*
X137041000Y-82720000D02*
X137041000Y-85559000D01*
X135841000Y-88041000D02*
X135841000Y-91538000D01*
X138761000Y-84954000D02*
X138761000Y-88646000D01*
X135721000Y-88041000D02*
X135721000Y-91583000D01*
X136561000Y-82405000D02*
X136561000Y-85559000D01*
X137161000Y-88041000D02*
X137161000Y-90789000D01*
X135481000Y-88041000D02*
X135481000Y-91662000D01*
X138481000Y-84361000D02*
X138481000Y-89239000D01*
X138041000Y-83694000D02*
X138041000Y-89906000D01*
X137321000Y-82942000D02*
X137321000Y-85559000D01*
X135961000Y-82110000D02*
X135961000Y-85559000D01*
X135121000Y-81844000D02*
X135121000Y-91756000D01*
X134801000Y-81782000D02*
X134801000Y-91818000D01*
X135881000Y-82077000D02*
X135881000Y-85559000D01*
X138881000Y-85290000D02*
X138881000Y-88310000D01*
X135601000Y-81976000D02*
X135601000Y-85559000D01*
X137201000Y-82843000D02*
X137201000Y-85559000D01*
X137121000Y-82780000D02*
X137121000Y-85559000D01*
X136201000Y-88041000D02*
X136201000Y-91384000D01*
X137521000Y-88041000D02*
X137521000Y-90479000D01*
X138961000Y-85570000D02*
X138961000Y-88030000D01*
X138521000Y-84435000D02*
X138521000Y-89165000D01*
X137721000Y-88041000D02*
X137721000Y-90278000D01*
X136321000Y-82275000D02*
X136321000Y-85559000D01*
X135521000Y-88041000D02*
X135521000Y-91650000D01*
X137921000Y-83546000D02*
X137921000Y-90054000D01*
X134040000Y-81720000D02*
X134040000Y-91880000D01*
X136761000Y-82527000D02*
X136761000Y-85559000D01*
X136921000Y-82634000D02*
X136921000Y-85559000D01*
X134680000Y-81765000D02*
X134680000Y-91835000D01*
X136001000Y-88041000D02*
X136001000Y-91474000D01*
X136921000Y-88041000D02*
X136921000Y-90966000D01*
X136841000Y-82579000D02*
X136841000Y-85559000D01*
X135481000Y-81938000D02*
X135481000Y-85559000D01*
X135201000Y-81862000D02*
X135201000Y-91738000D01*
X137121000Y-88041000D02*
X137121000Y-90820000D01*
X136121000Y-88041000D02*
X136121000Y-91421000D01*
X135161000Y-81853000D02*
X135161000Y-91747000D01*
X136801000Y-82553000D02*
X136801000Y-85559000D01*
X135801000Y-88041000D02*
X135801000Y-91554000D01*
X137681000Y-88041000D02*
X137681000Y-90320000D01*
X137801000Y-83408000D02*
X137801000Y-90192000D01*
X134600000Y-81755000D02*
X134600000Y-91845000D01*
X137721000Y-83322000D02*
X137721000Y-85559000D01*
X135641000Y-88041000D02*
X135641000Y-91611000D01*
X138241000Y-83970000D02*
X138241000Y-89630000D01*
X137361000Y-82976000D02*
X137361000Y-85559000D01*
X135961000Y-88041000D02*
X135961000Y-91490000D01*
X137601000Y-88041000D02*
X137601000Y-90401000D01*
X139120000Y-86800000D02*
G75*
G03*
X139120000Y-86800000I-5120000J0D01*
G01*
M02*
