G04 #@! TF.GenerationSoftware,KiCad,Pcbnew,(6.0.2)*
G04 #@! TF.CreationDate,2022-05-01T22:12:54+09:30*
G04 #@! TF.ProjectId,BSPD,42535044-2e6b-4696-9361-645f70636258,4*
G04 #@! TF.SameCoordinates,Original*
G04 #@! TF.FileFunction,Copper,L2,Bot*
G04 #@! TF.FilePolarity,Positive*
%FSLAX46Y46*%
G04 Gerber Fmt 4.6, Leading zero omitted, Abs format (unit mm)*
G04 Created by KiCad (PCBNEW (6.0.2)) date 2022-05-01 22:12:54*
%MOMM*%
%LPD*%
G01*
G04 APERTURE LIST*
G04 Aperture macros list*
%AMRoundRect*
0 Rectangle with rounded corners*
0 $1 Rounding radius*
0 $2 $3 $4 $5 $6 $7 $8 $9 X,Y pos of 4 corners*
0 Add a 4 corners polygon primitive as box body*
4,1,4,$2,$3,$4,$5,$6,$7,$8,$9,$2,$3,0*
0 Add four circle primitives for the rounded corners*
1,1,$1+$1,$2,$3*
1,1,$1+$1,$4,$5*
1,1,$1+$1,$6,$7*
1,1,$1+$1,$8,$9*
0 Add four rect primitives between the rounded corners*
20,1,$1+$1,$2,$3,$4,$5,0*
20,1,$1+$1,$4,$5,$6,$7,0*
20,1,$1+$1,$6,$7,$8,$9,0*
20,1,$1+$1,$8,$9,$2,$3,0*%
G04 Aperture macros list end*
G04 #@! TA.AperFunction,ComponentPad*
%ADD10R,1.700000X1.700000*%
G04 #@! TD*
G04 #@! TA.AperFunction,ComponentPad*
%ADD11O,1.700000X1.700000*%
G04 #@! TD*
G04 #@! TA.AperFunction,ComponentPad*
%ADD12RoundRect,0.250001X-0.499999X-0.499999X0.499999X-0.499999X0.499999X0.499999X-0.499999X0.499999X0*%
G04 #@! TD*
G04 #@! TA.AperFunction,ComponentPad*
%ADD13C,1.500000*%
G04 #@! TD*
G04 #@! TA.AperFunction,ComponentPad*
%ADD14C,3.410000*%
G04 #@! TD*
G04 #@! TA.AperFunction,ViaPad*
%ADD15C,0.800000*%
G04 #@! TD*
G04 #@! TA.AperFunction,Conductor*
%ADD16C,0.250000*%
G04 #@! TD*
G04 #@! TA.AperFunction,Conductor*
%ADD17C,0.500000*%
G04 #@! TD*
G04 APERTURE END LIST*
D10*
X123000000Y-92750000D03*
D11*
X123000000Y-90210000D03*
X123000000Y-87670000D03*
D10*
X138000000Y-92790000D03*
D11*
X138000000Y-90250000D03*
X138000000Y-87710000D03*
D10*
X109000000Y-92750000D03*
D11*
X109000000Y-90210000D03*
X109000000Y-87670000D03*
D10*
X123000000Y-79250000D03*
D11*
X123000000Y-76710000D03*
X123000000Y-74170000D03*
D10*
X109000000Y-79250000D03*
D11*
X109000000Y-76710000D03*
X109000000Y-74170000D03*
D10*
X123000000Y-107750000D03*
D11*
X123000000Y-105210000D03*
X123000000Y-102670000D03*
D10*
X109000000Y-107750000D03*
D11*
X109000000Y-105210000D03*
X109000000Y-102670000D03*
D10*
X138000000Y-79250000D03*
D11*
X138000000Y-76710000D03*
X138000000Y-74170000D03*
D12*
X129500000Y-64085000D03*
D13*
X132500000Y-64085000D03*
X135500000Y-64085000D03*
X138500000Y-64085000D03*
X141500000Y-64085000D03*
X144500000Y-64085000D03*
X129500000Y-67085000D03*
X132500000Y-67085000D03*
X135500000Y-67085000D03*
X138500000Y-67085000D03*
X141500000Y-67085000D03*
X144500000Y-67085000D03*
D14*
X146650000Y-59765000D03*
X127350000Y-59765000D03*
D15*
X155000000Y-96500000D03*
X170000000Y-67500000D03*
X162500000Y-60000000D03*
X147190000Y-100230000D03*
X167500000Y-65000000D03*
X151500000Y-76250000D03*
X158190000Y-104025000D03*
X162500000Y-62500000D03*
X145660000Y-98700000D03*
X162500000Y-67500000D03*
X171525000Y-91025000D03*
X113000000Y-108000000D03*
X165000000Y-67500000D03*
X162000000Y-99500000D03*
X148450000Y-103770000D03*
X170000000Y-60000000D03*
X165000000Y-60000000D03*
X170000000Y-65000000D03*
X171525000Y-108525000D03*
X170000000Y-62500000D03*
X167500000Y-70000000D03*
X167500000Y-62500000D03*
X170332209Y-56780179D03*
X167500000Y-67500000D03*
X159460000Y-100040000D03*
X171525000Y-100525000D03*
X126955000Y-107450000D03*
X171525000Y-81025000D03*
X167500000Y-60000000D03*
X170000000Y-70000000D03*
X165000000Y-57500000D03*
X162000000Y-83875000D03*
X165000000Y-62500000D03*
X153750000Y-72750000D03*
X167500000Y-57500000D03*
X164000000Y-98500000D03*
X164253750Y-79503750D03*
X152000000Y-78000000D03*
X140500000Y-69250000D03*
X144750000Y-73500000D03*
X161000000Y-90000000D03*
X163914999Y-90085001D03*
X164250000Y-91250000D03*
X155250000Y-92000000D03*
X155250000Y-89250000D03*
X159000000Y-89750000D03*
X155250000Y-90750000D03*
X159000000Y-90750000D03*
X162500000Y-79500000D03*
X155500000Y-79900000D03*
X150899999Y-78500001D03*
X150995000Y-94504988D03*
X155250000Y-84629999D03*
X160730000Y-84230000D03*
X155250000Y-86000000D03*
X147750000Y-93500000D03*
X149500000Y-86750000D03*
X163000000Y-84500000D03*
X117525000Y-90975000D03*
X132525000Y-90975000D03*
X169500000Y-86000000D03*
X169500000Y-102000000D03*
X141290002Y-105470000D03*
X117525000Y-77975000D03*
X132525000Y-77975000D03*
X162000000Y-86000000D03*
X106050000Y-109500000D03*
X131525000Y-109475000D03*
X103025000Y-103975000D03*
X106500000Y-81450006D03*
X141275000Y-109475000D03*
X166500000Y-102000000D03*
X103000000Y-91000000D03*
X117525000Y-109475000D03*
X156830000Y-81200000D03*
X165000000Y-80250000D03*
X155250000Y-87500000D03*
X116000000Y-70274990D03*
X116000000Y-85000000D03*
X116655000Y-105150000D03*
X166360000Y-87500000D03*
X156250000Y-109000000D03*
X162000000Y-109000000D03*
X162500000Y-94500000D03*
X151750000Y-86000000D03*
X159500000Y-107500000D03*
X162500000Y-107500000D03*
X126000000Y-69770000D03*
X146000000Y-73500000D03*
X118655000Y-95000000D03*
X163500000Y-75000000D03*
X166500000Y-94500000D03*
X153155000Y-89975000D03*
X157000000Y-88500000D03*
X145239847Y-92734847D03*
X157737501Y-94762499D03*
X164000000Y-95035000D03*
X154555016Y-106750000D03*
X165355000Y-106750000D03*
X165290000Y-81210000D03*
X151980000Y-83750000D03*
X152300000Y-79450013D03*
X154991889Y-81247516D03*
X153400000Y-99600000D03*
X160487347Y-99012653D03*
X153191502Y-82786502D03*
X158109957Y-82850000D03*
X158000000Y-78775000D03*
X160500000Y-78775000D03*
X153400000Y-93575001D03*
X160810001Y-92900000D03*
X144500000Y-70774980D03*
D16*
X147190000Y-100230000D02*
X145660000Y-98700000D01*
X162150000Y-77400000D02*
X152600000Y-77400000D01*
X164253750Y-79503750D02*
X162150000Y-77400000D01*
X161000000Y-90000000D02*
X163829998Y-90000000D01*
X163829998Y-90000000D02*
X163914999Y-90085001D01*
X144750000Y-73500000D02*
X140500000Y-69250000D01*
X152600000Y-77400000D02*
X152000000Y-78000000D01*
X163850001Y-91649999D02*
X155600001Y-91649999D01*
X164250000Y-91250000D02*
X163850001Y-91649999D01*
X155600001Y-91649999D02*
X155250000Y-92000000D01*
X159000000Y-89750000D02*
X155750000Y-89750000D01*
X155750000Y-89750000D02*
X155250000Y-89250000D01*
X159000000Y-90750000D02*
X155250000Y-90750000D01*
X162500000Y-79500000D02*
X155899999Y-79500001D01*
X155899999Y-79500001D02*
X155500000Y-79900000D01*
X150899999Y-94409987D02*
X150995000Y-94504988D01*
X150899999Y-78500001D02*
X150899999Y-94409987D01*
X159930002Y-85029998D02*
X155649999Y-85029998D01*
X160730000Y-84230000D02*
X159930002Y-85029998D01*
X155649999Y-85029998D02*
X155250000Y-84629999D01*
X160750000Y-85500000D02*
X155750000Y-85500000D01*
X149500000Y-86750000D02*
X149500000Y-91750000D01*
X155750000Y-85500000D02*
X155250000Y-86000000D01*
X149500000Y-91750000D02*
X147750000Y-93500000D01*
X162419991Y-85080009D02*
X161169991Y-85080009D01*
X161169991Y-85080009D02*
X160750000Y-85500000D01*
X163000000Y-84500000D02*
X162419991Y-85080009D01*
X166500000Y-102000000D02*
X169500000Y-102000000D01*
D17*
X132525000Y-77975000D02*
X132525000Y-90975000D01*
X103000000Y-103950000D02*
X103025000Y-103975000D01*
X132525000Y-108475000D02*
X131525000Y-109475000D01*
X117525000Y-90975000D02*
X117525000Y-109475000D01*
X132525000Y-90975000D02*
X132525000Y-108475000D01*
D16*
X162000000Y-86000000D02*
X169500000Y-86000000D01*
D17*
X141275000Y-105485002D02*
X141290002Y-105470000D01*
X103000000Y-84950006D02*
X106500000Y-81450006D01*
X103025000Y-103975000D02*
X103025000Y-106475000D01*
X103025000Y-106475000D02*
X106050000Y-109500000D01*
X141275000Y-109475000D02*
X141275000Y-105485002D01*
X117525000Y-77975000D02*
X117525000Y-90975000D01*
X103000000Y-91000000D02*
X103000000Y-103950000D01*
X103000000Y-91000000D02*
X103000000Y-84950006D01*
D16*
X164050000Y-81200000D02*
X156830000Y-81200000D01*
X165000000Y-80250000D02*
X164050000Y-81200000D01*
X116000000Y-85000000D02*
X116000000Y-70274990D01*
X166360000Y-87500000D02*
X155250000Y-87500000D01*
X116655000Y-105150000D02*
X116655000Y-85655000D01*
X116655000Y-85655000D02*
X116000000Y-85000000D01*
X156250000Y-109000000D02*
X162000000Y-109000000D01*
X151750000Y-93750000D02*
X151750000Y-86000000D01*
X152299512Y-94299512D02*
X151750000Y-93750000D01*
X153700103Y-94299512D02*
X152299512Y-94299512D01*
X162037988Y-94037988D02*
X153961626Y-94037988D01*
X162500000Y-94500000D02*
X162037988Y-94037988D01*
X153961626Y-94037988D02*
X153700103Y-94299512D01*
X159500000Y-107500000D02*
X162500000Y-107500000D01*
X118655000Y-95000000D02*
X118655000Y-78850000D01*
X147500000Y-75000000D02*
X146000000Y-73500000D01*
X124520000Y-71250000D02*
X126000000Y-69770000D01*
X163500000Y-75000000D02*
X147500000Y-75000000D01*
X118630000Y-71250000D02*
X124520000Y-71250000D01*
X118630000Y-78825000D02*
X118630000Y-71250000D01*
X118655000Y-78850000D02*
X118630000Y-78825000D01*
X154854999Y-88275001D02*
X156209316Y-88275001D01*
X164750000Y-88500000D02*
X157000000Y-88500000D01*
X166500000Y-94500000D02*
X166500000Y-90250000D01*
X156209316Y-88275001D02*
X156434315Y-88500000D01*
X153155000Y-89975000D02*
X154854999Y-88275001D01*
X166500000Y-90250000D02*
X164750000Y-88500000D01*
X156434315Y-88500000D02*
X157000000Y-88500000D01*
X164000000Y-95035000D02*
X163809999Y-95225001D01*
X158200002Y-95225001D02*
X157737501Y-94762499D01*
X148025002Y-95520002D02*
X156979998Y-95520002D01*
X156979998Y-95520002D02*
X157737501Y-94762499D01*
X163809999Y-95225001D02*
X158200002Y-95225001D01*
X145239847Y-92734847D02*
X148025002Y-95520002D01*
X165355000Y-106750000D02*
X154555016Y-106750000D01*
X151980000Y-82925002D02*
X152855002Y-82050000D01*
X152855002Y-82050000D02*
X156326996Y-82050000D01*
X157053004Y-82050000D02*
X164450000Y-82050000D01*
X151980000Y-83750000D02*
X151980000Y-82925002D01*
X157038002Y-82065002D02*
X157053004Y-82050000D01*
X164450000Y-82050000D02*
X165290000Y-81210000D01*
X156341998Y-82065002D02*
X157038002Y-82065002D01*
X156326996Y-82050000D02*
X156341998Y-82065002D01*
X152300000Y-79450013D02*
X154097503Y-81247516D01*
X153400000Y-99600000D02*
X153987347Y-99012653D01*
X154097503Y-81247516D02*
X154991889Y-81247516D01*
X153987347Y-99012653D02*
X160487347Y-99012653D01*
X153255000Y-82850000D02*
X153191502Y-82786502D01*
X158109957Y-82850000D02*
X153255000Y-82850000D01*
X158000000Y-78775000D02*
X160475000Y-78775000D01*
X160475000Y-78775000D02*
X160500000Y-78775000D01*
X144500000Y-70774980D02*
X141884531Y-68159511D01*
X153524999Y-93575001D02*
X154200000Y-92900000D01*
X133574511Y-68159511D02*
X132500000Y-67085000D01*
X154200000Y-92900000D02*
X160810001Y-92900000D01*
X153400000Y-93575001D02*
X153524999Y-93575001D01*
X141884531Y-68159511D02*
X133574511Y-68159511D01*
G04 #@! TA.AperFunction,Conductor*
G36*
X177774121Y-55178436D02*
G01*
X177820614Y-55232092D01*
X177832000Y-55284434D01*
X177832000Y-111669822D01*
X177811998Y-111737943D01*
X177795095Y-111758917D01*
X175118484Y-114435529D01*
X175056172Y-114469555D01*
X175029389Y-114472434D01*
X96560612Y-114472434D01*
X96492491Y-114452432D01*
X96471517Y-114435529D01*
X93794905Y-111758918D01*
X93760879Y-111696606D01*
X93758000Y-111669823D01*
X93758000Y-91000000D01*
X102086496Y-91000000D01*
X102087186Y-91006565D01*
X102103141Y-91158365D01*
X102106458Y-91189928D01*
X102165473Y-91371556D01*
X102168776Y-91377278D01*
X102168777Y-91377279D01*
X102184759Y-91404960D01*
X102213518Y-91454771D01*
X102224619Y-91473999D01*
X102241500Y-91536999D01*
X102241500Y-103481302D01*
X102224619Y-103544301D01*
X102190473Y-103603444D01*
X102131458Y-103785072D01*
X102130768Y-103791633D01*
X102130768Y-103791635D01*
X102124330Y-103852894D01*
X102111496Y-103975000D01*
X102112186Y-103981565D01*
X102122301Y-104077800D01*
X102131458Y-104164928D01*
X102190473Y-104346556D01*
X102248740Y-104447476D01*
X102249619Y-104448999D01*
X102266500Y-104511999D01*
X102266500Y-106407930D01*
X102265067Y-106426880D01*
X102261801Y-106448349D01*
X102262394Y-106455641D01*
X102262394Y-106455644D01*
X102266085Y-106501018D01*
X102266500Y-106511233D01*
X102266500Y-106519293D01*
X102266925Y-106522937D01*
X102269789Y-106547507D01*
X102270222Y-106551882D01*
X102276140Y-106624637D01*
X102278396Y-106631601D01*
X102279587Y-106637560D01*
X102280971Y-106643415D01*
X102281818Y-106650681D01*
X102306735Y-106719327D01*
X102308152Y-106723455D01*
X102327211Y-106782285D01*
X102330649Y-106792899D01*
X102334445Y-106799154D01*
X102336951Y-106804628D01*
X102339670Y-106810058D01*
X102342167Y-106816937D01*
X102346180Y-106823057D01*
X102346180Y-106823058D01*
X102382186Y-106877976D01*
X102384523Y-106881680D01*
X102422405Y-106944107D01*
X102426121Y-106948315D01*
X102426122Y-106948316D01*
X102429803Y-106952484D01*
X102429776Y-106952508D01*
X102432429Y-106955500D01*
X102435132Y-106958733D01*
X102439144Y-106964852D01*
X102444456Y-106969884D01*
X102495383Y-107018128D01*
X102497825Y-107020506D01*
X105129875Y-109652556D01*
X105160613Y-109702714D01*
X105215473Y-109871556D01*
X105218776Y-109877278D01*
X105218777Y-109877279D01*
X105236803Y-109908500D01*
X105310960Y-110036944D01*
X105438747Y-110178866D01*
X105537843Y-110250864D01*
X105558839Y-110266118D01*
X105593248Y-110291118D01*
X105599276Y-110293802D01*
X105599278Y-110293803D01*
X105714642Y-110345166D01*
X105767712Y-110368794D01*
X105861112Y-110388647D01*
X105948056Y-110407128D01*
X105948061Y-110407128D01*
X105954513Y-110408500D01*
X106145487Y-110408500D01*
X106151939Y-110407128D01*
X106151944Y-110407128D01*
X106238887Y-110388647D01*
X106332288Y-110368794D01*
X106385358Y-110345166D01*
X106500722Y-110293803D01*
X106500724Y-110293802D01*
X106506752Y-110291118D01*
X106541162Y-110266118D01*
X106562157Y-110250864D01*
X106661253Y-110178866D01*
X106789040Y-110036944D01*
X106863197Y-109908500D01*
X106881223Y-109877279D01*
X106881224Y-109877278D01*
X106884527Y-109871556D01*
X106943542Y-109689928D01*
X106946860Y-109658365D01*
X106962814Y-109506565D01*
X106963504Y-109500000D01*
X106943542Y-109310072D01*
X106884527Y-109128444D01*
X106789040Y-108963056D01*
X106771679Y-108943774D01*
X106665675Y-108826045D01*
X106665674Y-108826044D01*
X106661253Y-108821134D01*
X106506752Y-108708882D01*
X106500724Y-108706198D01*
X106500722Y-108706197D01*
X106338319Y-108633891D01*
X106338318Y-108633891D01*
X106332288Y-108631206D01*
X106325833Y-108629834D01*
X106325824Y-108629831D01*
X106269228Y-108617801D01*
X106206331Y-108583650D01*
X103820405Y-106197724D01*
X103786379Y-106135412D01*
X103783500Y-106108629D01*
X103783500Y-105176695D01*
X107637251Y-105176695D01*
X107637548Y-105181848D01*
X107637548Y-105181851D01*
X107643590Y-105286635D01*
X107650110Y-105399715D01*
X107651247Y-105404761D01*
X107651248Y-105404767D01*
X107667429Y-105476565D01*
X107699222Y-105617639D01*
X107783266Y-105824616D01*
X107899987Y-106015088D01*
X108046250Y-106183938D01*
X108050230Y-106187242D01*
X108054981Y-106191187D01*
X108094616Y-106250090D01*
X108096113Y-106321071D01*
X108058997Y-106381593D01*
X108018725Y-106406112D01*
X107963327Y-106426880D01*
X107903295Y-106449385D01*
X107786739Y-106536739D01*
X107699385Y-106653295D01*
X107648255Y-106789684D01*
X107641500Y-106851866D01*
X107641500Y-108648134D01*
X107648255Y-108710316D01*
X107699385Y-108846705D01*
X107786739Y-108963261D01*
X107903295Y-109050615D01*
X108039684Y-109101745D01*
X108101866Y-109108500D01*
X109898134Y-109108500D01*
X109960316Y-109101745D01*
X110096705Y-109050615D01*
X110213261Y-108963261D01*
X110300615Y-108846705D01*
X110351745Y-108710316D01*
X110358500Y-108648134D01*
X110358500Y-106851866D01*
X110351745Y-106789684D01*
X110300615Y-106653295D01*
X110213261Y-106536739D01*
X110096705Y-106449385D01*
X110074645Y-106441115D01*
X109978203Y-106404960D01*
X109921439Y-106362318D01*
X109896739Y-106295756D01*
X109911947Y-106226408D01*
X109933493Y-106197727D01*
X109996026Y-106135412D01*
X110038096Y-106093489D01*
X110091770Y-106018794D01*
X110165435Y-105916277D01*
X110168453Y-105912077D01*
X110182384Y-105883891D01*
X110265136Y-105716453D01*
X110265137Y-105716451D01*
X110267430Y-105711811D01*
X110332370Y-105498069D01*
X110361529Y-105276590D01*
X110363156Y-105210000D01*
X110344852Y-104987361D01*
X110290431Y-104770702D01*
X110201354Y-104565840D01*
X110080014Y-104378277D01*
X109929670Y-104213051D01*
X109925619Y-104209852D01*
X109925615Y-104209848D01*
X109758414Y-104077800D01*
X109758410Y-104077798D01*
X109754359Y-104074598D01*
X109712569Y-104051529D01*
X109662598Y-104001097D01*
X109647826Y-103931654D01*
X109672942Y-103865248D01*
X109700294Y-103838641D01*
X109875328Y-103713792D01*
X109883200Y-103707139D01*
X110034052Y-103556812D01*
X110040730Y-103548965D01*
X110165003Y-103376020D01*
X110170313Y-103367183D01*
X110264670Y-103176267D01*
X110268469Y-103166672D01*
X110330377Y-102962910D01*
X110332555Y-102952837D01*
X110333986Y-102941962D01*
X110331775Y-102927778D01*
X110318617Y-102924000D01*
X107683225Y-102924000D01*
X107669694Y-102927973D01*
X107668257Y-102937966D01*
X107698565Y-103072446D01*
X107701645Y-103082275D01*
X107781770Y-103279603D01*
X107786413Y-103288794D01*
X107897694Y-103470388D01*
X107903777Y-103478699D01*
X108043213Y-103639667D01*
X108050580Y-103646883D01*
X108214434Y-103782916D01*
X108222881Y-103788831D01*
X108291969Y-103829203D01*
X108340693Y-103880842D01*
X108353764Y-103950625D01*
X108327033Y-104016396D01*
X108286584Y-104049752D01*
X108273607Y-104056507D01*
X108269474Y-104059610D01*
X108269471Y-104059612D01*
X108120842Y-104171206D01*
X108094965Y-104190635D01*
X107940629Y-104352138D01*
X107814743Y-104536680D01*
X107720688Y-104739305D01*
X107660989Y-104954570D01*
X107637251Y-105176695D01*
X103783500Y-105176695D01*
X103783500Y-104511999D01*
X103800381Y-104448999D01*
X103801261Y-104447476D01*
X103859527Y-104346556D01*
X103918542Y-104164928D01*
X103927700Y-104077800D01*
X103937814Y-103981565D01*
X103938504Y-103975000D01*
X103925670Y-103852894D01*
X103919232Y-103791635D01*
X103919232Y-103791633D01*
X103918542Y-103785072D01*
X103859527Y-103603444D01*
X103828074Y-103548965D01*
X103775381Y-103457699D01*
X103758500Y-103394699D01*
X103758500Y-102404183D01*
X107664389Y-102404183D01*
X107665912Y-102412607D01*
X107678292Y-102416000D01*
X108727885Y-102416000D01*
X108743124Y-102411525D01*
X108744329Y-102410135D01*
X108746000Y-102402452D01*
X108746000Y-102397885D01*
X109254000Y-102397885D01*
X109258475Y-102413124D01*
X109259865Y-102414329D01*
X109267548Y-102416000D01*
X110318344Y-102416000D01*
X110331875Y-102412027D01*
X110333180Y-102402947D01*
X110291214Y-102235875D01*
X110287894Y-102226124D01*
X110202972Y-102030814D01*
X110198105Y-102021739D01*
X110082426Y-101842926D01*
X110076136Y-101834757D01*
X109932806Y-101677240D01*
X109925273Y-101670215D01*
X109758139Y-101538222D01*
X109749552Y-101532517D01*
X109563117Y-101429599D01*
X109553705Y-101425369D01*
X109352959Y-101354280D01*
X109342988Y-101351646D01*
X109271837Y-101338972D01*
X109258540Y-101340432D01*
X109254000Y-101354989D01*
X109254000Y-102397885D01*
X108746000Y-102397885D01*
X108746000Y-101353102D01*
X108742082Y-101339758D01*
X108727806Y-101337771D01*
X108689324Y-101343660D01*
X108679288Y-101346051D01*
X108476868Y-101412212D01*
X108467359Y-101416209D01*
X108278463Y-101514542D01*
X108269738Y-101520036D01*
X108099433Y-101647905D01*
X108091726Y-101654748D01*
X107944590Y-101808717D01*
X107938104Y-101816727D01*
X107818098Y-101992649D01*
X107813000Y-102001623D01*
X107723338Y-102194783D01*
X107719775Y-102204470D01*
X107664389Y-102404183D01*
X103758500Y-102404183D01*
X103758500Y-91536999D01*
X103775381Y-91473999D01*
X103786483Y-91454771D01*
X103815241Y-91404960D01*
X103831223Y-91377279D01*
X103831224Y-91377278D01*
X103834527Y-91371556D01*
X103893542Y-91189928D01*
X103896860Y-91158365D01*
X103912814Y-91006565D01*
X103913504Y-91000000D01*
X103907190Y-90939928D01*
X103894232Y-90816635D01*
X103894232Y-90816633D01*
X103893542Y-90810072D01*
X103834527Y-90628444D01*
X103775381Y-90526000D01*
X103758500Y-90463001D01*
X103758500Y-90176695D01*
X107637251Y-90176695D01*
X107637548Y-90181848D01*
X107637548Y-90181851D01*
X107647045Y-90346556D01*
X107650110Y-90399715D01*
X107651247Y-90404761D01*
X107651248Y-90404767D01*
X107671119Y-90492939D01*
X107699222Y-90617639D01*
X107750302Y-90743435D01*
X107768627Y-90788563D01*
X107783266Y-90824616D01*
X107899987Y-91015088D01*
X108046250Y-91183938D01*
X108050230Y-91187242D01*
X108054981Y-91191187D01*
X108094616Y-91250090D01*
X108096113Y-91321071D01*
X108058997Y-91381593D01*
X108018724Y-91406112D01*
X107903295Y-91449385D01*
X107786739Y-91536739D01*
X107699385Y-91653295D01*
X107648255Y-91789684D01*
X107641500Y-91851866D01*
X107641500Y-93648134D01*
X107648255Y-93710316D01*
X107699385Y-93846705D01*
X107786739Y-93963261D01*
X107903295Y-94050615D01*
X108039684Y-94101745D01*
X108101866Y-94108500D01*
X109898134Y-94108500D01*
X109960316Y-94101745D01*
X110096705Y-94050615D01*
X110213261Y-93963261D01*
X110300615Y-93846705D01*
X110351745Y-93710316D01*
X110358500Y-93648134D01*
X110358500Y-91851866D01*
X110351745Y-91789684D01*
X110300615Y-91653295D01*
X110213261Y-91536739D01*
X110096705Y-91449385D01*
X110032056Y-91425149D01*
X109978203Y-91404960D01*
X109921439Y-91362318D01*
X109896739Y-91295756D01*
X109911947Y-91226408D01*
X109933493Y-91197727D01*
X109997956Y-91133489D01*
X110038096Y-91093489D01*
X110057393Y-91066635D01*
X110165435Y-90916277D01*
X110168453Y-90912077D01*
X110185076Y-90878444D01*
X110265136Y-90716453D01*
X110265137Y-90716451D01*
X110267430Y-90711811D01*
X110326663Y-90516852D01*
X110330865Y-90503023D01*
X110330865Y-90503021D01*
X110332370Y-90498069D01*
X110361529Y-90276590D01*
X110361730Y-90268366D01*
X110363074Y-90213365D01*
X110363074Y-90213361D01*
X110363156Y-90210000D01*
X110344852Y-89987361D01*
X110290431Y-89770702D01*
X110201354Y-89565840D01*
X110098036Y-89406135D01*
X110082822Y-89382617D01*
X110082820Y-89382614D01*
X110080014Y-89378277D01*
X109929670Y-89213051D01*
X109925619Y-89209852D01*
X109925615Y-89209848D01*
X109758414Y-89077800D01*
X109758410Y-89077798D01*
X109754359Y-89074598D01*
X109713053Y-89051796D01*
X109663084Y-89001364D01*
X109648312Y-88931921D01*
X109673428Y-88865516D01*
X109700780Y-88838909D01*
X109744603Y-88807650D01*
X109879860Y-88711173D01*
X110038096Y-88553489D01*
X110097594Y-88470689D01*
X110165435Y-88376277D01*
X110168453Y-88372077D01*
X110180059Y-88348595D01*
X110265136Y-88176453D01*
X110265137Y-88176451D01*
X110267430Y-88171811D01*
X110332370Y-87958069D01*
X110361529Y-87736590D01*
X110362669Y-87689928D01*
X110363074Y-87673365D01*
X110363074Y-87673361D01*
X110363156Y-87670000D01*
X110344852Y-87447361D01*
X110290431Y-87230702D01*
X110201354Y-87025840D01*
X110100644Y-86870166D01*
X110082822Y-86842617D01*
X110082820Y-86842614D01*
X110080014Y-86838277D01*
X109929670Y-86673051D01*
X109925619Y-86669852D01*
X109925615Y-86669848D01*
X109758414Y-86537800D01*
X109758410Y-86537798D01*
X109754359Y-86534598D01*
X109718028Y-86514542D01*
X109628950Y-86465369D01*
X109558789Y-86426638D01*
X109553920Y-86424914D01*
X109553916Y-86424912D01*
X109353087Y-86353795D01*
X109353083Y-86353794D01*
X109348212Y-86352069D01*
X109343119Y-86351162D01*
X109343116Y-86351161D01*
X109133373Y-86313800D01*
X109133367Y-86313799D01*
X109128284Y-86312894D01*
X109054452Y-86311992D01*
X108910081Y-86310228D01*
X108910079Y-86310228D01*
X108904911Y-86310165D01*
X108684091Y-86343955D01*
X108471756Y-86413357D01*
X108273607Y-86516507D01*
X108269474Y-86519610D01*
X108269471Y-86519612D01*
X108116584Y-86634403D01*
X108094965Y-86650635D01*
X108091393Y-86654373D01*
X108000010Y-86750000D01*
X107940629Y-86812138D01*
X107937715Y-86816410D01*
X107937714Y-86816411D01*
X107910212Y-86856727D01*
X107814743Y-86996680D01*
X107720688Y-87199305D01*
X107660989Y-87414570D01*
X107637251Y-87636695D01*
X107637548Y-87641848D01*
X107637548Y-87641851D01*
X107643011Y-87736590D01*
X107650110Y-87859715D01*
X107651247Y-87864761D01*
X107651248Y-87864767D01*
X107654068Y-87877279D01*
X107699222Y-88077639D01*
X107783266Y-88284616D01*
X107899987Y-88475088D01*
X108046250Y-88643938D01*
X108218126Y-88786632D01*
X108280219Y-88822916D01*
X108291445Y-88829476D01*
X108340169Y-88881114D01*
X108353240Y-88950897D01*
X108326509Y-89016669D01*
X108286055Y-89050027D01*
X108273607Y-89056507D01*
X108269474Y-89059610D01*
X108269471Y-89059612D01*
X108099100Y-89187530D01*
X108094965Y-89190635D01*
X107940629Y-89352138D01*
X107814743Y-89536680D01*
X107782640Y-89605840D01*
X107732692Y-89713445D01*
X107720688Y-89739305D01*
X107660989Y-89954570D01*
X107637251Y-90176695D01*
X103758500Y-90176695D01*
X103758500Y-85316377D01*
X103778502Y-85248256D01*
X103795405Y-85227282D01*
X104022687Y-85000000D01*
X115086496Y-85000000D01*
X115106458Y-85189928D01*
X115165473Y-85371556D01*
X115260960Y-85536944D01*
X115388747Y-85678866D01*
X115543248Y-85791118D01*
X115549276Y-85793802D01*
X115549278Y-85793803D01*
X115600560Y-85816635D01*
X115717712Y-85868794D01*
X115904513Y-85908500D01*
X115909295Y-85908500D01*
X115974327Y-85935256D01*
X116014957Y-85993477D01*
X116021500Y-86033553D01*
X116021500Y-104447476D01*
X116001498Y-104515597D01*
X115989142Y-104531779D01*
X115915960Y-104613056D01*
X115820473Y-104778444D01*
X115761458Y-104960072D01*
X115741496Y-105150000D01*
X115761458Y-105339928D01*
X115820473Y-105521556D01*
X115915960Y-105686944D01*
X116043747Y-105828866D01*
X116113898Y-105879834D01*
X116166450Y-105918015D01*
X116198248Y-105941118D01*
X116204276Y-105943802D01*
X116204278Y-105943803D01*
X116364388Y-106015088D01*
X116372712Y-106018794D01*
X116466113Y-106038647D01*
X116553056Y-106057128D01*
X116553061Y-106057128D01*
X116559513Y-106058500D01*
X116640500Y-106058500D01*
X116708621Y-106078502D01*
X116755114Y-106132158D01*
X116766500Y-106184500D01*
X116766500Y-108938001D01*
X116749619Y-109001000D01*
X116690473Y-109103444D01*
X116631458Y-109285072D01*
X116630768Y-109291633D01*
X116630768Y-109291635D01*
X116623029Y-109365271D01*
X116611496Y-109475000D01*
X116612186Y-109481565D01*
X116630158Y-109652556D01*
X116631458Y-109664928D01*
X116690473Y-109846556D01*
X116785960Y-110011944D01*
X116790378Y-110016851D01*
X116790379Y-110016852D01*
X116808470Y-110036944D01*
X116913747Y-110153866D01*
X117068248Y-110266118D01*
X117074276Y-110268802D01*
X117074278Y-110268803D01*
X117236681Y-110341109D01*
X117242712Y-110343794D01*
X117336112Y-110363647D01*
X117423056Y-110382128D01*
X117423061Y-110382128D01*
X117429513Y-110383500D01*
X117620487Y-110383500D01*
X117626939Y-110382128D01*
X117626944Y-110382128D01*
X117713887Y-110363647D01*
X117807288Y-110343794D01*
X117813319Y-110341109D01*
X117975722Y-110268803D01*
X117975724Y-110268802D01*
X117981752Y-110266118D01*
X118136253Y-110153866D01*
X118241530Y-110036944D01*
X118259621Y-110016852D01*
X118259622Y-110016851D01*
X118264040Y-110011944D01*
X118359527Y-109846556D01*
X118418542Y-109664928D01*
X118419843Y-109652556D01*
X118437814Y-109481565D01*
X118438504Y-109475000D01*
X130611496Y-109475000D01*
X130612186Y-109481565D01*
X130630158Y-109652556D01*
X130631458Y-109664928D01*
X130690473Y-109846556D01*
X130785960Y-110011944D01*
X130790378Y-110016851D01*
X130790379Y-110016852D01*
X130808470Y-110036944D01*
X130913747Y-110153866D01*
X131068248Y-110266118D01*
X131074276Y-110268802D01*
X131074278Y-110268803D01*
X131236681Y-110341109D01*
X131242712Y-110343794D01*
X131336112Y-110363647D01*
X131423056Y-110382128D01*
X131423061Y-110382128D01*
X131429513Y-110383500D01*
X131620487Y-110383500D01*
X131626939Y-110382128D01*
X131626944Y-110382128D01*
X131713887Y-110363647D01*
X131807288Y-110343794D01*
X131813319Y-110341109D01*
X131975722Y-110268803D01*
X131975724Y-110268802D01*
X131981752Y-110266118D01*
X132136253Y-110153866D01*
X132241530Y-110036944D01*
X132259621Y-110016852D01*
X132259622Y-110016851D01*
X132264040Y-110011944D01*
X132359527Y-109846556D01*
X132414387Y-109677714D01*
X132445125Y-109627556D01*
X132597681Y-109475000D01*
X140361496Y-109475000D01*
X140362186Y-109481565D01*
X140380158Y-109652556D01*
X140381458Y-109664928D01*
X140440473Y-109846556D01*
X140535960Y-110011944D01*
X140540378Y-110016851D01*
X140540379Y-110016852D01*
X140558470Y-110036944D01*
X140663747Y-110153866D01*
X140818248Y-110266118D01*
X140824276Y-110268802D01*
X140824278Y-110268803D01*
X140986681Y-110341109D01*
X140992712Y-110343794D01*
X141086112Y-110363647D01*
X141173056Y-110382128D01*
X141173061Y-110382128D01*
X141179513Y-110383500D01*
X141370487Y-110383500D01*
X141376939Y-110382128D01*
X141376944Y-110382128D01*
X141463887Y-110363647D01*
X141557288Y-110343794D01*
X141563319Y-110341109D01*
X141725722Y-110268803D01*
X141725724Y-110268802D01*
X141731752Y-110266118D01*
X141886253Y-110153866D01*
X141991530Y-110036944D01*
X142009621Y-110016852D01*
X142009622Y-110016851D01*
X142014040Y-110011944D01*
X142109527Y-109846556D01*
X142168542Y-109664928D01*
X142169843Y-109652556D01*
X142187814Y-109481565D01*
X142188504Y-109475000D01*
X142176971Y-109365271D01*
X142169232Y-109291635D01*
X142169232Y-109291633D01*
X142168542Y-109285072D01*
X142109527Y-109103444D01*
X142050381Y-109001000D01*
X142033500Y-108938001D01*
X142033500Y-106750000D01*
X153641512Y-106750000D01*
X153642202Y-106756565D01*
X153655354Y-106881695D01*
X153661474Y-106939928D01*
X153720489Y-107121556D01*
X153815976Y-107286944D01*
X153943763Y-107428866D01*
X154098264Y-107541118D01*
X154104292Y-107543802D01*
X154104294Y-107543803D01*
X154266697Y-107616109D01*
X154272728Y-107618794D01*
X154366128Y-107638647D01*
X154453072Y-107657128D01*
X154453077Y-107657128D01*
X154459529Y-107658500D01*
X154650503Y-107658500D01*
X154656955Y-107657128D01*
X154656960Y-107657128D01*
X154743904Y-107638647D01*
X154837304Y-107618794D01*
X154843335Y-107616109D01*
X155005738Y-107543803D01*
X155005740Y-107543802D01*
X155011768Y-107541118D01*
X155166269Y-107428866D01*
X155170684Y-107423963D01*
X155175596Y-107419540D01*
X155176721Y-107420789D01*
X155230030Y-107387949D01*
X155263216Y-107383500D01*
X158461186Y-107383500D01*
X158529307Y-107403502D01*
X158575800Y-107457158D01*
X158585150Y-107500141D01*
X158586496Y-107500000D01*
X158603011Y-107657128D01*
X158606458Y-107689928D01*
X158665473Y-107871556D01*
X158760960Y-108036944D01*
X158765378Y-108041851D01*
X158765379Y-108041852D01*
X158868329Y-108156190D01*
X158899047Y-108220197D01*
X158890282Y-108290651D01*
X158844819Y-108345182D01*
X158774693Y-108366500D01*
X156958200Y-108366500D01*
X156890079Y-108346498D01*
X156870853Y-108330157D01*
X156870580Y-108330460D01*
X156865668Y-108326037D01*
X156861253Y-108321134D01*
X156706752Y-108208882D01*
X156700724Y-108206198D01*
X156700722Y-108206197D01*
X156538319Y-108133891D01*
X156538318Y-108133891D01*
X156532288Y-108131206D01*
X156426072Y-108108629D01*
X156351944Y-108092872D01*
X156351939Y-108092872D01*
X156345487Y-108091500D01*
X156154513Y-108091500D01*
X156148061Y-108092872D01*
X156148056Y-108092872D01*
X156073928Y-108108629D01*
X155967712Y-108131206D01*
X155961682Y-108133891D01*
X155961681Y-108133891D01*
X155799278Y-108206197D01*
X155799276Y-108206198D01*
X155793248Y-108208882D01*
X155638747Y-108321134D01*
X155634326Y-108326044D01*
X155634325Y-108326045D01*
X155517690Y-108455582D01*
X155510960Y-108463056D01*
X155507659Y-108468774D01*
X155436052Y-108592801D01*
X155415473Y-108628444D01*
X155356458Y-108810072D01*
X155355768Y-108816633D01*
X155355768Y-108816635D01*
X155341296Y-108954333D01*
X155336496Y-109000000D01*
X155356458Y-109189928D01*
X155415473Y-109371556D01*
X155510960Y-109536944D01*
X155638747Y-109678866D01*
X155793248Y-109791118D01*
X155799276Y-109793802D01*
X155799278Y-109793803D01*
X155959799Y-109865271D01*
X155967712Y-109868794D01*
X156061112Y-109888647D01*
X156148056Y-109907128D01*
X156148061Y-109907128D01*
X156154513Y-109908500D01*
X156345487Y-109908500D01*
X156351939Y-109907128D01*
X156351944Y-109907128D01*
X156438888Y-109888647D01*
X156532288Y-109868794D01*
X156540201Y-109865271D01*
X156700722Y-109793803D01*
X156700724Y-109793802D01*
X156706752Y-109791118D01*
X156861253Y-109678866D01*
X156865668Y-109673963D01*
X156870580Y-109669540D01*
X156871705Y-109670789D01*
X156925014Y-109637949D01*
X156958200Y-109633500D01*
X161291800Y-109633500D01*
X161359921Y-109653502D01*
X161379147Y-109669843D01*
X161379420Y-109669540D01*
X161384332Y-109673963D01*
X161388747Y-109678866D01*
X161543248Y-109791118D01*
X161549276Y-109793802D01*
X161549278Y-109793803D01*
X161709799Y-109865271D01*
X161717712Y-109868794D01*
X161811112Y-109888647D01*
X161898056Y-109907128D01*
X161898061Y-109907128D01*
X161904513Y-109908500D01*
X162095487Y-109908500D01*
X162101939Y-109907128D01*
X162101944Y-109907128D01*
X162188888Y-109888647D01*
X162282288Y-109868794D01*
X162290201Y-109865271D01*
X162450722Y-109793803D01*
X162450724Y-109793802D01*
X162456752Y-109791118D01*
X162611253Y-109678866D01*
X162739040Y-109536944D01*
X162834527Y-109371556D01*
X162893542Y-109189928D01*
X162913504Y-109000000D01*
X162908704Y-108954333D01*
X162894232Y-108816635D01*
X162894232Y-108816633D01*
X162893542Y-108810072D01*
X162834527Y-108628444D01*
X162813949Y-108592801D01*
X162774559Y-108524577D01*
X162757821Y-108455582D01*
X162781041Y-108388490D01*
X162832429Y-108346470D01*
X162950722Y-108293803D01*
X162950724Y-108293802D01*
X162956752Y-108291118D01*
X163111253Y-108178866D01*
X163239040Y-108036944D01*
X163334527Y-107871556D01*
X163393542Y-107689928D01*
X163396990Y-107657128D01*
X163413504Y-107500000D01*
X163415541Y-107500214D01*
X163432816Y-107441379D01*
X163486472Y-107394886D01*
X163538814Y-107383500D01*
X164646800Y-107383500D01*
X164714921Y-107403502D01*
X164734147Y-107419843D01*
X164734420Y-107419540D01*
X164739332Y-107423963D01*
X164743747Y-107428866D01*
X164898248Y-107541118D01*
X164904276Y-107543802D01*
X164904278Y-107543803D01*
X165066681Y-107616109D01*
X165072712Y-107618794D01*
X165166112Y-107638647D01*
X165253056Y-107657128D01*
X165253061Y-107657128D01*
X165259513Y-107658500D01*
X165450487Y-107658500D01*
X165456939Y-107657128D01*
X165456944Y-107657128D01*
X165543888Y-107638647D01*
X165637288Y-107618794D01*
X165643319Y-107616109D01*
X165805722Y-107543803D01*
X165805724Y-107543802D01*
X165811752Y-107541118D01*
X165966253Y-107428866D01*
X166094040Y-107286944D01*
X166189527Y-107121556D01*
X166248542Y-106939928D01*
X166254663Y-106881695D01*
X166267814Y-106756565D01*
X166268504Y-106750000D01*
X166248542Y-106560072D01*
X166189527Y-106378444D01*
X166094040Y-106213056D01*
X165966253Y-106071134D01*
X165811752Y-105958882D01*
X165805724Y-105956198D01*
X165805722Y-105956197D01*
X165643319Y-105883891D01*
X165643318Y-105883891D01*
X165637288Y-105881206D01*
X165543887Y-105861353D01*
X165456944Y-105842872D01*
X165456939Y-105842872D01*
X165450487Y-105841500D01*
X165259513Y-105841500D01*
X165253061Y-105842872D01*
X165253056Y-105842872D01*
X165166113Y-105861353D01*
X165072712Y-105881206D01*
X165066682Y-105883891D01*
X165066681Y-105883891D01*
X164904278Y-105956197D01*
X164904276Y-105956198D01*
X164898248Y-105958882D01*
X164892907Y-105962762D01*
X164892906Y-105962763D01*
X164815517Y-106018990D01*
X164743747Y-106071134D01*
X164739332Y-106076037D01*
X164734420Y-106080460D01*
X164733295Y-106079211D01*
X164679986Y-106112051D01*
X164646800Y-106116500D01*
X155263216Y-106116500D01*
X155195095Y-106096498D01*
X155175869Y-106080157D01*
X155175596Y-106080460D01*
X155170684Y-106076037D01*
X155166269Y-106071134D01*
X155094499Y-106018990D01*
X155017110Y-105962763D01*
X155017109Y-105962762D01*
X155011768Y-105958882D01*
X155005740Y-105956198D01*
X155005738Y-105956197D01*
X154843335Y-105883891D01*
X154843334Y-105883891D01*
X154837304Y-105881206D01*
X154743903Y-105861353D01*
X154656960Y-105842872D01*
X154656955Y-105842872D01*
X154650503Y-105841500D01*
X154459529Y-105841500D01*
X154453077Y-105842872D01*
X154453072Y-105842872D01*
X154366129Y-105861353D01*
X154272728Y-105881206D01*
X154266698Y-105883891D01*
X154266697Y-105883891D01*
X154104294Y-105956197D01*
X154104292Y-105956198D01*
X154098264Y-105958882D01*
X153943763Y-106071134D01*
X153815976Y-106213056D01*
X153720489Y-106378444D01*
X153661474Y-106560072D01*
X153641512Y-106750000D01*
X142033500Y-106750000D01*
X142033500Y-106032984D01*
X142050381Y-105969984D01*
X142121225Y-105847279D01*
X142121226Y-105847278D01*
X142124529Y-105841556D01*
X142183544Y-105659928D01*
X142203506Y-105470000D01*
X142183544Y-105280072D01*
X142124529Y-105098444D01*
X142029042Y-104933056D01*
X141901255Y-104791134D01*
X141746754Y-104678882D01*
X141740726Y-104676198D01*
X141740724Y-104676197D01*
X141578321Y-104603891D01*
X141578320Y-104603891D01*
X141572290Y-104601206D01*
X141478890Y-104581353D01*
X141391946Y-104562872D01*
X141391941Y-104562872D01*
X141385489Y-104561500D01*
X141194515Y-104561500D01*
X141188063Y-104562872D01*
X141188058Y-104562872D01*
X141101114Y-104581353D01*
X141007714Y-104601206D01*
X141001684Y-104603891D01*
X141001683Y-104603891D01*
X140839280Y-104676197D01*
X140839278Y-104676198D01*
X140833250Y-104678882D01*
X140678749Y-104791134D01*
X140550962Y-104933056D01*
X140455475Y-105098444D01*
X140396460Y-105280072D01*
X140376498Y-105470000D01*
X140396460Y-105659928D01*
X140455475Y-105841556D01*
X140498616Y-105916277D01*
X140499619Y-105918015D01*
X140516500Y-105981015D01*
X140516500Y-108938001D01*
X140499619Y-109001000D01*
X140440473Y-109103444D01*
X140381458Y-109285072D01*
X140380768Y-109291633D01*
X140380768Y-109291635D01*
X140373029Y-109365271D01*
X140361496Y-109475000D01*
X132597681Y-109475000D01*
X133013911Y-109058770D01*
X133028323Y-109046384D01*
X133039918Y-109037851D01*
X133039923Y-109037846D01*
X133045818Y-109033508D01*
X133050557Y-109027930D01*
X133050560Y-109027927D01*
X133080035Y-108993232D01*
X133086965Y-108985716D01*
X133092661Y-108980020D01*
X133094924Y-108977159D01*
X133094929Y-108977154D01*
X133110293Y-108957734D01*
X133113082Y-108954333D01*
X133155592Y-108904296D01*
X133155594Y-108904294D01*
X133160333Y-108898715D01*
X133163662Y-108892195D01*
X133167028Y-108887148D01*
X133170193Y-108882024D01*
X133174735Y-108876283D01*
X133185201Y-108853891D01*
X133205634Y-108810170D01*
X133207565Y-108806218D01*
X133210207Y-108801045D01*
X133240769Y-108741192D01*
X133242508Y-108734086D01*
X133244609Y-108728436D01*
X133246524Y-108722679D01*
X133249622Y-108716050D01*
X133264491Y-108644565D01*
X133265461Y-108640282D01*
X133267682Y-108631206D01*
X133282808Y-108569390D01*
X133283500Y-108558236D01*
X133283535Y-108558238D01*
X133283775Y-108554266D01*
X133284152Y-108550045D01*
X133285641Y-108542885D01*
X133283546Y-108465458D01*
X133283500Y-108462050D01*
X133283500Y-102000000D01*
X165586496Y-102000000D01*
X165606458Y-102189928D01*
X165665473Y-102371556D01*
X165760960Y-102536944D01*
X165888747Y-102678866D01*
X166043248Y-102791118D01*
X166049276Y-102793802D01*
X166049278Y-102793803D01*
X166211681Y-102866109D01*
X166217712Y-102868794D01*
X166311112Y-102888647D01*
X166398056Y-102907128D01*
X166398061Y-102907128D01*
X166404513Y-102908500D01*
X166595487Y-102908500D01*
X166601939Y-102907128D01*
X166601944Y-102907128D01*
X166688887Y-102888647D01*
X166782288Y-102868794D01*
X166788319Y-102866109D01*
X166950722Y-102793803D01*
X166950724Y-102793802D01*
X166956752Y-102791118D01*
X167111253Y-102678866D01*
X167115668Y-102673963D01*
X167120580Y-102669540D01*
X167121705Y-102670789D01*
X167175014Y-102637949D01*
X167208200Y-102633500D01*
X168791800Y-102633500D01*
X168859921Y-102653502D01*
X168879147Y-102669843D01*
X168879420Y-102669540D01*
X168884332Y-102673963D01*
X168888747Y-102678866D01*
X169043248Y-102791118D01*
X169049276Y-102793802D01*
X169049278Y-102793803D01*
X169211681Y-102866109D01*
X169217712Y-102868794D01*
X169311112Y-102888647D01*
X169398056Y-102907128D01*
X169398061Y-102907128D01*
X169404513Y-102908500D01*
X169595487Y-102908500D01*
X169601939Y-102907128D01*
X169601944Y-102907128D01*
X169688887Y-102888647D01*
X169782288Y-102868794D01*
X169788319Y-102866109D01*
X169950722Y-102793803D01*
X169950724Y-102793802D01*
X169956752Y-102791118D01*
X170111253Y-102678866D01*
X170239040Y-102536944D01*
X170334527Y-102371556D01*
X170393542Y-102189928D01*
X170413504Y-102000000D01*
X170396995Y-101842926D01*
X170394232Y-101816635D01*
X170394232Y-101816633D01*
X170393542Y-101810072D01*
X170334527Y-101628444D01*
X170239040Y-101463056D01*
X170131536Y-101343660D01*
X170115675Y-101326045D01*
X170115674Y-101326044D01*
X170111253Y-101321134D01*
X169956752Y-101208882D01*
X169950724Y-101206198D01*
X169950722Y-101206197D01*
X169788319Y-101133891D01*
X169788318Y-101133891D01*
X169782288Y-101131206D01*
X169688888Y-101111353D01*
X169601944Y-101092872D01*
X169601939Y-101092872D01*
X169595487Y-101091500D01*
X169404513Y-101091500D01*
X169398061Y-101092872D01*
X169398056Y-101092872D01*
X169311112Y-101111353D01*
X169217712Y-101131206D01*
X169211682Y-101133891D01*
X169211681Y-101133891D01*
X169049278Y-101206197D01*
X169049276Y-101206198D01*
X169043248Y-101208882D01*
X168888747Y-101321134D01*
X168884332Y-101326037D01*
X168879420Y-101330460D01*
X168878295Y-101329211D01*
X168824986Y-101362051D01*
X168791800Y-101366500D01*
X167208200Y-101366500D01*
X167140079Y-101346498D01*
X167120853Y-101330157D01*
X167120580Y-101330460D01*
X167115668Y-101326037D01*
X167111253Y-101321134D01*
X166956752Y-101208882D01*
X166950724Y-101206198D01*
X166950722Y-101206197D01*
X166788319Y-101133891D01*
X166788318Y-101133891D01*
X166782288Y-101131206D01*
X166688888Y-101111353D01*
X166601944Y-101092872D01*
X166601939Y-101092872D01*
X166595487Y-101091500D01*
X166404513Y-101091500D01*
X166398061Y-101092872D01*
X166398056Y-101092872D01*
X166311112Y-101111353D01*
X166217712Y-101131206D01*
X166211682Y-101133891D01*
X166211681Y-101133891D01*
X166049278Y-101206197D01*
X166049276Y-101206198D01*
X166043248Y-101208882D01*
X165888747Y-101321134D01*
X165884326Y-101326044D01*
X165884325Y-101326045D01*
X165868465Y-101343660D01*
X165760960Y-101463056D01*
X165665473Y-101628444D01*
X165606458Y-101810072D01*
X165605768Y-101816633D01*
X165605768Y-101816635D01*
X165603005Y-101842926D01*
X165586496Y-102000000D01*
X133283500Y-102000000D01*
X133283500Y-99600000D01*
X152486496Y-99600000D01*
X152487186Y-99606565D01*
X152495167Y-99682496D01*
X152506458Y-99789928D01*
X152565473Y-99971556D01*
X152660960Y-100136944D01*
X152788747Y-100278866D01*
X152943248Y-100391118D01*
X152949276Y-100393802D01*
X152949278Y-100393803D01*
X153111681Y-100466109D01*
X153117712Y-100468794D01*
X153211113Y-100488647D01*
X153298056Y-100507128D01*
X153298061Y-100507128D01*
X153304513Y-100508500D01*
X153495487Y-100508500D01*
X153501939Y-100507128D01*
X153501944Y-100507128D01*
X153588888Y-100488647D01*
X153682288Y-100468794D01*
X153688319Y-100466109D01*
X153850722Y-100393803D01*
X153850724Y-100393802D01*
X153856752Y-100391118D01*
X154011253Y-100278866D01*
X154139040Y-100136944D01*
X154234527Y-99971556D01*
X154293542Y-99789928D01*
X154296794Y-99758983D01*
X154323806Y-99693327D01*
X154382027Y-99652697D01*
X154422104Y-99646153D01*
X159779147Y-99646153D01*
X159847268Y-99666155D01*
X159866494Y-99682496D01*
X159866767Y-99682193D01*
X159871679Y-99686616D01*
X159876094Y-99691519D01*
X159897676Y-99707199D01*
X160020183Y-99796206D01*
X160030595Y-99803771D01*
X160036623Y-99806455D01*
X160036625Y-99806456D01*
X160199028Y-99878762D01*
X160205059Y-99881447D01*
X160298459Y-99901300D01*
X160385403Y-99919781D01*
X160385408Y-99919781D01*
X160391860Y-99921153D01*
X160582834Y-99921153D01*
X160589286Y-99919781D01*
X160589291Y-99919781D01*
X160676235Y-99901300D01*
X160769635Y-99881447D01*
X160775666Y-99878762D01*
X160938069Y-99806456D01*
X160938071Y-99806455D01*
X160944099Y-99803771D01*
X160954512Y-99796206D01*
X161005743Y-99758984D01*
X161098600Y-99691519D01*
X161121438Y-99666155D01*
X161221968Y-99554505D01*
X161221969Y-99554504D01*
X161226387Y-99549597D01*
X161321874Y-99384209D01*
X161380889Y-99202581D01*
X161395554Y-99063056D01*
X161400161Y-99019218D01*
X161400851Y-99012653D01*
X161380889Y-98822725D01*
X161321874Y-98641097D01*
X161226387Y-98475709D01*
X161210229Y-98457763D01*
X161103022Y-98338698D01*
X161103021Y-98338697D01*
X161098600Y-98333787D01*
X160944099Y-98221535D01*
X160938071Y-98218851D01*
X160938069Y-98218850D01*
X160775666Y-98146544D01*
X160775665Y-98146544D01*
X160769635Y-98143859D01*
X160676234Y-98124006D01*
X160589291Y-98105525D01*
X160589286Y-98105525D01*
X160582834Y-98104153D01*
X160391860Y-98104153D01*
X160385408Y-98105525D01*
X160385403Y-98105525D01*
X160298459Y-98124006D01*
X160205059Y-98143859D01*
X160199029Y-98146544D01*
X160199028Y-98146544D01*
X160036625Y-98218850D01*
X160036623Y-98218851D01*
X160030595Y-98221535D01*
X159876094Y-98333787D01*
X159871679Y-98338690D01*
X159866767Y-98343113D01*
X159865642Y-98341864D01*
X159812333Y-98374704D01*
X159779147Y-98379153D01*
X154066114Y-98379153D01*
X154054931Y-98378626D01*
X154047438Y-98376951D01*
X154039512Y-98377200D01*
X154039511Y-98377200D01*
X153979361Y-98379091D01*
X153975402Y-98379153D01*
X153947491Y-98379153D01*
X153943557Y-98379650D01*
X153943556Y-98379650D01*
X153943491Y-98379658D01*
X153931654Y-98380591D01*
X153899837Y-98381591D01*
X153895376Y-98381731D01*
X153887457Y-98381980D01*
X153869801Y-98387109D01*
X153868005Y-98387631D01*
X153848653Y-98391639D01*
X153841582Y-98392533D01*
X153828550Y-98394179D01*
X153821181Y-98397096D01*
X153821179Y-98397097D01*
X153787444Y-98410453D01*
X153776216Y-98414298D01*
X153733754Y-98426635D01*
X153726931Y-98430670D01*
X153726929Y-98430671D01*
X153716319Y-98436946D01*
X153698571Y-98445641D01*
X153679730Y-98453101D01*
X153673314Y-98457763D01*
X153673313Y-98457763D01*
X153643960Y-98479089D01*
X153634040Y-98485605D01*
X153602812Y-98504073D01*
X153602809Y-98504075D01*
X153595985Y-98508111D01*
X153581664Y-98522432D01*
X153566631Y-98535272D01*
X153550240Y-98547181D01*
X153545187Y-98553289D01*
X153522055Y-98581251D01*
X153514065Y-98590031D01*
X153449501Y-98654595D01*
X153387189Y-98688621D01*
X153360406Y-98691500D01*
X153304513Y-98691500D01*
X153298061Y-98692872D01*
X153298056Y-98692872D01*
X153211113Y-98711353D01*
X153117712Y-98731206D01*
X153111682Y-98733891D01*
X153111681Y-98733891D01*
X152949278Y-98806197D01*
X152949276Y-98806198D01*
X152943248Y-98808882D01*
X152937907Y-98812762D01*
X152937906Y-98812763D01*
X152924195Y-98822725D01*
X152788747Y-98921134D01*
X152660960Y-99063056D01*
X152565473Y-99228444D01*
X152506458Y-99410072D01*
X152505768Y-99416633D01*
X152505768Y-99416635D01*
X152491278Y-99554505D01*
X152486496Y-99600000D01*
X133283500Y-99600000D01*
X133283500Y-91511999D01*
X133300381Y-91448999D01*
X133309408Y-91433365D01*
X133351147Y-91361071D01*
X133356223Y-91352279D01*
X133356224Y-91352278D01*
X133359527Y-91346556D01*
X133418542Y-91164928D01*
X133421847Y-91133489D01*
X133437814Y-90981565D01*
X133438504Y-90975000D01*
X133427365Y-90869020D01*
X133419232Y-90791635D01*
X133419232Y-90791633D01*
X133418542Y-90785072D01*
X133359527Y-90603444D01*
X133300381Y-90501000D01*
X133283500Y-90438001D01*
X133283500Y-90216695D01*
X136637251Y-90216695D01*
X136637548Y-90221848D01*
X136637548Y-90221851D01*
X136645818Y-90365271D01*
X136650110Y-90439715D01*
X136651247Y-90444761D01*
X136651248Y-90444767D01*
X136667494Y-90516852D01*
X136699222Y-90657639D01*
X136743933Y-90767750D01*
X136775214Y-90844785D01*
X136783266Y-90864616D01*
X136794838Y-90883500D01*
X136864083Y-90996497D01*
X136899987Y-91055088D01*
X137046250Y-91223938D01*
X137050230Y-91227242D01*
X137054981Y-91231187D01*
X137094616Y-91290090D01*
X137096113Y-91361071D01*
X137058997Y-91421593D01*
X137018725Y-91446112D01*
X136973527Y-91463056D01*
X136903295Y-91489385D01*
X136786739Y-91576739D01*
X136699385Y-91693295D01*
X136648255Y-91829684D01*
X136641500Y-91891866D01*
X136641500Y-93688134D01*
X136648255Y-93750316D01*
X136699385Y-93886705D01*
X136786739Y-94003261D01*
X136903295Y-94090615D01*
X137039684Y-94141745D01*
X137101866Y-94148500D01*
X138898134Y-94148500D01*
X138960316Y-94141745D01*
X139096705Y-94090615D01*
X139213261Y-94003261D01*
X139300615Y-93886705D01*
X139351745Y-93750316D01*
X139358500Y-93688134D01*
X139358500Y-92734847D01*
X144326343Y-92734847D01*
X144346305Y-92924775D01*
X144405320Y-93106403D01*
X144500807Y-93271791D01*
X144505225Y-93276698D01*
X144505226Y-93276699D01*
X144617154Y-93401008D01*
X144628594Y-93413713D01*
X144725437Y-93484074D01*
X144776815Y-93521402D01*
X144783095Y-93525965D01*
X144789123Y-93528649D01*
X144789125Y-93528650D01*
X144933371Y-93592872D01*
X144957559Y-93603641D01*
X145050959Y-93623494D01*
X145137903Y-93641975D01*
X145137908Y-93641975D01*
X145144360Y-93643347D01*
X145200253Y-93643347D01*
X145268374Y-93663349D01*
X145289348Y-93680252D01*
X146412889Y-94803794D01*
X147521350Y-95912255D01*
X147528890Y-95920541D01*
X147533002Y-95927020D01*
X147538779Y-95932445D01*
X147582653Y-95973645D01*
X147585495Y-95976400D01*
X147605232Y-95996137D01*
X147608429Y-95998617D01*
X147617449Y-96006320D01*
X147649681Y-96036588D01*
X147656627Y-96040407D01*
X147656630Y-96040409D01*
X147667436Y-96046350D01*
X147683955Y-96057201D01*
X147699961Y-96069616D01*
X147707230Y-96072761D01*
X147707234Y-96072764D01*
X147740539Y-96087176D01*
X147751189Y-96092393D01*
X147789942Y-96113697D01*
X147797617Y-96115668D01*
X147797618Y-96115668D01*
X147809564Y-96118735D01*
X147828269Y-96125139D01*
X147846857Y-96133183D01*
X147854680Y-96134422D01*
X147854690Y-96134425D01*
X147890526Y-96140101D01*
X147902146Y-96142507D01*
X147933961Y-96150675D01*
X147944972Y-96153502D01*
X147965226Y-96153502D01*
X147984936Y-96155053D01*
X148004945Y-96158222D01*
X148012837Y-96157476D01*
X148031582Y-96155704D01*
X148048964Y-96154061D01*
X148060821Y-96153502D01*
X156901231Y-96153502D01*
X156912414Y-96154029D01*
X156919907Y-96155704D01*
X156927833Y-96155455D01*
X156927834Y-96155455D01*
X156987984Y-96153564D01*
X156991943Y-96153502D01*
X157019854Y-96153502D01*
X157023789Y-96153005D01*
X157023854Y-96152997D01*
X157035691Y-96152064D01*
X157067949Y-96151050D01*
X157071968Y-96150924D01*
X157079887Y-96150675D01*
X157099341Y-96145023D01*
X157118698Y-96141015D01*
X157130928Y-96139470D01*
X157130929Y-96139470D01*
X157138795Y-96138476D01*
X157146166Y-96135557D01*
X157146168Y-96135557D01*
X157179910Y-96122198D01*
X157191140Y-96118353D01*
X157225981Y-96108231D01*
X157225982Y-96108231D01*
X157233591Y-96106020D01*
X157240410Y-96101987D01*
X157240415Y-96101985D01*
X157251026Y-96095709D01*
X157268774Y-96087014D01*
X157287615Y-96079554D01*
X157323385Y-96053566D01*
X157333305Y-96047050D01*
X157364533Y-96028582D01*
X157364536Y-96028580D01*
X157371360Y-96024544D01*
X157385681Y-96010223D01*
X157400715Y-95997382D01*
X157410691Y-95990134D01*
X157417105Y-95985474D01*
X157445291Y-95951403D01*
X157453280Y-95942624D01*
X157650624Y-95745280D01*
X157712936Y-95711254D01*
X157783751Y-95716319D01*
X157813779Y-95732438D01*
X157818901Y-95736159D01*
X157824681Y-95741587D01*
X157831630Y-95745407D01*
X157842434Y-95751347D01*
X157858958Y-95762200D01*
X157874961Y-95774614D01*
X157882236Y-95777762D01*
X157915530Y-95792170D01*
X157926190Y-95797392D01*
X157958000Y-95814880D01*
X157958003Y-95814881D01*
X157964942Y-95818696D01*
X157984571Y-95823736D01*
X158003257Y-95830134D01*
X158021856Y-95838182D01*
X158055506Y-95843512D01*
X158065533Y-95845100D01*
X158077146Y-95847505D01*
X158119972Y-95858501D01*
X158140225Y-95858501D01*
X158159935Y-95860052D01*
X158179944Y-95863221D01*
X158187836Y-95862475D01*
X158223962Y-95859060D01*
X158235820Y-95858501D01*
X163589199Y-95858501D01*
X163640448Y-95869394D01*
X163688561Y-95890815D01*
X163717712Y-95903794D01*
X163811113Y-95923647D01*
X163898056Y-95942128D01*
X163898061Y-95942128D01*
X163904513Y-95943500D01*
X164095487Y-95943500D01*
X164101939Y-95942128D01*
X164101944Y-95942128D01*
X164188887Y-95923647D01*
X164282288Y-95903794D01*
X164288319Y-95901109D01*
X164450722Y-95828803D01*
X164450724Y-95828802D01*
X164456752Y-95826118D01*
X164464258Y-95820665D01*
X164559665Y-95751347D01*
X164611253Y-95713866D01*
X164739040Y-95571944D01*
X164834527Y-95406556D01*
X164893542Y-95224928D01*
X164897911Y-95183365D01*
X164912814Y-95041565D01*
X164913504Y-95035000D01*
X164909135Y-94993435D01*
X164894232Y-94851635D01*
X164894232Y-94851633D01*
X164893542Y-94845072D01*
X164834527Y-94663444D01*
X164739040Y-94498056D01*
X164712675Y-94468774D01*
X164615675Y-94361045D01*
X164615674Y-94361044D01*
X164611253Y-94356134D01*
X164456752Y-94243882D01*
X164450724Y-94241198D01*
X164450722Y-94241197D01*
X164288319Y-94168891D01*
X164288318Y-94168891D01*
X164282288Y-94166206D01*
X164167209Y-94141745D01*
X164101944Y-94127872D01*
X164101939Y-94127872D01*
X164095487Y-94126500D01*
X163904513Y-94126500D01*
X163898061Y-94127872D01*
X163898056Y-94127872D01*
X163832791Y-94141745D01*
X163717712Y-94166206D01*
X163711682Y-94168891D01*
X163711681Y-94168891D01*
X163549278Y-94241197D01*
X163549276Y-94241198D01*
X163543248Y-94243882D01*
X163537907Y-94247763D01*
X163534051Y-94249989D01*
X163465056Y-94266728D01*
X163397964Y-94243509D01*
X163354075Y-94187703D01*
X163351216Y-94179807D01*
X163336569Y-94134729D01*
X163334527Y-94128444D01*
X163239040Y-93963056D01*
X163111253Y-93821134D01*
X162956752Y-93708882D01*
X162950724Y-93706198D01*
X162950722Y-93706197D01*
X162788319Y-93633891D01*
X162788318Y-93633891D01*
X162782288Y-93631206D01*
X162688887Y-93611353D01*
X162601944Y-93592872D01*
X162601939Y-93592872D01*
X162595487Y-93591500D01*
X162538621Y-93591500D01*
X162470500Y-93571498D01*
X162457843Y-93561938D01*
X162457758Y-93561853D01*
X162454561Y-93559373D01*
X162445539Y-93551668D01*
X162419088Y-93526829D01*
X162413309Y-93521402D01*
X162406363Y-93517583D01*
X162406360Y-93517581D01*
X162395554Y-93511640D01*
X162379035Y-93500789D01*
X162378018Y-93500000D01*
X162363029Y-93488374D01*
X162355760Y-93485229D01*
X162355756Y-93485226D01*
X162322451Y-93470814D01*
X162311801Y-93465597D01*
X162273048Y-93444293D01*
X162263016Y-93441717D01*
X162253426Y-93439255D01*
X162234722Y-93432851D01*
X162223408Y-93427955D01*
X162223407Y-93427955D01*
X162216133Y-93424807D01*
X162208310Y-93423568D01*
X162208300Y-93423565D01*
X162172464Y-93417889D01*
X162160844Y-93415483D01*
X162125699Y-93406460D01*
X162125698Y-93406460D01*
X162118018Y-93404488D01*
X162097764Y-93404488D01*
X162078053Y-93402937D01*
X162065874Y-93401008D01*
X162058045Y-93399768D01*
X162050153Y-93400514D01*
X162014027Y-93403929D01*
X162002169Y-93404488D01*
X161774760Y-93404488D01*
X161706639Y-93384486D01*
X161660146Y-93330830D01*
X161650042Y-93260556D01*
X161654927Y-93239552D01*
X161701503Y-93096206D01*
X161703543Y-93089928D01*
X161707909Y-93048394D01*
X161722815Y-92906565D01*
X161723505Y-92900000D01*
X161703543Y-92710072D01*
X161644528Y-92528444D01*
X161612228Y-92472499D01*
X161595490Y-92403504D01*
X161618710Y-92336412D01*
X161674517Y-92292525D01*
X161721347Y-92283499D01*
X163771234Y-92283499D01*
X163782417Y-92284026D01*
X163789910Y-92285701D01*
X163797836Y-92285452D01*
X163797837Y-92285452D01*
X163857987Y-92283561D01*
X163861946Y-92283499D01*
X163889857Y-92283499D01*
X163893792Y-92283002D01*
X163893857Y-92282994D01*
X163905694Y-92282061D01*
X163937952Y-92281047D01*
X163941971Y-92280921D01*
X163949890Y-92280672D01*
X163969344Y-92275020D01*
X163988701Y-92271012D01*
X164000931Y-92269467D01*
X164000932Y-92269467D01*
X164008798Y-92268473D01*
X164016169Y-92265554D01*
X164016171Y-92265554D01*
X164049913Y-92252195D01*
X164061143Y-92248350D01*
X164095984Y-92238228D01*
X164095985Y-92238228D01*
X164103594Y-92236017D01*
X164110413Y-92231984D01*
X164110418Y-92231982D01*
X164121029Y-92225706D01*
X164138777Y-92217011D01*
X164157618Y-92209551D01*
X164193388Y-92183563D01*
X164203311Y-92177045D01*
X164205002Y-92176045D01*
X164269139Y-92158500D01*
X164345487Y-92158500D01*
X164351939Y-92157128D01*
X164351944Y-92157128D01*
X164438888Y-92138647D01*
X164532288Y-92118794D01*
X164577009Y-92098883D01*
X164700722Y-92043803D01*
X164700724Y-92043802D01*
X164706752Y-92041118D01*
X164861253Y-91928866D01*
X164906503Y-91878611D01*
X164984621Y-91791852D01*
X164984622Y-91791851D01*
X164989040Y-91786944D01*
X165061348Y-91661703D01*
X165081223Y-91627279D01*
X165081224Y-91627278D01*
X165084527Y-91621556D01*
X165143542Y-91439928D01*
X165145096Y-91425149D01*
X165162814Y-91256565D01*
X165163504Y-91250000D01*
X165156561Y-91183938D01*
X165144232Y-91066635D01*
X165144232Y-91066633D01*
X165143542Y-91060072D01*
X165084527Y-90878444D01*
X165076544Y-90864616D01*
X165032634Y-90788563D01*
X164989040Y-90713056D01*
X164983459Y-90706857D01*
X164865675Y-90576045D01*
X164865674Y-90576044D01*
X164861253Y-90571134D01*
X164837387Y-90553794D01*
X164814806Y-90537387D01*
X164771452Y-90481164D01*
X164765378Y-90410428D01*
X164769035Y-90396516D01*
X164806501Y-90281207D01*
X164808541Y-90274929D01*
X164810808Y-90253365D01*
X164827813Y-90091566D01*
X164828503Y-90085001D01*
X164819100Y-89995539D01*
X164809231Y-89901636D01*
X164809231Y-89901634D01*
X164808541Y-89895073D01*
X164758644Y-89741507D01*
X164756616Y-89670540D01*
X164793279Y-89609742D01*
X164856991Y-89578416D01*
X164927525Y-89586509D01*
X164967569Y-89613473D01*
X165829597Y-90475502D01*
X165863621Y-90537812D01*
X165866500Y-90564595D01*
X165866500Y-93797476D01*
X165846498Y-93865597D01*
X165834142Y-93881779D01*
X165760960Y-93963056D01*
X165665473Y-94128444D01*
X165606458Y-94310072D01*
X165605768Y-94316633D01*
X165605768Y-94316635D01*
X165598260Y-94388071D01*
X165586496Y-94500000D01*
X165606458Y-94689928D01*
X165665473Y-94871556D01*
X165760960Y-95036944D01*
X165888747Y-95178866D01*
X166043248Y-95291118D01*
X166049276Y-95293802D01*
X166049278Y-95293803D01*
X166209799Y-95365271D01*
X166217712Y-95368794D01*
X166311113Y-95388647D01*
X166398056Y-95407128D01*
X166398061Y-95407128D01*
X166404513Y-95408500D01*
X166595487Y-95408500D01*
X166601939Y-95407128D01*
X166601944Y-95407128D01*
X166688888Y-95388647D01*
X166782288Y-95368794D01*
X166790201Y-95365271D01*
X166950722Y-95293803D01*
X166950724Y-95293802D01*
X166956752Y-95291118D01*
X167111253Y-95178866D01*
X167239040Y-95036944D01*
X167334527Y-94871556D01*
X167393542Y-94689928D01*
X167413504Y-94500000D01*
X167401740Y-94388071D01*
X167394232Y-94316635D01*
X167394232Y-94316633D01*
X167393542Y-94310072D01*
X167334527Y-94128444D01*
X167239040Y-93963056D01*
X167165863Y-93881785D01*
X167135147Y-93817779D01*
X167133500Y-93797476D01*
X167133500Y-90328768D01*
X167134027Y-90317585D01*
X167135702Y-90310092D01*
X167133562Y-90242001D01*
X167133500Y-90238044D01*
X167133500Y-90210144D01*
X167132996Y-90206153D01*
X167132063Y-90194311D01*
X167131926Y-90189928D01*
X167130674Y-90150111D01*
X167128462Y-90142497D01*
X167128461Y-90142492D01*
X167125023Y-90130659D01*
X167121012Y-90111295D01*
X167119467Y-90099064D01*
X167118474Y-90091203D01*
X167115557Y-90083836D01*
X167115556Y-90083831D01*
X167102198Y-90050092D01*
X167098354Y-90038865D01*
X167088230Y-90004022D01*
X167086018Y-89996407D01*
X167080668Y-89987361D01*
X167075707Y-89978972D01*
X167067012Y-89961224D01*
X167059552Y-89942383D01*
X167049732Y-89928866D01*
X167033564Y-89906613D01*
X167027048Y-89896693D01*
X167008580Y-89865465D01*
X167008578Y-89865462D01*
X167004542Y-89858638D01*
X166990221Y-89844317D01*
X166977380Y-89829283D01*
X166970131Y-89819306D01*
X166965472Y-89812893D01*
X166931395Y-89784702D01*
X166922616Y-89776712D01*
X165494500Y-88348595D01*
X165460474Y-88286283D01*
X165465539Y-88215467D01*
X165508086Y-88158632D01*
X165574606Y-88133821D01*
X165583595Y-88133500D01*
X165651800Y-88133500D01*
X165719921Y-88153502D01*
X165739147Y-88169843D01*
X165739420Y-88169540D01*
X165744332Y-88173963D01*
X165748747Y-88178866D01*
X165770329Y-88194546D01*
X165787019Y-88206672D01*
X165903248Y-88291118D01*
X165909276Y-88293802D01*
X165909278Y-88293803D01*
X165987870Y-88328794D01*
X166077712Y-88368794D01*
X166171113Y-88388647D01*
X166258056Y-88407128D01*
X166258061Y-88407128D01*
X166264513Y-88408500D01*
X166455487Y-88408500D01*
X166461939Y-88407128D01*
X166461944Y-88407128D01*
X166548887Y-88388647D01*
X166642288Y-88368794D01*
X166732130Y-88328794D01*
X166810722Y-88293803D01*
X166810724Y-88293802D01*
X166816752Y-88291118D01*
X166971253Y-88178866D01*
X167099040Y-88036944D01*
X167194527Y-87871556D01*
X167253542Y-87689928D01*
X167255637Y-87670000D01*
X167272814Y-87506565D01*
X167273504Y-87500000D01*
X167272814Y-87493435D01*
X167254232Y-87316635D01*
X167254232Y-87316633D01*
X167253542Y-87310072D01*
X167194527Y-87128444D01*
X167099040Y-86963056D01*
X167083868Y-86946206D01*
X166991671Y-86843810D01*
X166960953Y-86779803D01*
X166969718Y-86709349D01*
X167015181Y-86654818D01*
X167085307Y-86633500D01*
X168791800Y-86633500D01*
X168859921Y-86653502D01*
X168879147Y-86669843D01*
X168879420Y-86669540D01*
X168884332Y-86673963D01*
X168888747Y-86678866D01*
X168901188Y-86687905D01*
X168958710Y-86729697D01*
X169043248Y-86791118D01*
X169049276Y-86793802D01*
X169049278Y-86793803D01*
X169164678Y-86845182D01*
X169217712Y-86868794D01*
X169311112Y-86888647D01*
X169398056Y-86907128D01*
X169398061Y-86907128D01*
X169404513Y-86908500D01*
X169595487Y-86908500D01*
X169601939Y-86907128D01*
X169601944Y-86907128D01*
X169688887Y-86888647D01*
X169782288Y-86868794D01*
X169835322Y-86845182D01*
X169950722Y-86793803D01*
X169950724Y-86793802D01*
X169956752Y-86791118D01*
X170111253Y-86678866D01*
X170116489Y-86673051D01*
X170234621Y-86541852D01*
X170234625Y-86541847D01*
X170239040Y-86536944D01*
X170321407Y-86394280D01*
X170331223Y-86377279D01*
X170331224Y-86377278D01*
X170334527Y-86371556D01*
X170393542Y-86189928D01*
X170399268Y-86135453D01*
X170412814Y-86006565D01*
X170413504Y-86000000D01*
X170408900Y-85956197D01*
X170394232Y-85816635D01*
X170394232Y-85816633D01*
X170393542Y-85810072D01*
X170334527Y-85628444D01*
X170239040Y-85463056D01*
X170111253Y-85321134D01*
X169956752Y-85208882D01*
X169950724Y-85206198D01*
X169950722Y-85206197D01*
X169788319Y-85133891D01*
X169788318Y-85133891D01*
X169782288Y-85131206D01*
X169688888Y-85111353D01*
X169601944Y-85092872D01*
X169601939Y-85092872D01*
X169595487Y-85091500D01*
X169404513Y-85091500D01*
X169398061Y-85092872D01*
X169398056Y-85092872D01*
X169311112Y-85111353D01*
X169217712Y-85131206D01*
X169211682Y-85133891D01*
X169211681Y-85133891D01*
X169049278Y-85206197D01*
X169049276Y-85206198D01*
X169043248Y-85208882D01*
X169037907Y-85212762D01*
X169037906Y-85212763D01*
X168930060Y-85291118D01*
X168888747Y-85321134D01*
X168884332Y-85326037D01*
X168879420Y-85330460D01*
X168878295Y-85329211D01*
X168824986Y-85362051D01*
X168791800Y-85366500D01*
X163725307Y-85366500D01*
X163657186Y-85346498D01*
X163610693Y-85292842D01*
X163600589Y-85222568D01*
X163631671Y-85156190D01*
X163734621Y-85041852D01*
X163734622Y-85041851D01*
X163739040Y-85036944D01*
X163834527Y-84871556D01*
X163893542Y-84689928D01*
X163896990Y-84657128D01*
X163912814Y-84506565D01*
X163913504Y-84500000D01*
X163906743Y-84435669D01*
X163894232Y-84316635D01*
X163894232Y-84316633D01*
X163893542Y-84310072D01*
X163834527Y-84128444D01*
X163817397Y-84098773D01*
X163742341Y-83968774D01*
X163739040Y-83963056D01*
X163732727Y-83956044D01*
X163615675Y-83826045D01*
X163615674Y-83826044D01*
X163611253Y-83821134D01*
X163489599Y-83732747D01*
X163462094Y-83712763D01*
X163462093Y-83712762D01*
X163456752Y-83708882D01*
X163450724Y-83706198D01*
X163450722Y-83706197D01*
X163288319Y-83633891D01*
X163288318Y-83633891D01*
X163282288Y-83631206D01*
X163188887Y-83611353D01*
X163101944Y-83592872D01*
X163101939Y-83592872D01*
X163095487Y-83591500D01*
X162904513Y-83591500D01*
X162898061Y-83592872D01*
X162898056Y-83592872D01*
X162811113Y-83611353D01*
X162717712Y-83631206D01*
X162711682Y-83633891D01*
X162711681Y-83633891D01*
X162549278Y-83706197D01*
X162549276Y-83706198D01*
X162543248Y-83708882D01*
X162537907Y-83712762D01*
X162537906Y-83712763D01*
X162510401Y-83732747D01*
X162388747Y-83821134D01*
X162384326Y-83826044D01*
X162384325Y-83826045D01*
X162267274Y-83956044D01*
X162260960Y-83963056D01*
X162257659Y-83968774D01*
X162182604Y-84098773D01*
X162165473Y-84128444D01*
X162106458Y-84310072D01*
X162105768Y-84316633D01*
X162105768Y-84316635D01*
X162103977Y-84333679D01*
X162076964Y-84399336D01*
X162018743Y-84439966D01*
X161978667Y-84446509D01*
X161760685Y-84446509D01*
X161692564Y-84426507D01*
X161646071Y-84372851D01*
X161635375Y-84307340D01*
X161643504Y-84230000D01*
X161623542Y-84040072D01*
X161564527Y-83858444D01*
X161469040Y-83693056D01*
X161424693Y-83643803D01*
X161345675Y-83556045D01*
X161345674Y-83556044D01*
X161341253Y-83551134D01*
X161186752Y-83438882D01*
X161180724Y-83436198D01*
X161180722Y-83436197D01*
X161018319Y-83363891D01*
X161018318Y-83363891D01*
X161012288Y-83361206D01*
X160918887Y-83341353D01*
X160831944Y-83322872D01*
X160831939Y-83322872D01*
X160825487Y-83321500D01*
X160634513Y-83321500D01*
X160628061Y-83322872D01*
X160628056Y-83322872D01*
X160541112Y-83341353D01*
X160447712Y-83361206D01*
X160441682Y-83363891D01*
X160441681Y-83363891D01*
X160279278Y-83436197D01*
X160279276Y-83436198D01*
X160273248Y-83438882D01*
X160118747Y-83551134D01*
X160114326Y-83556044D01*
X160114325Y-83556045D01*
X160035308Y-83643803D01*
X159990960Y-83693056D01*
X159895473Y-83858444D01*
X159836458Y-84040072D01*
X159835768Y-84046633D01*
X159835768Y-84046635D01*
X159819093Y-84205292D01*
X159792080Y-84270949D01*
X159782878Y-84281218D01*
X159704501Y-84359594D01*
X159642188Y-84393619D01*
X159615406Y-84396498D01*
X156220928Y-84396498D01*
X156152807Y-84376496D01*
X156106314Y-84322840D01*
X156101095Y-84309434D01*
X156100414Y-84307338D01*
X156084527Y-84258443D01*
X156068106Y-84230000D01*
X156047314Y-84193989D01*
X155989040Y-84093055D01*
X155861253Y-83951133D01*
X155706752Y-83838881D01*
X155700724Y-83836197D01*
X155700722Y-83836196D01*
X155538319Y-83763890D01*
X155538318Y-83763890D01*
X155532288Y-83761205D01*
X155398404Y-83732747D01*
X155335931Y-83699018D01*
X155301609Y-83636869D01*
X155306337Y-83566030D01*
X155348613Y-83508992D01*
X155415014Y-83483865D01*
X155424601Y-83483500D01*
X157401757Y-83483500D01*
X157469878Y-83503502D01*
X157489104Y-83519843D01*
X157489377Y-83519540D01*
X157494289Y-83523963D01*
X157498704Y-83528866D01*
X157520286Y-83544546D01*
X157647357Y-83636869D01*
X157653205Y-83641118D01*
X157659233Y-83643802D01*
X157659235Y-83643803D01*
X157805406Y-83708882D01*
X157827669Y-83718794D01*
X157921070Y-83738647D01*
X158008013Y-83757128D01*
X158008018Y-83757128D01*
X158014470Y-83758500D01*
X158205444Y-83758500D01*
X158211896Y-83757128D01*
X158211901Y-83757128D01*
X158298844Y-83738647D01*
X158392245Y-83718794D01*
X158414508Y-83708882D01*
X158560679Y-83643803D01*
X158560681Y-83643802D01*
X158566709Y-83641118D01*
X158572558Y-83636869D01*
X158635002Y-83591500D01*
X158721210Y-83528866D01*
X158739105Y-83508992D01*
X158844578Y-83391852D01*
X158844579Y-83391851D01*
X158848997Y-83386944D01*
X158944484Y-83221556D01*
X159003499Y-83039928D01*
X159023461Y-82850000D01*
X159022771Y-82843432D01*
X159020589Y-82822669D01*
X159033362Y-82752831D01*
X159081865Y-82700985D01*
X159145899Y-82683500D01*
X164371233Y-82683500D01*
X164382416Y-82684027D01*
X164389909Y-82685702D01*
X164397835Y-82685453D01*
X164397836Y-82685453D01*
X164457986Y-82683562D01*
X164461945Y-82683500D01*
X164489856Y-82683500D01*
X164493791Y-82683003D01*
X164493856Y-82682995D01*
X164505693Y-82682062D01*
X164537951Y-82681048D01*
X164541970Y-82680922D01*
X164549889Y-82680673D01*
X164569343Y-82675021D01*
X164588700Y-82671013D01*
X164600930Y-82669468D01*
X164600931Y-82669468D01*
X164608797Y-82668474D01*
X164616168Y-82665555D01*
X164616170Y-82665555D01*
X164649912Y-82652196D01*
X164661142Y-82648351D01*
X164695983Y-82638229D01*
X164695984Y-82638229D01*
X164703593Y-82636018D01*
X164710412Y-82631985D01*
X164710417Y-82631983D01*
X164721028Y-82625707D01*
X164738776Y-82617012D01*
X164757617Y-82609552D01*
X164793387Y-82583564D01*
X164803307Y-82577048D01*
X164834535Y-82558580D01*
X164834538Y-82558578D01*
X164841362Y-82554542D01*
X164855683Y-82540221D01*
X164870717Y-82527380D01*
X164880694Y-82520131D01*
X164887107Y-82515472D01*
X164915298Y-82481395D01*
X164923288Y-82472616D01*
X165240499Y-82155405D01*
X165302811Y-82121379D01*
X165329594Y-82118500D01*
X165385487Y-82118500D01*
X165391939Y-82117128D01*
X165391944Y-82117128D01*
X165478887Y-82098647D01*
X165572288Y-82078794D01*
X165578319Y-82076109D01*
X165740722Y-82003803D01*
X165740724Y-82003802D01*
X165746752Y-82001118D01*
X165901253Y-81888866D01*
X166029040Y-81746944D01*
X166103137Y-81618604D01*
X166121223Y-81587279D01*
X166121224Y-81587278D01*
X166124527Y-81581556D01*
X166183542Y-81399928D01*
X166198901Y-81253800D01*
X166202814Y-81216565D01*
X166203504Y-81210000D01*
X166183542Y-81020072D01*
X166124527Y-80838444D01*
X166118754Y-80828444D01*
X166032341Y-80678774D01*
X166029040Y-80673056D01*
X165921717Y-80553861D01*
X165891001Y-80489856D01*
X165892083Y-80444420D01*
X165893542Y-80439928D01*
X165913504Y-80250000D01*
X165905906Y-80177705D01*
X165894232Y-80066635D01*
X165894232Y-80066633D01*
X165893542Y-80060072D01*
X165834527Y-79878444D01*
X165739040Y-79713056D01*
X165730701Y-79703794D01*
X165615675Y-79576045D01*
X165615674Y-79576044D01*
X165611253Y-79571134D01*
X165456752Y-79458882D01*
X165450724Y-79456198D01*
X165450722Y-79456197D01*
X165288319Y-79383891D01*
X165288318Y-79383891D01*
X165282288Y-79381206D01*
X165275833Y-79379834D01*
X165275830Y-79379833D01*
X165231953Y-79370507D01*
X165169479Y-79336779D01*
X165138316Y-79286197D01*
X165090318Y-79138476D01*
X165088277Y-79132194D01*
X165077059Y-79112763D01*
X165031522Y-79033891D01*
X164992790Y-78966806D01*
X164962347Y-78932995D01*
X164869425Y-78829795D01*
X164869424Y-78829794D01*
X164865003Y-78824884D01*
X164710502Y-78712632D01*
X164704474Y-78709948D01*
X164704472Y-78709947D01*
X164542069Y-78637641D01*
X164542068Y-78637641D01*
X164536038Y-78634956D01*
X164442637Y-78615103D01*
X164355694Y-78596622D01*
X164355689Y-78596622D01*
X164349237Y-78595250D01*
X164293344Y-78595250D01*
X164225223Y-78575248D01*
X164204249Y-78558345D01*
X163441661Y-77795756D01*
X162653652Y-77007747D01*
X162646112Y-76999461D01*
X162642000Y-76992982D01*
X162616034Y-76968598D01*
X162592349Y-76946357D01*
X162589507Y-76943602D01*
X162569770Y-76923865D01*
X162566573Y-76921385D01*
X162557551Y-76913680D01*
X162542680Y-76899715D01*
X162525321Y-76883414D01*
X162518375Y-76879595D01*
X162518372Y-76879593D01*
X162507566Y-76873652D01*
X162491047Y-76862801D01*
X162490583Y-76862441D01*
X162475041Y-76850386D01*
X162467772Y-76847241D01*
X162467768Y-76847238D01*
X162434463Y-76832826D01*
X162423813Y-76827609D01*
X162385060Y-76806305D01*
X162365437Y-76801267D01*
X162346734Y-76794863D01*
X162335420Y-76789967D01*
X162335419Y-76789967D01*
X162328145Y-76786819D01*
X162320322Y-76785580D01*
X162320312Y-76785577D01*
X162284476Y-76779901D01*
X162272856Y-76777495D01*
X162237711Y-76768472D01*
X162237710Y-76768472D01*
X162230030Y-76766500D01*
X162209776Y-76766500D01*
X162190065Y-76764949D01*
X162177886Y-76763020D01*
X162170057Y-76761780D01*
X162140786Y-76764547D01*
X162126039Y-76765941D01*
X162114181Y-76766500D01*
X152678767Y-76766500D01*
X152667584Y-76765973D01*
X152660091Y-76764298D01*
X152652165Y-76764547D01*
X152652164Y-76764547D01*
X152592014Y-76766438D01*
X152588055Y-76766500D01*
X152560144Y-76766500D01*
X152556210Y-76766997D01*
X152556209Y-76766997D01*
X152556144Y-76767005D01*
X152544307Y-76767938D01*
X152512490Y-76768938D01*
X152508029Y-76769078D01*
X152500110Y-76769327D01*
X152486641Y-76773240D01*
X152480658Y-76774978D01*
X152461306Y-76778986D01*
X152454235Y-76779880D01*
X152441203Y-76781526D01*
X152433834Y-76784443D01*
X152433832Y-76784444D01*
X152400097Y-76797800D01*
X152388869Y-76801645D01*
X152346407Y-76813982D01*
X152339584Y-76818017D01*
X152339582Y-76818018D01*
X152328972Y-76824293D01*
X152311224Y-76832988D01*
X152292383Y-76840448D01*
X152285967Y-76845110D01*
X152285966Y-76845110D01*
X152256613Y-76866436D01*
X152246693Y-76872952D01*
X152215465Y-76891420D01*
X152215462Y-76891422D01*
X152208638Y-76895458D01*
X152194317Y-76909779D01*
X152179284Y-76922619D01*
X152162893Y-76934528D01*
X152157840Y-76940636D01*
X152134708Y-76968598D01*
X152126718Y-76977378D01*
X152049501Y-77054595D01*
X151987189Y-77088621D01*
X151960406Y-77091500D01*
X151904513Y-77091500D01*
X151898061Y-77092872D01*
X151898056Y-77092872D01*
X151822695Y-77108891D01*
X151717712Y-77131206D01*
X151711682Y-77133891D01*
X151711681Y-77133891D01*
X151549278Y-77206197D01*
X151549276Y-77206198D01*
X151543248Y-77208882D01*
X151388747Y-77321134D01*
X151384326Y-77326044D01*
X151384325Y-77326045D01*
X151278322Y-77443774D01*
X151260960Y-77463056D01*
X151211662Y-77548443D01*
X151160281Y-77597435D01*
X151090568Y-77610872D01*
X151076346Y-77608688D01*
X151001950Y-77592874D01*
X151001941Y-77592873D01*
X150995486Y-77591501D01*
X150804512Y-77591501D01*
X150798060Y-77592873D01*
X150798055Y-77592873D01*
X150723654Y-77608688D01*
X150617711Y-77631207D01*
X150611681Y-77633892D01*
X150611680Y-77633892D01*
X150449277Y-77706198D01*
X150449275Y-77706199D01*
X150443247Y-77708883D01*
X150288746Y-77821135D01*
X150160959Y-77963057D01*
X150065472Y-78128445D01*
X150006457Y-78310073D01*
X150005767Y-78316634D01*
X150005767Y-78316636D01*
X149991855Y-78448999D01*
X149986495Y-78500001D01*
X150006457Y-78689929D01*
X150065472Y-78871557D01*
X150068775Y-78877279D01*
X150068776Y-78877280D01*
X150069762Y-78878988D01*
X150160959Y-79036945D01*
X150234136Y-79118216D01*
X150264852Y-79182222D01*
X150266499Y-79202525D01*
X150266499Y-85936638D01*
X150246497Y-86004759D01*
X150192841Y-86051252D01*
X150122567Y-86061356D01*
X150066438Y-86038574D01*
X149962094Y-85962763D01*
X149962093Y-85962762D01*
X149956752Y-85958882D01*
X149950724Y-85956198D01*
X149950722Y-85956197D01*
X149788319Y-85883891D01*
X149788318Y-85883891D01*
X149782288Y-85881206D01*
X149688888Y-85861353D01*
X149601944Y-85842872D01*
X149601939Y-85842872D01*
X149595487Y-85841500D01*
X149404513Y-85841500D01*
X149398061Y-85842872D01*
X149398056Y-85842872D01*
X149311112Y-85861353D01*
X149217712Y-85881206D01*
X149211682Y-85883891D01*
X149211681Y-85883891D01*
X149049278Y-85956197D01*
X149049276Y-85956198D01*
X149043248Y-85958882D01*
X148888747Y-86071134D01*
X148884326Y-86076044D01*
X148884325Y-86076045D01*
X148781785Y-86189928D01*
X148760960Y-86213056D01*
X148665473Y-86378444D01*
X148606458Y-86560072D01*
X148605768Y-86566633D01*
X148605768Y-86566635D01*
X148589939Y-86717240D01*
X148586496Y-86750000D01*
X148587186Y-86756565D01*
X148603011Y-86907128D01*
X148606458Y-86939928D01*
X148665473Y-87121556D01*
X148760960Y-87286944D01*
X148834137Y-87368215D01*
X148864853Y-87432221D01*
X148866500Y-87452524D01*
X148866500Y-91435406D01*
X148846498Y-91503527D01*
X148829595Y-91524501D01*
X147799500Y-92554595D01*
X147737188Y-92588621D01*
X147710405Y-92591500D01*
X147654513Y-92591500D01*
X147648061Y-92592872D01*
X147648056Y-92592872D01*
X147561113Y-92611353D01*
X147467712Y-92631206D01*
X147461682Y-92633891D01*
X147461681Y-92633891D01*
X147299278Y-92706197D01*
X147299276Y-92706198D01*
X147293248Y-92708882D01*
X147138747Y-92821134D01*
X147134326Y-92826044D01*
X147134325Y-92826045D01*
X147039776Y-92931053D01*
X147010960Y-92963056D01*
X146915473Y-93128444D01*
X146884318Y-93224328D01*
X146844246Y-93282933D01*
X146778849Y-93310570D01*
X146708892Y-93298463D01*
X146675391Y-93274486D01*
X146186969Y-92786064D01*
X146152943Y-92723752D01*
X146150754Y-92710139D01*
X146134079Y-92551482D01*
X146134079Y-92551480D01*
X146133389Y-92544919D01*
X146074374Y-92363291D01*
X146054774Y-92329342D01*
X146029577Y-92285701D01*
X145978887Y-92197903D01*
X145972601Y-92190921D01*
X145855522Y-92060892D01*
X145855521Y-92060891D01*
X145851100Y-92055981D01*
X145696599Y-91943729D01*
X145690571Y-91941045D01*
X145690569Y-91941044D01*
X145528166Y-91868738D01*
X145528165Y-91868738D01*
X145522135Y-91866053D01*
X145428734Y-91846200D01*
X145341791Y-91827719D01*
X145341786Y-91827719D01*
X145335334Y-91826347D01*
X145144360Y-91826347D01*
X145137908Y-91827719D01*
X145137903Y-91827719D01*
X145050959Y-91846200D01*
X144957559Y-91866053D01*
X144951529Y-91868738D01*
X144951528Y-91868738D01*
X144789125Y-91941044D01*
X144789123Y-91941045D01*
X144783095Y-91943729D01*
X144628594Y-92055981D01*
X144624173Y-92060891D01*
X144624172Y-92060892D01*
X144507094Y-92190921D01*
X144500807Y-92197903D01*
X144450117Y-92285701D01*
X144424921Y-92329342D01*
X144405320Y-92363291D01*
X144346305Y-92544919D01*
X144326343Y-92734847D01*
X139358500Y-92734847D01*
X139358500Y-91891866D01*
X139351745Y-91829684D01*
X139300615Y-91693295D01*
X139213261Y-91576739D01*
X139096705Y-91489385D01*
X139084132Y-91484672D01*
X138978203Y-91444960D01*
X138921439Y-91402318D01*
X138896739Y-91335756D01*
X138911947Y-91266408D01*
X138933493Y-91237727D01*
X139034435Y-91137137D01*
X139038096Y-91133489D01*
X139064218Y-91097137D01*
X139165435Y-90956277D01*
X139168453Y-90952077D01*
X139174458Y-90939928D01*
X139265136Y-90756453D01*
X139265137Y-90756451D01*
X139267430Y-90751811D01*
X139310598Y-90609729D01*
X139330865Y-90543023D01*
X139330865Y-90543021D01*
X139332370Y-90538069D01*
X139361529Y-90316590D01*
X139361688Y-90310092D01*
X139363074Y-90253365D01*
X139363074Y-90253361D01*
X139363156Y-90250000D01*
X139344852Y-90027361D01*
X139290431Y-89810702D01*
X139201354Y-89605840D01*
X139080014Y-89418277D01*
X138929670Y-89253051D01*
X138925619Y-89249852D01*
X138925615Y-89249848D01*
X138758414Y-89117800D01*
X138758410Y-89117798D01*
X138754359Y-89114598D01*
X138736672Y-89104834D01*
X138712569Y-89091529D01*
X138662598Y-89041097D01*
X138647826Y-88971654D01*
X138672942Y-88905248D01*
X138700294Y-88878641D01*
X138875328Y-88753792D01*
X138883200Y-88747139D01*
X139034052Y-88596812D01*
X139040730Y-88588965D01*
X139165003Y-88416020D01*
X139170313Y-88407183D01*
X139264670Y-88216267D01*
X139268469Y-88206672D01*
X139330377Y-88002910D01*
X139332555Y-87992837D01*
X139333986Y-87981962D01*
X139331775Y-87967778D01*
X139318617Y-87964000D01*
X136683225Y-87964000D01*
X136669694Y-87967973D01*
X136668257Y-87977966D01*
X136698565Y-88112446D01*
X136701645Y-88122275D01*
X136781770Y-88319603D01*
X136786413Y-88328794D01*
X136897694Y-88510388D01*
X136903777Y-88518699D01*
X137043213Y-88679667D01*
X137050580Y-88686883D01*
X137214434Y-88822916D01*
X137222881Y-88828831D01*
X137291969Y-88869203D01*
X137340693Y-88920842D01*
X137353764Y-88990625D01*
X137327033Y-89056396D01*
X137286584Y-89089752D01*
X137273607Y-89096507D01*
X137269474Y-89099610D01*
X137269471Y-89099612D01*
X137118378Y-89213056D01*
X137094965Y-89230635D01*
X137091393Y-89234373D01*
X136974771Y-89356411D01*
X136940629Y-89392138D01*
X136814743Y-89576680D01*
X136771175Y-89670540D01*
X136741435Y-89734610D01*
X136720688Y-89779305D01*
X136660989Y-89994570D01*
X136637251Y-90216695D01*
X133283500Y-90216695D01*
X133283500Y-87444183D01*
X136664389Y-87444183D01*
X136665912Y-87452607D01*
X136678292Y-87456000D01*
X137727885Y-87456000D01*
X137743124Y-87451525D01*
X137744329Y-87450135D01*
X137746000Y-87442452D01*
X137746000Y-87437885D01*
X138254000Y-87437885D01*
X138258475Y-87453124D01*
X138259865Y-87454329D01*
X138267548Y-87456000D01*
X139318344Y-87456000D01*
X139331875Y-87452027D01*
X139333180Y-87442947D01*
X139291214Y-87275875D01*
X139287894Y-87266124D01*
X139202972Y-87070814D01*
X139198105Y-87061739D01*
X139082426Y-86882926D01*
X139076136Y-86874757D01*
X138932806Y-86717240D01*
X138925273Y-86710215D01*
X138758139Y-86578222D01*
X138749552Y-86572517D01*
X138563117Y-86469599D01*
X138553705Y-86465369D01*
X138352959Y-86394280D01*
X138342988Y-86391646D01*
X138271837Y-86378972D01*
X138258540Y-86380432D01*
X138254000Y-86394989D01*
X138254000Y-87437885D01*
X137746000Y-87437885D01*
X137746000Y-86393102D01*
X137742082Y-86379758D01*
X137727806Y-86377771D01*
X137689324Y-86383660D01*
X137679288Y-86386051D01*
X137476868Y-86452212D01*
X137467359Y-86456209D01*
X137278463Y-86554542D01*
X137269738Y-86560036D01*
X137099433Y-86687905D01*
X137091726Y-86694748D01*
X136944590Y-86848717D01*
X136938104Y-86856727D01*
X136818098Y-87032649D01*
X136813000Y-87041623D01*
X136723338Y-87234783D01*
X136719775Y-87244470D01*
X136664389Y-87444183D01*
X133283500Y-87444183D01*
X133283500Y-78511999D01*
X133300381Y-78448999D01*
X133356223Y-78352279D01*
X133356224Y-78352278D01*
X133359527Y-78346556D01*
X133418542Y-78164928D01*
X133421005Y-78141500D01*
X133437814Y-77981565D01*
X133438504Y-77975000D01*
X133422910Y-77826632D01*
X133419232Y-77791635D01*
X133419232Y-77791633D01*
X133418542Y-77785072D01*
X133359527Y-77603444D01*
X133353780Y-77593489D01*
X133310767Y-77518990D01*
X133264040Y-77438056D01*
X133240649Y-77412077D01*
X133140675Y-77301045D01*
X133140671Y-77301041D01*
X133136253Y-77296134D01*
X133020193Y-77211811D01*
X132987094Y-77187763D01*
X132987093Y-77187762D01*
X132981752Y-77183882D01*
X132975724Y-77181198D01*
X132975722Y-77181197D01*
X132813319Y-77108891D01*
X132813318Y-77108891D01*
X132807288Y-77106206D01*
X132713887Y-77086353D01*
X132626944Y-77067872D01*
X132626939Y-77067872D01*
X132620487Y-77066500D01*
X132429513Y-77066500D01*
X132423061Y-77067872D01*
X132423056Y-77067872D01*
X132336113Y-77086353D01*
X132242712Y-77106206D01*
X132236682Y-77108891D01*
X132236681Y-77108891D01*
X132074278Y-77181197D01*
X132074276Y-77181198D01*
X132068248Y-77183882D01*
X132062907Y-77187762D01*
X132062906Y-77187763D01*
X132029807Y-77211811D01*
X131913747Y-77296134D01*
X131909329Y-77301041D01*
X131909325Y-77301045D01*
X131809352Y-77412077D01*
X131785960Y-77438056D01*
X131739233Y-77518990D01*
X131696221Y-77593489D01*
X131690473Y-77603444D01*
X131631458Y-77785072D01*
X131630768Y-77791633D01*
X131630768Y-77791635D01*
X131627090Y-77826632D01*
X131611496Y-77975000D01*
X131612186Y-77981565D01*
X131628996Y-78141500D01*
X131631458Y-78164928D01*
X131690473Y-78346556D01*
X131693776Y-78352278D01*
X131693777Y-78352279D01*
X131749619Y-78448999D01*
X131766500Y-78511999D01*
X131766500Y-90438001D01*
X131749619Y-90501000D01*
X131690473Y-90603444D01*
X131631458Y-90785072D01*
X131630768Y-90791633D01*
X131630768Y-90791635D01*
X131622635Y-90869020D01*
X131611496Y-90975000D01*
X131612186Y-90981565D01*
X131628154Y-91133489D01*
X131631458Y-91164928D01*
X131690473Y-91346556D01*
X131693776Y-91352278D01*
X131693777Y-91352279D01*
X131698853Y-91361071D01*
X131740593Y-91433365D01*
X131749619Y-91448999D01*
X131766500Y-91511999D01*
X131766500Y-108108629D01*
X131746498Y-108176750D01*
X131729595Y-108197724D01*
X131368669Y-108558650D01*
X131305772Y-108592801D01*
X131249176Y-108604831D01*
X131249167Y-108604834D01*
X131242712Y-108606206D01*
X131236682Y-108608891D01*
X131236681Y-108608891D01*
X131074278Y-108681197D01*
X131074276Y-108681198D01*
X131068248Y-108683882D01*
X131062907Y-108687762D01*
X131062906Y-108687763D01*
X131033834Y-108708885D01*
X130913747Y-108796134D01*
X130909326Y-108801044D01*
X130909325Y-108801045D01*
X130816358Y-108904296D01*
X130785960Y-108938056D01*
X130756353Y-108989337D01*
X130724084Y-109045229D01*
X130690473Y-109103444D01*
X130631458Y-109285072D01*
X130630768Y-109291633D01*
X130630768Y-109291635D01*
X130623029Y-109365271D01*
X130611496Y-109475000D01*
X118438504Y-109475000D01*
X118426971Y-109365271D01*
X118419232Y-109291635D01*
X118419232Y-109291633D01*
X118418542Y-109285072D01*
X118359527Y-109103444D01*
X118300381Y-109001000D01*
X118283500Y-108938001D01*
X118283500Y-105176695D01*
X121637251Y-105176695D01*
X121637548Y-105181848D01*
X121637548Y-105181851D01*
X121643590Y-105286635D01*
X121650110Y-105399715D01*
X121651247Y-105404761D01*
X121651248Y-105404767D01*
X121667429Y-105476565D01*
X121699222Y-105617639D01*
X121783266Y-105824616D01*
X121899987Y-106015088D01*
X122046250Y-106183938D01*
X122050230Y-106187242D01*
X122054981Y-106191187D01*
X122094616Y-106250090D01*
X122096113Y-106321071D01*
X122058997Y-106381593D01*
X122018725Y-106406112D01*
X121963327Y-106426880D01*
X121903295Y-106449385D01*
X121786739Y-106536739D01*
X121699385Y-106653295D01*
X121648255Y-106789684D01*
X121641500Y-106851866D01*
X121641500Y-108648134D01*
X121648255Y-108710316D01*
X121699385Y-108846705D01*
X121786739Y-108963261D01*
X121903295Y-109050615D01*
X122039684Y-109101745D01*
X122101866Y-109108500D01*
X123898134Y-109108500D01*
X123960316Y-109101745D01*
X124096705Y-109050615D01*
X124213261Y-108963261D01*
X124300615Y-108846705D01*
X124351745Y-108710316D01*
X124358500Y-108648134D01*
X124358500Y-106851866D01*
X124351745Y-106789684D01*
X124300615Y-106653295D01*
X124213261Y-106536739D01*
X124096705Y-106449385D01*
X124074645Y-106441115D01*
X123978203Y-106404960D01*
X123921439Y-106362318D01*
X123896739Y-106295756D01*
X123911947Y-106226408D01*
X123933493Y-106197727D01*
X123996026Y-106135412D01*
X124038096Y-106093489D01*
X124091770Y-106018794D01*
X124165435Y-105916277D01*
X124168453Y-105912077D01*
X124182384Y-105883891D01*
X124265136Y-105716453D01*
X124265137Y-105716451D01*
X124267430Y-105711811D01*
X124332370Y-105498069D01*
X124361529Y-105276590D01*
X124363156Y-105210000D01*
X124344852Y-104987361D01*
X124290431Y-104770702D01*
X124201354Y-104565840D01*
X124080014Y-104378277D01*
X123929670Y-104213051D01*
X123925619Y-104209852D01*
X123925615Y-104209848D01*
X123758414Y-104077800D01*
X123758410Y-104077798D01*
X123754359Y-104074598D01*
X123712569Y-104051529D01*
X123662598Y-104001097D01*
X123647826Y-103931654D01*
X123672942Y-103865248D01*
X123700294Y-103838641D01*
X123875328Y-103713792D01*
X123883200Y-103707139D01*
X124034052Y-103556812D01*
X124040730Y-103548965D01*
X124165003Y-103376020D01*
X124170313Y-103367183D01*
X124264670Y-103176267D01*
X124268469Y-103166672D01*
X124330377Y-102962910D01*
X124332555Y-102952837D01*
X124333986Y-102941962D01*
X124331775Y-102927778D01*
X124318617Y-102924000D01*
X121683225Y-102924000D01*
X121669694Y-102927973D01*
X121668257Y-102937966D01*
X121698565Y-103072446D01*
X121701645Y-103082275D01*
X121781770Y-103279603D01*
X121786413Y-103288794D01*
X121897694Y-103470388D01*
X121903777Y-103478699D01*
X122043213Y-103639667D01*
X122050580Y-103646883D01*
X122214434Y-103782916D01*
X122222881Y-103788831D01*
X122291969Y-103829203D01*
X122340693Y-103880842D01*
X122353764Y-103950625D01*
X122327033Y-104016396D01*
X122286584Y-104049752D01*
X122273607Y-104056507D01*
X122269474Y-104059610D01*
X122269471Y-104059612D01*
X122120842Y-104171206D01*
X122094965Y-104190635D01*
X121940629Y-104352138D01*
X121814743Y-104536680D01*
X121720688Y-104739305D01*
X121660989Y-104954570D01*
X121637251Y-105176695D01*
X118283500Y-105176695D01*
X118283500Y-102404183D01*
X121664389Y-102404183D01*
X121665912Y-102412607D01*
X121678292Y-102416000D01*
X122727885Y-102416000D01*
X122743124Y-102411525D01*
X122744329Y-102410135D01*
X122746000Y-102402452D01*
X122746000Y-102397885D01*
X123254000Y-102397885D01*
X123258475Y-102413124D01*
X123259865Y-102414329D01*
X123267548Y-102416000D01*
X124318344Y-102416000D01*
X124331875Y-102412027D01*
X124333180Y-102402947D01*
X124291214Y-102235875D01*
X124287894Y-102226124D01*
X124202972Y-102030814D01*
X124198105Y-102021739D01*
X124082426Y-101842926D01*
X124076136Y-101834757D01*
X123932806Y-101677240D01*
X123925273Y-101670215D01*
X123758139Y-101538222D01*
X123749552Y-101532517D01*
X123563117Y-101429599D01*
X123553705Y-101425369D01*
X123352959Y-101354280D01*
X123342988Y-101351646D01*
X123271837Y-101338972D01*
X123258540Y-101340432D01*
X123254000Y-101354989D01*
X123254000Y-102397885D01*
X122746000Y-102397885D01*
X122746000Y-101353102D01*
X122742082Y-101339758D01*
X122727806Y-101337771D01*
X122689324Y-101343660D01*
X122679288Y-101346051D01*
X122476868Y-101412212D01*
X122467359Y-101416209D01*
X122278463Y-101514542D01*
X122269738Y-101520036D01*
X122099433Y-101647905D01*
X122091726Y-101654748D01*
X121944590Y-101808717D01*
X121938104Y-101816727D01*
X121818098Y-101992649D01*
X121813000Y-102001623D01*
X121723338Y-102194783D01*
X121719775Y-102204470D01*
X121664389Y-102404183D01*
X118283500Y-102404183D01*
X118283500Y-96005429D01*
X118303502Y-95937308D01*
X118357158Y-95890815D01*
X118427432Y-95880711D01*
X118435697Y-95882182D01*
X118553056Y-95907128D01*
X118553061Y-95907128D01*
X118559513Y-95908500D01*
X118750487Y-95908500D01*
X118756939Y-95907128D01*
X118756944Y-95907128D01*
X118843887Y-95888647D01*
X118937288Y-95868794D01*
X118943319Y-95866109D01*
X119105722Y-95793803D01*
X119105724Y-95793802D01*
X119111752Y-95791118D01*
X119266253Y-95678866D01*
X119270675Y-95673955D01*
X119389621Y-95541852D01*
X119389622Y-95541851D01*
X119394040Y-95536944D01*
X119468197Y-95408500D01*
X119486223Y-95377279D01*
X119486224Y-95377278D01*
X119489527Y-95371556D01*
X119548542Y-95189928D01*
X119568504Y-95000000D01*
X119555606Y-94877279D01*
X119549232Y-94816635D01*
X119549232Y-94816633D01*
X119548542Y-94810072D01*
X119489527Y-94628444D01*
X119394040Y-94463056D01*
X119320863Y-94381785D01*
X119290147Y-94317779D01*
X119288500Y-94297476D01*
X119288500Y-90176695D01*
X121637251Y-90176695D01*
X121637548Y-90181848D01*
X121637548Y-90181851D01*
X121647045Y-90346556D01*
X121650110Y-90399715D01*
X121651247Y-90404761D01*
X121651248Y-90404767D01*
X121671119Y-90492939D01*
X121699222Y-90617639D01*
X121750302Y-90743435D01*
X121768627Y-90788563D01*
X121783266Y-90824616D01*
X121899987Y-91015088D01*
X122046250Y-91183938D01*
X122050230Y-91187242D01*
X122054981Y-91191187D01*
X122094616Y-91250090D01*
X122096113Y-91321071D01*
X122058997Y-91381593D01*
X122018724Y-91406112D01*
X121903295Y-91449385D01*
X121786739Y-91536739D01*
X121699385Y-91653295D01*
X121648255Y-91789684D01*
X121641500Y-91851866D01*
X121641500Y-93648134D01*
X121648255Y-93710316D01*
X121699385Y-93846705D01*
X121786739Y-93963261D01*
X121903295Y-94050615D01*
X122039684Y-94101745D01*
X122101866Y-94108500D01*
X123898134Y-94108500D01*
X123960316Y-94101745D01*
X124096705Y-94050615D01*
X124213261Y-93963261D01*
X124300615Y-93846705D01*
X124351745Y-93710316D01*
X124358500Y-93648134D01*
X124358500Y-91851866D01*
X124351745Y-91789684D01*
X124300615Y-91653295D01*
X124213261Y-91536739D01*
X124096705Y-91449385D01*
X124032056Y-91425149D01*
X123978203Y-91404960D01*
X123921439Y-91362318D01*
X123896739Y-91295756D01*
X123911947Y-91226408D01*
X123933493Y-91197727D01*
X123997956Y-91133489D01*
X124038096Y-91093489D01*
X124057393Y-91066635D01*
X124165435Y-90916277D01*
X124168453Y-90912077D01*
X124185076Y-90878444D01*
X124265136Y-90716453D01*
X124265137Y-90716451D01*
X124267430Y-90711811D01*
X124326663Y-90516852D01*
X124330865Y-90503023D01*
X124330865Y-90503021D01*
X124332370Y-90498069D01*
X124361529Y-90276590D01*
X124361730Y-90268366D01*
X124363074Y-90213365D01*
X124363074Y-90213361D01*
X124363156Y-90210000D01*
X124344852Y-89987361D01*
X124290431Y-89770702D01*
X124201354Y-89565840D01*
X124098036Y-89406135D01*
X124082822Y-89382617D01*
X124082820Y-89382614D01*
X124080014Y-89378277D01*
X123929670Y-89213051D01*
X123925619Y-89209852D01*
X123925615Y-89209848D01*
X123758414Y-89077800D01*
X123758410Y-89077798D01*
X123754359Y-89074598D01*
X123739690Y-89066500D01*
X123717259Y-89054118D01*
X123712569Y-89051529D01*
X123662598Y-89001097D01*
X123647826Y-88931654D01*
X123672942Y-88865248D01*
X123700294Y-88838641D01*
X123875328Y-88713792D01*
X123883200Y-88707139D01*
X124034052Y-88556812D01*
X124040730Y-88548965D01*
X124165003Y-88376020D01*
X124170313Y-88367183D01*
X124264670Y-88176267D01*
X124268469Y-88166672D01*
X124330377Y-87962910D01*
X124332555Y-87952837D01*
X124333986Y-87941962D01*
X124331775Y-87927778D01*
X124318617Y-87924000D01*
X121683225Y-87924000D01*
X121669694Y-87927973D01*
X121668257Y-87937966D01*
X121698565Y-88072446D01*
X121701645Y-88082275D01*
X121781770Y-88279603D01*
X121786413Y-88288794D01*
X121897694Y-88470388D01*
X121903777Y-88478699D01*
X122043213Y-88639667D01*
X122050580Y-88646883D01*
X122214434Y-88782916D01*
X122222881Y-88788831D01*
X122291969Y-88829203D01*
X122340693Y-88880842D01*
X122353764Y-88950625D01*
X122327033Y-89016396D01*
X122286584Y-89049752D01*
X122273607Y-89056507D01*
X122269474Y-89059610D01*
X122269471Y-89059612D01*
X122099100Y-89187530D01*
X122094965Y-89190635D01*
X121940629Y-89352138D01*
X121814743Y-89536680D01*
X121782640Y-89605840D01*
X121732692Y-89713445D01*
X121720688Y-89739305D01*
X121660989Y-89954570D01*
X121637251Y-90176695D01*
X119288500Y-90176695D01*
X119288500Y-87404183D01*
X121664389Y-87404183D01*
X121665912Y-87412607D01*
X121678292Y-87416000D01*
X122727885Y-87416000D01*
X122743124Y-87411525D01*
X122744329Y-87410135D01*
X122746000Y-87402452D01*
X122746000Y-87397885D01*
X123254000Y-87397885D01*
X123258475Y-87413124D01*
X123259865Y-87414329D01*
X123267548Y-87416000D01*
X124318344Y-87416000D01*
X124331875Y-87412027D01*
X124333180Y-87402947D01*
X124291214Y-87235875D01*
X124287894Y-87226124D01*
X124202972Y-87030814D01*
X124198105Y-87021739D01*
X124082426Y-86842926D01*
X124076136Y-86834757D01*
X123932806Y-86677240D01*
X123925273Y-86670215D01*
X123758139Y-86538222D01*
X123749552Y-86532517D01*
X123563117Y-86429599D01*
X123553705Y-86425369D01*
X123352959Y-86354280D01*
X123342988Y-86351646D01*
X123271837Y-86338972D01*
X123258540Y-86340432D01*
X123254000Y-86354989D01*
X123254000Y-87397885D01*
X122746000Y-87397885D01*
X122746000Y-86353102D01*
X122742082Y-86339758D01*
X122727806Y-86337771D01*
X122689324Y-86343660D01*
X122679288Y-86346051D01*
X122476868Y-86412212D01*
X122467359Y-86416209D01*
X122278463Y-86514542D01*
X122269738Y-86520036D01*
X122099433Y-86647905D01*
X122091726Y-86654748D01*
X121944590Y-86808717D01*
X121938104Y-86816727D01*
X121818098Y-86992649D01*
X121813000Y-87001623D01*
X121723338Y-87194783D01*
X121719775Y-87204470D01*
X121664389Y-87404183D01*
X119288500Y-87404183D01*
X119288500Y-78928763D01*
X119289027Y-78917579D01*
X119290701Y-78910091D01*
X119288562Y-78842032D01*
X119288500Y-78838075D01*
X119288500Y-78810144D01*
X119287994Y-78806138D01*
X119287061Y-78794292D01*
X119287016Y-78792842D01*
X119285673Y-78750110D01*
X119280022Y-78730658D01*
X119276014Y-78711306D01*
X119274468Y-78699069D01*
X119274468Y-78699068D01*
X119273474Y-78691203D01*
X119270556Y-78683833D01*
X119268584Y-78676153D01*
X119269953Y-78675802D01*
X119263500Y-78641975D01*
X119263500Y-76676695D01*
X121637251Y-76676695D01*
X121637548Y-76681848D01*
X121637548Y-76681851D01*
X121647084Y-76847238D01*
X121650110Y-76899715D01*
X121651247Y-76904761D01*
X121651248Y-76904767D01*
X121666664Y-76973172D01*
X121699222Y-77117639D01*
X121783266Y-77324616D01*
X121899987Y-77515088D01*
X122046250Y-77683938D01*
X122050230Y-77687242D01*
X122054981Y-77691187D01*
X122094616Y-77750090D01*
X122096113Y-77821071D01*
X122058997Y-77881593D01*
X122018724Y-77906112D01*
X121903295Y-77949385D01*
X121786739Y-78036739D01*
X121699385Y-78153295D01*
X121648255Y-78289684D01*
X121641500Y-78351866D01*
X121641500Y-80148134D01*
X121648255Y-80210316D01*
X121699385Y-80346705D01*
X121786739Y-80463261D01*
X121903295Y-80550615D01*
X122039684Y-80601745D01*
X122101866Y-80608500D01*
X123898134Y-80608500D01*
X123960316Y-80601745D01*
X124096705Y-80550615D01*
X124213261Y-80463261D01*
X124300615Y-80346705D01*
X124351745Y-80210316D01*
X124358500Y-80148134D01*
X124358500Y-78351866D01*
X124351745Y-78289684D01*
X124300615Y-78153295D01*
X124213261Y-78036739D01*
X124096705Y-77949385D01*
X124084132Y-77944672D01*
X123978203Y-77904960D01*
X123921439Y-77862318D01*
X123896739Y-77795756D01*
X123911947Y-77726408D01*
X123933493Y-77697727D01*
X123951251Y-77680031D01*
X124038096Y-77593489D01*
X124097594Y-77510689D01*
X124165435Y-77416277D01*
X124168453Y-77412077D01*
X124174082Y-77400689D01*
X124265136Y-77216453D01*
X124265137Y-77216451D01*
X124267430Y-77211811D01*
X124332370Y-76998069D01*
X124361529Y-76776590D01*
X124361611Y-76773240D01*
X124363074Y-76713365D01*
X124363074Y-76713361D01*
X124363156Y-76710000D01*
X124360418Y-76676695D01*
X136637251Y-76676695D01*
X136637548Y-76681848D01*
X136637548Y-76681851D01*
X136647084Y-76847238D01*
X136650110Y-76899715D01*
X136651247Y-76904761D01*
X136651248Y-76904767D01*
X136666664Y-76973172D01*
X136699222Y-77117639D01*
X136783266Y-77324616D01*
X136899987Y-77515088D01*
X137046250Y-77683938D01*
X137050230Y-77687242D01*
X137054981Y-77691187D01*
X137094616Y-77750090D01*
X137096113Y-77821071D01*
X137058997Y-77881593D01*
X137018724Y-77906112D01*
X136903295Y-77949385D01*
X136786739Y-78036739D01*
X136699385Y-78153295D01*
X136648255Y-78289684D01*
X136641500Y-78351866D01*
X136641500Y-80148134D01*
X136648255Y-80210316D01*
X136699385Y-80346705D01*
X136786739Y-80463261D01*
X136903295Y-80550615D01*
X137039684Y-80601745D01*
X137101866Y-80608500D01*
X138898134Y-80608500D01*
X138960316Y-80601745D01*
X139096705Y-80550615D01*
X139213261Y-80463261D01*
X139300615Y-80346705D01*
X139351745Y-80210316D01*
X139358500Y-80148134D01*
X139358500Y-78351866D01*
X139351745Y-78289684D01*
X139300615Y-78153295D01*
X139213261Y-78036739D01*
X139096705Y-77949385D01*
X139084132Y-77944672D01*
X138978203Y-77904960D01*
X138921439Y-77862318D01*
X138896739Y-77795756D01*
X138911947Y-77726408D01*
X138933493Y-77697727D01*
X138951251Y-77680031D01*
X139038096Y-77593489D01*
X139097594Y-77510689D01*
X139165435Y-77416277D01*
X139168453Y-77412077D01*
X139174082Y-77400689D01*
X139265136Y-77216453D01*
X139265137Y-77216451D01*
X139267430Y-77211811D01*
X139332370Y-76998069D01*
X139361529Y-76776590D01*
X139361611Y-76773240D01*
X139363074Y-76713365D01*
X139363074Y-76713361D01*
X139363156Y-76710000D01*
X139344852Y-76487361D01*
X139290431Y-76270702D01*
X139201354Y-76065840D01*
X139080014Y-75878277D01*
X138929670Y-75713051D01*
X138925619Y-75709852D01*
X138925615Y-75709848D01*
X138758414Y-75577800D01*
X138758410Y-75577798D01*
X138754359Y-75574598D01*
X138745179Y-75569530D01*
X138714801Y-75552761D01*
X138712569Y-75551529D01*
X138662598Y-75501097D01*
X138647826Y-75431654D01*
X138672942Y-75365248D01*
X138700294Y-75338641D01*
X138875328Y-75213792D01*
X138883200Y-75207139D01*
X139034052Y-75056812D01*
X139040730Y-75048965D01*
X139165003Y-74876020D01*
X139170313Y-74867183D01*
X139264670Y-74676267D01*
X139268469Y-74666672D01*
X139330377Y-74462910D01*
X139332555Y-74452837D01*
X139333986Y-74441962D01*
X139331775Y-74427778D01*
X139318617Y-74424000D01*
X136683225Y-74424000D01*
X136669694Y-74427973D01*
X136668257Y-74437966D01*
X136698565Y-74572446D01*
X136701645Y-74582275D01*
X136781770Y-74779603D01*
X136786413Y-74788794D01*
X136897694Y-74970388D01*
X136903777Y-74978699D01*
X137043213Y-75139667D01*
X137050580Y-75146883D01*
X137214434Y-75282916D01*
X137222881Y-75288831D01*
X137291969Y-75329203D01*
X137340693Y-75380842D01*
X137353764Y-75450625D01*
X137327033Y-75516396D01*
X137286584Y-75549752D01*
X137273607Y-75556507D01*
X137269474Y-75559610D01*
X137269471Y-75559612D01*
X137105468Y-75682749D01*
X137094965Y-75690635D01*
X136940629Y-75852138D01*
X136937715Y-75856410D01*
X136937714Y-75856411D01*
X136929267Y-75868794D01*
X136814743Y-76036680D01*
X136720688Y-76239305D01*
X136660989Y-76454570D01*
X136637251Y-76676695D01*
X124360418Y-76676695D01*
X124344852Y-76487361D01*
X124290431Y-76270702D01*
X124201354Y-76065840D01*
X124080014Y-75878277D01*
X123929670Y-75713051D01*
X123925619Y-75709852D01*
X123925615Y-75709848D01*
X123758414Y-75577800D01*
X123758410Y-75577798D01*
X123754359Y-75574598D01*
X123745179Y-75569530D01*
X123714801Y-75552761D01*
X123712569Y-75551529D01*
X123662598Y-75501097D01*
X123647826Y-75431654D01*
X123672942Y-75365248D01*
X123700294Y-75338641D01*
X123875328Y-75213792D01*
X123883200Y-75207139D01*
X124034052Y-75056812D01*
X124040730Y-75048965D01*
X124165003Y-74876020D01*
X124170313Y-74867183D01*
X124264670Y-74676267D01*
X124268469Y-74666672D01*
X124330377Y-74462910D01*
X124332555Y-74452837D01*
X124333986Y-74441962D01*
X124331775Y-74427778D01*
X124318617Y-74424000D01*
X121683225Y-74424000D01*
X121669694Y-74427973D01*
X121668257Y-74437966D01*
X121698565Y-74572446D01*
X121701645Y-74582275D01*
X121781770Y-74779603D01*
X121786413Y-74788794D01*
X121897694Y-74970388D01*
X121903777Y-74978699D01*
X122043213Y-75139667D01*
X122050580Y-75146883D01*
X122214434Y-75282916D01*
X122222881Y-75288831D01*
X122291969Y-75329203D01*
X122340693Y-75380842D01*
X122353764Y-75450625D01*
X122327033Y-75516396D01*
X122286584Y-75549752D01*
X122273607Y-75556507D01*
X122269474Y-75559610D01*
X122269471Y-75559612D01*
X122105468Y-75682749D01*
X122094965Y-75690635D01*
X121940629Y-75852138D01*
X121937715Y-75856410D01*
X121937714Y-75856411D01*
X121929267Y-75868794D01*
X121814743Y-76036680D01*
X121720688Y-76239305D01*
X121660989Y-76454570D01*
X121637251Y-76676695D01*
X119263500Y-76676695D01*
X119263500Y-73904183D01*
X121664389Y-73904183D01*
X121665912Y-73912607D01*
X121678292Y-73916000D01*
X122727885Y-73916000D01*
X122743124Y-73911525D01*
X122744329Y-73910135D01*
X122746000Y-73902452D01*
X122746000Y-73897885D01*
X123254000Y-73897885D01*
X123258475Y-73913124D01*
X123259865Y-73914329D01*
X123267548Y-73916000D01*
X124318344Y-73916000D01*
X124331875Y-73912027D01*
X124333002Y-73904183D01*
X136664389Y-73904183D01*
X136665912Y-73912607D01*
X136678292Y-73916000D01*
X137727885Y-73916000D01*
X137743124Y-73911525D01*
X137744329Y-73910135D01*
X137746000Y-73902452D01*
X137746000Y-73897885D01*
X138254000Y-73897885D01*
X138258475Y-73913124D01*
X138259865Y-73914329D01*
X138267548Y-73916000D01*
X139318344Y-73916000D01*
X139331875Y-73912027D01*
X139333180Y-73902947D01*
X139291214Y-73735875D01*
X139287894Y-73726124D01*
X139202972Y-73530814D01*
X139198105Y-73521739D01*
X139082426Y-73342926D01*
X139076136Y-73334757D01*
X138932806Y-73177240D01*
X138925273Y-73170215D01*
X138758139Y-73038222D01*
X138749552Y-73032517D01*
X138563117Y-72929599D01*
X138553705Y-72925369D01*
X138352959Y-72854280D01*
X138342988Y-72851646D01*
X138271837Y-72838972D01*
X138258540Y-72840432D01*
X138254000Y-72854989D01*
X138254000Y-73897885D01*
X137746000Y-73897885D01*
X137746000Y-72853102D01*
X137742082Y-72839758D01*
X137727806Y-72837771D01*
X137689324Y-72843660D01*
X137679288Y-72846051D01*
X137476868Y-72912212D01*
X137467359Y-72916209D01*
X137278463Y-73014542D01*
X137269738Y-73020036D01*
X137099433Y-73147905D01*
X137091726Y-73154748D01*
X136944590Y-73308717D01*
X136938104Y-73316727D01*
X136818098Y-73492649D01*
X136813000Y-73501623D01*
X136723338Y-73694783D01*
X136719775Y-73704470D01*
X136664389Y-73904183D01*
X124333002Y-73904183D01*
X124333180Y-73902947D01*
X124291214Y-73735875D01*
X124287894Y-73726124D01*
X124202972Y-73530814D01*
X124198105Y-73521739D01*
X124082426Y-73342926D01*
X124076136Y-73334757D01*
X123932806Y-73177240D01*
X123925273Y-73170215D01*
X123758139Y-73038222D01*
X123749552Y-73032517D01*
X123563117Y-72929599D01*
X123553705Y-72925369D01*
X123352959Y-72854280D01*
X123342988Y-72851646D01*
X123271837Y-72838972D01*
X123258540Y-72840432D01*
X123254000Y-72854989D01*
X123254000Y-73897885D01*
X122746000Y-73897885D01*
X122746000Y-72853102D01*
X122742082Y-72839758D01*
X122727806Y-72837771D01*
X122689324Y-72843660D01*
X122679288Y-72846051D01*
X122476868Y-72912212D01*
X122467359Y-72916209D01*
X122278463Y-73014542D01*
X122269738Y-73020036D01*
X122099433Y-73147905D01*
X122091726Y-73154748D01*
X121944590Y-73308717D01*
X121938104Y-73316727D01*
X121818098Y-73492649D01*
X121813000Y-73501623D01*
X121723338Y-73694783D01*
X121719775Y-73704470D01*
X121664389Y-73904183D01*
X119263500Y-73904183D01*
X119263500Y-72009500D01*
X119283502Y-71941379D01*
X119337158Y-71894886D01*
X119389500Y-71883500D01*
X124441233Y-71883500D01*
X124452416Y-71884027D01*
X124459909Y-71885702D01*
X124467835Y-71885453D01*
X124467836Y-71885453D01*
X124527986Y-71883562D01*
X124531945Y-71883500D01*
X124559856Y-71883500D01*
X124563791Y-71883003D01*
X124563856Y-71882995D01*
X124575693Y-71882062D01*
X124607951Y-71881048D01*
X124611970Y-71880922D01*
X124619889Y-71880673D01*
X124639343Y-71875021D01*
X124658700Y-71871013D01*
X124670930Y-71869468D01*
X124670931Y-71869468D01*
X124678797Y-71868474D01*
X124686168Y-71865555D01*
X124686170Y-71865555D01*
X124719912Y-71852196D01*
X124731142Y-71848351D01*
X124765983Y-71838229D01*
X124765984Y-71838229D01*
X124773593Y-71836018D01*
X124780412Y-71831985D01*
X124780417Y-71831983D01*
X124791028Y-71825707D01*
X124808776Y-71817012D01*
X124827617Y-71809552D01*
X124863387Y-71783564D01*
X124873307Y-71777048D01*
X124904535Y-71758580D01*
X124904538Y-71758578D01*
X124911362Y-71754542D01*
X124925683Y-71740221D01*
X124940717Y-71727380D01*
X124950694Y-71720131D01*
X124957107Y-71715472D01*
X124985298Y-71681395D01*
X124993278Y-71672626D01*
X125950502Y-70715403D01*
X126012812Y-70681379D01*
X126039595Y-70678500D01*
X126095487Y-70678500D01*
X126101939Y-70677128D01*
X126101944Y-70677128D01*
X126206600Y-70654882D01*
X126282288Y-70638794D01*
X126292061Y-70634443D01*
X126450722Y-70563803D01*
X126450724Y-70563802D01*
X126456752Y-70561118D01*
X126611253Y-70448866D01*
X126739040Y-70306944D01*
X126813196Y-70178502D01*
X126831223Y-70147279D01*
X126831224Y-70147278D01*
X126834527Y-70141556D01*
X126893542Y-69959928D01*
X126899191Y-69906186D01*
X126912814Y-69776565D01*
X126913504Y-69770000D01*
X126893542Y-69580072D01*
X126834527Y-69398444D01*
X126816871Y-69367862D01*
X126752613Y-69256565D01*
X126739040Y-69233056D01*
X126611253Y-69091134D01*
X126456752Y-68978882D01*
X126450724Y-68976198D01*
X126450722Y-68976197D01*
X126288319Y-68903891D01*
X126288318Y-68903891D01*
X126282288Y-68901206D01*
X126175202Y-68878444D01*
X126101944Y-68862872D01*
X126101939Y-68862872D01*
X126095487Y-68861500D01*
X125904513Y-68861500D01*
X125898061Y-68862872D01*
X125898056Y-68862872D01*
X125824798Y-68878444D01*
X125717712Y-68901206D01*
X125711682Y-68903891D01*
X125711681Y-68903891D01*
X125549278Y-68976197D01*
X125549276Y-68976198D01*
X125543248Y-68978882D01*
X125388747Y-69091134D01*
X125260960Y-69233056D01*
X125247387Y-69256565D01*
X125183130Y-69367862D01*
X125165473Y-69398444D01*
X125106458Y-69580072D01*
X125089254Y-69743764D01*
X125089093Y-69745292D01*
X125062080Y-69810949D01*
X125052878Y-69821218D01*
X124294499Y-70579596D01*
X124232187Y-70613621D01*
X124205404Y-70616500D01*
X118701793Y-70616500D01*
X118678184Y-70614268D01*
X118677881Y-70614210D01*
X118677877Y-70614210D01*
X118670094Y-70612725D01*
X118614049Y-70616251D01*
X118606138Y-70616500D01*
X118590144Y-70616500D01*
X118574270Y-70618506D01*
X118566410Y-70619248D01*
X118538951Y-70620976D01*
X118518263Y-70622277D01*
X118518262Y-70622277D01*
X118510350Y-70622775D01*
X118502809Y-70625225D01*
X118502513Y-70625321D01*
X118479369Y-70630494D01*
X118479065Y-70630532D01*
X118479060Y-70630533D01*
X118471203Y-70631526D01*
X118463838Y-70634442D01*
X118463834Y-70634443D01*
X118418989Y-70652199D01*
X118411570Y-70654871D01*
X118358125Y-70672236D01*
X118351429Y-70676486D01*
X118351428Y-70676486D01*
X118351169Y-70676650D01*
X118330042Y-70687415D01*
X118329754Y-70687529D01*
X118329749Y-70687532D01*
X118322383Y-70690448D01*
X118315975Y-70695104D01*
X118315969Y-70695107D01*
X118276948Y-70723458D01*
X118270411Y-70727901D01*
X118222982Y-70758000D01*
X118217556Y-70763778D01*
X118217555Y-70763779D01*
X118217341Y-70764007D01*
X118199554Y-70779688D01*
X118199309Y-70779866D01*
X118199307Y-70779868D01*
X118192893Y-70784528D01*
X118187839Y-70790637D01*
X118187838Y-70790638D01*
X118157097Y-70827796D01*
X118151866Y-70833730D01*
X118118842Y-70868898D01*
X118118840Y-70868901D01*
X118113414Y-70874679D01*
X118109445Y-70881899D01*
X118096119Y-70901506D01*
X118095920Y-70901746D01*
X118095916Y-70901753D01*
X118090867Y-70907856D01*
X118087493Y-70915027D01*
X118066953Y-70958676D01*
X118063371Y-70965708D01*
X118036305Y-71014940D01*
X118034335Y-71022615D01*
X118034332Y-71022621D01*
X118034256Y-71022919D01*
X118026224Y-71045228D01*
X118026094Y-71045503D01*
X118026091Y-71045511D01*
X118022717Y-71052682D01*
X118021231Y-71060474D01*
X118012195Y-71107843D01*
X118010468Y-71115571D01*
X118001048Y-71152259D01*
X117996500Y-71169970D01*
X117996500Y-71178207D01*
X117994268Y-71201816D01*
X117992725Y-71209906D01*
X117993223Y-71217817D01*
X117996251Y-71265951D01*
X117996500Y-71273862D01*
X117996500Y-76996425D01*
X117976498Y-77064546D01*
X117922842Y-77111039D01*
X117852568Y-77121143D01*
X117819253Y-77111533D01*
X117813319Y-77108891D01*
X117813318Y-77108891D01*
X117807288Y-77106206D01*
X117713887Y-77086353D01*
X117626944Y-77067872D01*
X117626939Y-77067872D01*
X117620487Y-77066500D01*
X117429513Y-77066500D01*
X117423061Y-77067872D01*
X117423056Y-77067872D01*
X117336113Y-77086353D01*
X117242712Y-77106206D01*
X117236682Y-77108891D01*
X117236681Y-77108891D01*
X117074278Y-77181197D01*
X117074276Y-77181198D01*
X117068248Y-77183882D01*
X117062907Y-77187762D01*
X117062906Y-77187763D01*
X117029807Y-77211811D01*
X116913747Y-77296134D01*
X116853135Y-77363451D01*
X116792690Y-77400689D01*
X116721706Y-77399337D01*
X116662722Y-77359823D01*
X116634464Y-77294693D01*
X116633500Y-77279139D01*
X116633500Y-70977514D01*
X116653502Y-70909393D01*
X116665858Y-70893211D01*
X116739040Y-70811934D01*
X116816078Y-70678500D01*
X116831223Y-70652269D01*
X116831224Y-70652268D01*
X116834527Y-70646546D01*
X116893542Y-70464918D01*
X116913504Y-70274990D01*
X116897232Y-70120166D01*
X116894232Y-70091625D01*
X116894232Y-70091623D01*
X116893542Y-70085062D01*
X116834527Y-69903434D01*
X116739040Y-69738046D01*
X116611253Y-69596124D01*
X116456752Y-69483872D01*
X116450724Y-69481188D01*
X116450722Y-69481187D01*
X116288319Y-69408881D01*
X116288318Y-69408881D01*
X116282288Y-69406196D01*
X116188887Y-69386343D01*
X116101944Y-69367862D01*
X116101939Y-69367862D01*
X116095487Y-69366490D01*
X115904513Y-69366490D01*
X115898061Y-69367862D01*
X115898056Y-69367862D01*
X115811113Y-69386343D01*
X115717712Y-69406196D01*
X115711682Y-69408881D01*
X115711681Y-69408881D01*
X115549278Y-69481187D01*
X115549276Y-69481188D01*
X115543248Y-69483872D01*
X115388747Y-69596124D01*
X115260960Y-69738046D01*
X115165473Y-69903434D01*
X115106458Y-70085062D01*
X115105768Y-70091623D01*
X115105768Y-70091625D01*
X115102768Y-70120166D01*
X115086496Y-70274990D01*
X115106458Y-70464918D01*
X115165473Y-70646546D01*
X115168776Y-70652268D01*
X115168777Y-70652269D01*
X115183922Y-70678500D01*
X115260960Y-70811934D01*
X115334137Y-70893205D01*
X115364853Y-70957211D01*
X115366500Y-70977514D01*
X115366500Y-84297476D01*
X115346498Y-84365597D01*
X115334142Y-84381779D01*
X115260960Y-84463056D01*
X115217774Y-84537856D01*
X115172173Y-84616840D01*
X115165473Y-84628444D01*
X115106458Y-84810072D01*
X115105768Y-84816633D01*
X115105768Y-84816635D01*
X115101671Y-84855616D01*
X115086496Y-85000000D01*
X104022687Y-85000000D01*
X106656331Y-82366356D01*
X106719228Y-82332205D01*
X106775824Y-82320175D01*
X106775833Y-82320172D01*
X106782288Y-82318800D01*
X106836802Y-82294529D01*
X106950722Y-82243809D01*
X106950724Y-82243808D01*
X106956752Y-82241124D01*
X107111253Y-82128872D01*
X107155108Y-82080166D01*
X107234621Y-81991858D01*
X107234622Y-81991857D01*
X107239040Y-81986950D01*
X107334527Y-81821562D01*
X107393542Y-81639934D01*
X107413504Y-81450006D01*
X107409751Y-81414298D01*
X107394232Y-81266641D01*
X107394232Y-81266639D01*
X107393542Y-81260078D01*
X107334527Y-81078450D01*
X107239040Y-80913062D01*
X107111253Y-80771140D01*
X106956752Y-80658888D01*
X106950724Y-80656204D01*
X106950722Y-80656203D01*
X106788319Y-80583897D01*
X106788318Y-80583897D01*
X106782288Y-80581212D01*
X106688888Y-80561359D01*
X106601944Y-80542878D01*
X106601939Y-80542878D01*
X106595487Y-80541506D01*
X106404513Y-80541506D01*
X106398061Y-80542878D01*
X106398056Y-80542878D01*
X106311112Y-80561359D01*
X106217712Y-80581212D01*
X106211682Y-80583897D01*
X106211681Y-80583897D01*
X106049278Y-80656203D01*
X106049276Y-80656204D01*
X106043248Y-80658888D01*
X105888747Y-80771140D01*
X105760960Y-80913062D01*
X105665473Y-81078450D01*
X105620597Y-81216565D01*
X105610613Y-81247291D01*
X105579875Y-81297450D01*
X102511089Y-84366236D01*
X102496677Y-84378622D01*
X102485082Y-84387155D01*
X102485077Y-84387160D01*
X102479182Y-84391498D01*
X102474443Y-84397076D01*
X102474440Y-84397079D01*
X102444965Y-84431774D01*
X102438035Y-84439290D01*
X102432340Y-84444985D01*
X102430060Y-84447867D01*
X102414719Y-84467257D01*
X102411928Y-84470661D01*
X102377982Y-84510618D01*
X102364667Y-84526291D01*
X102361339Y-84532807D01*
X102357972Y-84537856D01*
X102354805Y-84542985D01*
X102350266Y-84548722D01*
X102319345Y-84614881D01*
X102317442Y-84618775D01*
X102284231Y-84683814D01*
X102282492Y-84690922D01*
X102280393Y-84696565D01*
X102278476Y-84702328D01*
X102275378Y-84708956D01*
X102273888Y-84716118D01*
X102273888Y-84716119D01*
X102260514Y-84780418D01*
X102259544Y-84784702D01*
X102242192Y-84855616D01*
X102241500Y-84866770D01*
X102241464Y-84866768D01*
X102241225Y-84870761D01*
X102240851Y-84874953D01*
X102239360Y-84882121D01*
X102239558Y-84889438D01*
X102241454Y-84959527D01*
X102241500Y-84962934D01*
X102241500Y-90463001D01*
X102224619Y-90526000D01*
X102165473Y-90628444D01*
X102106458Y-90810072D01*
X102105768Y-90816633D01*
X102105768Y-90816635D01*
X102092810Y-90939928D01*
X102086496Y-91000000D01*
X93758000Y-91000000D01*
X93758000Y-76676695D01*
X107637251Y-76676695D01*
X107637548Y-76681848D01*
X107637548Y-76681851D01*
X107647084Y-76847238D01*
X107650110Y-76899715D01*
X107651247Y-76904761D01*
X107651248Y-76904767D01*
X107666664Y-76973172D01*
X107699222Y-77117639D01*
X107783266Y-77324616D01*
X107899987Y-77515088D01*
X108046250Y-77683938D01*
X108050230Y-77687242D01*
X108054981Y-77691187D01*
X108094616Y-77750090D01*
X108096113Y-77821071D01*
X108058997Y-77881593D01*
X108018724Y-77906112D01*
X107903295Y-77949385D01*
X107786739Y-78036739D01*
X107699385Y-78153295D01*
X107648255Y-78289684D01*
X107641500Y-78351866D01*
X107641500Y-80148134D01*
X107648255Y-80210316D01*
X107699385Y-80346705D01*
X107786739Y-80463261D01*
X107903295Y-80550615D01*
X108039684Y-80601745D01*
X108101866Y-80608500D01*
X109898134Y-80608500D01*
X109960316Y-80601745D01*
X110096705Y-80550615D01*
X110213261Y-80463261D01*
X110300615Y-80346705D01*
X110351745Y-80210316D01*
X110358500Y-80148134D01*
X110358500Y-78351866D01*
X110351745Y-78289684D01*
X110300615Y-78153295D01*
X110213261Y-78036739D01*
X110096705Y-77949385D01*
X110084132Y-77944672D01*
X109978203Y-77904960D01*
X109921439Y-77862318D01*
X109896739Y-77795756D01*
X109911947Y-77726408D01*
X109933493Y-77697727D01*
X109951251Y-77680031D01*
X110038096Y-77593489D01*
X110097594Y-77510689D01*
X110165435Y-77416277D01*
X110168453Y-77412077D01*
X110174082Y-77400689D01*
X110265136Y-77216453D01*
X110265137Y-77216451D01*
X110267430Y-77211811D01*
X110332370Y-76998069D01*
X110361529Y-76776590D01*
X110361611Y-76773240D01*
X110363074Y-76713365D01*
X110363074Y-76713361D01*
X110363156Y-76710000D01*
X110344852Y-76487361D01*
X110290431Y-76270702D01*
X110201354Y-76065840D01*
X110080014Y-75878277D01*
X109929670Y-75713051D01*
X109925619Y-75709852D01*
X109925615Y-75709848D01*
X109758414Y-75577800D01*
X109758410Y-75577798D01*
X109754359Y-75574598D01*
X109713053Y-75551796D01*
X109663084Y-75501364D01*
X109648312Y-75431921D01*
X109673428Y-75365516D01*
X109700780Y-75338909D01*
X109744603Y-75307650D01*
X109879860Y-75211173D01*
X109894880Y-75196206D01*
X110034435Y-75057137D01*
X110038096Y-75053489D01*
X110097594Y-74970689D01*
X110165435Y-74876277D01*
X110168453Y-74872077D01*
X110202201Y-74803794D01*
X110265136Y-74676453D01*
X110265137Y-74676451D01*
X110267430Y-74671811D01*
X110332370Y-74458069D01*
X110361529Y-74236590D01*
X110362845Y-74182749D01*
X110363074Y-74173365D01*
X110363074Y-74173361D01*
X110363156Y-74170000D01*
X110344852Y-73947361D01*
X110290431Y-73730702D01*
X110201354Y-73525840D01*
X110080014Y-73338277D01*
X109929670Y-73173051D01*
X109925619Y-73169852D01*
X109925615Y-73169848D01*
X109758414Y-73037800D01*
X109758410Y-73037798D01*
X109754359Y-73034598D01*
X109718028Y-73014542D01*
X109702136Y-73005769D01*
X109558789Y-72926638D01*
X109553920Y-72924914D01*
X109553916Y-72924912D01*
X109353087Y-72853795D01*
X109353083Y-72853794D01*
X109348212Y-72852069D01*
X109343119Y-72851162D01*
X109343116Y-72851161D01*
X109133373Y-72813800D01*
X109133367Y-72813799D01*
X109128284Y-72812894D01*
X109054452Y-72811992D01*
X108910081Y-72810228D01*
X108910079Y-72810228D01*
X108904911Y-72810165D01*
X108684091Y-72843955D01*
X108471756Y-72913357D01*
X108273607Y-73016507D01*
X108269474Y-73019610D01*
X108269471Y-73019612D01*
X108099100Y-73147530D01*
X108094965Y-73150635D01*
X107940629Y-73312138D01*
X107937715Y-73316410D01*
X107937714Y-73316411D01*
X107925404Y-73334457D01*
X107814743Y-73496680D01*
X107799003Y-73530590D01*
X107725041Y-73689928D01*
X107720688Y-73699305D01*
X107660989Y-73914570D01*
X107637251Y-74136695D01*
X107637548Y-74141848D01*
X107637548Y-74141851D01*
X107643011Y-74236590D01*
X107650110Y-74359715D01*
X107651247Y-74364761D01*
X107651248Y-74364767D01*
X107651639Y-74366500D01*
X107699222Y-74577639D01*
X107783266Y-74784616D01*
X107899987Y-74975088D01*
X108046250Y-75143938D01*
X108218126Y-75286632D01*
X108288595Y-75327811D01*
X108291445Y-75329476D01*
X108340169Y-75381114D01*
X108353240Y-75450897D01*
X108326509Y-75516669D01*
X108286055Y-75550027D01*
X108273607Y-75556507D01*
X108269474Y-75559610D01*
X108269471Y-75559612D01*
X108105468Y-75682749D01*
X108094965Y-75690635D01*
X107940629Y-75852138D01*
X107937715Y-75856410D01*
X107937714Y-75856411D01*
X107929267Y-75868794D01*
X107814743Y-76036680D01*
X107720688Y-76239305D01*
X107660989Y-76454570D01*
X107637251Y-76676695D01*
X93758000Y-76676695D01*
X93758000Y-67085000D01*
X128236693Y-67085000D01*
X128255885Y-67304371D01*
X128312880Y-67517076D01*
X128332109Y-67558312D01*
X128403618Y-67711666D01*
X128403621Y-67711671D01*
X128405944Y-67716653D01*
X128532251Y-67897038D01*
X128687962Y-68052749D01*
X128868346Y-68179056D01*
X129067924Y-68272120D01*
X129280629Y-68329115D01*
X129500000Y-68348307D01*
X129719371Y-68329115D01*
X129932076Y-68272120D01*
X130131654Y-68179056D01*
X130312038Y-68052749D01*
X130467749Y-67897038D01*
X130594056Y-67716653D01*
X130596379Y-67711671D01*
X130596382Y-67711666D01*
X130667891Y-67558312D01*
X130687120Y-67517076D01*
X130744115Y-67304371D01*
X130763307Y-67085000D01*
X131236693Y-67085000D01*
X131255885Y-67304371D01*
X131312880Y-67517076D01*
X131332109Y-67558312D01*
X131403618Y-67711666D01*
X131403621Y-67711671D01*
X131405944Y-67716653D01*
X131532251Y-67897038D01*
X131687962Y-68052749D01*
X131868346Y-68179056D01*
X132067924Y-68272120D01*
X132280629Y-68329115D01*
X132500000Y-68348307D01*
X132719371Y-68329115D01*
X132734556Y-68325046D01*
X132750717Y-68320716D01*
X132821694Y-68322406D01*
X132872423Y-68353328D01*
X133070859Y-68551764D01*
X133078399Y-68560050D01*
X133082511Y-68566529D01*
X133088288Y-68571954D01*
X133132162Y-68613154D01*
X133135004Y-68615909D01*
X133154741Y-68635646D01*
X133157938Y-68638126D01*
X133166958Y-68645829D01*
X133199190Y-68676097D01*
X133206136Y-68679916D01*
X133206139Y-68679918D01*
X133216945Y-68685859D01*
X133233464Y-68696710D01*
X133249470Y-68709125D01*
X133256739Y-68712270D01*
X133256743Y-68712273D01*
X133290048Y-68726685D01*
X133300698Y-68731902D01*
X133339451Y-68753206D01*
X133347126Y-68755177D01*
X133347127Y-68755177D01*
X133359073Y-68758244D01*
X133377778Y-68764648D01*
X133396366Y-68772692D01*
X133404189Y-68773931D01*
X133404199Y-68773934D01*
X133440035Y-68779610D01*
X133451655Y-68782016D01*
X133486800Y-68791039D01*
X133494481Y-68793011D01*
X133514735Y-68793011D01*
X133534445Y-68794562D01*
X133554454Y-68797731D01*
X133562346Y-68796985D01*
X133573774Y-68795905D01*
X133598473Y-68793570D01*
X133610330Y-68793011D01*
X139519808Y-68793011D01*
X139587929Y-68813013D01*
X139634422Y-68866669D01*
X139644526Y-68936943D01*
X139639643Y-68957941D01*
X139606458Y-69060072D01*
X139586496Y-69250000D01*
X139587186Y-69256565D01*
X139602913Y-69406196D01*
X139606458Y-69439928D01*
X139665473Y-69621556D01*
X139760960Y-69786944D01*
X139765378Y-69791851D01*
X139765379Y-69791852D01*
X139868326Y-69906186D01*
X139888747Y-69928866D01*
X140043248Y-70041118D01*
X140049276Y-70043802D01*
X140049278Y-70043803D01*
X140177802Y-70101025D01*
X140217712Y-70118794D01*
X140295230Y-70135271D01*
X140398056Y-70157128D01*
X140398061Y-70157128D01*
X140404513Y-70158500D01*
X140460406Y-70158500D01*
X140528527Y-70178502D01*
X140549501Y-70195405D01*
X143802878Y-73448782D01*
X143836904Y-73511094D01*
X143839092Y-73524703D01*
X143856458Y-73689928D01*
X143915473Y-73871556D01*
X144010960Y-74036944D01*
X144015378Y-74041851D01*
X144015379Y-74041852D01*
X144125000Y-74163598D01*
X144138747Y-74178866D01*
X144293248Y-74291118D01*
X144299276Y-74293802D01*
X144299278Y-74293803D01*
X144447320Y-74359715D01*
X144467712Y-74368794D01*
X144561113Y-74388647D01*
X144648056Y-74407128D01*
X144648061Y-74407128D01*
X144654513Y-74408500D01*
X144845487Y-74408500D01*
X144851939Y-74407128D01*
X144851944Y-74407128D01*
X144938887Y-74388647D01*
X145032288Y-74368794D01*
X145052680Y-74359715D01*
X145200722Y-74293803D01*
X145200724Y-74293802D01*
X145206752Y-74291118D01*
X145300939Y-74222687D01*
X145367807Y-74198828D01*
X145436958Y-74214909D01*
X145449061Y-74222687D01*
X145543248Y-74291118D01*
X145549276Y-74293802D01*
X145549278Y-74293803D01*
X145697320Y-74359715D01*
X145717712Y-74368794D01*
X145811113Y-74388647D01*
X145898056Y-74407128D01*
X145898061Y-74407128D01*
X145904513Y-74408500D01*
X145960406Y-74408500D01*
X146028527Y-74428502D01*
X146049501Y-74445405D01*
X146996343Y-75392247D01*
X147003887Y-75400537D01*
X147008000Y-75407018D01*
X147013777Y-75412443D01*
X147057667Y-75453658D01*
X147060509Y-75456413D01*
X147080230Y-75476134D01*
X147083425Y-75478612D01*
X147092447Y-75486318D01*
X147124679Y-75516586D01*
X147131628Y-75520406D01*
X147142432Y-75526346D01*
X147158956Y-75537199D01*
X147174959Y-75549613D01*
X147215543Y-75567176D01*
X147226173Y-75572383D01*
X147264940Y-75593695D01*
X147272617Y-75595666D01*
X147272622Y-75595668D01*
X147284558Y-75598732D01*
X147303266Y-75605137D01*
X147321855Y-75613181D01*
X147329680Y-75614420D01*
X147329682Y-75614421D01*
X147365519Y-75620097D01*
X147377140Y-75622504D01*
X147412289Y-75631528D01*
X147419970Y-75633500D01*
X147440231Y-75633500D01*
X147459940Y-75635051D01*
X147479943Y-75638219D01*
X147487835Y-75637473D01*
X147493062Y-75636979D01*
X147523954Y-75634059D01*
X147535811Y-75633500D01*
X162791800Y-75633500D01*
X162859921Y-75653502D01*
X162879147Y-75669843D01*
X162879420Y-75669540D01*
X162884332Y-75673963D01*
X162888747Y-75678866D01*
X163043248Y-75791118D01*
X163049276Y-75793802D01*
X163049278Y-75793803D01*
X163189899Y-75856411D01*
X163217712Y-75868794D01*
X163282744Y-75882617D01*
X163398056Y-75907128D01*
X163398061Y-75907128D01*
X163404513Y-75908500D01*
X163595487Y-75908500D01*
X163601939Y-75907128D01*
X163601944Y-75907128D01*
X163717256Y-75882617D01*
X163782288Y-75868794D01*
X163810101Y-75856411D01*
X163950722Y-75793803D01*
X163950724Y-75793802D01*
X163956752Y-75791118D01*
X164111253Y-75678866D01*
X164147852Y-75638219D01*
X164234621Y-75541852D01*
X164234622Y-75541851D01*
X164239040Y-75536944D01*
X164314053Y-75407018D01*
X164331223Y-75377279D01*
X164331224Y-75377278D01*
X164334527Y-75371556D01*
X164393542Y-75189928D01*
X164413504Y-75000000D01*
X164393542Y-74810072D01*
X164334527Y-74628444D01*
X164302197Y-74572446D01*
X164242341Y-74468774D01*
X164239040Y-74463056D01*
X164207928Y-74428502D01*
X164115675Y-74326045D01*
X164115674Y-74326044D01*
X164111253Y-74321134D01*
X164012157Y-74249136D01*
X163962094Y-74212763D01*
X163962093Y-74212762D01*
X163956752Y-74208882D01*
X163950724Y-74206198D01*
X163950722Y-74206197D01*
X163788319Y-74133891D01*
X163788318Y-74133891D01*
X163782288Y-74131206D01*
X163688888Y-74111353D01*
X163601944Y-74092872D01*
X163601939Y-74092872D01*
X163595487Y-74091500D01*
X163404513Y-74091500D01*
X163398061Y-74092872D01*
X163398056Y-74092872D01*
X163311112Y-74111353D01*
X163217712Y-74131206D01*
X163211682Y-74133891D01*
X163211681Y-74133891D01*
X163049278Y-74206197D01*
X163049276Y-74206198D01*
X163043248Y-74208882D01*
X163037907Y-74212762D01*
X163037906Y-74212763D01*
X162935402Y-74287237D01*
X162888747Y-74321134D01*
X162884332Y-74326037D01*
X162879420Y-74330460D01*
X162878295Y-74329211D01*
X162824986Y-74362051D01*
X162791800Y-74366500D01*
X147814595Y-74366500D01*
X147746474Y-74346498D01*
X147725500Y-74329595D01*
X146947122Y-73551217D01*
X146913096Y-73488905D01*
X146910907Y-73475292D01*
X146894232Y-73316635D01*
X146894232Y-73316633D01*
X146893542Y-73310072D01*
X146834527Y-73128444D01*
X146739040Y-72963056D01*
X146638290Y-72851161D01*
X146615675Y-72826045D01*
X146615674Y-72826044D01*
X146611253Y-72821134D01*
X146456752Y-72708882D01*
X146450724Y-72706198D01*
X146450722Y-72706197D01*
X146288319Y-72633891D01*
X146288318Y-72633891D01*
X146282288Y-72631206D01*
X146188887Y-72611353D01*
X146101944Y-72592872D01*
X146101939Y-72592872D01*
X146095487Y-72591500D01*
X145904513Y-72591500D01*
X145898061Y-72592872D01*
X145898056Y-72592872D01*
X145811113Y-72611353D01*
X145717712Y-72631206D01*
X145711682Y-72633891D01*
X145711681Y-72633891D01*
X145549278Y-72706197D01*
X145549276Y-72706198D01*
X145543248Y-72708882D01*
X145537907Y-72712762D01*
X145537906Y-72712763D01*
X145449061Y-72777313D01*
X145382193Y-72801172D01*
X145313042Y-72785091D01*
X145300939Y-72777313D01*
X145212094Y-72712763D01*
X145212093Y-72712762D01*
X145206752Y-72708882D01*
X145200724Y-72706198D01*
X145200722Y-72706197D01*
X145038319Y-72633891D01*
X145038318Y-72633891D01*
X145032288Y-72631206D01*
X144938887Y-72611353D01*
X144851944Y-72592872D01*
X144851939Y-72592872D01*
X144845487Y-72591500D01*
X144789594Y-72591500D01*
X144721473Y-72571498D01*
X144700499Y-72554595D01*
X143926878Y-71780974D01*
X143892852Y-71718662D01*
X143897917Y-71647847D01*
X143940464Y-71591011D01*
X144006984Y-71566200D01*
X144067222Y-71576772D01*
X144099204Y-71591011D01*
X144217712Y-71643774D01*
X144311112Y-71663627D01*
X144398056Y-71682108D01*
X144398061Y-71682108D01*
X144404513Y-71683480D01*
X144595487Y-71683480D01*
X144601939Y-71682108D01*
X144601944Y-71682108D01*
X144688888Y-71663627D01*
X144782288Y-71643774D01*
X144788319Y-71641089D01*
X144950722Y-71568783D01*
X144950724Y-71568782D01*
X144956752Y-71566098D01*
X145111253Y-71453846D01*
X145239040Y-71311924D01*
X145303486Y-71200301D01*
X145331223Y-71152259D01*
X145331224Y-71152258D01*
X145334527Y-71146536D01*
X145393542Y-70964908D01*
X145397301Y-70929148D01*
X145412814Y-70781545D01*
X145413504Y-70774980D01*
X145405109Y-70695107D01*
X145394232Y-70591615D01*
X145394232Y-70591613D01*
X145393542Y-70585052D01*
X145334527Y-70403424D01*
X145239040Y-70238036D01*
X145185436Y-70178502D01*
X145115675Y-70101025D01*
X145115674Y-70101024D01*
X145111253Y-70096114D01*
X144956752Y-69983862D01*
X144950724Y-69981178D01*
X144950722Y-69981177D01*
X144788319Y-69908871D01*
X144788318Y-69908871D01*
X144782288Y-69906186D01*
X144688887Y-69886333D01*
X144601944Y-69867852D01*
X144601939Y-69867852D01*
X144595487Y-69866480D01*
X144539594Y-69866480D01*
X144471473Y-69846478D01*
X144450499Y-69829575D01*
X142562830Y-67941905D01*
X142528804Y-67879593D01*
X142533869Y-67808777D01*
X142548711Y-67780540D01*
X142590471Y-67720900D01*
X142595944Y-67711421D01*
X142684326Y-67521887D01*
X142688072Y-67511595D01*
X142742196Y-67309599D01*
X142744099Y-67298804D01*
X142762326Y-67090475D01*
X142762326Y-67085000D01*
X143236693Y-67085000D01*
X143255885Y-67304371D01*
X143312880Y-67517076D01*
X143332109Y-67558312D01*
X143403618Y-67711666D01*
X143403621Y-67711671D01*
X143405944Y-67716653D01*
X143532251Y-67897038D01*
X143687962Y-68052749D01*
X143868346Y-68179056D01*
X144067924Y-68272120D01*
X144280629Y-68329115D01*
X144500000Y-68348307D01*
X144719371Y-68329115D01*
X144932076Y-68272120D01*
X145131654Y-68179056D01*
X145312038Y-68052749D01*
X145467749Y-67897038D01*
X145594056Y-67716653D01*
X145596379Y-67711671D01*
X145596382Y-67711666D01*
X145667891Y-67558312D01*
X145687120Y-67517076D01*
X145744115Y-67304371D01*
X145763307Y-67085000D01*
X145744115Y-66865629D01*
X145687120Y-66652924D01*
X145596498Y-66458583D01*
X145596382Y-66458334D01*
X145596379Y-66458329D01*
X145594056Y-66453347D01*
X145562787Y-66408690D01*
X145470908Y-66277473D01*
X145470906Y-66277470D01*
X145467749Y-66272962D01*
X145312038Y-66117251D01*
X145131654Y-65990944D01*
X144932076Y-65897880D01*
X144719371Y-65840885D01*
X144500000Y-65821693D01*
X144280629Y-65840885D01*
X144067924Y-65897880D01*
X143974562Y-65941415D01*
X143873334Y-65988618D01*
X143873329Y-65988621D01*
X143868347Y-65990944D01*
X143863840Y-65994100D01*
X143863838Y-65994101D01*
X143692473Y-66114092D01*
X143692470Y-66114094D01*
X143687962Y-66117251D01*
X143532251Y-66272962D01*
X143529094Y-66277470D01*
X143529092Y-66277473D01*
X143437213Y-66408690D01*
X143405944Y-66453347D01*
X143403621Y-66458329D01*
X143403618Y-66458334D01*
X143403502Y-66458583D01*
X143312880Y-66652924D01*
X143255885Y-66865629D01*
X143236693Y-67085000D01*
X142762326Y-67085000D01*
X142762326Y-67079525D01*
X142744099Y-66871196D01*
X142742196Y-66860401D01*
X142688072Y-66658405D01*
X142684326Y-66648113D01*
X142595946Y-66458583D01*
X142590466Y-66449093D01*
X142561589Y-66407851D01*
X142551113Y-66399477D01*
X142537666Y-66406545D01*
X141859210Y-67085000D01*
X141589095Y-67355116D01*
X141526783Y-67389141D01*
X141455967Y-67384076D01*
X141410905Y-67355115D01*
X141140790Y-67085000D01*
X140461613Y-66405824D01*
X140449839Y-66399394D01*
X140437824Y-66408690D01*
X140409534Y-66449093D01*
X140404054Y-66458583D01*
X140315674Y-66648113D01*
X140311928Y-66658405D01*
X140257804Y-66860401D01*
X140255901Y-66871196D01*
X140237674Y-67079525D01*
X140237674Y-67090475D01*
X140255901Y-67298804D01*
X140257804Y-67309599D01*
X140273292Y-67367400D01*
X140271602Y-67438376D01*
X140231808Y-67497172D01*
X140166544Y-67525120D01*
X140151585Y-67526011D01*
X139848933Y-67526011D01*
X139780812Y-67506009D01*
X139734319Y-67452353D01*
X139724215Y-67382079D01*
X139727227Y-67367399D01*
X139742690Y-67309691D01*
X139742692Y-67309681D01*
X139744115Y-67304371D01*
X139763307Y-67085000D01*
X139744115Y-66865629D01*
X139687120Y-66652924D01*
X139596498Y-66458583D01*
X139596382Y-66458334D01*
X139596379Y-66458329D01*
X139594056Y-66453347D01*
X139562787Y-66408690D01*
X139470908Y-66277473D01*
X139470906Y-66277470D01*
X139467749Y-66272962D01*
X139312038Y-66117251D01*
X139192983Y-66033887D01*
X140814477Y-66033887D01*
X140821545Y-66047334D01*
X141487189Y-66712979D01*
X141501132Y-66720592D01*
X141502966Y-66720461D01*
X141509580Y-66716210D01*
X142179180Y-66046609D01*
X142185607Y-66034839D01*
X142176313Y-66022825D01*
X142135912Y-65994536D01*
X142126416Y-65989053D01*
X141936887Y-65900674D01*
X141926595Y-65896928D01*
X141724599Y-65842804D01*
X141713804Y-65840901D01*
X141505475Y-65822674D01*
X141494525Y-65822674D01*
X141286196Y-65840901D01*
X141275401Y-65842804D01*
X141073405Y-65896928D01*
X141063113Y-65900674D01*
X140873583Y-65989054D01*
X140864093Y-65994534D01*
X140822851Y-66023411D01*
X140814477Y-66033887D01*
X139192983Y-66033887D01*
X139131654Y-65990944D01*
X138932076Y-65897880D01*
X138719371Y-65840885D01*
X138500000Y-65821693D01*
X138280629Y-65840885D01*
X138067924Y-65897880D01*
X137974562Y-65941415D01*
X137873334Y-65988618D01*
X137873329Y-65988621D01*
X137868347Y-65990944D01*
X137863840Y-65994100D01*
X137863838Y-65994101D01*
X137692473Y-66114092D01*
X137692470Y-66114094D01*
X137687962Y-66117251D01*
X137532251Y-66272962D01*
X137529094Y-66277470D01*
X137529092Y-66277473D01*
X137437213Y-66408690D01*
X137405944Y-66453347D01*
X137403621Y-66458329D01*
X137403618Y-66458334D01*
X137403502Y-66458583D01*
X137312880Y-66652924D01*
X137255885Y-66865629D01*
X137236693Y-67085000D01*
X137255885Y-67304371D01*
X137257308Y-67309681D01*
X137257310Y-67309691D01*
X137272773Y-67367399D01*
X137271084Y-67438375D01*
X137231291Y-67497171D01*
X137166027Y-67525120D01*
X137151067Y-67526011D01*
X136848933Y-67526011D01*
X136780812Y-67506009D01*
X136734319Y-67452353D01*
X136724215Y-67382079D01*
X136727227Y-67367399D01*
X136742690Y-67309691D01*
X136742692Y-67309681D01*
X136744115Y-67304371D01*
X136763307Y-67085000D01*
X136744115Y-66865629D01*
X136687120Y-66652924D01*
X136596498Y-66458583D01*
X136596382Y-66458334D01*
X136596379Y-66458329D01*
X136594056Y-66453347D01*
X136562787Y-66408690D01*
X136470908Y-66277473D01*
X136470906Y-66277470D01*
X136467749Y-66272962D01*
X136312038Y-66117251D01*
X136131654Y-65990944D01*
X135932076Y-65897880D01*
X135719371Y-65840885D01*
X135500000Y-65821693D01*
X135280629Y-65840885D01*
X135067924Y-65897880D01*
X134974562Y-65941415D01*
X134873334Y-65988618D01*
X134873329Y-65988621D01*
X134868347Y-65990944D01*
X134863840Y-65994100D01*
X134863838Y-65994101D01*
X134692473Y-66114092D01*
X134692470Y-66114094D01*
X134687962Y-66117251D01*
X134532251Y-66272962D01*
X134529094Y-66277470D01*
X134529092Y-66277473D01*
X134437213Y-66408690D01*
X134405944Y-66453347D01*
X134403621Y-66458329D01*
X134403618Y-66458334D01*
X134403502Y-66458583D01*
X134312880Y-66652924D01*
X134255885Y-66865629D01*
X134236693Y-67085000D01*
X134255885Y-67304371D01*
X134257308Y-67309681D01*
X134257310Y-67309691D01*
X134272773Y-67367399D01*
X134271084Y-67438375D01*
X134231291Y-67497171D01*
X134166027Y-67525120D01*
X134151067Y-67526011D01*
X133889106Y-67526011D01*
X133820985Y-67506009D01*
X133800009Y-67489105D01*
X133768326Y-67457421D01*
X133734302Y-67395108D01*
X133735716Y-67335715D01*
X133742690Y-67309691D01*
X133744115Y-67304371D01*
X133763307Y-67085000D01*
X133744115Y-66865629D01*
X133687120Y-66652924D01*
X133596498Y-66458583D01*
X133596382Y-66458334D01*
X133596379Y-66458329D01*
X133594056Y-66453347D01*
X133562787Y-66408690D01*
X133470908Y-66277473D01*
X133470906Y-66277470D01*
X133467749Y-66272962D01*
X133312038Y-66117251D01*
X133131654Y-65990944D01*
X132932076Y-65897880D01*
X132719371Y-65840885D01*
X132500000Y-65821693D01*
X132280629Y-65840885D01*
X132067924Y-65897880D01*
X131974562Y-65941415D01*
X131873334Y-65988618D01*
X131873329Y-65988621D01*
X131868347Y-65990944D01*
X131863840Y-65994100D01*
X131863838Y-65994101D01*
X131692473Y-66114092D01*
X131692470Y-66114094D01*
X131687962Y-66117251D01*
X131532251Y-66272962D01*
X131529094Y-66277470D01*
X131529092Y-66277473D01*
X131437213Y-66408690D01*
X131405944Y-66453347D01*
X131403621Y-66458329D01*
X131403618Y-66458334D01*
X131403502Y-66458583D01*
X131312880Y-66652924D01*
X131255885Y-66865629D01*
X131236693Y-67085000D01*
X130763307Y-67085000D01*
X130744115Y-66865629D01*
X130687120Y-66652924D01*
X130596498Y-66458583D01*
X130596382Y-66458334D01*
X130596379Y-66458329D01*
X130594056Y-66453347D01*
X130562787Y-66408690D01*
X130470908Y-66277473D01*
X130470906Y-66277470D01*
X130467749Y-66272962D01*
X130312038Y-66117251D01*
X130131654Y-65990944D01*
X129932076Y-65897880D01*
X129719371Y-65840885D01*
X129500000Y-65821693D01*
X129280629Y-65840885D01*
X129067924Y-65897880D01*
X128974562Y-65941415D01*
X128873334Y-65988618D01*
X128873329Y-65988621D01*
X128868347Y-65990944D01*
X128863840Y-65994100D01*
X128863838Y-65994101D01*
X128692473Y-66114092D01*
X128692470Y-66114094D01*
X128687962Y-66117251D01*
X128532251Y-66272962D01*
X128529094Y-66277470D01*
X128529092Y-66277473D01*
X128437213Y-66408690D01*
X128405944Y-66453347D01*
X128403621Y-66458329D01*
X128403618Y-66458334D01*
X128403502Y-66458583D01*
X128312880Y-66652924D01*
X128255885Y-66865629D01*
X128236693Y-67085000D01*
X93758000Y-67085000D01*
X93758000Y-64632096D01*
X128242000Y-64632096D01*
X128242337Y-64638611D01*
X128252256Y-64734203D01*
X128255150Y-64747602D01*
X128306588Y-64901783D01*
X128312762Y-64914962D01*
X128398063Y-65052807D01*
X128407099Y-65064208D01*
X128521830Y-65178739D01*
X128533241Y-65187751D01*
X128671245Y-65272818D01*
X128684423Y-65278962D01*
X128838716Y-65330139D01*
X128852081Y-65333005D01*
X128946439Y-65342672D01*
X128952855Y-65343000D01*
X129227885Y-65343000D01*
X129243124Y-65338525D01*
X129244329Y-65337135D01*
X129246000Y-65329452D01*
X129246000Y-65324885D01*
X129754000Y-65324885D01*
X129758475Y-65340124D01*
X129759865Y-65341329D01*
X129767548Y-65343000D01*
X130047096Y-65343000D01*
X130053611Y-65342663D01*
X130149203Y-65332744D01*
X130162602Y-65329850D01*
X130316783Y-65278412D01*
X130329962Y-65272238D01*
X130467807Y-65186937D01*
X130479208Y-65177901D01*
X130593739Y-65063170D01*
X130602751Y-65051759D01*
X130687818Y-64913755D01*
X130693962Y-64900577D01*
X130745139Y-64746284D01*
X130748005Y-64732919D01*
X130757672Y-64638561D01*
X130758000Y-64632145D01*
X130758000Y-64357115D01*
X130753525Y-64341876D01*
X130752135Y-64340671D01*
X130744452Y-64339000D01*
X129772115Y-64339000D01*
X129756876Y-64343475D01*
X129755671Y-64344865D01*
X129754000Y-64352548D01*
X129754000Y-65324885D01*
X129246000Y-65324885D01*
X129246000Y-64357115D01*
X129241525Y-64341876D01*
X129240135Y-64340671D01*
X129232452Y-64339000D01*
X128260115Y-64339000D01*
X128244876Y-64343475D01*
X128243671Y-64344865D01*
X128242000Y-64352548D01*
X128242000Y-64632096D01*
X93758000Y-64632096D01*
X93758000Y-64085000D01*
X131236693Y-64085000D01*
X131255885Y-64304371D01*
X131312880Y-64517076D01*
X131315205Y-64522061D01*
X131403618Y-64711666D01*
X131403621Y-64711671D01*
X131405944Y-64716653D01*
X131409100Y-64721160D01*
X131409101Y-64721162D01*
X131427615Y-64747602D01*
X131532251Y-64897038D01*
X131687962Y-65052749D01*
X131692471Y-65055906D01*
X131692473Y-65055908D01*
X131704327Y-65064208D01*
X131868346Y-65179056D01*
X132067924Y-65272120D01*
X132280629Y-65329115D01*
X132500000Y-65348307D01*
X132719371Y-65329115D01*
X132932076Y-65272120D01*
X133131654Y-65179056D01*
X133295673Y-65064208D01*
X133307527Y-65055908D01*
X133307529Y-65055906D01*
X133312038Y-65052749D01*
X133467749Y-64897038D01*
X133572386Y-64747602D01*
X133590899Y-64721162D01*
X133590900Y-64721160D01*
X133594056Y-64716653D01*
X133596379Y-64711671D01*
X133596382Y-64711666D01*
X133684795Y-64522061D01*
X133687120Y-64517076D01*
X133744115Y-64304371D01*
X133763307Y-64085000D01*
X134236693Y-64085000D01*
X134255885Y-64304371D01*
X134312880Y-64517076D01*
X134315205Y-64522061D01*
X134403618Y-64711666D01*
X134403621Y-64711671D01*
X134405944Y-64716653D01*
X134409100Y-64721160D01*
X134409101Y-64721162D01*
X134427615Y-64747602D01*
X134532251Y-64897038D01*
X134687962Y-65052749D01*
X134692471Y-65055906D01*
X134692473Y-65055908D01*
X134704327Y-65064208D01*
X134868346Y-65179056D01*
X135067924Y-65272120D01*
X135280629Y-65329115D01*
X135500000Y-65348307D01*
X135719371Y-65329115D01*
X135932076Y-65272120D01*
X136131654Y-65179056D01*
X136295673Y-65064208D01*
X136307527Y-65055908D01*
X136307529Y-65055906D01*
X136312038Y-65052749D01*
X136467749Y-64897038D01*
X136572386Y-64747602D01*
X136590899Y-64721162D01*
X136590900Y-64721160D01*
X136594056Y-64716653D01*
X136596379Y-64711671D01*
X136596382Y-64711666D01*
X136684795Y-64522061D01*
X136687120Y-64517076D01*
X136744115Y-64304371D01*
X136763307Y-64085000D01*
X137236693Y-64085000D01*
X137255885Y-64304371D01*
X137312880Y-64517076D01*
X137315205Y-64522061D01*
X137403618Y-64711666D01*
X137403621Y-64711671D01*
X137405944Y-64716653D01*
X137409100Y-64721160D01*
X137409101Y-64721162D01*
X137427615Y-64747602D01*
X137532251Y-64897038D01*
X137687962Y-65052749D01*
X137692471Y-65055906D01*
X137692473Y-65055908D01*
X137704327Y-65064208D01*
X137868346Y-65179056D01*
X138067924Y-65272120D01*
X138280629Y-65329115D01*
X138500000Y-65348307D01*
X138719371Y-65329115D01*
X138932076Y-65272120D01*
X139131654Y-65179056D01*
X139295673Y-65064208D01*
X139307527Y-65055908D01*
X139307529Y-65055906D01*
X139312038Y-65052749D01*
X139467749Y-64897038D01*
X139572386Y-64747602D01*
X139590899Y-64721162D01*
X139590900Y-64721160D01*
X139594056Y-64716653D01*
X139596379Y-64711671D01*
X139596382Y-64711666D01*
X139684795Y-64522061D01*
X139687120Y-64517076D01*
X139744115Y-64304371D01*
X139763307Y-64085000D01*
X140236693Y-64085000D01*
X140255885Y-64304371D01*
X140312880Y-64517076D01*
X140315205Y-64522061D01*
X140403618Y-64711666D01*
X140403621Y-64711671D01*
X140405944Y-64716653D01*
X140409100Y-64721160D01*
X140409101Y-64721162D01*
X140427615Y-64747602D01*
X140532251Y-64897038D01*
X140687962Y-65052749D01*
X140692471Y-65055906D01*
X140692473Y-65055908D01*
X140704327Y-65064208D01*
X140868346Y-65179056D01*
X141067924Y-65272120D01*
X141280629Y-65329115D01*
X141500000Y-65348307D01*
X141719371Y-65329115D01*
X141932076Y-65272120D01*
X142131654Y-65179056D01*
X142295673Y-65064208D01*
X142307527Y-65055908D01*
X142307529Y-65055906D01*
X142312038Y-65052749D01*
X142467749Y-64897038D01*
X142572386Y-64747602D01*
X142590899Y-64721162D01*
X142590900Y-64721160D01*
X142594056Y-64716653D01*
X142596379Y-64711671D01*
X142596382Y-64711666D01*
X142684795Y-64522061D01*
X142687120Y-64517076D01*
X142744115Y-64304371D01*
X142763307Y-64085000D01*
X143236693Y-64085000D01*
X143255885Y-64304371D01*
X143312880Y-64517076D01*
X143315205Y-64522061D01*
X143403618Y-64711666D01*
X143403621Y-64711671D01*
X143405944Y-64716653D01*
X143409100Y-64721160D01*
X143409101Y-64721162D01*
X143427615Y-64747602D01*
X143532251Y-64897038D01*
X143687962Y-65052749D01*
X143692471Y-65055906D01*
X143692473Y-65055908D01*
X143704327Y-65064208D01*
X143868346Y-65179056D01*
X144067924Y-65272120D01*
X144280629Y-65329115D01*
X144500000Y-65348307D01*
X144719371Y-65329115D01*
X144932076Y-65272120D01*
X145131654Y-65179056D01*
X145295673Y-65064208D01*
X145307527Y-65055908D01*
X145307529Y-65055906D01*
X145312038Y-65052749D01*
X145467749Y-64897038D01*
X145572386Y-64747602D01*
X145590899Y-64721162D01*
X145590900Y-64721160D01*
X145594056Y-64716653D01*
X145596379Y-64711671D01*
X145596382Y-64711666D01*
X145684795Y-64522061D01*
X145687120Y-64517076D01*
X145744115Y-64304371D01*
X145763307Y-64085000D01*
X145744115Y-63865629D01*
X145687120Y-63652924D01*
X145643585Y-63559562D01*
X145596382Y-63458334D01*
X145596379Y-63458329D01*
X145594056Y-63453347D01*
X145590899Y-63448838D01*
X145470908Y-63277473D01*
X145470906Y-63277470D01*
X145467749Y-63272962D01*
X145312038Y-63117251D01*
X145297156Y-63106830D01*
X145232759Y-63061739D01*
X145131654Y-62990944D01*
X144932076Y-62897880D01*
X144719371Y-62840885D01*
X144500000Y-62821693D01*
X144280629Y-62840885D01*
X144067924Y-62897880D01*
X143974562Y-62941415D01*
X143873334Y-62988618D01*
X143873329Y-62988621D01*
X143868347Y-62990944D01*
X143863840Y-62994100D01*
X143863838Y-62994101D01*
X143692473Y-63114092D01*
X143692470Y-63114094D01*
X143687962Y-63117251D01*
X143532251Y-63272962D01*
X143529094Y-63277470D01*
X143529092Y-63277473D01*
X143409101Y-63448838D01*
X143405944Y-63453347D01*
X143403621Y-63458329D01*
X143403618Y-63458334D01*
X143356415Y-63559562D01*
X143312880Y-63652924D01*
X143255885Y-63865629D01*
X143236693Y-64085000D01*
X142763307Y-64085000D01*
X142744115Y-63865629D01*
X142687120Y-63652924D01*
X142643585Y-63559562D01*
X142596382Y-63458334D01*
X142596379Y-63458329D01*
X142594056Y-63453347D01*
X142590899Y-63448838D01*
X142470908Y-63277473D01*
X142470906Y-63277470D01*
X142467749Y-63272962D01*
X142312038Y-63117251D01*
X142297156Y-63106830D01*
X142232759Y-63061739D01*
X142131654Y-62990944D01*
X141932076Y-62897880D01*
X141719371Y-62840885D01*
X141500000Y-62821693D01*
X141280629Y-62840885D01*
X141067924Y-62897880D01*
X140974562Y-62941415D01*
X140873334Y-62988618D01*
X140873329Y-62988621D01*
X140868347Y-62990944D01*
X140863840Y-62994100D01*
X140863838Y-62994101D01*
X140692473Y-63114092D01*
X140692470Y-63114094D01*
X140687962Y-63117251D01*
X140532251Y-63272962D01*
X140529094Y-63277470D01*
X140529092Y-63277473D01*
X140409101Y-63448838D01*
X140405944Y-63453347D01*
X140403621Y-63458329D01*
X140403618Y-63458334D01*
X140356415Y-63559562D01*
X140312880Y-63652924D01*
X140255885Y-63865629D01*
X140236693Y-64085000D01*
X139763307Y-64085000D01*
X139744115Y-63865629D01*
X139687120Y-63652924D01*
X139643585Y-63559562D01*
X139596382Y-63458334D01*
X139596379Y-63458329D01*
X139594056Y-63453347D01*
X139590899Y-63448838D01*
X139470908Y-63277473D01*
X139470906Y-63277470D01*
X139467749Y-63272962D01*
X139312038Y-63117251D01*
X139297156Y-63106830D01*
X139232759Y-63061739D01*
X139131654Y-62990944D01*
X138932076Y-62897880D01*
X138719371Y-62840885D01*
X138500000Y-62821693D01*
X138280629Y-62840885D01*
X138067924Y-62897880D01*
X137974562Y-62941415D01*
X137873334Y-62988618D01*
X137873329Y-62988621D01*
X137868347Y-62990944D01*
X137863840Y-62994100D01*
X137863838Y-62994101D01*
X137692473Y-63114092D01*
X137692470Y-63114094D01*
X137687962Y-63117251D01*
X137532251Y-63272962D01*
X137529094Y-63277470D01*
X137529092Y-63277473D01*
X137409101Y-63448838D01*
X137405944Y-63453347D01*
X137403621Y-63458329D01*
X137403618Y-63458334D01*
X137356415Y-63559562D01*
X137312880Y-63652924D01*
X137255885Y-63865629D01*
X137236693Y-64085000D01*
X136763307Y-64085000D01*
X136744115Y-63865629D01*
X136687120Y-63652924D01*
X136643585Y-63559562D01*
X136596382Y-63458334D01*
X136596379Y-63458329D01*
X136594056Y-63453347D01*
X136590899Y-63448838D01*
X136470908Y-63277473D01*
X136470906Y-63277470D01*
X136467749Y-63272962D01*
X136312038Y-63117251D01*
X136297156Y-63106830D01*
X136232759Y-63061739D01*
X136131654Y-62990944D01*
X135932076Y-62897880D01*
X135719371Y-62840885D01*
X135500000Y-62821693D01*
X135280629Y-62840885D01*
X135067924Y-62897880D01*
X134974562Y-62941415D01*
X134873334Y-62988618D01*
X134873329Y-62988621D01*
X134868347Y-62990944D01*
X134863840Y-62994100D01*
X134863838Y-62994101D01*
X134692473Y-63114092D01*
X134692470Y-63114094D01*
X134687962Y-63117251D01*
X134532251Y-63272962D01*
X134529094Y-63277470D01*
X134529092Y-63277473D01*
X134409101Y-63448838D01*
X134405944Y-63453347D01*
X134403621Y-63458329D01*
X134403618Y-63458334D01*
X134356415Y-63559562D01*
X134312880Y-63652924D01*
X134255885Y-63865629D01*
X134236693Y-64085000D01*
X133763307Y-64085000D01*
X133744115Y-63865629D01*
X133687120Y-63652924D01*
X133643585Y-63559562D01*
X133596382Y-63458334D01*
X133596379Y-63458329D01*
X133594056Y-63453347D01*
X133590899Y-63448838D01*
X133470908Y-63277473D01*
X133470906Y-63277470D01*
X133467749Y-63272962D01*
X133312038Y-63117251D01*
X133297156Y-63106830D01*
X133232759Y-63061739D01*
X133131654Y-62990944D01*
X132932076Y-62897880D01*
X132719371Y-62840885D01*
X132500000Y-62821693D01*
X132280629Y-62840885D01*
X132067924Y-62897880D01*
X131974562Y-62941415D01*
X131873334Y-62988618D01*
X131873329Y-62988621D01*
X131868347Y-62990944D01*
X131863840Y-62994100D01*
X131863838Y-62994101D01*
X131692473Y-63114092D01*
X131692470Y-63114094D01*
X131687962Y-63117251D01*
X131532251Y-63272962D01*
X131529094Y-63277470D01*
X131529092Y-63277473D01*
X131409101Y-63448838D01*
X131405944Y-63453347D01*
X131403621Y-63458329D01*
X131403618Y-63458334D01*
X131356415Y-63559562D01*
X131312880Y-63652924D01*
X131255885Y-63865629D01*
X131236693Y-64085000D01*
X93758000Y-64085000D01*
X93758000Y-63812885D01*
X128242000Y-63812885D01*
X128246475Y-63828124D01*
X128247865Y-63829329D01*
X128255548Y-63831000D01*
X129227885Y-63831000D01*
X129243124Y-63826525D01*
X129244329Y-63825135D01*
X129246000Y-63817452D01*
X129246000Y-63812885D01*
X129754000Y-63812885D01*
X129758475Y-63828124D01*
X129759865Y-63829329D01*
X129767548Y-63831000D01*
X130739885Y-63831000D01*
X130755124Y-63826525D01*
X130756329Y-63825135D01*
X130758000Y-63817452D01*
X130758000Y-63537904D01*
X130757663Y-63531389D01*
X130747744Y-63435797D01*
X130744850Y-63422398D01*
X130693412Y-63268217D01*
X130687238Y-63255038D01*
X130601937Y-63117193D01*
X130592901Y-63105792D01*
X130478170Y-62991261D01*
X130466759Y-62982249D01*
X130328755Y-62897182D01*
X130315577Y-62891038D01*
X130161284Y-62839861D01*
X130147919Y-62836995D01*
X130053561Y-62827328D01*
X130047144Y-62827000D01*
X129772115Y-62827000D01*
X129756876Y-62831475D01*
X129755671Y-62832865D01*
X129754000Y-62840548D01*
X129754000Y-63812885D01*
X129246000Y-63812885D01*
X129246000Y-62845115D01*
X129241525Y-62829876D01*
X129240135Y-62828671D01*
X129232452Y-62827000D01*
X128952904Y-62827000D01*
X128946389Y-62827337D01*
X128850797Y-62837256D01*
X128837398Y-62840150D01*
X128683217Y-62891588D01*
X128670038Y-62897762D01*
X128532193Y-62983063D01*
X128520792Y-62992099D01*
X128406261Y-63106830D01*
X128397249Y-63118241D01*
X128312182Y-63256245D01*
X128306038Y-63269423D01*
X128254861Y-63423716D01*
X128251995Y-63437081D01*
X128242328Y-63531439D01*
X128242000Y-63537856D01*
X128242000Y-63812885D01*
X93758000Y-63812885D01*
X93758000Y-59765000D01*
X125131751Y-59765000D01*
X125150728Y-60054540D01*
X125207336Y-60339125D01*
X125300605Y-60613887D01*
X125428940Y-60874124D01*
X125590145Y-61115384D01*
X125781461Y-61333539D01*
X125999616Y-61524855D01*
X126240875Y-61686060D01*
X126244574Y-61687884D01*
X126244579Y-61687887D01*
X126377999Y-61753682D01*
X126501113Y-61814395D01*
X126505018Y-61815720D01*
X126505019Y-61815721D01*
X126771962Y-61906336D01*
X126771966Y-61906337D01*
X126775875Y-61907664D01*
X126779919Y-61908468D01*
X126779925Y-61908470D01*
X127056421Y-61963469D01*
X127056427Y-61963470D01*
X127060460Y-61964272D01*
X127064565Y-61964541D01*
X127064572Y-61964542D01*
X127345880Y-61982979D01*
X127350000Y-61983249D01*
X127354120Y-61982979D01*
X127635428Y-61964542D01*
X127635435Y-61964541D01*
X127639540Y-61964272D01*
X127643573Y-61963470D01*
X127643579Y-61963469D01*
X127920075Y-61908470D01*
X127920081Y-61908468D01*
X127924125Y-61907664D01*
X127928034Y-61906337D01*
X127928038Y-61906336D01*
X128194981Y-61815721D01*
X128194982Y-61815720D01*
X128198887Y-61814395D01*
X128322001Y-61753682D01*
X128455421Y-61687887D01*
X128455426Y-61687884D01*
X128459125Y-61686060D01*
X128700384Y-61524855D01*
X128918539Y-61333539D01*
X129109855Y-61115384D01*
X129271060Y-60874124D01*
X129399395Y-60613887D01*
X129492664Y-60339125D01*
X129549272Y-60054540D01*
X129568249Y-59765000D01*
X144431751Y-59765000D01*
X144450728Y-60054540D01*
X144507336Y-60339125D01*
X144600605Y-60613887D01*
X144728940Y-60874124D01*
X144890145Y-61115384D01*
X145081461Y-61333539D01*
X145299616Y-61524855D01*
X145540875Y-61686060D01*
X145544574Y-61687884D01*
X145544579Y-61687887D01*
X145677999Y-61753682D01*
X145801113Y-61814395D01*
X145805018Y-61815720D01*
X145805019Y-61815721D01*
X146071962Y-61906336D01*
X146071966Y-61906337D01*
X146075875Y-61907664D01*
X146079919Y-61908468D01*
X146079925Y-61908470D01*
X146356421Y-61963469D01*
X146356427Y-61963470D01*
X146360460Y-61964272D01*
X146364565Y-61964541D01*
X146364572Y-61964542D01*
X146645880Y-61982979D01*
X146650000Y-61983249D01*
X146654120Y-61982979D01*
X146935428Y-61964542D01*
X146935435Y-61964541D01*
X146939540Y-61964272D01*
X146943573Y-61963470D01*
X146943579Y-61963469D01*
X147220075Y-61908470D01*
X147220081Y-61908468D01*
X147224125Y-61907664D01*
X147228034Y-61906337D01*
X147228038Y-61906336D01*
X147494981Y-61815721D01*
X147494982Y-61815720D01*
X147498887Y-61814395D01*
X147622001Y-61753682D01*
X147755421Y-61687887D01*
X147755426Y-61687884D01*
X147759125Y-61686060D01*
X148000384Y-61524855D01*
X148218539Y-61333539D01*
X148409855Y-61115384D01*
X148571060Y-60874124D01*
X148699395Y-60613887D01*
X148792664Y-60339125D01*
X148849272Y-60054540D01*
X148868249Y-59765000D01*
X148849272Y-59475460D01*
X148792664Y-59190875D01*
X148699395Y-58916113D01*
X148571060Y-58655876D01*
X148409855Y-58414616D01*
X148218539Y-58196461D01*
X148000384Y-58005145D01*
X147759125Y-57843940D01*
X147755426Y-57842116D01*
X147755421Y-57842113D01*
X147622001Y-57776318D01*
X147498887Y-57715605D01*
X147494981Y-57714279D01*
X147228038Y-57623664D01*
X147228034Y-57623663D01*
X147224125Y-57622336D01*
X147220081Y-57621532D01*
X147220075Y-57621530D01*
X146943579Y-57566531D01*
X146943573Y-57566530D01*
X146939540Y-57565728D01*
X146935435Y-57565459D01*
X146935428Y-57565458D01*
X146654120Y-57547021D01*
X146650000Y-57546751D01*
X146645880Y-57547021D01*
X146364572Y-57565458D01*
X146364565Y-57565459D01*
X146360460Y-57565728D01*
X146356427Y-57566530D01*
X146356421Y-57566531D01*
X146079925Y-57621530D01*
X146079919Y-57621532D01*
X146075875Y-57622336D01*
X146071966Y-57623663D01*
X146071962Y-57623664D01*
X145805019Y-57714279D01*
X145801113Y-57715605D01*
X145678132Y-57776253D01*
X145544580Y-57842113D01*
X145544575Y-57842116D01*
X145540876Y-57843940D01*
X145299616Y-58005145D01*
X145081461Y-58196461D01*
X144890145Y-58414616D01*
X144728940Y-58655876D01*
X144600605Y-58916113D01*
X144507336Y-59190875D01*
X144450728Y-59475460D01*
X144431751Y-59765000D01*
X129568249Y-59765000D01*
X129549272Y-59475460D01*
X129492664Y-59190875D01*
X129399395Y-58916113D01*
X129271060Y-58655876D01*
X129109855Y-58414616D01*
X128918539Y-58196461D01*
X128700384Y-58005145D01*
X128459125Y-57843940D01*
X128455426Y-57842116D01*
X128455421Y-57842113D01*
X128322001Y-57776318D01*
X128198887Y-57715605D01*
X128194981Y-57714279D01*
X127928038Y-57623664D01*
X127928034Y-57623663D01*
X127924125Y-57622336D01*
X127920081Y-57621532D01*
X127920075Y-57621530D01*
X127643579Y-57566531D01*
X127643573Y-57566530D01*
X127639540Y-57565728D01*
X127635435Y-57565459D01*
X127635428Y-57565458D01*
X127354120Y-57547021D01*
X127350000Y-57546751D01*
X127345880Y-57547021D01*
X127064572Y-57565458D01*
X127064565Y-57565459D01*
X127060460Y-57565728D01*
X127056427Y-57566530D01*
X127056421Y-57566531D01*
X126779925Y-57621530D01*
X126779919Y-57621532D01*
X126775875Y-57622336D01*
X126771966Y-57623663D01*
X126771962Y-57623664D01*
X126505019Y-57714279D01*
X126501113Y-57715605D01*
X126378132Y-57776253D01*
X126244580Y-57842113D01*
X126244575Y-57842116D01*
X126240876Y-57843940D01*
X125999616Y-58005145D01*
X125781461Y-58196461D01*
X125590145Y-58414616D01*
X125428940Y-58655876D01*
X125300605Y-58916113D01*
X125207336Y-59190875D01*
X125150728Y-59475460D01*
X125131751Y-59765000D01*
X93758000Y-59765000D01*
X93758000Y-55284434D01*
X93778002Y-55216313D01*
X93831658Y-55169820D01*
X93884000Y-55158434D01*
X177706000Y-55158434D01*
X177774121Y-55178436D01*
G37*
G04 #@! TD.AperFunction*
M02*
