G04 #@! TF.GenerationSoftware,KiCad,Pcbnew,(6.0.2)*
G04 #@! TF.CreationDate,2022-05-01T22:12:54+09:30*
G04 #@! TF.ProjectId,BSPD,42535044-2e6b-4696-9361-645f70636258,4*
G04 #@! TF.SameCoordinates,Original*
G04 #@! TF.FileFunction,Legend,Top*
G04 #@! TF.FilePolarity,Positive*
%FSLAX46Y46*%
G04 Gerber Fmt 4.6, Leading zero omitted, Abs format (unit mm)*
G04 Created by KiCad (PCBNEW (6.0.2)) date 2022-05-01 22:12:54*
%MOMM*%
%LPD*%
G01*
G04 APERTURE LIST*
%ADD10C,0.120000*%
%ADD11C,0.150000*%
%ADD12C,0.300000*%
%ADD13C,0.200000*%
G04 APERTURE END LIST*
D10*
X105500000Y-113000000D02*
X105750000Y-113250000D01*
X120500000Y-83750000D02*
X120750000Y-83500000D01*
X120250000Y-83500000D02*
X120500000Y-83750000D01*
X120500000Y-83750000D02*
G75*
G03*
X119500000Y-83750000I-500000J0D01*
G01*
X135750000Y-83750000D02*
X136000000Y-83500000D01*
X135750000Y-83750000D02*
G75*
G03*
X134750000Y-83750000I-500000J0D01*
G01*
X135500000Y-83500000D02*
X135750000Y-83750000D01*
X120500000Y-97500000D02*
G75*
G03*
X119500000Y-97500000I-500000J0D01*
G01*
X120500000Y-112325000D02*
X120750000Y-112075000D01*
X120250000Y-112075000D02*
X120500000Y-112325000D01*
X135500000Y-97500000D02*
G75*
G03*
X134500000Y-97500000I-500000J0D01*
G01*
X134500000Y-97500000D02*
X134750000Y-97250000D01*
X120500000Y-112325000D02*
G75*
G03*
X119500000Y-112325000I-500000J0D01*
G01*
X119250000Y-97250000D02*
X119500000Y-97500000D01*
X105000000Y-97250000D02*
X105250000Y-97500000D01*
X134250000Y-97250000D02*
X134500000Y-97500000D01*
X119500000Y-97500000D02*
X119750000Y-97250000D01*
X105250000Y-97500000D02*
X105500000Y-97250000D01*
X105750000Y-113250000D02*
X106000000Y-113000000D01*
X106500000Y-83750000D02*
G75*
G03*
X105500000Y-83750000I-500000J0D01*
G01*
X106750000Y-113250000D02*
G75*
G03*
X105750000Y-113250000I-500000J0D01*
G01*
X106250000Y-97500000D02*
G75*
G03*
X105250000Y-97500000I-500000J0D01*
G01*
X105500000Y-83750000D02*
X105750000Y-83500000D01*
X105250000Y-83500000D02*
X105500000Y-83750000D01*
D11*
X104961904Y-96111904D02*
X104961904Y-95311904D01*
X105266666Y-95311904D01*
X105342857Y-95350000D01*
X105380952Y-95388095D01*
X105419047Y-95464285D01*
X105419047Y-95578571D01*
X105380952Y-95654761D01*
X105342857Y-95692857D01*
X105266666Y-95730952D01*
X104961904Y-95730952D01*
X105914285Y-95311904D02*
X106066666Y-95311904D01*
X106142857Y-95350000D01*
X106219047Y-95426190D01*
X106257142Y-95578571D01*
X106257142Y-95845238D01*
X106219047Y-95997619D01*
X106142857Y-96073809D01*
X106066666Y-96111904D01*
X105914285Y-96111904D01*
X105838095Y-96073809D01*
X105761904Y-95997619D01*
X105723809Y-95845238D01*
X105723809Y-95578571D01*
X105761904Y-95426190D01*
X105838095Y-95350000D01*
X105914285Y-95311904D01*
X106523809Y-95311904D02*
X106714285Y-96111904D01*
X106866666Y-95540476D01*
X107019047Y-96111904D01*
X107209523Y-95311904D01*
X107514285Y-95692857D02*
X107780952Y-95692857D01*
X107895238Y-96111904D02*
X107514285Y-96111904D01*
X107514285Y-95311904D01*
X107895238Y-95311904D01*
X108695238Y-96111904D02*
X108428571Y-95730952D01*
X108238095Y-96111904D02*
X108238095Y-95311904D01*
X108542857Y-95311904D01*
X108619047Y-95350000D01*
X108657142Y-95388095D01*
X108695238Y-95464285D01*
X108695238Y-95578571D01*
X108657142Y-95654761D01*
X108619047Y-95692857D01*
X108542857Y-95730952D01*
X108238095Y-95730952D01*
X109609523Y-96073809D02*
X109723809Y-96111904D01*
X109914285Y-96111904D01*
X109990476Y-96073809D01*
X110028571Y-96035714D01*
X110066666Y-95959523D01*
X110066666Y-95883333D01*
X110028571Y-95807142D01*
X109990476Y-95769047D01*
X109914285Y-95730952D01*
X109761904Y-95692857D01*
X109685714Y-95654761D01*
X109647619Y-95616666D01*
X109609523Y-95540476D01*
X109609523Y-95464285D01*
X109647619Y-95388095D01*
X109685714Y-95350000D01*
X109761904Y-95311904D01*
X109952380Y-95311904D01*
X110066666Y-95350000D01*
X110409523Y-96111904D02*
X110409523Y-95311904D01*
X111209523Y-95350000D02*
X111133333Y-95311904D01*
X111019047Y-95311904D01*
X110904761Y-95350000D01*
X110828571Y-95426190D01*
X110790476Y-95502380D01*
X110752380Y-95654761D01*
X110752380Y-95769047D01*
X110790476Y-95921428D01*
X110828571Y-95997619D01*
X110904761Y-96073809D01*
X111019047Y-96111904D01*
X111095238Y-96111904D01*
X111209523Y-96073809D01*
X111247619Y-96035714D01*
X111247619Y-95769047D01*
X111095238Y-95769047D01*
X112200000Y-96111904D02*
X112200000Y-95311904D01*
X112200000Y-95692857D02*
X112657142Y-95692857D01*
X112657142Y-96111904D02*
X112657142Y-95311904D01*
X113038095Y-96111904D02*
X113038095Y-95311904D01*
X121592857Y-84035714D02*
X121554761Y-84073809D01*
X121440476Y-84111904D01*
X121364285Y-84111904D01*
X121250000Y-84073809D01*
X121173809Y-83997619D01*
X121135714Y-83921428D01*
X121097619Y-83769047D01*
X121097619Y-83654761D01*
X121135714Y-83502380D01*
X121173809Y-83426190D01*
X121250000Y-83350000D01*
X121364285Y-83311904D01*
X121440476Y-83311904D01*
X121554761Y-83350000D01*
X121592857Y-83388095D01*
X122278571Y-83578571D02*
X122278571Y-84111904D01*
X121935714Y-83578571D02*
X121935714Y-83997619D01*
X121973809Y-84073809D01*
X122050000Y-84111904D01*
X122164285Y-84111904D01*
X122240476Y-84073809D01*
X122278571Y-84035714D01*
X122545238Y-83578571D02*
X122850000Y-83578571D01*
X122659523Y-83311904D02*
X122659523Y-83997619D01*
X122697619Y-84073809D01*
X122773809Y-84111904D01*
X122850000Y-84111904D01*
X123230952Y-84111904D02*
X123154761Y-84073809D01*
X123116666Y-84035714D01*
X123078571Y-83959523D01*
X123078571Y-83730952D01*
X123116666Y-83654761D01*
X123154761Y-83616666D01*
X123230952Y-83578571D01*
X123345238Y-83578571D01*
X123421428Y-83616666D01*
X123459523Y-83654761D01*
X123497619Y-83730952D01*
X123497619Y-83959523D01*
X123459523Y-84035714D01*
X123421428Y-84073809D01*
X123345238Y-84111904D01*
X123230952Y-84111904D01*
X123726190Y-83578571D02*
X124030952Y-83578571D01*
X123840476Y-84111904D02*
X123840476Y-83426190D01*
X123878571Y-83350000D01*
X123954761Y-83311904D01*
X124030952Y-83311904D01*
X124183333Y-83578571D02*
X124488095Y-83578571D01*
X124297619Y-84111904D02*
X124297619Y-83426190D01*
X124335714Y-83350000D01*
X124411904Y-83311904D01*
X124488095Y-83311904D01*
X124754761Y-83807142D02*
X125364285Y-83807142D01*
X125059523Y-84111904D02*
X125059523Y-83502380D01*
X136842857Y-84035714D02*
X136804761Y-84073809D01*
X136690476Y-84111904D01*
X136614285Y-84111904D01*
X136500000Y-84073809D01*
X136423809Y-83997619D01*
X136385714Y-83921428D01*
X136347619Y-83769047D01*
X136347619Y-83654761D01*
X136385714Y-83502380D01*
X136423809Y-83426190D01*
X136500000Y-83350000D01*
X136614285Y-83311904D01*
X136690476Y-83311904D01*
X136804761Y-83350000D01*
X136842857Y-83388095D01*
X137528571Y-83578571D02*
X137528571Y-84111904D01*
X137185714Y-83578571D02*
X137185714Y-83997619D01*
X137223809Y-84073809D01*
X137300000Y-84111904D01*
X137414285Y-84111904D01*
X137490476Y-84073809D01*
X137528571Y-84035714D01*
X137795238Y-83578571D02*
X138100000Y-83578571D01*
X137909523Y-83311904D02*
X137909523Y-83997619D01*
X137947619Y-84073809D01*
X138023809Y-84111904D01*
X138100000Y-84111904D01*
X138480952Y-84111904D02*
X138404761Y-84073809D01*
X138366666Y-84035714D01*
X138328571Y-83959523D01*
X138328571Y-83730952D01*
X138366666Y-83654761D01*
X138404761Y-83616666D01*
X138480952Y-83578571D01*
X138595238Y-83578571D01*
X138671428Y-83616666D01*
X138709523Y-83654761D01*
X138747619Y-83730952D01*
X138747619Y-83959523D01*
X138709523Y-84035714D01*
X138671428Y-84073809D01*
X138595238Y-84111904D01*
X138480952Y-84111904D01*
X138976190Y-83578571D02*
X139280952Y-83578571D01*
X139090476Y-84111904D02*
X139090476Y-83426190D01*
X139128571Y-83350000D01*
X139204761Y-83311904D01*
X139280952Y-83311904D01*
X139433333Y-83578571D02*
X139738095Y-83578571D01*
X139547619Y-84111904D02*
X139547619Y-83426190D01*
X139585714Y-83350000D01*
X139661904Y-83311904D01*
X139738095Y-83311904D01*
X140004761Y-83807142D02*
X140614285Y-83807142D01*
X140309523Y-84111904D02*
X140309523Y-83502380D01*
X136592857Y-97785714D02*
X136554761Y-97823809D01*
X136440476Y-97861904D01*
X136364285Y-97861904D01*
X136250000Y-97823809D01*
X136173809Y-97747619D01*
X136135714Y-97671428D01*
X136097619Y-97519047D01*
X136097619Y-97404761D01*
X136135714Y-97252380D01*
X136173809Y-97176190D01*
X136250000Y-97100000D01*
X136364285Y-97061904D01*
X136440476Y-97061904D01*
X136554761Y-97100000D01*
X136592857Y-97138095D01*
X137278571Y-97328571D02*
X137278571Y-97861904D01*
X136935714Y-97328571D02*
X136935714Y-97747619D01*
X136973809Y-97823809D01*
X137050000Y-97861904D01*
X137164285Y-97861904D01*
X137240476Y-97823809D01*
X137278571Y-97785714D01*
X137545238Y-97328571D02*
X137850000Y-97328571D01*
X137659523Y-97061904D02*
X137659523Y-97747619D01*
X137697619Y-97823809D01*
X137773809Y-97861904D01*
X137850000Y-97861904D01*
X138230952Y-97861904D02*
X138154761Y-97823809D01*
X138116666Y-97785714D01*
X138078571Y-97709523D01*
X138078571Y-97480952D01*
X138116666Y-97404761D01*
X138154761Y-97366666D01*
X138230952Y-97328571D01*
X138345238Y-97328571D01*
X138421428Y-97366666D01*
X138459523Y-97404761D01*
X138497619Y-97480952D01*
X138497619Y-97709523D01*
X138459523Y-97785714D01*
X138421428Y-97823809D01*
X138345238Y-97861904D01*
X138230952Y-97861904D01*
X138726190Y-97328571D02*
X139030952Y-97328571D01*
X138840476Y-97861904D02*
X138840476Y-97176190D01*
X138878571Y-97100000D01*
X138954761Y-97061904D01*
X139030952Y-97061904D01*
X139183333Y-97328571D02*
X139488095Y-97328571D01*
X139297619Y-97861904D02*
X139297619Y-97176190D01*
X139335714Y-97100000D01*
X139411904Y-97061904D01*
X139488095Y-97061904D01*
X139754761Y-97557142D02*
X140364285Y-97557142D01*
X140059523Y-97861904D02*
X140059523Y-97252380D01*
X119835714Y-110936904D02*
X119569047Y-110555952D01*
X119378571Y-110936904D02*
X119378571Y-110136904D01*
X119683333Y-110136904D01*
X119759523Y-110175000D01*
X119797619Y-110213095D01*
X119835714Y-110289285D01*
X119835714Y-110403571D01*
X119797619Y-110479761D01*
X119759523Y-110517857D01*
X119683333Y-110555952D01*
X119378571Y-110555952D01*
X120635714Y-110860714D02*
X120597619Y-110898809D01*
X120483333Y-110936904D01*
X120407142Y-110936904D01*
X120292857Y-110898809D01*
X120216666Y-110822619D01*
X120178571Y-110746428D01*
X120140476Y-110594047D01*
X120140476Y-110479761D01*
X120178571Y-110327380D01*
X120216666Y-110251190D01*
X120292857Y-110175000D01*
X120407142Y-110136904D01*
X120483333Y-110136904D01*
X120597619Y-110175000D01*
X120635714Y-110213095D01*
X121473809Y-110136904D02*
X121930952Y-110136904D01*
X121702380Y-110936904D02*
X121702380Y-110136904D01*
X122654761Y-110936904D02*
X122388095Y-110555952D01*
X122197619Y-110936904D02*
X122197619Y-110136904D01*
X122502380Y-110136904D01*
X122578571Y-110175000D01*
X122616666Y-110213095D01*
X122654761Y-110289285D01*
X122654761Y-110403571D01*
X122616666Y-110479761D01*
X122578571Y-110517857D01*
X122502380Y-110555952D01*
X122197619Y-110555952D01*
X122997619Y-110936904D02*
X122997619Y-110136904D01*
X123797619Y-110175000D02*
X123721428Y-110136904D01*
X123607142Y-110136904D01*
X123492857Y-110175000D01*
X123416666Y-110251190D01*
X123378571Y-110327380D01*
X123340476Y-110479761D01*
X123340476Y-110594047D01*
X123378571Y-110746428D01*
X123416666Y-110822619D01*
X123492857Y-110898809D01*
X123607142Y-110936904D01*
X123683333Y-110936904D01*
X123797619Y-110898809D01*
X123835714Y-110860714D01*
X123835714Y-110594047D01*
X123683333Y-110594047D01*
X124597619Y-110175000D02*
X124521428Y-110136904D01*
X124407142Y-110136904D01*
X124292857Y-110175000D01*
X124216666Y-110251190D01*
X124178571Y-110327380D01*
X124140476Y-110479761D01*
X124140476Y-110594047D01*
X124178571Y-110746428D01*
X124216666Y-110822619D01*
X124292857Y-110898809D01*
X124407142Y-110936904D01*
X124483333Y-110936904D01*
X124597619Y-110898809D01*
X124635714Y-110860714D01*
X124635714Y-110594047D01*
X124483333Y-110594047D01*
X124978571Y-110517857D02*
X125245238Y-110517857D01*
X125359523Y-110936904D02*
X124978571Y-110936904D01*
X124978571Y-110136904D01*
X125359523Y-110136904D01*
X126159523Y-110936904D02*
X125892857Y-110555952D01*
X125702380Y-110936904D02*
X125702380Y-110136904D01*
X126007142Y-110136904D01*
X126083333Y-110175000D01*
X126121428Y-110213095D01*
X126159523Y-110289285D01*
X126159523Y-110403571D01*
X126121428Y-110479761D01*
X126083333Y-110517857D01*
X126007142Y-110555952D01*
X125702380Y-110555952D01*
X121592857Y-112610714D02*
X121554761Y-112648809D01*
X121440476Y-112686904D01*
X121364285Y-112686904D01*
X121250000Y-112648809D01*
X121173809Y-112572619D01*
X121135714Y-112496428D01*
X121097619Y-112344047D01*
X121097619Y-112229761D01*
X121135714Y-112077380D01*
X121173809Y-112001190D01*
X121250000Y-111925000D01*
X121364285Y-111886904D01*
X121440476Y-111886904D01*
X121554761Y-111925000D01*
X121592857Y-111963095D01*
X122278571Y-112153571D02*
X122278571Y-112686904D01*
X121935714Y-112153571D02*
X121935714Y-112572619D01*
X121973809Y-112648809D01*
X122050000Y-112686904D01*
X122164285Y-112686904D01*
X122240476Y-112648809D01*
X122278571Y-112610714D01*
X122545238Y-112153571D02*
X122850000Y-112153571D01*
X122659523Y-111886904D02*
X122659523Y-112572619D01*
X122697619Y-112648809D01*
X122773809Y-112686904D01*
X122850000Y-112686904D01*
X123230952Y-112686904D02*
X123154761Y-112648809D01*
X123116666Y-112610714D01*
X123078571Y-112534523D01*
X123078571Y-112305952D01*
X123116666Y-112229761D01*
X123154761Y-112191666D01*
X123230952Y-112153571D01*
X123345238Y-112153571D01*
X123421428Y-112191666D01*
X123459523Y-112229761D01*
X123497619Y-112305952D01*
X123497619Y-112534523D01*
X123459523Y-112610714D01*
X123421428Y-112648809D01*
X123345238Y-112686904D01*
X123230952Y-112686904D01*
X123726190Y-112153571D02*
X124030952Y-112153571D01*
X123840476Y-112686904D02*
X123840476Y-112001190D01*
X123878571Y-111925000D01*
X123954761Y-111886904D01*
X124030952Y-111886904D01*
X124183333Y-112153571D02*
X124488095Y-112153571D01*
X124297619Y-112686904D02*
X124297619Y-112001190D01*
X124335714Y-111925000D01*
X124411904Y-111886904D01*
X124488095Y-111886904D01*
X124754761Y-112382142D02*
X125364285Y-112382142D01*
X125059523Y-112686904D02*
X125059523Y-112077380D01*
X121592857Y-97785714D02*
X121554761Y-97823809D01*
X121440476Y-97861904D01*
X121364285Y-97861904D01*
X121250000Y-97823809D01*
X121173809Y-97747619D01*
X121135714Y-97671428D01*
X121097619Y-97519047D01*
X121097619Y-97404761D01*
X121135714Y-97252380D01*
X121173809Y-97176190D01*
X121250000Y-97100000D01*
X121364285Y-97061904D01*
X121440476Y-97061904D01*
X121554761Y-97100000D01*
X121592857Y-97138095D01*
X122278571Y-97328571D02*
X122278571Y-97861904D01*
X121935714Y-97328571D02*
X121935714Y-97747619D01*
X121973809Y-97823809D01*
X122050000Y-97861904D01*
X122164285Y-97861904D01*
X122240476Y-97823809D01*
X122278571Y-97785714D01*
X122545238Y-97328571D02*
X122850000Y-97328571D01*
X122659523Y-97061904D02*
X122659523Y-97747619D01*
X122697619Y-97823809D01*
X122773809Y-97861904D01*
X122850000Y-97861904D01*
X123230952Y-97861904D02*
X123154761Y-97823809D01*
X123116666Y-97785714D01*
X123078571Y-97709523D01*
X123078571Y-97480952D01*
X123116666Y-97404761D01*
X123154761Y-97366666D01*
X123230952Y-97328571D01*
X123345238Y-97328571D01*
X123421428Y-97366666D01*
X123459523Y-97404761D01*
X123497619Y-97480952D01*
X123497619Y-97709523D01*
X123459523Y-97785714D01*
X123421428Y-97823809D01*
X123345238Y-97861904D01*
X123230952Y-97861904D01*
X123726190Y-97328571D02*
X124030952Y-97328571D01*
X123840476Y-97861904D02*
X123840476Y-97176190D01*
X123878571Y-97100000D01*
X123954761Y-97061904D01*
X124030952Y-97061904D01*
X124183333Y-97328571D02*
X124488095Y-97328571D01*
X124297619Y-97861904D02*
X124297619Y-97176190D01*
X124335714Y-97100000D01*
X124411904Y-97061904D01*
X124488095Y-97061904D01*
X124754761Y-97557142D02*
X125364285Y-97557142D01*
X125059523Y-97861904D02*
X125059523Y-97252380D01*
X133978571Y-81942857D02*
X134092857Y-81980952D01*
X134130952Y-82019047D01*
X134169047Y-82095238D01*
X134169047Y-82209523D01*
X134130952Y-82285714D01*
X134092857Y-82323809D01*
X134016666Y-82361904D01*
X133711904Y-82361904D01*
X133711904Y-81561904D01*
X133978571Y-81561904D01*
X134054761Y-81600000D01*
X134092857Y-81638095D01*
X134130952Y-81714285D01*
X134130952Y-81790476D01*
X134092857Y-81866666D01*
X134054761Y-81904761D01*
X133978571Y-81942857D01*
X133711904Y-81942857D01*
X134969047Y-82361904D02*
X134702380Y-81980952D01*
X134511904Y-82361904D02*
X134511904Y-81561904D01*
X134816666Y-81561904D01*
X134892857Y-81600000D01*
X134930952Y-81638095D01*
X134969047Y-81714285D01*
X134969047Y-81828571D01*
X134930952Y-81904761D01*
X134892857Y-81942857D01*
X134816666Y-81980952D01*
X134511904Y-81980952D01*
X135273809Y-82133333D02*
X135654761Y-82133333D01*
X135197619Y-82361904D02*
X135464285Y-81561904D01*
X135730952Y-82361904D01*
X135997619Y-82361904D02*
X135997619Y-81561904D01*
X136454761Y-82361904D02*
X136111904Y-81904761D01*
X136454761Y-81561904D02*
X135997619Y-82019047D01*
X136797619Y-81942857D02*
X137064285Y-81942857D01*
X137178571Y-82361904D02*
X136797619Y-82361904D01*
X136797619Y-81561904D01*
X137178571Y-81561904D01*
X138092857Y-82323809D02*
X138207142Y-82361904D01*
X138397619Y-82361904D01*
X138473809Y-82323809D01*
X138511904Y-82285714D01*
X138550000Y-82209523D01*
X138550000Y-82133333D01*
X138511904Y-82057142D01*
X138473809Y-82019047D01*
X138397619Y-81980952D01*
X138245238Y-81942857D01*
X138169047Y-81904761D01*
X138130952Y-81866666D01*
X138092857Y-81790476D01*
X138092857Y-81714285D01*
X138130952Y-81638095D01*
X138169047Y-81600000D01*
X138245238Y-81561904D01*
X138435714Y-81561904D01*
X138550000Y-81600000D01*
X138892857Y-82361904D02*
X138892857Y-81561904D01*
X139692857Y-81600000D02*
X139616666Y-81561904D01*
X139502380Y-81561904D01*
X139388095Y-81600000D01*
X139311904Y-81676190D01*
X139273809Y-81752380D01*
X139235714Y-81904761D01*
X139235714Y-82019047D01*
X139273809Y-82171428D01*
X139311904Y-82247619D01*
X139388095Y-82323809D01*
X139502380Y-82361904D01*
X139578571Y-82361904D01*
X139692857Y-82323809D01*
X139730952Y-82285714D01*
X139730952Y-82019047D01*
X139578571Y-82019047D01*
X141064285Y-82361904D02*
X140683333Y-82361904D01*
X140683333Y-81561904D01*
X141483333Y-81561904D02*
X141635714Y-81561904D01*
X141711904Y-81600000D01*
X141788095Y-81676190D01*
X141826190Y-81828571D01*
X141826190Y-82095238D01*
X141788095Y-82247619D01*
X141711904Y-82323809D01*
X141635714Y-82361904D01*
X141483333Y-82361904D01*
X141407142Y-82323809D01*
X141330952Y-82247619D01*
X141292857Y-82095238D01*
X141292857Y-81828571D01*
X141330952Y-81676190D01*
X141407142Y-81600000D01*
X141483333Y-81561904D01*
D12*
X137392857Y-102972857D02*
X137607142Y-103044285D01*
X137678571Y-103115714D01*
X137750000Y-103258571D01*
X137750000Y-103472857D01*
X137678571Y-103615714D01*
X137607142Y-103687142D01*
X137464285Y-103758571D01*
X136892857Y-103758571D01*
X136892857Y-102258571D01*
X137392857Y-102258571D01*
X137535714Y-102330000D01*
X137607142Y-102401428D01*
X137678571Y-102544285D01*
X137678571Y-102687142D01*
X137607142Y-102830000D01*
X137535714Y-102901428D01*
X137392857Y-102972857D01*
X136892857Y-102972857D01*
X138321428Y-103687142D02*
X138535714Y-103758571D01*
X138892857Y-103758571D01*
X139035714Y-103687142D01*
X139107142Y-103615714D01*
X139178571Y-103472857D01*
X139178571Y-103330000D01*
X139107142Y-103187142D01*
X139035714Y-103115714D01*
X138892857Y-103044285D01*
X138607142Y-102972857D01*
X138464285Y-102901428D01*
X138392857Y-102830000D01*
X138321428Y-102687142D01*
X138321428Y-102544285D01*
X138392857Y-102401428D01*
X138464285Y-102330000D01*
X138607142Y-102258571D01*
X138964285Y-102258571D01*
X139178571Y-102330000D01*
X139821428Y-103758571D02*
X139821428Y-102258571D01*
X140392857Y-102258571D01*
X140535714Y-102330000D01*
X140607142Y-102401428D01*
X140678571Y-102544285D01*
X140678571Y-102758571D01*
X140607142Y-102901428D01*
X140535714Y-102972857D01*
X140392857Y-103044285D01*
X139821428Y-103044285D01*
X141321428Y-103758571D02*
X141321428Y-102258571D01*
X141678571Y-102258571D01*
X141892857Y-102330000D01*
X142035714Y-102472857D01*
X142107142Y-102615714D01*
X142178571Y-102901428D01*
X142178571Y-103115714D01*
X142107142Y-103401428D01*
X142035714Y-103544285D01*
X141892857Y-103687142D01*
X141678571Y-103758571D01*
X141321428Y-103758571D01*
X138464285Y-106173571D02*
X138464285Y-105387857D01*
X138392857Y-105245000D01*
X138250000Y-105173571D01*
X137964285Y-105173571D01*
X137821428Y-105245000D01*
X138464285Y-106102142D02*
X138321428Y-106173571D01*
X137964285Y-106173571D01*
X137821428Y-106102142D01*
X137750000Y-105959285D01*
X137750000Y-105816428D01*
X137821428Y-105673571D01*
X137964285Y-105602142D01*
X138321428Y-105602142D01*
X138464285Y-105530714D01*
X139178571Y-105173571D02*
X139178571Y-106173571D01*
X139178571Y-105316428D02*
X139250000Y-105245000D01*
X139392857Y-105173571D01*
X139607142Y-105173571D01*
X139750000Y-105245000D01*
X139821428Y-105387857D01*
X139821428Y-106173571D01*
X141178571Y-106173571D02*
X141178571Y-104673571D01*
X141178571Y-106102142D02*
X141035714Y-106173571D01*
X140750000Y-106173571D01*
X140607142Y-106102142D01*
X140535714Y-106030714D01*
X140464285Y-105887857D01*
X140464285Y-105459285D01*
X140535714Y-105316428D01*
X140607142Y-105245000D01*
X140750000Y-105173571D01*
X141035714Y-105173571D01*
X141178571Y-105245000D01*
X131071428Y-107802857D02*
X131285714Y-107874285D01*
X131357142Y-107945714D01*
X131428571Y-108088571D01*
X131428571Y-108302857D01*
X131357142Y-108445714D01*
X131285714Y-108517142D01*
X131142857Y-108588571D01*
X130571428Y-108588571D01*
X130571428Y-107088571D01*
X131071428Y-107088571D01*
X131214285Y-107160000D01*
X131285714Y-107231428D01*
X131357142Y-107374285D01*
X131357142Y-107517142D01*
X131285714Y-107660000D01*
X131214285Y-107731428D01*
X131071428Y-107802857D01*
X130571428Y-107802857D01*
X132071428Y-108588571D02*
X132071428Y-107588571D01*
X132071428Y-107874285D02*
X132142857Y-107731428D01*
X132214285Y-107660000D01*
X132357142Y-107588571D01*
X132500000Y-107588571D01*
X133642857Y-108588571D02*
X133642857Y-107802857D01*
X133571428Y-107660000D01*
X133428571Y-107588571D01*
X133142857Y-107588571D01*
X133000000Y-107660000D01*
X133642857Y-108517142D02*
X133500000Y-108588571D01*
X133142857Y-108588571D01*
X133000000Y-108517142D01*
X132928571Y-108374285D01*
X132928571Y-108231428D01*
X133000000Y-108088571D01*
X133142857Y-108017142D01*
X133500000Y-108017142D01*
X133642857Y-107945714D01*
X134357142Y-108588571D02*
X134357142Y-107088571D01*
X134500000Y-108017142D02*
X134928571Y-108588571D01*
X134928571Y-107588571D02*
X134357142Y-108160000D01*
X136142857Y-108517142D02*
X136000000Y-108588571D01*
X135714285Y-108588571D01*
X135571428Y-108517142D01*
X135500000Y-108374285D01*
X135500000Y-107802857D01*
X135571428Y-107660000D01*
X135714285Y-107588571D01*
X136000000Y-107588571D01*
X136142857Y-107660000D01*
X136214285Y-107802857D01*
X136214285Y-107945714D01*
X135500000Y-108088571D01*
X138714285Y-108588571D02*
X138000000Y-108588571D01*
X138000000Y-107088571D01*
X139214285Y-108588571D02*
X139214285Y-107588571D01*
X139214285Y-107088571D02*
X139142857Y-107160000D01*
X139214285Y-107231428D01*
X139285714Y-107160000D01*
X139214285Y-107088571D01*
X139214285Y-107231428D01*
X140571428Y-107588571D02*
X140571428Y-108802857D01*
X140500000Y-108945714D01*
X140428571Y-109017142D01*
X140285714Y-109088571D01*
X140071428Y-109088571D01*
X139928571Y-109017142D01*
X140571428Y-108517142D02*
X140428571Y-108588571D01*
X140142857Y-108588571D01*
X140000000Y-108517142D01*
X139928571Y-108445714D01*
X139857142Y-108302857D01*
X139857142Y-107874285D01*
X139928571Y-107731428D01*
X140000000Y-107660000D01*
X140142857Y-107588571D01*
X140428571Y-107588571D01*
X140571428Y-107660000D01*
X141285714Y-108588571D02*
X141285714Y-107088571D01*
X141928571Y-108588571D02*
X141928571Y-107802857D01*
X141857142Y-107660000D01*
X141714285Y-107588571D01*
X141500000Y-107588571D01*
X141357142Y-107660000D01*
X141285714Y-107731428D01*
X142428571Y-107588571D02*
X143000000Y-107588571D01*
X142642857Y-107088571D02*
X142642857Y-108374285D01*
X142714285Y-108517142D01*
X142857142Y-108588571D01*
X143000000Y-108588571D01*
X144642857Y-108588571D02*
X144642857Y-107088571D01*
X145214285Y-107088571D01*
X145357142Y-107160000D01*
X145428571Y-107231428D01*
X145500000Y-107374285D01*
X145500000Y-107588571D01*
X145428571Y-107731428D01*
X145357142Y-107802857D01*
X145214285Y-107874285D01*
X144642857Y-107874285D01*
X147000000Y-108445714D02*
X146928571Y-108517142D01*
X146714285Y-108588571D01*
X146571428Y-108588571D01*
X146357142Y-108517142D01*
X146214285Y-108374285D01*
X146142857Y-108231428D01*
X146071428Y-107945714D01*
X146071428Y-107731428D01*
X146142857Y-107445714D01*
X146214285Y-107302857D01*
X146357142Y-107160000D01*
X146571428Y-107088571D01*
X146714285Y-107088571D01*
X146928571Y-107160000D01*
X147000000Y-107231428D01*
X148142857Y-107802857D02*
X148357142Y-107874285D01*
X148428571Y-107945714D01*
X148500000Y-108088571D01*
X148500000Y-108302857D01*
X148428571Y-108445714D01*
X148357142Y-108517142D01*
X148214285Y-108588571D01*
X147642857Y-108588571D01*
X147642857Y-107088571D01*
X148142857Y-107088571D01*
X148285714Y-107160000D01*
X148357142Y-107231428D01*
X148428571Y-107374285D01*
X148428571Y-107517142D01*
X148357142Y-107660000D01*
X148285714Y-107731428D01*
X148142857Y-107802857D01*
X147642857Y-107802857D01*
X137214285Y-109503571D02*
X137714285Y-111003571D01*
X138214285Y-109503571D01*
X138642857Y-109646428D02*
X138714285Y-109575000D01*
X138857142Y-109503571D01*
X139214285Y-109503571D01*
X139357142Y-109575000D01*
X139428571Y-109646428D01*
X139500000Y-109789285D01*
X139500000Y-109932142D01*
X139428571Y-110146428D01*
X138571428Y-111003571D01*
X139500000Y-111003571D01*
X140142857Y-110860714D02*
X140214285Y-110932142D01*
X140142857Y-111003571D01*
X140071428Y-110932142D01*
X140142857Y-110860714D01*
X140142857Y-111003571D01*
X141642857Y-111003571D02*
X140785714Y-111003571D01*
X141214285Y-111003571D02*
X141214285Y-109503571D01*
X141071428Y-109717857D01*
X140928571Y-109860714D01*
X140785714Y-109932142D01*
X136928571Y-112061428D02*
X137000000Y-111990000D01*
X137142857Y-111918571D01*
X137500000Y-111918571D01*
X137642857Y-111990000D01*
X137714285Y-112061428D01*
X137785714Y-112204285D01*
X137785714Y-112347142D01*
X137714285Y-112561428D01*
X136857142Y-113418571D01*
X137785714Y-113418571D01*
X138714285Y-111918571D02*
X138857142Y-111918571D01*
X139000000Y-111990000D01*
X139071428Y-112061428D01*
X139142857Y-112204285D01*
X139214285Y-112490000D01*
X139214285Y-112847142D01*
X139142857Y-113132857D01*
X139071428Y-113275714D01*
X139000000Y-113347142D01*
X138857142Y-113418571D01*
X138714285Y-113418571D01*
X138571428Y-113347142D01*
X138500000Y-113275714D01*
X138428571Y-113132857D01*
X138357142Y-112847142D01*
X138357142Y-112490000D01*
X138428571Y-112204285D01*
X138500000Y-112061428D01*
X138571428Y-111990000D01*
X138714285Y-111918571D01*
X139785714Y-112061428D02*
X139857142Y-111990000D01*
X140000000Y-111918571D01*
X140357142Y-111918571D01*
X140500000Y-111990000D01*
X140571428Y-112061428D01*
X140642857Y-112204285D01*
X140642857Y-112347142D01*
X140571428Y-112561428D01*
X139714285Y-113418571D01*
X140642857Y-113418571D01*
X141214285Y-112061428D02*
X141285714Y-111990000D01*
X141428571Y-111918571D01*
X141785714Y-111918571D01*
X141928571Y-111990000D01*
X142000000Y-112061428D01*
X142071428Y-112204285D01*
X142071428Y-112347142D01*
X142000000Y-112561428D01*
X141142857Y-113418571D01*
X142071428Y-113418571D01*
D11*
X118828571Y-82361904D02*
X118828571Y-81561904D01*
X119133333Y-81561904D01*
X119209523Y-81600000D01*
X119247619Y-81638095D01*
X119285714Y-81714285D01*
X119285714Y-81828571D01*
X119247619Y-81904761D01*
X119209523Y-81942857D01*
X119133333Y-81980952D01*
X118828571Y-81980952D01*
X119780952Y-81561904D02*
X119933333Y-81561904D01*
X120009523Y-81600000D01*
X120085714Y-81676190D01*
X120123809Y-81828571D01*
X120123809Y-82095238D01*
X120085714Y-82247619D01*
X120009523Y-82323809D01*
X119933333Y-82361904D01*
X119780952Y-82361904D01*
X119704761Y-82323809D01*
X119628571Y-82247619D01*
X119590476Y-82095238D01*
X119590476Y-81828571D01*
X119628571Y-81676190D01*
X119704761Y-81600000D01*
X119780952Y-81561904D01*
X120390476Y-81561904D02*
X120580952Y-82361904D01*
X120733333Y-81790476D01*
X120885714Y-82361904D01*
X121076190Y-81561904D01*
X121380952Y-81942857D02*
X121647619Y-81942857D01*
X121761904Y-82361904D02*
X121380952Y-82361904D01*
X121380952Y-81561904D01*
X121761904Y-81561904D01*
X122561904Y-82361904D02*
X122295238Y-81980952D01*
X122104761Y-82361904D02*
X122104761Y-81561904D01*
X122409523Y-81561904D01*
X122485714Y-81600000D01*
X122523809Y-81638095D01*
X122561904Y-81714285D01*
X122561904Y-81828571D01*
X122523809Y-81904761D01*
X122485714Y-81942857D01*
X122409523Y-81980952D01*
X122104761Y-81980952D01*
X123476190Y-82323809D02*
X123590476Y-82361904D01*
X123780952Y-82361904D01*
X123857142Y-82323809D01*
X123895238Y-82285714D01*
X123933333Y-82209523D01*
X123933333Y-82133333D01*
X123895238Y-82057142D01*
X123857142Y-82019047D01*
X123780952Y-81980952D01*
X123628571Y-81942857D01*
X123552380Y-81904761D01*
X123514285Y-81866666D01*
X123476190Y-81790476D01*
X123476190Y-81714285D01*
X123514285Y-81638095D01*
X123552380Y-81600000D01*
X123628571Y-81561904D01*
X123819047Y-81561904D01*
X123933333Y-81600000D01*
X124276190Y-82361904D02*
X124276190Y-81561904D01*
X125076190Y-81600000D02*
X125000000Y-81561904D01*
X124885714Y-81561904D01*
X124771428Y-81600000D01*
X124695238Y-81676190D01*
X124657142Y-81752380D01*
X124619047Y-81904761D01*
X124619047Y-82019047D01*
X124657142Y-82171428D01*
X124695238Y-82247619D01*
X124771428Y-82323809D01*
X124885714Y-82361904D01*
X124961904Y-82361904D01*
X125076190Y-82323809D01*
X125114285Y-82285714D01*
X125114285Y-82019047D01*
X124961904Y-82019047D01*
X126447619Y-82361904D02*
X126066666Y-82361904D01*
X126066666Y-81561904D01*
X126866666Y-81561904D02*
X127019047Y-81561904D01*
X127095238Y-81600000D01*
X127171428Y-81676190D01*
X127209523Y-81828571D01*
X127209523Y-82095238D01*
X127171428Y-82247619D01*
X127095238Y-82323809D01*
X127019047Y-82361904D01*
X126866666Y-82361904D01*
X126790476Y-82323809D01*
X126714285Y-82247619D01*
X126676190Y-82095238D01*
X126676190Y-81828571D01*
X126714285Y-81676190D01*
X126790476Y-81600000D01*
X126866666Y-81561904D01*
X118809523Y-96111904D02*
X118809523Y-95311904D01*
X119114285Y-95311904D01*
X119190476Y-95350000D01*
X119228571Y-95388095D01*
X119266666Y-95464285D01*
X119266666Y-95578571D01*
X119228571Y-95654761D01*
X119190476Y-95692857D01*
X119114285Y-95730952D01*
X118809523Y-95730952D01*
X119761904Y-95311904D02*
X119914285Y-95311904D01*
X119990476Y-95350000D01*
X120066666Y-95426190D01*
X120104761Y-95578571D01*
X120104761Y-95845238D01*
X120066666Y-95997619D01*
X119990476Y-96073809D01*
X119914285Y-96111904D01*
X119761904Y-96111904D01*
X119685714Y-96073809D01*
X119609523Y-95997619D01*
X119571428Y-95845238D01*
X119571428Y-95578571D01*
X119609523Y-95426190D01*
X119685714Y-95350000D01*
X119761904Y-95311904D01*
X120371428Y-95311904D02*
X120561904Y-96111904D01*
X120714285Y-95540476D01*
X120866666Y-96111904D01*
X121057142Y-95311904D01*
X121361904Y-95692857D02*
X121628571Y-95692857D01*
X121742857Y-96111904D02*
X121361904Y-96111904D01*
X121361904Y-95311904D01*
X121742857Y-95311904D01*
X122542857Y-96111904D02*
X122276190Y-95730952D01*
X122085714Y-96111904D02*
X122085714Y-95311904D01*
X122390476Y-95311904D01*
X122466666Y-95350000D01*
X122504761Y-95388095D01*
X122542857Y-95464285D01*
X122542857Y-95578571D01*
X122504761Y-95654761D01*
X122466666Y-95692857D01*
X122390476Y-95730952D01*
X122085714Y-95730952D01*
X123495238Y-95578571D02*
X124104761Y-95807142D01*
X123495238Y-96035714D01*
X125476190Y-95311904D02*
X125095238Y-95311904D01*
X125057142Y-95692857D01*
X125095238Y-95654761D01*
X125171428Y-95616666D01*
X125361904Y-95616666D01*
X125438095Y-95654761D01*
X125476190Y-95692857D01*
X125514285Y-95769047D01*
X125514285Y-95959523D01*
X125476190Y-96035714D01*
X125438095Y-96073809D01*
X125361904Y-96111904D01*
X125171428Y-96111904D01*
X125095238Y-96073809D01*
X125057142Y-96035714D01*
X125857142Y-96111904D02*
X125857142Y-95311904D01*
X126314285Y-96111904D02*
X125971428Y-95654761D01*
X126314285Y-95311904D02*
X125857142Y-95769047D01*
X126580952Y-95311904D02*
X126771428Y-96111904D01*
X126923809Y-95540476D01*
X127076190Y-96111904D01*
X127266666Y-95311904D01*
X107592857Y-84035714D02*
X107554761Y-84073809D01*
X107440476Y-84111904D01*
X107364285Y-84111904D01*
X107250000Y-84073809D01*
X107173809Y-83997619D01*
X107135714Y-83921428D01*
X107097619Y-83769047D01*
X107097619Y-83654761D01*
X107135714Y-83502380D01*
X107173809Y-83426190D01*
X107250000Y-83350000D01*
X107364285Y-83311904D01*
X107440476Y-83311904D01*
X107554761Y-83350000D01*
X107592857Y-83388095D01*
X108278571Y-83578571D02*
X108278571Y-84111904D01*
X107935714Y-83578571D02*
X107935714Y-83997619D01*
X107973809Y-84073809D01*
X108050000Y-84111904D01*
X108164285Y-84111904D01*
X108240476Y-84073809D01*
X108278571Y-84035714D01*
X108545238Y-83578571D02*
X108850000Y-83578571D01*
X108659523Y-83311904D02*
X108659523Y-83997619D01*
X108697619Y-84073809D01*
X108773809Y-84111904D01*
X108850000Y-84111904D01*
X109230952Y-84111904D02*
X109154761Y-84073809D01*
X109116666Y-84035714D01*
X109078571Y-83959523D01*
X109078571Y-83730952D01*
X109116666Y-83654761D01*
X109154761Y-83616666D01*
X109230952Y-83578571D01*
X109345238Y-83578571D01*
X109421428Y-83616666D01*
X109459523Y-83654761D01*
X109497619Y-83730952D01*
X109497619Y-83959523D01*
X109459523Y-84035714D01*
X109421428Y-84073809D01*
X109345238Y-84111904D01*
X109230952Y-84111904D01*
X109726190Y-83578571D02*
X110030952Y-83578571D01*
X109840476Y-84111904D02*
X109840476Y-83426190D01*
X109878571Y-83350000D01*
X109954761Y-83311904D01*
X110030952Y-83311904D01*
X110183333Y-83578571D02*
X110488095Y-83578571D01*
X110297619Y-84111904D02*
X110297619Y-83426190D01*
X110335714Y-83350000D01*
X110411904Y-83311904D01*
X110488095Y-83311904D01*
X110754761Y-83807142D02*
X111364285Y-83807142D01*
X111059523Y-84111904D02*
X111059523Y-83502380D01*
X105361904Y-81942857D02*
X105476190Y-81980952D01*
X105514285Y-82019047D01*
X105552380Y-82095238D01*
X105552380Y-82209523D01*
X105514285Y-82285714D01*
X105476190Y-82323809D01*
X105400000Y-82361904D01*
X105095238Y-82361904D01*
X105095238Y-81561904D01*
X105361904Y-81561904D01*
X105438095Y-81600000D01*
X105476190Y-81638095D01*
X105514285Y-81714285D01*
X105514285Y-81790476D01*
X105476190Y-81866666D01*
X105438095Y-81904761D01*
X105361904Y-81942857D01*
X105095238Y-81942857D01*
X106352380Y-82361904D02*
X106085714Y-81980952D01*
X105895238Y-82361904D02*
X105895238Y-81561904D01*
X106200000Y-81561904D01*
X106276190Y-81600000D01*
X106314285Y-81638095D01*
X106352380Y-81714285D01*
X106352380Y-81828571D01*
X106314285Y-81904761D01*
X106276190Y-81942857D01*
X106200000Y-81980952D01*
X105895238Y-81980952D01*
X106657142Y-82133333D02*
X107038095Y-82133333D01*
X106580952Y-82361904D02*
X106847619Y-81561904D01*
X107114285Y-82361904D01*
X107380952Y-82361904D02*
X107380952Y-81561904D01*
X107838095Y-82361904D02*
X107495238Y-81904761D01*
X107838095Y-81561904D02*
X107380952Y-82019047D01*
X108180952Y-81942857D02*
X108447619Y-81942857D01*
X108561904Y-82361904D02*
X108180952Y-82361904D01*
X108180952Y-81561904D01*
X108561904Y-81561904D01*
X109476190Y-82323809D02*
X109590476Y-82361904D01*
X109780952Y-82361904D01*
X109857142Y-82323809D01*
X109895238Y-82285714D01*
X109933333Y-82209523D01*
X109933333Y-82133333D01*
X109895238Y-82057142D01*
X109857142Y-82019047D01*
X109780952Y-81980952D01*
X109628571Y-81942857D01*
X109552380Y-81904761D01*
X109514285Y-81866666D01*
X109476190Y-81790476D01*
X109476190Y-81714285D01*
X109514285Y-81638095D01*
X109552380Y-81600000D01*
X109628571Y-81561904D01*
X109819047Y-81561904D01*
X109933333Y-81600000D01*
X110276190Y-82361904D02*
X110276190Y-81561904D01*
X111076190Y-81600000D02*
X111000000Y-81561904D01*
X110885714Y-81561904D01*
X110771428Y-81600000D01*
X110695238Y-81676190D01*
X110657142Y-81752380D01*
X110619047Y-81904761D01*
X110619047Y-82019047D01*
X110657142Y-82171428D01*
X110695238Y-82247619D01*
X110771428Y-82323809D01*
X110885714Y-82361904D01*
X110961904Y-82361904D01*
X111076190Y-82323809D01*
X111114285Y-82285714D01*
X111114285Y-82019047D01*
X110961904Y-82019047D01*
X112066666Y-82361904D02*
X112066666Y-81561904D01*
X112066666Y-81942857D02*
X112523809Y-81942857D01*
X112523809Y-82361904D02*
X112523809Y-81561904D01*
X112904761Y-82361904D02*
X112904761Y-81561904D01*
X98366904Y-56602380D02*
X98366904Y-57411904D01*
X98414523Y-57507142D01*
X98462142Y-57554761D01*
X98557380Y-57602380D01*
X98747857Y-57602380D01*
X98843095Y-57554761D01*
X98890714Y-57507142D01*
X98938333Y-57411904D01*
X98938333Y-56602380D01*
X99414523Y-56935714D02*
X99414523Y-57602380D01*
X99414523Y-57030952D02*
X99462142Y-56983333D01*
X99557380Y-56935714D01*
X99700238Y-56935714D01*
X99795476Y-56983333D01*
X99843095Y-57078571D01*
X99843095Y-57602380D01*
X100319285Y-57602380D02*
X100319285Y-56935714D01*
X100319285Y-56602380D02*
X100271666Y-56650000D01*
X100319285Y-56697619D01*
X100366904Y-56650000D01*
X100319285Y-56602380D01*
X100319285Y-56697619D01*
X100747857Y-57554761D02*
X100890714Y-57602380D01*
X101128809Y-57602380D01*
X101224047Y-57554761D01*
X101271666Y-57507142D01*
X101319285Y-57411904D01*
X101319285Y-57316666D01*
X101271666Y-57221428D01*
X101224047Y-57173809D01*
X101128809Y-57126190D01*
X100938333Y-57078571D01*
X100843095Y-57030952D01*
X100795476Y-56983333D01*
X100747857Y-56888095D01*
X100747857Y-56792857D01*
X100795476Y-56697619D01*
X100843095Y-56650000D01*
X100938333Y-56602380D01*
X101176428Y-56602380D01*
X101319285Y-56650000D01*
X101700238Y-57316666D02*
X102176428Y-57316666D01*
X101605000Y-57602380D02*
X101938333Y-56602380D01*
X102271666Y-57602380D01*
X103366904Y-57602380D02*
X103366904Y-56602380D01*
X103700238Y-57316666D01*
X104033571Y-56602380D01*
X104033571Y-57602380D01*
X104652619Y-57602380D02*
X104557380Y-57554761D01*
X104509761Y-57507142D01*
X104462142Y-57411904D01*
X104462142Y-57126190D01*
X104509761Y-57030952D01*
X104557380Y-56983333D01*
X104652619Y-56935714D01*
X104795476Y-56935714D01*
X104890714Y-56983333D01*
X104938333Y-57030952D01*
X104985952Y-57126190D01*
X104985952Y-57411904D01*
X104938333Y-57507142D01*
X104890714Y-57554761D01*
X104795476Y-57602380D01*
X104652619Y-57602380D01*
X105271666Y-56935714D02*
X105652619Y-56935714D01*
X105414523Y-56602380D02*
X105414523Y-57459523D01*
X105462142Y-57554761D01*
X105557380Y-57602380D01*
X105652619Y-57602380D01*
X106128809Y-57602380D02*
X106033571Y-57554761D01*
X105985952Y-57507142D01*
X105938333Y-57411904D01*
X105938333Y-57126190D01*
X105985952Y-57030952D01*
X106033571Y-56983333D01*
X106128809Y-56935714D01*
X106271666Y-56935714D01*
X106366904Y-56983333D01*
X106414523Y-57030952D01*
X106462142Y-57126190D01*
X106462142Y-57411904D01*
X106414523Y-57507142D01*
X106366904Y-57554761D01*
X106271666Y-57602380D01*
X106128809Y-57602380D01*
X106890714Y-57602380D02*
X106890714Y-56935714D01*
X106890714Y-57126190D02*
X106938333Y-57030952D01*
X106985952Y-56983333D01*
X107081190Y-56935714D01*
X107176428Y-56935714D01*
X107462142Y-57554761D02*
X107557380Y-57602380D01*
X107747857Y-57602380D01*
X107843095Y-57554761D01*
X107890714Y-57459523D01*
X107890714Y-57411904D01*
X107843095Y-57316666D01*
X107747857Y-57269047D01*
X107605000Y-57269047D01*
X107509761Y-57221428D01*
X107462142Y-57126190D01*
X107462142Y-57078571D01*
X107509761Y-56983333D01*
X107605000Y-56935714D01*
X107747857Y-56935714D01*
X107843095Y-56983333D01*
X108319285Y-56935714D02*
X108319285Y-57935714D01*
X108319285Y-56983333D02*
X108414523Y-56935714D01*
X108605000Y-56935714D01*
X108700238Y-56983333D01*
X108747857Y-57030952D01*
X108795476Y-57126190D01*
X108795476Y-57411904D01*
X108747857Y-57507142D01*
X108700238Y-57554761D01*
X108605000Y-57602380D01*
X108414523Y-57602380D01*
X108319285Y-57554761D01*
X109366904Y-57602380D02*
X109271666Y-57554761D01*
X109224047Y-57507142D01*
X109176428Y-57411904D01*
X109176428Y-57126190D01*
X109224047Y-57030952D01*
X109271666Y-56983333D01*
X109366904Y-56935714D01*
X109509761Y-56935714D01*
X109605000Y-56983333D01*
X109652619Y-57030952D01*
X109700238Y-57126190D01*
X109700238Y-57411904D01*
X109652619Y-57507142D01*
X109605000Y-57554761D01*
X109509761Y-57602380D01*
X109366904Y-57602380D01*
X110128809Y-57602380D02*
X110128809Y-56935714D01*
X110128809Y-57126190D02*
X110176428Y-57030952D01*
X110224047Y-56983333D01*
X110319285Y-56935714D01*
X110414523Y-56935714D01*
X110605000Y-56935714D02*
X110985952Y-56935714D01*
X110747857Y-56602380D02*
X110747857Y-57459523D01*
X110795476Y-57554761D01*
X110890714Y-57602380D01*
X110985952Y-57602380D01*
X167185952Y-59027380D02*
X166614523Y-59027380D01*
X166900238Y-59027380D02*
X166900238Y-58027380D01*
X166805000Y-58170238D01*
X166709761Y-58265476D01*
X166614523Y-58313095D01*
X167566904Y-58122619D02*
X167614523Y-58075000D01*
X167709761Y-58027380D01*
X167947857Y-58027380D01*
X168043095Y-58075000D01*
X168090714Y-58122619D01*
X168138333Y-58217857D01*
X168138333Y-58313095D01*
X168090714Y-58455952D01*
X167519285Y-59027380D01*
X168138333Y-59027380D01*
X168424047Y-58027380D02*
X168757380Y-59027380D01*
X169090714Y-58027380D01*
X107842857Y-113535714D02*
X107804761Y-113573809D01*
X107690476Y-113611904D01*
X107614285Y-113611904D01*
X107500000Y-113573809D01*
X107423809Y-113497619D01*
X107385714Y-113421428D01*
X107347619Y-113269047D01*
X107347619Y-113154761D01*
X107385714Y-113002380D01*
X107423809Y-112926190D01*
X107500000Y-112850000D01*
X107614285Y-112811904D01*
X107690476Y-112811904D01*
X107804761Y-112850000D01*
X107842857Y-112888095D01*
X108528571Y-113078571D02*
X108528571Y-113611904D01*
X108185714Y-113078571D02*
X108185714Y-113497619D01*
X108223809Y-113573809D01*
X108300000Y-113611904D01*
X108414285Y-113611904D01*
X108490476Y-113573809D01*
X108528571Y-113535714D01*
X108795238Y-113078571D02*
X109100000Y-113078571D01*
X108909523Y-112811904D02*
X108909523Y-113497619D01*
X108947619Y-113573809D01*
X109023809Y-113611904D01*
X109100000Y-113611904D01*
X109480952Y-113611904D02*
X109404761Y-113573809D01*
X109366666Y-113535714D01*
X109328571Y-113459523D01*
X109328571Y-113230952D01*
X109366666Y-113154761D01*
X109404761Y-113116666D01*
X109480952Y-113078571D01*
X109595238Y-113078571D01*
X109671428Y-113116666D01*
X109709523Y-113154761D01*
X109747619Y-113230952D01*
X109747619Y-113459523D01*
X109709523Y-113535714D01*
X109671428Y-113573809D01*
X109595238Y-113611904D01*
X109480952Y-113611904D01*
X109976190Y-113078571D02*
X110280952Y-113078571D01*
X110090476Y-113611904D02*
X110090476Y-112926190D01*
X110128571Y-112850000D01*
X110204761Y-112811904D01*
X110280952Y-112811904D01*
X110433333Y-113078571D02*
X110738095Y-113078571D01*
X110547619Y-113611904D02*
X110547619Y-112926190D01*
X110585714Y-112850000D01*
X110661904Y-112811904D01*
X110738095Y-112811904D01*
X111004761Y-113307142D02*
X111614285Y-113307142D01*
X111309523Y-113611904D02*
X111309523Y-113002380D01*
X107342857Y-97785714D02*
X107304761Y-97823809D01*
X107190476Y-97861904D01*
X107114285Y-97861904D01*
X107000000Y-97823809D01*
X106923809Y-97747619D01*
X106885714Y-97671428D01*
X106847619Y-97519047D01*
X106847619Y-97404761D01*
X106885714Y-97252380D01*
X106923809Y-97176190D01*
X107000000Y-97100000D01*
X107114285Y-97061904D01*
X107190476Y-97061904D01*
X107304761Y-97100000D01*
X107342857Y-97138095D01*
X108028571Y-97328571D02*
X108028571Y-97861904D01*
X107685714Y-97328571D02*
X107685714Y-97747619D01*
X107723809Y-97823809D01*
X107800000Y-97861904D01*
X107914285Y-97861904D01*
X107990476Y-97823809D01*
X108028571Y-97785714D01*
X108295238Y-97328571D02*
X108600000Y-97328571D01*
X108409523Y-97061904D02*
X108409523Y-97747619D01*
X108447619Y-97823809D01*
X108523809Y-97861904D01*
X108600000Y-97861904D01*
X108980952Y-97861904D02*
X108904761Y-97823809D01*
X108866666Y-97785714D01*
X108828571Y-97709523D01*
X108828571Y-97480952D01*
X108866666Y-97404761D01*
X108904761Y-97366666D01*
X108980952Y-97328571D01*
X109095238Y-97328571D01*
X109171428Y-97366666D01*
X109209523Y-97404761D01*
X109247619Y-97480952D01*
X109247619Y-97709523D01*
X109209523Y-97785714D01*
X109171428Y-97823809D01*
X109095238Y-97861904D01*
X108980952Y-97861904D01*
X109476190Y-97328571D02*
X109780952Y-97328571D01*
X109590476Y-97861904D02*
X109590476Y-97176190D01*
X109628571Y-97100000D01*
X109704761Y-97061904D01*
X109780952Y-97061904D01*
X109933333Y-97328571D02*
X110238095Y-97328571D01*
X110047619Y-97861904D02*
X110047619Y-97176190D01*
X110085714Y-97100000D01*
X110161904Y-97061904D01*
X110238095Y-97061904D01*
X110504761Y-97557142D02*
X111114285Y-97557142D01*
X110809523Y-97861904D02*
X110809523Y-97252380D01*
X167214523Y-71502380D02*
X166738333Y-71502380D01*
X166690714Y-71978571D01*
X166738333Y-71930952D01*
X166833571Y-71883333D01*
X167071666Y-71883333D01*
X167166904Y-71930952D01*
X167214523Y-71978571D01*
X167262142Y-72073809D01*
X167262142Y-72311904D01*
X167214523Y-72407142D01*
X167166904Y-72454761D01*
X167071666Y-72502380D01*
X166833571Y-72502380D01*
X166738333Y-72454761D01*
X166690714Y-72407142D01*
X167547857Y-71502380D02*
X167881190Y-72502380D01*
X168214523Y-71502380D01*
X135276190Y-95692857D02*
X135390476Y-95730952D01*
X135428571Y-95769047D01*
X135466666Y-95845238D01*
X135466666Y-95959523D01*
X135428571Y-96035714D01*
X135390476Y-96073809D01*
X135314285Y-96111904D01*
X135009523Y-96111904D01*
X135009523Y-95311904D01*
X135276190Y-95311904D01*
X135352380Y-95350000D01*
X135390476Y-95388095D01*
X135428571Y-95464285D01*
X135428571Y-95540476D01*
X135390476Y-95616666D01*
X135352380Y-95654761D01*
X135276190Y-95692857D01*
X135009523Y-95692857D01*
X136266666Y-96111904D02*
X136000000Y-95730952D01*
X135809523Y-96111904D02*
X135809523Y-95311904D01*
X136114285Y-95311904D01*
X136190476Y-95350000D01*
X136228571Y-95388095D01*
X136266666Y-95464285D01*
X136266666Y-95578571D01*
X136228571Y-95654761D01*
X136190476Y-95692857D01*
X136114285Y-95730952D01*
X135809523Y-95730952D01*
X136571428Y-95883333D02*
X136952380Y-95883333D01*
X136495238Y-96111904D02*
X136761904Y-95311904D01*
X137028571Y-96111904D01*
X137295238Y-96111904D02*
X137295238Y-95311904D01*
X137752380Y-96111904D02*
X137409523Y-95654761D01*
X137752380Y-95311904D02*
X137295238Y-95769047D01*
X138095238Y-95692857D02*
X138361904Y-95692857D01*
X138476190Y-96111904D02*
X138095238Y-96111904D01*
X138095238Y-95311904D01*
X138476190Y-95311904D01*
X139390476Y-96073809D02*
X139504761Y-96111904D01*
X139695238Y-96111904D01*
X139771428Y-96073809D01*
X139809523Y-96035714D01*
X139847619Y-95959523D01*
X139847619Y-95883333D01*
X139809523Y-95807142D01*
X139771428Y-95769047D01*
X139695238Y-95730952D01*
X139542857Y-95692857D01*
X139466666Y-95654761D01*
X139428571Y-95616666D01*
X139390476Y-95540476D01*
X139390476Y-95464285D01*
X139428571Y-95388095D01*
X139466666Y-95350000D01*
X139542857Y-95311904D01*
X139733333Y-95311904D01*
X139847619Y-95350000D01*
X140190476Y-96111904D02*
X140190476Y-95311904D01*
X140990476Y-95350000D02*
X140914285Y-95311904D01*
X140800000Y-95311904D01*
X140685714Y-95350000D01*
X140609523Y-95426190D01*
X140571428Y-95502380D01*
X140533333Y-95654761D01*
X140533333Y-95769047D01*
X140571428Y-95921428D01*
X140609523Y-95997619D01*
X140685714Y-96073809D01*
X140800000Y-96111904D01*
X140876190Y-96111904D01*
X140990476Y-96073809D01*
X141028571Y-96035714D01*
X141028571Y-95769047D01*
X140876190Y-95769047D01*
X158013809Y-75022380D02*
X157680476Y-74546190D01*
X157442380Y-75022380D02*
X157442380Y-74022380D01*
X157823333Y-74022380D01*
X157918571Y-74070000D01*
X157966190Y-74117619D01*
X158013809Y-74212857D01*
X158013809Y-74355714D01*
X157966190Y-74450952D01*
X157918571Y-74498571D01*
X157823333Y-74546190D01*
X157442380Y-74546190D01*
X158299523Y-74355714D02*
X158680476Y-74355714D01*
X158442380Y-75022380D02*
X158442380Y-74165238D01*
X158490000Y-74070000D01*
X158585238Y-74022380D01*
X158680476Y-74022380D01*
X105609523Y-110548857D02*
X105723809Y-110586952D01*
X105761904Y-110625047D01*
X105800000Y-110701238D01*
X105800000Y-110815523D01*
X105761904Y-110891714D01*
X105723809Y-110929809D01*
X105647619Y-110967904D01*
X105342857Y-110967904D01*
X105342857Y-110167904D01*
X105609523Y-110167904D01*
X105685714Y-110206000D01*
X105723809Y-110244095D01*
X105761904Y-110320285D01*
X105761904Y-110396476D01*
X105723809Y-110472666D01*
X105685714Y-110510761D01*
X105609523Y-110548857D01*
X105342857Y-110548857D01*
X106600000Y-110967904D02*
X106333333Y-110586952D01*
X106142857Y-110967904D02*
X106142857Y-110167904D01*
X106447619Y-110167904D01*
X106523809Y-110206000D01*
X106561904Y-110244095D01*
X106600000Y-110320285D01*
X106600000Y-110434571D01*
X106561904Y-110510761D01*
X106523809Y-110548857D01*
X106447619Y-110586952D01*
X106142857Y-110586952D01*
X106904761Y-110739333D02*
X107285714Y-110739333D01*
X106828571Y-110967904D02*
X107095238Y-110167904D01*
X107361904Y-110967904D01*
X107628571Y-110967904D02*
X107628571Y-110167904D01*
X108085714Y-110967904D02*
X107742857Y-110510761D01*
X108085714Y-110167904D02*
X107628571Y-110625047D01*
X108428571Y-110548857D02*
X108695238Y-110548857D01*
X108809523Y-110967904D02*
X108428571Y-110967904D01*
X108428571Y-110167904D01*
X108809523Y-110167904D01*
X110142857Y-110967904D02*
X109761904Y-110967904D01*
X109761904Y-110167904D01*
X110409523Y-110967904D02*
X110409523Y-110167904D01*
X111209523Y-110206000D02*
X111133333Y-110167904D01*
X111019047Y-110167904D01*
X110904761Y-110206000D01*
X110828571Y-110282190D01*
X110790476Y-110358380D01*
X110752380Y-110510761D01*
X110752380Y-110625047D01*
X110790476Y-110777428D01*
X110828571Y-110853619D01*
X110904761Y-110929809D01*
X111019047Y-110967904D01*
X111095238Y-110967904D01*
X111209523Y-110929809D01*
X111247619Y-110891714D01*
X111247619Y-110625047D01*
X111095238Y-110625047D01*
X111590476Y-110967904D02*
X111590476Y-110167904D01*
X111590476Y-110548857D02*
X112047619Y-110548857D01*
X112047619Y-110967904D02*
X112047619Y-110167904D01*
X112314285Y-110167904D02*
X112771428Y-110167904D01*
X112542857Y-110967904D02*
X112542857Y-110167904D01*
X106619047Y-111455904D02*
X107076190Y-111455904D01*
X106847619Y-112255904D02*
X106847619Y-111455904D01*
X107800000Y-112255904D02*
X107533333Y-111874952D01*
X107342857Y-112255904D02*
X107342857Y-111455904D01*
X107647619Y-111455904D01*
X107723809Y-111494000D01*
X107761904Y-111532095D01*
X107800000Y-111608285D01*
X107800000Y-111722571D01*
X107761904Y-111798761D01*
X107723809Y-111836857D01*
X107647619Y-111874952D01*
X107342857Y-111874952D01*
X108142857Y-112255904D02*
X108142857Y-111455904D01*
X108942857Y-111494000D02*
X108866666Y-111455904D01*
X108752380Y-111455904D01*
X108638095Y-111494000D01*
X108561904Y-111570190D01*
X108523809Y-111646380D01*
X108485714Y-111798761D01*
X108485714Y-111913047D01*
X108523809Y-112065428D01*
X108561904Y-112141619D01*
X108638095Y-112217809D01*
X108752380Y-112255904D01*
X108828571Y-112255904D01*
X108942857Y-112217809D01*
X108980952Y-112179714D01*
X108980952Y-111913047D01*
X108828571Y-111913047D01*
X109742857Y-111494000D02*
X109666666Y-111455904D01*
X109552380Y-111455904D01*
X109438095Y-111494000D01*
X109361904Y-111570190D01*
X109323809Y-111646380D01*
X109285714Y-111798761D01*
X109285714Y-111913047D01*
X109323809Y-112065428D01*
X109361904Y-112141619D01*
X109438095Y-112217809D01*
X109552380Y-112255904D01*
X109628571Y-112255904D01*
X109742857Y-112217809D01*
X109780952Y-112179714D01*
X109780952Y-111913047D01*
X109628571Y-111913047D01*
X110123809Y-111836857D02*
X110390476Y-111836857D01*
X110504761Y-112255904D02*
X110123809Y-112255904D01*
X110123809Y-111455904D01*
X110504761Y-111455904D01*
X111304761Y-112255904D02*
X111038095Y-111874952D01*
X110847619Y-112255904D02*
X110847619Y-111455904D01*
X111152380Y-111455904D01*
X111228571Y-111494000D01*
X111266666Y-111532095D01*
X111304761Y-111608285D01*
X111304761Y-111722571D01*
X111266666Y-111798761D01*
X111228571Y-111836857D01*
X111152380Y-111874952D01*
X110847619Y-111874952D01*
X170366666Y-106135714D02*
X170328571Y-106173809D01*
X170214285Y-106211904D01*
X170138095Y-106211904D01*
X170023809Y-106173809D01*
X169947619Y-106097619D01*
X169909523Y-106021428D01*
X169871428Y-105869047D01*
X169871428Y-105754761D01*
X169909523Y-105602380D01*
X169947619Y-105526190D01*
X170023809Y-105450000D01*
X170138095Y-105411904D01*
X170214285Y-105411904D01*
X170328571Y-105450000D01*
X170366666Y-105488095D01*
X171128571Y-106211904D02*
X170671428Y-106211904D01*
X170900000Y-106211904D02*
X170900000Y-105411904D01*
X170823809Y-105526190D01*
X170747619Y-105602380D01*
X170671428Y-105640476D01*
X170366666Y-88635714D02*
X170328571Y-88673809D01*
X170214285Y-88711904D01*
X170138095Y-88711904D01*
X170023809Y-88673809D01*
X169947619Y-88597619D01*
X169909523Y-88521428D01*
X169871428Y-88369047D01*
X169871428Y-88254761D01*
X169909523Y-88102380D01*
X169947619Y-88026190D01*
X170023809Y-87950000D01*
X170138095Y-87911904D01*
X170214285Y-87911904D01*
X170328571Y-87950000D01*
X170366666Y-87988095D01*
X170671428Y-87988095D02*
X170709523Y-87950000D01*
X170785714Y-87911904D01*
X170976190Y-87911904D01*
X171052380Y-87950000D01*
X171090476Y-87988095D01*
X171128571Y-88064285D01*
X171128571Y-88140476D01*
X171090476Y-88254761D01*
X170633333Y-88711904D01*
X171128571Y-88711904D01*
X170366666Y-98135714D02*
X170328571Y-98173809D01*
X170214285Y-98211904D01*
X170138095Y-98211904D01*
X170023809Y-98173809D01*
X169947619Y-98097619D01*
X169909523Y-98021428D01*
X169871428Y-97869047D01*
X169871428Y-97754761D01*
X169909523Y-97602380D01*
X169947619Y-97526190D01*
X170023809Y-97450000D01*
X170138095Y-97411904D01*
X170214285Y-97411904D01*
X170328571Y-97450000D01*
X170366666Y-97488095D01*
X170633333Y-97411904D02*
X171128571Y-97411904D01*
X170861904Y-97716666D01*
X170976190Y-97716666D01*
X171052380Y-97754761D01*
X171090476Y-97792857D01*
X171128571Y-97869047D01*
X171128571Y-98059523D01*
X171090476Y-98135714D01*
X171052380Y-98173809D01*
X170976190Y-98211904D01*
X170747619Y-98211904D01*
X170671428Y-98173809D01*
X170633333Y-98135714D01*
X170366666Y-78635714D02*
X170328571Y-78673809D01*
X170214285Y-78711904D01*
X170138095Y-78711904D01*
X170023809Y-78673809D01*
X169947619Y-78597619D01*
X169909523Y-78521428D01*
X169871428Y-78369047D01*
X169871428Y-78254761D01*
X169909523Y-78102380D01*
X169947619Y-78026190D01*
X170023809Y-77950000D01*
X170138095Y-77911904D01*
X170214285Y-77911904D01*
X170328571Y-77950000D01*
X170366666Y-77988095D01*
X171052380Y-78178571D02*
X171052380Y-78711904D01*
X170861904Y-77873809D02*
X170671428Y-78445238D01*
X171166666Y-78445238D01*
X157246666Y-60960714D02*
X157208571Y-60998809D01*
X157094285Y-61036904D01*
X157018095Y-61036904D01*
X156903809Y-60998809D01*
X156827619Y-60922619D01*
X156789523Y-60846428D01*
X156751428Y-60694047D01*
X156751428Y-60579761D01*
X156789523Y-60427380D01*
X156827619Y-60351190D01*
X156903809Y-60275000D01*
X157018095Y-60236904D01*
X157094285Y-60236904D01*
X157208571Y-60275000D01*
X157246666Y-60313095D01*
X157970476Y-60236904D02*
X157589523Y-60236904D01*
X157551428Y-60617857D01*
X157589523Y-60579761D01*
X157665714Y-60541666D01*
X157856190Y-60541666D01*
X157932380Y-60579761D01*
X157970476Y-60617857D01*
X158008571Y-60694047D01*
X158008571Y-60884523D01*
X157970476Y-60960714D01*
X157932380Y-60998809D01*
X157856190Y-61036904D01*
X157665714Y-61036904D01*
X157589523Y-60998809D01*
X157551428Y-60960714D01*
X157246666Y-70410714D02*
X157208571Y-70448809D01*
X157094285Y-70486904D01*
X157018095Y-70486904D01*
X156903809Y-70448809D01*
X156827619Y-70372619D01*
X156789523Y-70296428D01*
X156751428Y-70144047D01*
X156751428Y-70029761D01*
X156789523Y-69877380D01*
X156827619Y-69801190D01*
X156903809Y-69725000D01*
X157018095Y-69686904D01*
X157094285Y-69686904D01*
X157208571Y-69725000D01*
X157246666Y-69763095D01*
X157932380Y-69686904D02*
X157780000Y-69686904D01*
X157703809Y-69725000D01*
X157665714Y-69763095D01*
X157589523Y-69877380D01*
X157551428Y-70029761D01*
X157551428Y-70334523D01*
X157589523Y-70410714D01*
X157627619Y-70448809D01*
X157703809Y-70486904D01*
X157856190Y-70486904D01*
X157932380Y-70448809D01*
X157970476Y-70410714D01*
X158008571Y-70334523D01*
X158008571Y-70144047D01*
X157970476Y-70067857D01*
X157932380Y-70029761D01*
X157856190Y-69991666D01*
X157703809Y-69991666D01*
X157627619Y-70029761D01*
X157589523Y-70067857D01*
X157551428Y-70144047D01*
X153975714Y-98563333D02*
X154013809Y-98601428D01*
X154051904Y-98715714D01*
X154051904Y-98791904D01*
X154013809Y-98906190D01*
X153937619Y-98982380D01*
X153861428Y-99020476D01*
X153709047Y-99058571D01*
X153594761Y-99058571D01*
X153442380Y-99020476D01*
X153366190Y-98982380D01*
X153290000Y-98906190D01*
X153251904Y-98791904D01*
X153251904Y-98715714D01*
X153290000Y-98601428D01*
X153328095Y-98563333D01*
X153251904Y-98296666D02*
X153251904Y-97763333D01*
X154051904Y-98106190D01*
X113923809Y-65446355D02*
X113847619Y-65408260D01*
X113771428Y-65332069D01*
X113657142Y-65217783D01*
X113580952Y-65179688D01*
X113504761Y-65179688D01*
X113542857Y-65370164D02*
X113466666Y-65332069D01*
X113390476Y-65255879D01*
X113352380Y-65103498D01*
X113352380Y-64836831D01*
X113390476Y-64684450D01*
X113466666Y-64608260D01*
X113542857Y-64570164D01*
X113695238Y-64570164D01*
X113771428Y-64608260D01*
X113847619Y-64684450D01*
X113885714Y-64836831D01*
X113885714Y-65103498D01*
X113847619Y-65255879D01*
X113771428Y-65332069D01*
X113695238Y-65370164D01*
X113542857Y-65370164D01*
X114647619Y-65370164D02*
X114190476Y-65370164D01*
X114419047Y-65370164D02*
X114419047Y-64570164D01*
X114342857Y-64684450D01*
X114266666Y-64760640D01*
X114190476Y-64798736D01*
X154021904Y-102593333D02*
X153640952Y-102860000D01*
X154021904Y-103050476D02*
X153221904Y-103050476D01*
X153221904Y-102745714D01*
X153260000Y-102669523D01*
X153298095Y-102631428D01*
X153374285Y-102593333D01*
X153488571Y-102593333D01*
X153564761Y-102631428D01*
X153602857Y-102669523D01*
X153640952Y-102745714D01*
X153640952Y-103050476D01*
X153488571Y-101907619D02*
X154021904Y-101907619D01*
X153183809Y-102098095D02*
X153755238Y-102288571D01*
X153755238Y-101793333D01*
X104366666Y-102586904D02*
X104100000Y-102205952D01*
X103909523Y-102586904D02*
X103909523Y-101786904D01*
X104214285Y-101786904D01*
X104290476Y-101825000D01*
X104328571Y-101863095D01*
X104366666Y-101939285D01*
X104366666Y-102053571D01*
X104328571Y-102129761D01*
X104290476Y-102167857D01*
X104214285Y-102205952D01*
X103909523Y-102205952D01*
X105090476Y-101786904D02*
X104709523Y-101786904D01*
X104671428Y-102167857D01*
X104709523Y-102129761D01*
X104785714Y-102091666D01*
X104976190Y-102091666D01*
X105052380Y-102129761D01*
X105090476Y-102167857D01*
X105128571Y-102244047D01*
X105128571Y-102434523D01*
X105090476Y-102510714D01*
X105052380Y-102548809D01*
X104976190Y-102586904D01*
X104785714Y-102586904D01*
X104709523Y-102548809D01*
X104671428Y-102510714D01*
X118866666Y-89536904D02*
X118600000Y-89155952D01*
X118409523Y-89536904D02*
X118409523Y-88736904D01*
X118714285Y-88736904D01*
X118790476Y-88775000D01*
X118828571Y-88813095D01*
X118866666Y-88889285D01*
X118866666Y-89003571D01*
X118828571Y-89079761D01*
X118790476Y-89117857D01*
X118714285Y-89155952D01*
X118409523Y-89155952D01*
X119552380Y-88736904D02*
X119400000Y-88736904D01*
X119323809Y-88775000D01*
X119285714Y-88813095D01*
X119209523Y-88927380D01*
X119171428Y-89079761D01*
X119171428Y-89384523D01*
X119209523Y-89460714D01*
X119247619Y-89498809D01*
X119323809Y-89536904D01*
X119476190Y-89536904D01*
X119552380Y-89498809D01*
X119590476Y-89460714D01*
X119628571Y-89384523D01*
X119628571Y-89194047D01*
X119590476Y-89117857D01*
X119552380Y-89079761D01*
X119476190Y-89041666D01*
X119323809Y-89041666D01*
X119247619Y-89079761D01*
X119209523Y-89117857D01*
X119171428Y-89194047D01*
X118866666Y-102611904D02*
X118600000Y-102230952D01*
X118409523Y-102611904D02*
X118409523Y-101811904D01*
X118714285Y-101811904D01*
X118790476Y-101850000D01*
X118828571Y-101888095D01*
X118866666Y-101964285D01*
X118866666Y-102078571D01*
X118828571Y-102154761D01*
X118790476Y-102192857D01*
X118714285Y-102230952D01*
X118409523Y-102230952D01*
X119323809Y-102154761D02*
X119247619Y-102116666D01*
X119209523Y-102078571D01*
X119171428Y-102002380D01*
X119171428Y-101964285D01*
X119209523Y-101888095D01*
X119247619Y-101850000D01*
X119323809Y-101811904D01*
X119476190Y-101811904D01*
X119552380Y-101850000D01*
X119590476Y-101888095D01*
X119628571Y-101964285D01*
X119628571Y-102002380D01*
X119590476Y-102078571D01*
X119552380Y-102116666D01*
X119476190Y-102154761D01*
X119323809Y-102154761D01*
X119247619Y-102192857D01*
X119209523Y-102230952D01*
X119171428Y-102307142D01*
X119171428Y-102459523D01*
X119209523Y-102535714D01*
X119247619Y-102573809D01*
X119323809Y-102611904D01*
X119476190Y-102611904D01*
X119552380Y-102573809D01*
X119590476Y-102535714D01*
X119628571Y-102459523D01*
X119628571Y-102307142D01*
X119590476Y-102230952D01*
X119552380Y-102192857D01*
X119476190Y-102154761D01*
X105116666Y-91861904D02*
X104850000Y-91480952D01*
X104659523Y-91861904D02*
X104659523Y-91061904D01*
X104964285Y-91061904D01*
X105040476Y-91100000D01*
X105078571Y-91138095D01*
X105116666Y-91214285D01*
X105116666Y-91328571D01*
X105078571Y-91404761D01*
X105040476Y-91442857D01*
X104964285Y-91480952D01*
X104659523Y-91480952D01*
X105497619Y-91861904D02*
X105650000Y-91861904D01*
X105726190Y-91823809D01*
X105764285Y-91785714D01*
X105840476Y-91671428D01*
X105878571Y-91519047D01*
X105878571Y-91214285D01*
X105840476Y-91138095D01*
X105802380Y-91100000D01*
X105726190Y-91061904D01*
X105573809Y-91061904D01*
X105497619Y-91100000D01*
X105459523Y-91138095D01*
X105421428Y-91214285D01*
X105421428Y-91404761D01*
X105459523Y-91480952D01*
X105497619Y-91519047D01*
X105573809Y-91557142D01*
X105726190Y-91557142D01*
X105802380Y-91519047D01*
X105840476Y-91480952D01*
X105878571Y-91404761D01*
X118235714Y-76536904D02*
X117969047Y-76155952D01*
X117778571Y-76536904D02*
X117778571Y-75736904D01*
X118083333Y-75736904D01*
X118159523Y-75775000D01*
X118197619Y-75813095D01*
X118235714Y-75889285D01*
X118235714Y-76003571D01*
X118197619Y-76079761D01*
X118159523Y-76117857D01*
X118083333Y-76155952D01*
X117778571Y-76155952D01*
X118997619Y-76536904D02*
X118540476Y-76536904D01*
X118769047Y-76536904D02*
X118769047Y-75736904D01*
X118692857Y-75851190D01*
X118616666Y-75927380D01*
X118540476Y-75965476D01*
X119492857Y-75736904D02*
X119569047Y-75736904D01*
X119645238Y-75775000D01*
X119683333Y-75813095D01*
X119721428Y-75889285D01*
X119759523Y-76041666D01*
X119759523Y-76232142D01*
X119721428Y-76384523D01*
X119683333Y-76460714D01*
X119645238Y-76498809D01*
X119569047Y-76536904D01*
X119492857Y-76536904D01*
X119416666Y-76498809D01*
X119378571Y-76460714D01*
X119340476Y-76384523D01*
X119302380Y-76232142D01*
X119302380Y-76041666D01*
X119340476Y-75889285D01*
X119378571Y-75813095D01*
X119416666Y-75775000D01*
X119492857Y-75736904D01*
X133235714Y-76536904D02*
X132969047Y-76155952D01*
X132778571Y-76536904D02*
X132778571Y-75736904D01*
X133083333Y-75736904D01*
X133159523Y-75775000D01*
X133197619Y-75813095D01*
X133235714Y-75889285D01*
X133235714Y-76003571D01*
X133197619Y-76079761D01*
X133159523Y-76117857D01*
X133083333Y-76155952D01*
X132778571Y-76155952D01*
X133997619Y-76536904D02*
X133540476Y-76536904D01*
X133769047Y-76536904D02*
X133769047Y-75736904D01*
X133692857Y-75851190D01*
X133616666Y-75927380D01*
X133540476Y-75965476D01*
X134302380Y-75813095D02*
X134340476Y-75775000D01*
X134416666Y-75736904D01*
X134607142Y-75736904D01*
X134683333Y-75775000D01*
X134721428Y-75813095D01*
X134759523Y-75889285D01*
X134759523Y-75965476D01*
X134721428Y-76079761D01*
X134264285Y-76536904D01*
X134759523Y-76536904D01*
X165090476Y-64811904D02*
X165090476Y-65459523D01*
X165128571Y-65535714D01*
X165166666Y-65573809D01*
X165242857Y-65611904D01*
X165395238Y-65611904D01*
X165471428Y-65573809D01*
X165509523Y-65535714D01*
X165547619Y-65459523D01*
X165547619Y-64811904D01*
X166347619Y-65611904D02*
X165890476Y-65611904D01*
X166119047Y-65611904D02*
X166119047Y-64811904D01*
X166042857Y-64926190D01*
X165966666Y-65002380D01*
X165890476Y-65040476D01*
X167171904Y-90809523D02*
X167819523Y-90809523D01*
X167895714Y-90771428D01*
X167933809Y-90733333D01*
X167971904Y-90657142D01*
X167971904Y-90504761D01*
X167933809Y-90428571D01*
X167895714Y-90390476D01*
X167819523Y-90352380D01*
X167171904Y-90352380D01*
X167248095Y-90009523D02*
X167210000Y-89971428D01*
X167171904Y-89895238D01*
X167171904Y-89704761D01*
X167210000Y-89628571D01*
X167248095Y-89590476D01*
X167324285Y-89552380D01*
X167400476Y-89552380D01*
X167514761Y-89590476D01*
X167971904Y-90047619D01*
X167971904Y-89552380D01*
X167171904Y-99909523D02*
X167819523Y-99909523D01*
X167895714Y-99871428D01*
X167933809Y-99833333D01*
X167971904Y-99757142D01*
X167971904Y-99604761D01*
X167933809Y-99528571D01*
X167895714Y-99490476D01*
X167819523Y-99452380D01*
X167171904Y-99452380D01*
X167171904Y-99147619D02*
X167171904Y-98652380D01*
X167476666Y-98919047D01*
X167476666Y-98804761D01*
X167514761Y-98728571D01*
X167552857Y-98690476D01*
X167629047Y-98652380D01*
X167819523Y-98652380D01*
X167895714Y-98690476D01*
X167933809Y-98728571D01*
X167971904Y-98804761D01*
X167971904Y-99033333D01*
X167933809Y-99109523D01*
X167895714Y-99147619D01*
X167171904Y-108359523D02*
X167819523Y-108359523D01*
X167895714Y-108321428D01*
X167933809Y-108283333D01*
X167971904Y-108207142D01*
X167971904Y-108054761D01*
X167933809Y-107978571D01*
X167895714Y-107940476D01*
X167819523Y-107902380D01*
X167171904Y-107902380D01*
X167438571Y-107178571D02*
X167971904Y-107178571D01*
X167133809Y-107369047D02*
X167705238Y-107559523D01*
X167705238Y-107064285D01*
X151116666Y-71461904D02*
X150850000Y-71080952D01*
X150659523Y-71461904D02*
X150659523Y-70661904D01*
X150964285Y-70661904D01*
X151040476Y-70700000D01*
X151078571Y-70738095D01*
X151116666Y-70814285D01*
X151116666Y-70928571D01*
X151078571Y-71004761D01*
X151040476Y-71042857D01*
X150964285Y-71080952D01*
X150659523Y-71080952D01*
X151383333Y-70661904D02*
X151878571Y-70661904D01*
X151611904Y-70966666D01*
X151726190Y-70966666D01*
X151802380Y-71004761D01*
X151840476Y-71042857D01*
X151878571Y-71119047D01*
X151878571Y-71309523D01*
X151840476Y-71385714D01*
X151802380Y-71423809D01*
X151726190Y-71461904D01*
X151497619Y-71461904D01*
X151421428Y-71423809D01*
X151383333Y-71385714D01*
X105611904Y-76264285D02*
X105230952Y-76530952D01*
X105611904Y-76721428D02*
X104811904Y-76721428D01*
X104811904Y-76416666D01*
X104850000Y-76340476D01*
X104888095Y-76302380D01*
X104964285Y-76264285D01*
X105078571Y-76264285D01*
X105154761Y-76302380D01*
X105192857Y-76340476D01*
X105230952Y-76416666D01*
X105230952Y-76721428D01*
X105611904Y-75502380D02*
X105611904Y-75959523D01*
X105611904Y-75730952D02*
X104811904Y-75730952D01*
X104926190Y-75807142D01*
X105002380Y-75883333D01*
X105040476Y-75959523D01*
X105611904Y-74740476D02*
X105611904Y-75197619D01*
X105611904Y-74969047D02*
X104811904Y-74969047D01*
X104926190Y-75045238D01*
X105002380Y-75121428D01*
X105040476Y-75197619D01*
X133866666Y-89536904D02*
X133600000Y-89155952D01*
X133409523Y-89536904D02*
X133409523Y-88736904D01*
X133714285Y-88736904D01*
X133790476Y-88775000D01*
X133828571Y-88813095D01*
X133866666Y-88889285D01*
X133866666Y-89003571D01*
X133828571Y-89079761D01*
X133790476Y-89117857D01*
X133714285Y-89155952D01*
X133409523Y-89155952D01*
X134133333Y-88736904D02*
X134666666Y-88736904D01*
X134323809Y-89536904D01*
X127016904Y-89570476D02*
X126216904Y-89570476D01*
X126216904Y-89380000D01*
X126255000Y-89265714D01*
X126331190Y-89189523D01*
X126407380Y-89151428D01*
X126559761Y-89113333D01*
X126674047Y-89113333D01*
X126826428Y-89151428D01*
X126902619Y-89189523D01*
X126978809Y-89265714D01*
X127016904Y-89380000D01*
X127016904Y-89570476D01*
X127016904Y-88351428D02*
X127016904Y-88808571D01*
X127016904Y-88580000D02*
X126216904Y-88580000D01*
X126331190Y-88656190D01*
X126407380Y-88732380D01*
X126445476Y-88808571D01*
X142191904Y-89545476D02*
X141391904Y-89545476D01*
X141391904Y-89355000D01*
X141430000Y-89240714D01*
X141506190Y-89164523D01*
X141582380Y-89126428D01*
X141734761Y-89088333D01*
X141849047Y-89088333D01*
X142001428Y-89126428D01*
X142077619Y-89164523D01*
X142153809Y-89240714D01*
X142191904Y-89355000D01*
X142191904Y-89545476D01*
X141468095Y-88783571D02*
X141430000Y-88745476D01*
X141391904Y-88669285D01*
X141391904Y-88478809D01*
X141430000Y-88402619D01*
X141468095Y-88364523D01*
X141544285Y-88326428D01*
X141620476Y-88326428D01*
X141734761Y-88364523D01*
X142191904Y-88821666D01*
X142191904Y-88326428D01*
X144266904Y-89039285D02*
X143885952Y-89305952D01*
X144266904Y-89496428D02*
X143466904Y-89496428D01*
X143466904Y-89191666D01*
X143505000Y-89115476D01*
X143543095Y-89077380D01*
X143619285Y-89039285D01*
X143733571Y-89039285D01*
X143809761Y-89077380D01*
X143847857Y-89115476D01*
X143885952Y-89191666D01*
X143885952Y-89496428D01*
X144266904Y-88277380D02*
X144266904Y-88734523D01*
X144266904Y-88505952D02*
X143466904Y-88505952D01*
X143581190Y-88582142D01*
X143657380Y-88658333D01*
X143695476Y-88734523D01*
X143733571Y-87591666D02*
X144266904Y-87591666D01*
X143428809Y-87782142D02*
X144000238Y-87972619D01*
X144000238Y-87477380D01*
X129316904Y-89014285D02*
X128935952Y-89280952D01*
X129316904Y-89471428D02*
X128516904Y-89471428D01*
X128516904Y-89166666D01*
X128555000Y-89090476D01*
X128593095Y-89052380D01*
X128669285Y-89014285D01*
X128783571Y-89014285D01*
X128859761Y-89052380D01*
X128897857Y-89090476D01*
X128935952Y-89166666D01*
X128935952Y-89471428D01*
X129316904Y-88252380D02*
X129316904Y-88709523D01*
X129316904Y-88480952D02*
X128516904Y-88480952D01*
X128631190Y-88557142D01*
X128707380Y-88633333D01*
X128745476Y-88709523D01*
X128516904Y-87985714D02*
X128516904Y-87490476D01*
X128821666Y-87757142D01*
X128821666Y-87642857D01*
X128859761Y-87566666D01*
X128897857Y-87528571D01*
X128974047Y-87490476D01*
X129164523Y-87490476D01*
X129240714Y-87528571D01*
X129278809Y-87566666D01*
X129316904Y-87642857D01*
X129316904Y-87871428D01*
X129278809Y-87947619D01*
X129240714Y-87985714D01*
X127216904Y-102645476D02*
X126416904Y-102645476D01*
X126416904Y-102455000D01*
X126455000Y-102340714D01*
X126531190Y-102264523D01*
X126607380Y-102226428D01*
X126759761Y-102188333D01*
X126874047Y-102188333D01*
X127026428Y-102226428D01*
X127102619Y-102264523D01*
X127178809Y-102340714D01*
X127216904Y-102455000D01*
X127216904Y-102645476D01*
X126416904Y-101921666D02*
X126416904Y-101426428D01*
X126721666Y-101693095D01*
X126721666Y-101578809D01*
X126759761Y-101502619D01*
X126797857Y-101464523D01*
X126874047Y-101426428D01*
X127064523Y-101426428D01*
X127140714Y-101464523D01*
X127178809Y-101502619D01*
X127216904Y-101578809D01*
X127216904Y-101807380D01*
X127178809Y-101883571D01*
X127140714Y-101921666D01*
X127241904Y-76520476D02*
X126441904Y-76520476D01*
X126441904Y-76330000D01*
X126480000Y-76215714D01*
X126556190Y-76139523D01*
X126632380Y-76101428D01*
X126784761Y-76063333D01*
X126899047Y-76063333D01*
X127051428Y-76101428D01*
X127127619Y-76139523D01*
X127203809Y-76215714D01*
X127241904Y-76330000D01*
X127241904Y-76520476D01*
X126708571Y-75377619D02*
X127241904Y-75377619D01*
X126403809Y-75568095D02*
X126975238Y-75758571D01*
X126975238Y-75263333D01*
X129416904Y-102164285D02*
X129035952Y-102430952D01*
X129416904Y-102621428D02*
X128616904Y-102621428D01*
X128616904Y-102316666D01*
X128655000Y-102240476D01*
X128693095Y-102202380D01*
X128769285Y-102164285D01*
X128883571Y-102164285D01*
X128959761Y-102202380D01*
X128997857Y-102240476D01*
X129035952Y-102316666D01*
X129035952Y-102621428D01*
X129416904Y-101402380D02*
X129416904Y-101859523D01*
X129416904Y-101630952D02*
X128616904Y-101630952D01*
X128731190Y-101707142D01*
X128807380Y-101783333D01*
X128845476Y-101859523D01*
X128616904Y-100678571D02*
X128616904Y-101059523D01*
X128997857Y-101097619D01*
X128959761Y-101059523D01*
X128921666Y-100983333D01*
X128921666Y-100792857D01*
X128959761Y-100716666D01*
X128997857Y-100678571D01*
X129074047Y-100640476D01*
X129264523Y-100640476D01*
X129340714Y-100678571D01*
X129378809Y-100716666D01*
X129416904Y-100792857D01*
X129416904Y-100983333D01*
X129378809Y-101059523D01*
X129340714Y-101097619D01*
X129316904Y-76039285D02*
X128935952Y-76305952D01*
X129316904Y-76496428D02*
X128516904Y-76496428D01*
X128516904Y-76191666D01*
X128555000Y-76115476D01*
X128593095Y-76077380D01*
X128669285Y-76039285D01*
X128783571Y-76039285D01*
X128859761Y-76077380D01*
X128897857Y-76115476D01*
X128935952Y-76191666D01*
X128935952Y-76496428D01*
X129316904Y-75277380D02*
X129316904Y-75734523D01*
X129316904Y-75505952D02*
X128516904Y-75505952D01*
X128631190Y-75582142D01*
X128707380Y-75658333D01*
X128745476Y-75734523D01*
X128516904Y-74591666D02*
X128516904Y-74744047D01*
X128555000Y-74820238D01*
X128593095Y-74858333D01*
X128707380Y-74934523D01*
X128859761Y-74972619D01*
X129164523Y-74972619D01*
X129240714Y-74934523D01*
X129278809Y-74896428D01*
X129316904Y-74820238D01*
X129316904Y-74667857D01*
X129278809Y-74591666D01*
X129240714Y-74553571D01*
X129164523Y-74515476D01*
X128974047Y-74515476D01*
X128897857Y-74553571D01*
X128859761Y-74591666D01*
X128821666Y-74667857D01*
X128821666Y-74820238D01*
X128859761Y-74896428D01*
X128897857Y-74934523D01*
X128974047Y-74972619D01*
X113116904Y-76620476D02*
X112316904Y-76620476D01*
X112316904Y-76430000D01*
X112355000Y-76315714D01*
X112431190Y-76239523D01*
X112507380Y-76201428D01*
X112659761Y-76163333D01*
X112774047Y-76163333D01*
X112926428Y-76201428D01*
X113002619Y-76239523D01*
X113078809Y-76315714D01*
X113116904Y-76430000D01*
X113116904Y-76620476D01*
X112316904Y-75439523D02*
X112316904Y-75820476D01*
X112697857Y-75858571D01*
X112659761Y-75820476D01*
X112621666Y-75744285D01*
X112621666Y-75553809D01*
X112659761Y-75477619D01*
X112697857Y-75439523D01*
X112774047Y-75401428D01*
X112964523Y-75401428D01*
X113040714Y-75439523D01*
X113078809Y-75477619D01*
X113116904Y-75553809D01*
X113116904Y-75744285D01*
X113078809Y-75820476D01*
X113040714Y-75858571D01*
X142266904Y-76470476D02*
X141466904Y-76470476D01*
X141466904Y-76280000D01*
X141505000Y-76165714D01*
X141581190Y-76089523D01*
X141657380Y-76051428D01*
X141809761Y-76013333D01*
X141924047Y-76013333D01*
X142076428Y-76051428D01*
X142152619Y-76089523D01*
X142228809Y-76165714D01*
X142266904Y-76280000D01*
X142266904Y-76470476D01*
X141466904Y-75327619D02*
X141466904Y-75480000D01*
X141505000Y-75556190D01*
X141543095Y-75594285D01*
X141657380Y-75670476D01*
X141809761Y-75708571D01*
X142114523Y-75708571D01*
X142190714Y-75670476D01*
X142228809Y-75632380D01*
X142266904Y-75556190D01*
X142266904Y-75403809D01*
X142228809Y-75327619D01*
X142190714Y-75289523D01*
X142114523Y-75251428D01*
X141924047Y-75251428D01*
X141847857Y-75289523D01*
X141809761Y-75327619D01*
X141771666Y-75403809D01*
X141771666Y-75556190D01*
X141809761Y-75632380D01*
X141847857Y-75670476D01*
X141924047Y-75708571D01*
X115241904Y-76089285D02*
X114860952Y-76355952D01*
X115241904Y-76546428D02*
X114441904Y-76546428D01*
X114441904Y-76241666D01*
X114480000Y-76165476D01*
X114518095Y-76127380D01*
X114594285Y-76089285D01*
X114708571Y-76089285D01*
X114784761Y-76127380D01*
X114822857Y-76165476D01*
X114860952Y-76241666D01*
X114860952Y-76546428D01*
X115241904Y-75327380D02*
X115241904Y-75784523D01*
X115241904Y-75555952D02*
X114441904Y-75555952D01*
X114556190Y-75632142D01*
X114632380Y-75708333D01*
X114670476Y-75784523D01*
X114441904Y-75060714D02*
X114441904Y-74527380D01*
X115241904Y-74870238D01*
X144341904Y-75914285D02*
X143960952Y-76180952D01*
X144341904Y-76371428D02*
X143541904Y-76371428D01*
X143541904Y-76066666D01*
X143580000Y-75990476D01*
X143618095Y-75952380D01*
X143694285Y-75914285D01*
X143808571Y-75914285D01*
X143884761Y-75952380D01*
X143922857Y-75990476D01*
X143960952Y-76066666D01*
X143960952Y-76371428D01*
X144341904Y-75152380D02*
X144341904Y-75609523D01*
X144341904Y-75380952D02*
X143541904Y-75380952D01*
X143656190Y-75457142D01*
X143732380Y-75533333D01*
X143770476Y-75609523D01*
X143884761Y-74695238D02*
X143846666Y-74771428D01*
X143808571Y-74809523D01*
X143732380Y-74847619D01*
X143694285Y-74847619D01*
X143618095Y-74809523D01*
X143580000Y-74771428D01*
X143541904Y-74695238D01*
X143541904Y-74542857D01*
X143580000Y-74466666D01*
X143618095Y-74428571D01*
X143694285Y-74390476D01*
X143732380Y-74390476D01*
X143808571Y-74428571D01*
X143846666Y-74466666D01*
X143884761Y-74542857D01*
X143884761Y-74695238D01*
X143922857Y-74771428D01*
X143960952Y-74809523D01*
X144037142Y-74847619D01*
X144189523Y-74847619D01*
X144265714Y-74809523D01*
X144303809Y-74771428D01*
X144341904Y-74695238D01*
X144341904Y-74542857D01*
X144303809Y-74466666D01*
X144265714Y-74428571D01*
X144189523Y-74390476D01*
X144037142Y-74390476D01*
X143960952Y-74428571D01*
X143922857Y-74466666D01*
X143884761Y-74542857D01*
X113216904Y-89465476D02*
X112416904Y-89465476D01*
X112416904Y-89275000D01*
X112455000Y-89160714D01*
X112531190Y-89084523D01*
X112607380Y-89046428D01*
X112759761Y-89008333D01*
X112874047Y-89008333D01*
X113026428Y-89046428D01*
X113102619Y-89084523D01*
X113178809Y-89160714D01*
X113216904Y-89275000D01*
X113216904Y-89465476D01*
X112416904Y-88741666D02*
X112416904Y-88208333D01*
X113216904Y-88551190D01*
X115457380Y-89117857D02*
X114981190Y-89451190D01*
X115457380Y-89689285D02*
X114457380Y-89689285D01*
X114457380Y-89308333D01*
X114505000Y-89213095D01*
X114552619Y-89165476D01*
X114647857Y-89117857D01*
X114790714Y-89117857D01*
X114885952Y-89165476D01*
X114933571Y-89213095D01*
X114981190Y-89308333D01*
X114981190Y-89689285D01*
X115457380Y-88165476D02*
X115457380Y-88736904D01*
X115457380Y-88451190D02*
X114457380Y-88451190D01*
X114600238Y-88546428D01*
X114695476Y-88641666D01*
X114743095Y-88736904D01*
X115457380Y-87689285D02*
X115457380Y-87498809D01*
X115409761Y-87403571D01*
X115362142Y-87355952D01*
X115219285Y-87260714D01*
X115028809Y-87213095D01*
X114647857Y-87213095D01*
X114552619Y-87260714D01*
X114505000Y-87308333D01*
X114457380Y-87403571D01*
X114457380Y-87594047D01*
X114505000Y-87689285D01*
X114552619Y-87736904D01*
X114647857Y-87784523D01*
X114885952Y-87784523D01*
X114981190Y-87736904D01*
X115028809Y-87689285D01*
X115076428Y-87594047D01*
X115076428Y-87403571D01*
X115028809Y-87308333D01*
X114981190Y-87260714D01*
X114885952Y-87213095D01*
X112857380Y-102788095D02*
X111857380Y-102788095D01*
X111857380Y-102550000D01*
X111905000Y-102407142D01*
X112000238Y-102311904D01*
X112095476Y-102264285D01*
X112285952Y-102216666D01*
X112428809Y-102216666D01*
X112619285Y-102264285D01*
X112714523Y-102311904D01*
X112809761Y-102407142D01*
X112857380Y-102550000D01*
X112857380Y-102788095D01*
X112285952Y-101645238D02*
X112238333Y-101740476D01*
X112190714Y-101788095D01*
X112095476Y-101835714D01*
X112047857Y-101835714D01*
X111952619Y-101788095D01*
X111905000Y-101740476D01*
X111857380Y-101645238D01*
X111857380Y-101454761D01*
X111905000Y-101359523D01*
X111952619Y-101311904D01*
X112047857Y-101264285D01*
X112095476Y-101264285D01*
X112190714Y-101311904D01*
X112238333Y-101359523D01*
X112285952Y-101454761D01*
X112285952Y-101645238D01*
X112333571Y-101740476D01*
X112381190Y-101788095D01*
X112476428Y-101835714D01*
X112666904Y-101835714D01*
X112762142Y-101788095D01*
X112809761Y-101740476D01*
X112857380Y-101645238D01*
X112857380Y-101454761D01*
X112809761Y-101359523D01*
X112762142Y-101311904D01*
X112666904Y-101264285D01*
X112476428Y-101264285D01*
X112381190Y-101311904D01*
X112333571Y-101359523D01*
X112285952Y-101454761D01*
X115107380Y-102166666D02*
X114631190Y-102500000D01*
X115107380Y-102738095D02*
X114107380Y-102738095D01*
X114107380Y-102357142D01*
X114155000Y-102261904D01*
X114202619Y-102214285D01*
X114297857Y-102166666D01*
X114440714Y-102166666D01*
X114535952Y-102214285D01*
X114583571Y-102261904D01*
X114631190Y-102357142D01*
X114631190Y-102738095D01*
X115107380Y-101214285D02*
X115107380Y-101785714D01*
X115107380Y-101500000D02*
X114107380Y-101500000D01*
X114250238Y-101595238D01*
X114345476Y-101690476D01*
X114393095Y-101785714D01*
X167117380Y-80811904D02*
X167926904Y-80811904D01*
X168022142Y-80764285D01*
X168069761Y-80716666D01*
X168117380Y-80621428D01*
X168117380Y-80430952D01*
X168069761Y-80335714D01*
X168022142Y-80288095D01*
X167926904Y-80240476D01*
X167117380Y-80240476D01*
X167117380Y-79288095D02*
X167117380Y-79764285D01*
X167593571Y-79811904D01*
X167545952Y-79764285D01*
X167498333Y-79669047D01*
X167498333Y-79430952D01*
X167545952Y-79335714D01*
X167593571Y-79288095D01*
X167688809Y-79240476D01*
X167926904Y-79240476D01*
X168022142Y-79288095D01*
X168069761Y-79335714D01*
X168117380Y-79430952D01*
X168117380Y-79669047D01*
X168069761Y-79764285D01*
X168022142Y-79811904D01*
X163458571Y-70611904D02*
X163458571Y-69811904D01*
X163649047Y-69811904D01*
X163763333Y-69850000D01*
X163839523Y-69926190D01*
X163877619Y-70002380D01*
X163915714Y-70154761D01*
X163915714Y-70269047D01*
X163877619Y-70421428D01*
X163839523Y-70497619D01*
X163763333Y-70573809D01*
X163649047Y-70611904D01*
X163458571Y-70611904D01*
X164677619Y-70611904D02*
X164220476Y-70611904D01*
X164449047Y-70611904D02*
X164449047Y-69811904D01*
X164372857Y-69926190D01*
X164296666Y-70002380D01*
X164220476Y-70040476D01*
X165172857Y-69811904D02*
X165249047Y-69811904D01*
X165325238Y-69850000D01*
X165363333Y-69888095D01*
X165401428Y-69964285D01*
X165439523Y-70116666D01*
X165439523Y-70307142D01*
X165401428Y-70459523D01*
X165363333Y-70535714D01*
X165325238Y-70573809D01*
X165249047Y-70611904D01*
X165172857Y-70611904D01*
X165096666Y-70573809D01*
X165058571Y-70535714D01*
X165020476Y-70459523D01*
X164982380Y-70307142D01*
X164982380Y-70116666D01*
X165020476Y-69964285D01*
X165058571Y-69888095D01*
X165096666Y-69850000D01*
X165172857Y-69811904D01*
X156440714Y-72386904D02*
X156174047Y-72005952D01*
X155983571Y-72386904D02*
X155983571Y-71586904D01*
X156288333Y-71586904D01*
X156364523Y-71625000D01*
X156402619Y-71663095D01*
X156440714Y-71739285D01*
X156440714Y-71853571D01*
X156402619Y-71929761D01*
X156364523Y-71967857D01*
X156288333Y-72005952D01*
X155983571Y-72005952D01*
X156745476Y-71663095D02*
X156783571Y-71625000D01*
X156859761Y-71586904D01*
X157050238Y-71586904D01*
X157126428Y-71625000D01*
X157164523Y-71663095D01*
X157202619Y-71739285D01*
X157202619Y-71815476D01*
X157164523Y-71929761D01*
X156707380Y-72386904D01*
X157202619Y-72386904D01*
X157964523Y-72386904D02*
X157507380Y-72386904D01*
X157735952Y-72386904D02*
X157735952Y-71586904D01*
X157659761Y-71701190D01*
X157583571Y-71777380D01*
X157507380Y-71815476D01*
X163539523Y-57261904D02*
X163539523Y-56461904D01*
X163730000Y-56461904D01*
X163844285Y-56500000D01*
X163920476Y-56576190D01*
X163958571Y-56652380D01*
X163996666Y-56804761D01*
X163996666Y-56919047D01*
X163958571Y-57071428D01*
X163920476Y-57147619D01*
X163844285Y-57223809D01*
X163730000Y-57261904D01*
X163539523Y-57261904D01*
X164377619Y-57261904D02*
X164530000Y-57261904D01*
X164606190Y-57223809D01*
X164644285Y-57185714D01*
X164720476Y-57071428D01*
X164758571Y-56919047D01*
X164758571Y-56614285D01*
X164720476Y-56538095D01*
X164682380Y-56500000D01*
X164606190Y-56461904D01*
X164453809Y-56461904D01*
X164377619Y-56500000D01*
X164339523Y-56538095D01*
X164301428Y-56614285D01*
X164301428Y-56804761D01*
X164339523Y-56880952D01*
X164377619Y-56919047D01*
X164453809Y-56957142D01*
X164606190Y-56957142D01*
X164682380Y-56919047D01*
X164720476Y-56880952D01*
X164758571Y-56804761D01*
X142482380Y-100221904D02*
X143291904Y-100221904D01*
X143387142Y-100174285D01*
X143434761Y-100126666D01*
X143482380Y-100031428D01*
X143482380Y-99840952D01*
X143434761Y-99745714D01*
X143387142Y-99698095D01*
X143291904Y-99650476D01*
X142482380Y-99650476D01*
X142482380Y-98745714D02*
X142482380Y-98936190D01*
X142530000Y-99031428D01*
X142577619Y-99079047D01*
X142720476Y-99174285D01*
X142910952Y-99221904D01*
X143291904Y-99221904D01*
X143387142Y-99174285D01*
X143434761Y-99126666D01*
X143482380Y-99031428D01*
X143482380Y-98840952D01*
X143434761Y-98745714D01*
X143387142Y-98698095D01*
X143291904Y-98650476D01*
X143053809Y-98650476D01*
X142958571Y-98698095D01*
X142910952Y-98745714D01*
X142863333Y-98840952D01*
X142863333Y-99031428D01*
X142910952Y-99126666D01*
X142958571Y-99174285D01*
X143053809Y-99221904D01*
X159715714Y-57311904D02*
X159449047Y-56930952D01*
X159258571Y-57311904D02*
X159258571Y-56511904D01*
X159563333Y-56511904D01*
X159639523Y-56550000D01*
X159677619Y-56588095D01*
X159715714Y-56664285D01*
X159715714Y-56778571D01*
X159677619Y-56854761D01*
X159639523Y-56892857D01*
X159563333Y-56930952D01*
X159258571Y-56930952D01*
X160020476Y-56588095D02*
X160058571Y-56550000D01*
X160134761Y-56511904D01*
X160325238Y-56511904D01*
X160401428Y-56550000D01*
X160439523Y-56588095D01*
X160477619Y-56664285D01*
X160477619Y-56740476D01*
X160439523Y-56854761D01*
X159982380Y-57311904D01*
X160477619Y-57311904D01*
X160972857Y-56511904D02*
X161049047Y-56511904D01*
X161125238Y-56550000D01*
X161163333Y-56588095D01*
X161201428Y-56664285D01*
X161239523Y-56816666D01*
X161239523Y-57007142D01*
X161201428Y-57159523D01*
X161163333Y-57235714D01*
X161125238Y-57273809D01*
X161049047Y-57311904D01*
X160972857Y-57311904D01*
X160896666Y-57273809D01*
X160858571Y-57235714D01*
X160820476Y-57159523D01*
X160782380Y-57007142D01*
X160782380Y-56816666D01*
X160820476Y-56664285D01*
X160858571Y-56588095D01*
X160896666Y-56550000D01*
X160972857Y-56511904D01*
X148941666Y-74961904D02*
X148675000Y-74580952D01*
X148484523Y-74961904D02*
X148484523Y-74161904D01*
X148789285Y-74161904D01*
X148865476Y-74200000D01*
X148903571Y-74238095D01*
X148941666Y-74314285D01*
X148941666Y-74428571D01*
X148903571Y-74504761D01*
X148865476Y-74542857D01*
X148789285Y-74580952D01*
X148484523Y-74580952D01*
X149246428Y-74238095D02*
X149284523Y-74200000D01*
X149360714Y-74161904D01*
X149551190Y-74161904D01*
X149627380Y-74200000D01*
X149665476Y-74238095D01*
X149703571Y-74314285D01*
X149703571Y-74390476D01*
X149665476Y-74504761D01*
X149208333Y-74961904D01*
X149703571Y-74961904D01*
X154882142Y-80502380D02*
X154548809Y-80026190D01*
X154310714Y-80502380D02*
X154310714Y-79502380D01*
X154691666Y-79502380D01*
X154786904Y-79550000D01*
X154834523Y-79597619D01*
X154882142Y-79692857D01*
X154882142Y-79835714D01*
X154834523Y-79930952D01*
X154786904Y-79978571D01*
X154691666Y-80026190D01*
X154310714Y-80026190D01*
X155263095Y-79597619D02*
X155310714Y-79550000D01*
X155405952Y-79502380D01*
X155644047Y-79502380D01*
X155739285Y-79550000D01*
X155786904Y-79597619D01*
X155834523Y-79692857D01*
X155834523Y-79788095D01*
X155786904Y-79930952D01*
X155215476Y-80502380D01*
X155834523Y-80502380D01*
X156215476Y-79597619D02*
X156263095Y-79550000D01*
X156358333Y-79502380D01*
X156596428Y-79502380D01*
X156691666Y-79550000D01*
X156739285Y-79597619D01*
X156786904Y-79692857D01*
X156786904Y-79788095D01*
X156739285Y-79930952D01*
X156167857Y-80502380D01*
X156786904Y-80502380D01*
X154832142Y-75002380D02*
X154498809Y-74526190D01*
X154260714Y-75002380D02*
X154260714Y-74002380D01*
X154641666Y-74002380D01*
X154736904Y-74050000D01*
X154784523Y-74097619D01*
X154832142Y-74192857D01*
X154832142Y-74335714D01*
X154784523Y-74430952D01*
X154736904Y-74478571D01*
X154641666Y-74526190D01*
X154260714Y-74526190D01*
X155213095Y-74097619D02*
X155260714Y-74050000D01*
X155355952Y-74002380D01*
X155594047Y-74002380D01*
X155689285Y-74050000D01*
X155736904Y-74097619D01*
X155784523Y-74192857D01*
X155784523Y-74288095D01*
X155736904Y-74430952D01*
X155165476Y-75002380D01*
X155784523Y-75002380D01*
X156117857Y-74002380D02*
X156736904Y-74002380D01*
X156403571Y-74383333D01*
X156546428Y-74383333D01*
X156641666Y-74430952D01*
X156689285Y-74478571D01*
X156736904Y-74573809D01*
X156736904Y-74811904D01*
X156689285Y-74907142D01*
X156641666Y-74954761D01*
X156546428Y-75002380D01*
X156260714Y-75002380D01*
X156165476Y-74954761D01*
X156117857Y-74907142D01*
X125952380Y-88345238D02*
X125476190Y-88678571D01*
X125952380Y-88916666D02*
X124952380Y-88916666D01*
X124952380Y-88535714D01*
X125000000Y-88440476D01*
X125047619Y-88392857D01*
X125142857Y-88345238D01*
X125285714Y-88345238D01*
X125380952Y-88392857D01*
X125428571Y-88440476D01*
X125476190Y-88535714D01*
X125476190Y-88916666D01*
X124952380Y-88059523D02*
X125952380Y-87726190D01*
X124952380Y-87392857D01*
X125047619Y-87107142D02*
X125000000Y-87059523D01*
X124952380Y-86964285D01*
X124952380Y-86726190D01*
X125000000Y-86630952D01*
X125047619Y-86583333D01*
X125142857Y-86535714D01*
X125238095Y-86535714D01*
X125380952Y-86583333D01*
X125952380Y-87154761D01*
X125952380Y-86535714D01*
X140952380Y-88345238D02*
X140476190Y-88678571D01*
X140952380Y-88916666D02*
X139952380Y-88916666D01*
X139952380Y-88535714D01*
X140000000Y-88440476D01*
X140047619Y-88392857D01*
X140142857Y-88345238D01*
X140285714Y-88345238D01*
X140380952Y-88392857D01*
X140428571Y-88440476D01*
X140476190Y-88535714D01*
X140476190Y-88916666D01*
X139952380Y-88059523D02*
X140952380Y-87726190D01*
X139952380Y-87392857D01*
X139952380Y-87154761D02*
X139952380Y-86535714D01*
X140333333Y-86869047D01*
X140333333Y-86726190D01*
X140380952Y-86630952D01*
X140428571Y-86583333D01*
X140523809Y-86535714D01*
X140761904Y-86535714D01*
X140857142Y-86583333D01*
X140904761Y-86630952D01*
X140952380Y-86726190D01*
X140952380Y-87011904D01*
X140904761Y-87107142D01*
X140857142Y-87154761D01*
X111952380Y-88345238D02*
X111476190Y-88678571D01*
X111952380Y-88916666D02*
X110952380Y-88916666D01*
X110952380Y-88535714D01*
X111000000Y-88440476D01*
X111047619Y-88392857D01*
X111142857Y-88345238D01*
X111285714Y-88345238D01*
X111380952Y-88392857D01*
X111428571Y-88440476D01*
X111476190Y-88535714D01*
X111476190Y-88916666D01*
X110952380Y-88059523D02*
X111952380Y-87726190D01*
X110952380Y-87392857D01*
X111285714Y-86630952D02*
X111952380Y-86630952D01*
X110904761Y-86869047D02*
X111619047Y-87107142D01*
X111619047Y-86488095D01*
X122404761Y-72412380D02*
X122071428Y-71936190D01*
X121833333Y-72412380D02*
X121833333Y-71412380D01*
X122214285Y-71412380D01*
X122309523Y-71460000D01*
X122357142Y-71507619D01*
X122404761Y-71602857D01*
X122404761Y-71745714D01*
X122357142Y-71840952D01*
X122309523Y-71888571D01*
X122214285Y-71936190D01*
X121833333Y-71936190D01*
X122690476Y-71412380D02*
X123023809Y-72412380D01*
X123357142Y-71412380D01*
X124166666Y-71412380D02*
X123690476Y-71412380D01*
X123642857Y-71888571D01*
X123690476Y-71840952D01*
X123785714Y-71793333D01*
X124023809Y-71793333D01*
X124119047Y-71840952D01*
X124166666Y-71888571D01*
X124214285Y-71983809D01*
X124214285Y-72221904D01*
X124166666Y-72317142D01*
X124119047Y-72364761D01*
X124023809Y-72412380D01*
X123785714Y-72412380D01*
X123690476Y-72364761D01*
X123642857Y-72317142D01*
X108404761Y-72452380D02*
X108071428Y-71976190D01*
X107833333Y-72452380D02*
X107833333Y-71452380D01*
X108214285Y-71452380D01*
X108309523Y-71500000D01*
X108357142Y-71547619D01*
X108404761Y-71642857D01*
X108404761Y-71785714D01*
X108357142Y-71880952D01*
X108309523Y-71928571D01*
X108214285Y-71976190D01*
X107833333Y-71976190D01*
X108690476Y-71452380D02*
X109023809Y-72452380D01*
X109357142Y-71452380D01*
X110119047Y-71452380D02*
X109928571Y-71452380D01*
X109833333Y-71500000D01*
X109785714Y-71547619D01*
X109690476Y-71690476D01*
X109642857Y-71880952D01*
X109642857Y-72261904D01*
X109690476Y-72357142D01*
X109738095Y-72404761D01*
X109833333Y-72452380D01*
X110023809Y-72452380D01*
X110119047Y-72404761D01*
X110166666Y-72357142D01*
X110214285Y-72261904D01*
X110214285Y-72023809D01*
X110166666Y-71928571D01*
X110119047Y-71880952D01*
X110023809Y-71833333D01*
X109833333Y-71833333D01*
X109738095Y-71880952D01*
X109690476Y-71928571D01*
X109642857Y-72023809D01*
X125702380Y-103345238D02*
X125226190Y-103678571D01*
X125702380Y-103916666D02*
X124702380Y-103916666D01*
X124702380Y-103535714D01*
X124750000Y-103440476D01*
X124797619Y-103392857D01*
X124892857Y-103345238D01*
X125035714Y-103345238D01*
X125130952Y-103392857D01*
X125178571Y-103440476D01*
X125226190Y-103535714D01*
X125226190Y-103916666D01*
X124702380Y-103059523D02*
X125702380Y-102726190D01*
X124702380Y-102392857D01*
X125130952Y-101916666D02*
X125083333Y-102011904D01*
X125035714Y-102059523D01*
X124940476Y-102107142D01*
X124892857Y-102107142D01*
X124797619Y-102059523D01*
X124750000Y-102011904D01*
X124702380Y-101916666D01*
X124702380Y-101726190D01*
X124750000Y-101630952D01*
X124797619Y-101583333D01*
X124892857Y-101535714D01*
X124940476Y-101535714D01*
X125035714Y-101583333D01*
X125083333Y-101630952D01*
X125130952Y-101726190D01*
X125130952Y-101916666D01*
X125178571Y-102011904D01*
X125226190Y-102059523D01*
X125321428Y-102107142D01*
X125511904Y-102107142D01*
X125607142Y-102059523D01*
X125654761Y-102011904D01*
X125702380Y-101916666D01*
X125702380Y-101726190D01*
X125654761Y-101630952D01*
X125607142Y-101583333D01*
X125511904Y-101535714D01*
X125321428Y-101535714D01*
X125226190Y-101583333D01*
X125178571Y-101630952D01*
X125130952Y-101726190D01*
X108404761Y-100662380D02*
X108071428Y-100186190D01*
X107833333Y-100662380D02*
X107833333Y-99662380D01*
X108214285Y-99662380D01*
X108309523Y-99710000D01*
X108357142Y-99757619D01*
X108404761Y-99852857D01*
X108404761Y-99995714D01*
X108357142Y-100090952D01*
X108309523Y-100138571D01*
X108214285Y-100186190D01*
X107833333Y-100186190D01*
X108690476Y-99662380D02*
X109023809Y-100662380D01*
X109357142Y-99662380D01*
X110214285Y-100662380D02*
X109642857Y-100662380D01*
X109928571Y-100662380D02*
X109928571Y-99662380D01*
X109833333Y-99805238D01*
X109738095Y-99900476D01*
X109642857Y-99948095D01*
X137404761Y-71912380D02*
X137071428Y-71436190D01*
X136833333Y-71912380D02*
X136833333Y-70912380D01*
X137214285Y-70912380D01*
X137309523Y-70960000D01*
X137357142Y-71007619D01*
X137404761Y-71102857D01*
X137404761Y-71245714D01*
X137357142Y-71340952D01*
X137309523Y-71388571D01*
X137214285Y-71436190D01*
X136833333Y-71436190D01*
X137690476Y-70912380D02*
X138023809Y-71912380D01*
X138357142Y-70912380D01*
X138595238Y-70912380D02*
X139261904Y-70912380D01*
X138833333Y-71912380D01*
X136666666Y-53417380D02*
X136666666Y-54131666D01*
X136619047Y-54274523D01*
X136523809Y-54369761D01*
X136380952Y-54417380D01*
X136285714Y-54417380D01*
X137666666Y-54417380D02*
X137095238Y-54417380D01*
X137380952Y-54417380D02*
X137380952Y-53417380D01*
X137285714Y-53560238D01*
X137190476Y-53655476D01*
X137095238Y-53703095D01*
D10*
X170238748Y-108210000D02*
X170761252Y-108210000D01*
X170238748Y-106790000D02*
X170761252Y-106790000D01*
X170238748Y-90710000D02*
X170761252Y-90710000D01*
X170238748Y-89290000D02*
X170761252Y-89290000D01*
X170238748Y-98790000D02*
X170761252Y-98790000D01*
X170238748Y-100210000D02*
X170761252Y-100210000D01*
X170238748Y-79290000D02*
X170761252Y-79290000D01*
X170238748Y-80710000D02*
X170761252Y-80710000D01*
X159938748Y-59890000D02*
X160461252Y-59890000D01*
X159938748Y-61310000D02*
X160461252Y-61310000D01*
X159938748Y-70710000D02*
X160461252Y-70710000D01*
X159938748Y-69290000D02*
X160461252Y-69290000D01*
X154290000Y-98761252D02*
X154290000Y-98238748D01*
X155710000Y-98761252D02*
X155710000Y-98238748D01*
D13*
X114350000Y-68960000D02*
X113650000Y-68960000D01*
X113650000Y-66040000D02*
X114350000Y-66040000D01*
X112700000Y-65995000D02*
X113300000Y-65995000D01*
X114350000Y-66040000D02*
X114350000Y-68960000D01*
X113650000Y-68960000D02*
X113650000Y-66040000D01*
D10*
X155710000Y-102761252D02*
X155710000Y-102238748D01*
X154290000Y-102761252D02*
X154290000Y-102238748D01*
X105210000Y-104713748D02*
X105210000Y-105236252D01*
X103790000Y-104713748D02*
X103790000Y-105236252D01*
X119710000Y-91663748D02*
X119710000Y-92186252D01*
X118290000Y-91663748D02*
X118290000Y-92186252D01*
X118290000Y-105261252D02*
X118290000Y-104738748D01*
X119710000Y-105261252D02*
X119710000Y-104738748D01*
X104540000Y-88488748D02*
X104540000Y-89011252D01*
X105960000Y-88488748D02*
X105960000Y-89011252D01*
X118290000Y-78663748D02*
X118290000Y-79186252D01*
X119710000Y-78663748D02*
X119710000Y-79186252D01*
X133290000Y-78663748D02*
X133290000Y-79186252D01*
X134710000Y-78663748D02*
X134710000Y-79186252D01*
D13*
X161950000Y-62050000D02*
X161950000Y-68550000D01*
X156200000Y-62175000D02*
X157800000Y-62175000D01*
X161950000Y-68550000D02*
X158450000Y-68550000D01*
X158450000Y-62050000D02*
X161950000Y-62050000D01*
X158450000Y-68550000D02*
X158450000Y-62050000D01*
D10*
X165810000Y-88775000D02*
X166610000Y-89575000D01*
X166610000Y-89575000D02*
X166610000Y-91625000D01*
X166610000Y-91625000D02*
X157390000Y-91625000D01*
X157390000Y-91625000D02*
X157390000Y-88775000D01*
X157390000Y-88775000D02*
X165810000Y-88775000D01*
X165810000Y-97875000D02*
X166610000Y-98675000D01*
X166610000Y-100725000D02*
X157390000Y-100725000D01*
X157390000Y-100725000D02*
X157390000Y-97875000D01*
X157390000Y-97875000D02*
X165810000Y-97875000D01*
X166610000Y-98675000D02*
X166610000Y-100725000D01*
X165810000Y-106325000D02*
X166610000Y-107125000D01*
X166610000Y-107125000D02*
X166610000Y-109175000D01*
X166610000Y-109175000D02*
X157390000Y-109175000D01*
X157390000Y-106325000D02*
X165810000Y-106325000D01*
X157390000Y-109175000D02*
X157390000Y-106325000D01*
X150988748Y-72040000D02*
X151511252Y-72040000D01*
X150988748Y-73460000D02*
X151511252Y-73460000D01*
X104520000Y-78663748D02*
X104520000Y-79186252D01*
X105940000Y-78663748D02*
X105940000Y-79186252D01*
X134710000Y-91663748D02*
X134710000Y-92186252D01*
X133290000Y-91663748D02*
X133290000Y-92186252D01*
X127515000Y-93740000D02*
X127515000Y-90880000D01*
X125595000Y-93740000D02*
X127515000Y-93740000D01*
X125595000Y-90880000D02*
X125595000Y-93740000D01*
X142715000Y-93740000D02*
X142715000Y-90880000D01*
X140795000Y-93740000D02*
X142715000Y-93740000D01*
X140795000Y-90880000D02*
X140795000Y-93740000D01*
X144565000Y-92186252D02*
X144565000Y-91663748D01*
X143145000Y-92186252D02*
X143145000Y-91663748D01*
X128045000Y-92186252D02*
X128045000Y-91663748D01*
X129465000Y-92186252D02*
X129465000Y-91663748D01*
X127815000Y-106790000D02*
X127815000Y-103930000D01*
X125895000Y-103930000D02*
X125895000Y-106790000D01*
X125895000Y-106790000D02*
X127815000Y-106790000D01*
X127815000Y-80740000D02*
X127815000Y-77880000D01*
X125895000Y-77880000D02*
X125895000Y-80740000D01*
X125895000Y-80740000D02*
X127815000Y-80740000D01*
X129665000Y-105236252D02*
X129665000Y-104713748D01*
X128245000Y-105236252D02*
X128245000Y-104713748D01*
X128195000Y-79186252D02*
X128195000Y-78663748D01*
X129615000Y-79186252D02*
X129615000Y-78663748D01*
X113690000Y-80740000D02*
X113690000Y-77880000D01*
X111770000Y-77880000D02*
X111770000Y-80740000D01*
X111770000Y-80740000D02*
X113690000Y-80740000D01*
X140870000Y-77880000D02*
X140870000Y-80740000D01*
X142790000Y-80740000D02*
X142790000Y-77880000D01*
X140870000Y-80740000D02*
X142790000Y-80740000D01*
X114070000Y-79186252D02*
X114070000Y-78663748D01*
X115490000Y-79186252D02*
X115490000Y-78663748D01*
X144615000Y-79186252D02*
X144615000Y-78663748D01*
X143195000Y-79186252D02*
X143195000Y-78663748D01*
X111870000Y-93785000D02*
X113790000Y-93785000D01*
X113790000Y-93785000D02*
X113790000Y-90925000D01*
X111870000Y-90925000D02*
X111870000Y-93785000D01*
X115690000Y-92186252D02*
X115690000Y-91663748D01*
X114270000Y-92186252D02*
X114270000Y-91663748D01*
X111445000Y-106810000D02*
X113365000Y-106810000D01*
X113365000Y-106810000D02*
X113365000Y-103950000D01*
X111445000Y-103950000D02*
X111445000Y-106810000D01*
X115315000Y-105236252D02*
X115315000Y-104713748D01*
X113895000Y-105236252D02*
X113895000Y-104713748D01*
X166665000Y-81475000D02*
X157445000Y-81475000D01*
X166665000Y-79425000D02*
X166665000Y-81475000D01*
X157445000Y-78625000D02*
X165865000Y-78625000D01*
X157445000Y-81475000D02*
X157445000Y-78625000D01*
X165865000Y-78625000D02*
X166665000Y-79425000D01*
X166115000Y-73035000D02*
X166115000Y-71115000D01*
X163255000Y-73035000D02*
X166115000Y-73035000D01*
X166115000Y-71115000D02*
X163255000Y-71115000D01*
X159943748Y-71340000D02*
X160466252Y-71340000D01*
X159943748Y-72760000D02*
X160466252Y-72760000D01*
X166015000Y-59560000D02*
X166015000Y-57640000D01*
X166015000Y-57640000D02*
X163155000Y-57640000D01*
X163155000Y-59560000D02*
X166015000Y-59560000D01*
X143845000Y-100875000D02*
X143845000Y-98025000D01*
X152265000Y-98025000D02*
X153065000Y-98825000D01*
X153065000Y-98825000D02*
X153065000Y-100875000D01*
X153065000Y-100875000D02*
X143845000Y-100875000D01*
X143845000Y-98025000D02*
X152265000Y-98025000D01*
X159968748Y-57890000D02*
X160491252Y-57890000D01*
X159968748Y-59310000D02*
X160491252Y-59310000D01*
X148813748Y-76960000D02*
X149336252Y-76960000D01*
X148813748Y-75540000D02*
X149336252Y-75540000D01*
X155786252Y-77690000D02*
X155263748Y-77690000D01*
X155786252Y-79110000D02*
X155263748Y-79110000D01*
X155213748Y-75490000D02*
X155736252Y-75490000D01*
X155213748Y-76910000D02*
X155736252Y-76910000D01*
X124330000Y-92750000D02*
X124330000Y-94080000D01*
X124330000Y-91480000D02*
X121670000Y-91480000D01*
X124330000Y-91480000D02*
X124330000Y-86340000D01*
X121670000Y-91480000D02*
X121670000Y-86340000D01*
X124330000Y-86340000D02*
X121670000Y-86340000D01*
X124330000Y-94080000D02*
X123000000Y-94080000D01*
X139330000Y-91520000D02*
X136670000Y-91520000D01*
X139330000Y-86380000D02*
X136670000Y-86380000D01*
X139330000Y-92790000D02*
X139330000Y-94120000D01*
X136670000Y-91520000D02*
X136670000Y-86380000D01*
X139330000Y-94120000D02*
X138000000Y-94120000D01*
X139330000Y-91520000D02*
X139330000Y-86380000D01*
X107670000Y-91480000D02*
X107670000Y-86340000D01*
X110330000Y-94080000D02*
X109000000Y-94080000D01*
X110330000Y-92750000D02*
X110330000Y-94080000D01*
X110330000Y-91480000D02*
X107670000Y-91480000D01*
X110330000Y-86340000D02*
X107670000Y-86340000D01*
X110330000Y-91480000D02*
X110330000Y-86340000D01*
X124330000Y-72840000D02*
X121670000Y-72840000D01*
X124330000Y-80580000D02*
X123000000Y-80580000D01*
X121670000Y-77980000D02*
X121670000Y-72840000D01*
X124330000Y-79250000D02*
X124330000Y-80580000D01*
X124330000Y-77980000D02*
X124330000Y-72840000D01*
X124330000Y-77980000D02*
X121670000Y-77980000D01*
X110330000Y-79250000D02*
X110330000Y-80580000D01*
X110330000Y-77980000D02*
X110330000Y-72840000D01*
X107670000Y-77980000D02*
X107670000Y-72840000D01*
X110330000Y-72840000D02*
X107670000Y-72840000D01*
X110330000Y-77980000D02*
X107670000Y-77980000D01*
X110330000Y-80580000D02*
X109000000Y-80580000D01*
X124330000Y-106480000D02*
X121670000Y-106480000D01*
X124330000Y-106480000D02*
X124330000Y-101340000D01*
X124330000Y-107750000D02*
X124330000Y-109080000D01*
X121670000Y-106480000D02*
X121670000Y-101340000D01*
X124330000Y-109080000D02*
X123000000Y-109080000D01*
X124330000Y-101340000D02*
X121670000Y-101340000D01*
X110330000Y-109080000D02*
X109000000Y-109080000D01*
X110330000Y-101340000D02*
X107670000Y-101340000D01*
X110330000Y-107750000D02*
X110330000Y-109080000D01*
X107670000Y-106480000D02*
X107670000Y-101340000D01*
X110330000Y-106480000D02*
X110330000Y-101340000D01*
X110330000Y-106480000D02*
X107670000Y-106480000D01*
X136670000Y-77980000D02*
X136670000Y-72840000D01*
X139330000Y-77980000D02*
X136670000Y-77980000D01*
X139330000Y-77980000D02*
X139330000Y-72840000D01*
X139330000Y-79250000D02*
X139330000Y-80580000D01*
X139330000Y-72840000D02*
X136670000Y-72840000D01*
X139330000Y-80580000D02*
X138000000Y-80580000D01*
X126815000Y-55055000D02*
X147185000Y-55055000D01*
X147185000Y-55055000D02*
X148185000Y-56055000D01*
X125815000Y-61360000D02*
X125815000Y-65185000D01*
X125815000Y-65185000D02*
X148185000Y-65185000D01*
X125815000Y-56055000D02*
X126815000Y-55055000D01*
X148185000Y-65185000D02*
X148185000Y-61360000D01*
X125815000Y-58170000D02*
X125815000Y-56055000D01*
X148185000Y-56055000D02*
X148185000Y-58170000D01*
M02*
