M48
; DRILL file {KiCad (6.0.2)} date Sun May  1 22:18:12 2022
; FORMAT={-:-/ absolute / inch / decimal}
; #@! TF.CreationDate,2022-05-01T22:18:12+09:30
; #@! TF.GenerationSoftware,Kicad,Pcbnew,(6.0.2)
; #@! TF.FileFunction,Plated,1,2,PTH
FMAT,2
INCH
; #@! TA.AperFunction,Plated,PTH,ViaDrill
T1C0.0157
; #@! TA.AperFunction,Plated,PTH,ComponentDrill
T2C0.0394
; #@! TA.AperFunction,Plated,PTH,ComponentDrill
T3C0.0402
; #@! TA.AperFunction,Plated,PTH,ComponentDrill
T4C0.0949
%
G90
G05
T1
X4.0551Y-3.5827
X4.0561Y-4.0935
X4.1752Y-4.311
X4.1929Y-3.2067
X4.4488Y-4.252
X4.5669Y-2.7667
X4.5669Y-3.3465
X4.5927Y-4.1398
X4.627Y-3.0699
X4.627Y-3.5817
X4.627Y-4.31
X4.6715Y-3.7402
X4.9606Y-2.7469
X4.9982Y-4.2303
X5.1781Y-4.31
X5.2175Y-3.0699
X5.2175Y-3.5817
X5.5315Y-2.7264
X5.562Y-4.31
X5.5626Y-4.1524
X5.689Y-2.7864
X5.6988Y-2.8937
X5.7181Y-3.651
X5.7346Y-3.8858
X5.748Y-2.8937
X5.7949Y-3.9461
X5.8169Y-3.6811
X5.8445Y-4.0854
X5.8858Y-3.4154
X5.9409Y-3.0906
X5.9447Y-3.7207
X5.9646Y-3.002
X5.9744Y-3.3858
X5.9835Y-3.2972
X5.9843Y-3.0709
X5.9961Y-3.128
X6.0297Y-3.5423
X6.0312Y-3.2593
X6.0394Y-3.6841
X6.0394Y-3.9213
X6.0531Y-2.8642
X6.0848Y-4.2028
X6.102Y-3.1987
X6.1024Y-3.7992
X6.1122Y-3.3319
X6.1122Y-3.3858
X6.1122Y-3.4449
X6.1122Y-3.5138
X6.1122Y-3.5728
X6.1122Y-3.622
X6.122Y-3.1457
X6.1516Y-4.2913
X6.1744Y-3.1969
X6.1811Y-3.4843
X6.2101Y-3.7308
X6.2205Y-3.1014
X6.2248Y-3.2618
X6.228Y-4.0955
X6.2598Y-3.5335
X6.2598Y-3.5728
X6.278Y-3.9386
X6.2795Y-4.2323
X6.3184Y-3.8981
X6.3189Y-3.1014
X6.328Y-3.3161
X6.3311Y-3.6575
X6.3386Y-3.5433
X6.378Y-3.3022
X6.378Y-3.3858
X6.378Y-3.9173
X6.378Y-4.2913
X6.3976Y-2.3622
X6.3976Y-2.4606
X6.3976Y-2.6575
X6.3976Y-3.1299
X6.3976Y-3.7205
X6.3976Y-4.2323
X6.4173Y-3.3268
X6.437Y-2.9528
X6.4533Y-3.5467
X6.4567Y-3.7415
X6.4567Y-3.878
X6.4665Y-3.5925
X6.4667Y-3.1301
X6.4961Y-2.2638
X6.4961Y-2.3622
X6.4961Y-2.4606
X6.4961Y-2.6575
X6.4961Y-3.1594
X6.5075Y-3.1972
X6.51Y-4.2028
X6.5496Y-3.4449
X6.5551Y-3.7205
X6.5551Y-4.0157
X6.5945Y-2.2638
X6.5945Y-2.3622
X6.5945Y-2.4606
X6.5945Y-2.5591
X6.5945Y-2.6575
X6.5945Y-2.7559
X6.6732Y-3.3858
X6.6732Y-4.0157
X6.6929Y-2.3622
X6.6929Y-2.4606
X6.6929Y-2.5591
X6.6929Y-2.6575
X6.6929Y-2.7559
X6.706Y-2.2354
X6.753Y-3.19
X6.753Y-3.5837
X6.753Y-3.9577
X6.753Y-4.2726
T2
X4.2913Y-2.9201
X4.2913Y-3.0201
X4.2913Y-3.1201
X4.2913Y-3.4516
X4.2913Y-3.5516
X4.2913Y-3.6516
X4.2913Y-4.0421
X4.2913Y-4.1421
X4.2913Y-4.2421
X4.8425Y-2.9201
X4.8425Y-3.0201
X4.8425Y-3.1201
X4.8425Y-3.4516
X4.8425Y-3.5516
X4.8425Y-3.6516
X4.8425Y-4.0421
X4.8425Y-4.1421
X4.8425Y-4.2421
X5.4331Y-2.9201
X5.4331Y-3.0201
X5.4331Y-3.1201
X5.4331Y-3.4531
X5.4331Y-3.5531
X5.4331Y-3.6531
T3
X5.0984Y-2.523
X5.0984Y-2.6411
X5.2165Y-2.523
X5.2165Y-2.6411
X5.3346Y-2.523
X5.3346Y-2.6411
X5.4528Y-2.523
X5.4528Y-2.6411
X5.5709Y-2.523
X5.5709Y-2.6411
X5.689Y-2.523
X5.689Y-2.6411
T4
X5.0138Y-2.353
X5.7736Y-2.353
T0
M30
