G04 #@! TF.GenerationSoftware,KiCad,Pcbnew,(6.0.2)*
G04 #@! TF.CreationDate,2022-05-01T22:12:54+09:30*
G04 #@! TF.ProjectId,BSPD,42535044-2e6b-4696-9361-645f70636258,4*
G04 #@! TF.SameCoordinates,Original*
G04 #@! TF.FileFunction,Legend,Bot*
G04 #@! TF.FilePolarity,Positive*
%FSLAX46Y46*%
G04 Gerber Fmt 4.6, Leading zero omitted, Abs format (unit mm)*
G04 Created by KiCad (PCBNEW (6.0.2)) date 2022-05-01 22:12:54*
%MOMM*%
%LPD*%
G01*
G04 APERTURE LIST*
%ADD10C,0.150000*%
G04 APERTURE END LIST*
D10*
X109261904Y-57647380D02*
X109261904Y-56647380D01*
X108928571Y-57361666D01*
X108595238Y-56647380D01*
X108595238Y-57647380D01*
X108119047Y-57647380D02*
X108119047Y-56980714D01*
X108119047Y-56647380D02*
X108166666Y-56695000D01*
X108119047Y-56742619D01*
X108071428Y-56695000D01*
X108119047Y-56647380D01*
X108119047Y-56742619D01*
X107214285Y-57599761D02*
X107309523Y-57647380D01*
X107500000Y-57647380D01*
X107595238Y-57599761D01*
X107642857Y-57552142D01*
X107690476Y-57456904D01*
X107690476Y-57171190D01*
X107642857Y-57075952D01*
X107595238Y-57028333D01*
X107500000Y-56980714D01*
X107309523Y-56980714D01*
X107214285Y-57028333D01*
X106785714Y-57647380D02*
X106785714Y-56647380D01*
X106357142Y-57647380D02*
X106357142Y-57123571D01*
X106404761Y-57028333D01*
X106500000Y-56980714D01*
X106642857Y-56980714D01*
X106738095Y-57028333D01*
X106785714Y-57075952D01*
X105452380Y-57647380D02*
X105452380Y-57123571D01*
X105500000Y-57028333D01*
X105595238Y-56980714D01*
X105785714Y-56980714D01*
X105880952Y-57028333D01*
X105452380Y-57599761D02*
X105547619Y-57647380D01*
X105785714Y-57647380D01*
X105880952Y-57599761D01*
X105928571Y-57504523D01*
X105928571Y-57409285D01*
X105880952Y-57314047D01*
X105785714Y-57266428D01*
X105547619Y-57266428D01*
X105452380Y-57218809D01*
X104595238Y-57599761D02*
X104690476Y-57647380D01*
X104880952Y-57647380D01*
X104976190Y-57599761D01*
X105023809Y-57504523D01*
X105023809Y-57123571D01*
X104976190Y-57028333D01*
X104880952Y-56980714D01*
X104690476Y-56980714D01*
X104595238Y-57028333D01*
X104547619Y-57123571D01*
X104547619Y-57218809D01*
X105023809Y-57314047D01*
X103976190Y-57647380D02*
X104071428Y-57599761D01*
X104119047Y-57504523D01*
X104119047Y-56647380D01*
X102833333Y-57647380D02*
X102833333Y-56647380D01*
X102595238Y-56647380D01*
X102452380Y-56695000D01*
X102357142Y-56790238D01*
X102309523Y-56885476D01*
X102261904Y-57075952D01*
X102261904Y-57218809D01*
X102309523Y-57409285D01*
X102357142Y-57504523D01*
X102452380Y-57599761D01*
X102595238Y-57647380D01*
X102833333Y-57647380D01*
X101404761Y-56980714D02*
X101404761Y-57647380D01*
X101833333Y-56980714D02*
X101833333Y-57504523D01*
X101785714Y-57599761D01*
X101690476Y-57647380D01*
X101547619Y-57647380D01*
X101452380Y-57599761D01*
X101404761Y-57552142D01*
X100928571Y-57647380D02*
X100928571Y-56647380D01*
X100833333Y-57266428D02*
X100547619Y-57647380D01*
X100547619Y-56980714D02*
X100928571Y-57361666D01*
X99738095Y-57599761D02*
X99833333Y-57647380D01*
X100023809Y-57647380D01*
X100119047Y-57599761D01*
X100166666Y-57504523D01*
X100166666Y-57123571D01*
X100119047Y-57028333D01*
X100023809Y-56980714D01*
X99833333Y-56980714D01*
X99738095Y-57028333D01*
X99690476Y-57123571D01*
X99690476Y-57218809D01*
X100166666Y-57314047D01*
X108500000Y-58733571D02*
X108166666Y-58733571D01*
X108023809Y-59257380D02*
X108500000Y-59257380D01*
X108500000Y-58257380D01*
X108023809Y-58257380D01*
X107595238Y-58590714D02*
X107595238Y-59257380D01*
X107595238Y-58685952D02*
X107547619Y-58638333D01*
X107452380Y-58590714D01*
X107309523Y-58590714D01*
X107214285Y-58638333D01*
X107166666Y-58733571D01*
X107166666Y-59257380D01*
X106785714Y-58590714D02*
X106261904Y-58590714D01*
X106785714Y-59257380D01*
X106261904Y-59257380D01*
X105738095Y-59257380D02*
X105833333Y-59209761D01*
X105880952Y-59162142D01*
X105928571Y-59066904D01*
X105928571Y-58781190D01*
X105880952Y-58685952D01*
X105833333Y-58638333D01*
X105738095Y-58590714D01*
X105595238Y-58590714D01*
X105500000Y-58638333D01*
X105452380Y-58685952D01*
X105404761Y-58781190D01*
X105404761Y-59066904D01*
X105452380Y-59162142D01*
X105500000Y-59209761D01*
X105595238Y-59257380D01*
X105738095Y-59257380D01*
X103642857Y-59257380D02*
X103976190Y-58781190D01*
X104214285Y-59257380D02*
X104214285Y-58257380D01*
X103833333Y-58257380D01*
X103738095Y-58305000D01*
X103690476Y-58352619D01*
X103642857Y-58447857D01*
X103642857Y-58590714D01*
X103690476Y-58685952D01*
X103738095Y-58733571D01*
X103833333Y-58781190D01*
X104214285Y-58781190D01*
X102785714Y-58590714D02*
X102785714Y-59257380D01*
X103214285Y-58590714D02*
X103214285Y-59114523D01*
X103166666Y-59209761D01*
X103071428Y-59257380D01*
X102928571Y-59257380D01*
X102833333Y-59209761D01*
X102785714Y-59162142D01*
X101880952Y-58590714D02*
X101880952Y-59400238D01*
X101928571Y-59495476D01*
X101976190Y-59543095D01*
X102071428Y-59590714D01*
X102214285Y-59590714D01*
X102309523Y-59543095D01*
X101880952Y-59209761D02*
X101976190Y-59257380D01*
X102166666Y-59257380D01*
X102261904Y-59209761D01*
X102309523Y-59162142D01*
X102357142Y-59066904D01*
X102357142Y-58781190D01*
X102309523Y-58685952D01*
X102261904Y-58638333D01*
X102166666Y-58590714D01*
X101976190Y-58590714D01*
X101880952Y-58638333D01*
X100976190Y-59257380D02*
X100976190Y-58733571D01*
X101023809Y-58638333D01*
X101119047Y-58590714D01*
X101309523Y-58590714D01*
X101404761Y-58638333D01*
X100976190Y-59209761D02*
X101071428Y-59257380D01*
X101309523Y-59257380D01*
X101404761Y-59209761D01*
X101452380Y-59114523D01*
X101452380Y-59019285D01*
X101404761Y-58924047D01*
X101309523Y-58876428D01*
X101071428Y-58876428D01*
X100976190Y-58828809D01*
X100500000Y-59257380D02*
X100500000Y-58590714D01*
X100500000Y-58257380D02*
X100547619Y-58305000D01*
X100500000Y-58352619D01*
X100452380Y-58305000D01*
X100500000Y-58257380D01*
X100500000Y-58352619D01*
M02*
