G04 #@! TF.GenerationSoftware,KiCad,Pcbnew,(5.1.7)-1*
G04 #@! TF.CreationDate,2022-01-10T20:36:18+10:30*
G04 #@! TF.ProjectId,BSPD,42535044-2e6b-4696-9361-645f70636258,4*
G04 #@! TF.SameCoordinates,Original*
G04 #@! TF.FileFunction,Copper,L2,Bot*
G04 #@! TF.FilePolarity,Positive*
%FSLAX46Y46*%
G04 Gerber Fmt 4.6, Leading zero omitted, Abs format (unit mm)*
G04 Created by KiCad (PCBNEW (5.1.7)-1) date 2022-01-10 20:36:18*
%MOMM*%
%LPD*%
G01*
G04 APERTURE LIST*
G04 #@! TA.AperFunction,ComponentPad*
%ADD10C,2.250000*%
G04 #@! TD*
G04 #@! TA.AperFunction,ViaPad*
%ADD11C,0.800000*%
G04 #@! TD*
G04 #@! TA.AperFunction,Conductor*
%ADD12C,0.250000*%
G04 #@! TD*
G04 #@! TA.AperFunction,Conductor*
%ADD13C,0.500000*%
G04 #@! TD*
G04 #@! TA.AperFunction,Conductor*
%ADD14C,0.254000*%
G04 #@! TD*
G04 #@! TA.AperFunction,Conductor*
%ADD15C,0.100000*%
G04 #@! TD*
G04 APERTURE END LIST*
D10*
X147680000Y-59475000D03*
X127880000Y-59475000D03*
X123920000Y-59475000D03*
X143720000Y-59475000D03*
X119960000Y-59475000D03*
X147680000Y-63465000D03*
X127880000Y-63465000D03*
X123920000Y-63465000D03*
X143720000Y-63465000D03*
X119960000Y-63465000D03*
X119960000Y-67455000D03*
X123920000Y-67455000D03*
X127880000Y-67455000D03*
X143720000Y-67455000D03*
X147680000Y-67455000D03*
X151640000Y-59475000D03*
X151640000Y-63465000D03*
G04 #@! TA.AperFunction,ComponentPad*
G36*
G01*
X150515000Y-68017500D02*
X150515000Y-66892500D01*
G75*
G02*
X151077500Y-66330000I562500J0D01*
G01*
X152202500Y-66330000D01*
G75*
G02*
X152765000Y-66892500I0J-562500D01*
G01*
X152765000Y-68017500D01*
G75*
G02*
X152202500Y-68580000I-562500J0D01*
G01*
X151077500Y-68580000D01*
G75*
G02*
X150515000Y-68017500I0J562500D01*
G01*
G37*
G04 #@! TD.AperFunction*
D11*
X109500000Y-107000000D03*
X110000000Y-94000000D03*
X139000000Y-81000000D03*
X124000000Y-81250000D03*
X158190000Y-104025000D03*
X159460000Y-100040000D03*
X162000000Y-99500000D03*
X164000000Y-98500000D03*
X171525000Y-81025000D03*
X171525000Y-91025000D03*
X171525000Y-100525000D03*
X171525000Y-108525000D03*
X162000000Y-83875000D03*
X139000000Y-94000000D03*
X113000000Y-71000000D03*
X113000000Y-70000000D03*
X153750000Y-72750000D03*
X155000000Y-96500000D03*
X165000000Y-57500000D03*
X165000000Y-60000000D03*
X165000000Y-62500000D03*
X167500000Y-62500000D03*
X170000000Y-62500000D03*
X170000000Y-60000000D03*
X167500000Y-60000000D03*
X167500000Y-57500000D03*
X170000000Y-57500000D03*
X170000000Y-65000000D03*
X167500000Y-65000000D03*
X167500000Y-67500000D03*
X165000000Y-67500000D03*
X167500000Y-70000000D03*
X170000000Y-70000000D03*
X170000000Y-67500000D03*
X162500000Y-60000000D03*
X162500000Y-62500000D03*
X162500000Y-67500000D03*
X126955000Y-107450000D03*
X151500000Y-76250000D03*
X148450000Y-103770000D03*
X147190000Y-100230000D03*
X145660000Y-98700000D03*
X163914999Y-90085001D03*
X161000000Y-90000000D03*
X164253750Y-79503750D03*
X152000000Y-78000000D03*
X164250000Y-91250000D03*
X155250000Y-92000000D03*
X159000000Y-89750000D03*
X155250000Y-89250000D03*
X159000000Y-90750000D03*
X155250000Y-90750000D03*
X163000000Y-84500000D03*
X155250000Y-86000000D03*
X162500000Y-94500000D03*
X155100000Y-94000000D03*
X162500000Y-79500000D03*
X155500000Y-79900000D03*
X150899999Y-78500001D03*
X150995000Y-94504988D03*
X160730000Y-84230000D03*
X155250000Y-84629999D03*
X132525000Y-90975000D03*
X117525000Y-90975000D03*
X103025000Y-103975000D03*
X103525000Y-90975000D03*
X166500000Y-102000000D03*
X169500000Y-102000000D03*
X162000000Y-86000000D03*
X169500000Y-86000000D03*
X117525000Y-77975000D03*
X106050000Y-109500000D03*
X131525000Y-109475000D03*
X117525000Y-109475000D03*
X132525000Y-77975000D03*
X107955000Y-81450000D03*
X141275000Y-109475000D03*
X141290002Y-105470000D03*
X165000000Y-80250000D03*
X156830000Y-81200000D03*
X166360000Y-87500000D03*
X155250000Y-87500000D03*
X116000000Y-85000000D03*
X116000000Y-72500000D03*
X116655000Y-105150000D03*
X162000000Y-109000000D03*
X156250000Y-109000000D03*
X159500000Y-107500000D03*
X162500000Y-107500000D03*
X163500000Y-75000000D03*
X146000000Y-73500000D03*
X126000000Y-69770000D03*
X118655000Y-95000000D03*
X166500000Y-94500000D03*
X157000000Y-88500000D03*
X153155000Y-89975000D03*
X164000000Y-95035000D03*
X157737501Y-94762499D03*
X145239847Y-92734847D03*
X165355000Y-106750000D03*
X154555016Y-106750000D03*
X165290000Y-81210000D03*
X151980000Y-83750000D03*
X114500000Y-78000000D03*
X153400000Y-99600000D03*
X160487347Y-99012653D03*
X152300000Y-79450013D03*
X154991889Y-81247516D03*
X158109957Y-82850000D03*
X153191502Y-82786502D03*
X158000000Y-78775000D03*
X160500000Y-78775000D03*
X153400000Y-93575001D03*
X160810001Y-92900000D03*
D12*
X147190000Y-100230000D02*
X145660000Y-98700000D01*
X163829998Y-90000000D02*
X163914999Y-90085001D01*
X161000000Y-90000000D02*
X163829998Y-90000000D01*
X152000000Y-78000000D02*
X152000000Y-78000000D01*
X152600000Y-77400000D02*
X152000000Y-78000000D01*
X162150000Y-77400000D02*
X152600000Y-77400000D01*
X164253750Y-79503750D02*
X162150000Y-77400000D01*
X155600001Y-91649999D02*
X155250000Y-92000000D01*
X164250000Y-91250000D02*
X163850001Y-91649999D01*
X163850001Y-91649999D02*
X155600001Y-91649999D01*
X155250000Y-92000000D02*
X155250000Y-92000000D01*
X155750000Y-89750000D02*
X155250000Y-89250000D01*
X159000000Y-89750000D02*
X155750000Y-89750000D01*
X155250000Y-89250000D02*
X155250000Y-89250000D01*
X159000000Y-90750000D02*
X155250000Y-90750000D01*
X155250000Y-90750000D02*
X155250000Y-90750000D01*
X160750000Y-85500000D02*
X155750000Y-85500000D01*
X161169991Y-85080009D02*
X160750000Y-85500000D01*
X163000000Y-84500000D02*
X162419991Y-85080009D01*
X155750000Y-85500000D02*
X155250000Y-86000000D01*
X162419991Y-85080009D02*
X161169991Y-85080009D01*
X155250000Y-86000000D02*
X155250000Y-86000000D01*
X162500000Y-94500000D02*
X162000000Y-94000000D01*
X162000000Y-94000000D02*
X155100000Y-94000000D01*
X155250000Y-79500000D02*
X155250000Y-79500000D01*
X162500000Y-79500000D02*
X155899999Y-79500001D01*
X155899999Y-79500001D02*
X155500000Y-79900000D01*
X150899999Y-78500001D02*
X150899999Y-94409987D01*
X150899999Y-94409987D02*
X150995000Y-94504988D01*
X155250000Y-84629999D02*
X155250000Y-84629999D01*
X160730000Y-84230000D02*
X159930002Y-85029998D01*
X155649999Y-85029998D02*
X155250000Y-84629999D01*
X159930002Y-85029998D02*
X155649999Y-85029998D01*
X166500000Y-102000000D02*
X169500000Y-102000000D01*
X169500000Y-102000000D02*
X169500000Y-102000000D01*
X162000000Y-86000000D02*
X169500000Y-86000000D01*
X169500000Y-86000000D02*
X169500000Y-86000000D01*
D13*
X131525000Y-109475000D02*
X131525000Y-109475000D01*
X117525000Y-109475000D02*
X117525000Y-109475000D01*
X132525000Y-77975000D02*
X132525000Y-90975000D01*
X132525000Y-108475000D02*
X131525000Y-109475000D01*
X132525000Y-90975000D02*
X132525000Y-108475000D01*
X117525000Y-77975000D02*
X117525000Y-90975000D01*
X103525000Y-103475000D02*
X103025000Y-103975000D01*
X103525000Y-90975000D02*
X103525000Y-103475000D01*
X103025000Y-106475000D02*
X106050000Y-109500000D01*
X103025000Y-103975000D02*
X103025000Y-106475000D01*
X117525000Y-108325000D02*
X117525000Y-109475000D01*
X117525000Y-90975000D02*
X117525000Y-108325000D01*
X103544315Y-85295000D02*
X103525000Y-85295000D01*
X107389315Y-81450000D02*
X103544315Y-85295000D01*
X107955000Y-81450000D02*
X107389315Y-81450000D01*
X103525000Y-90975000D02*
X103525000Y-85295000D01*
X141275000Y-109475000D02*
X141275000Y-105485002D01*
X141275000Y-105485002D02*
X141290002Y-105470000D01*
D12*
X164050000Y-81200000D02*
X156830000Y-81200000D01*
X165000000Y-80250000D02*
X164050000Y-81200000D01*
X166360000Y-87500000D02*
X155250000Y-87500000D01*
X155250000Y-87500000D02*
X155250000Y-87500000D01*
X116000000Y-85000000D02*
X116000000Y-72500000D01*
X116000000Y-72500000D02*
X116000000Y-72500000D01*
X116655000Y-85655000D02*
X116000000Y-85000000D01*
X116655000Y-105150000D02*
X116655000Y-85655000D01*
X156250000Y-109000000D02*
X162000000Y-109000000D01*
X159500000Y-107500000D02*
X162500000Y-107500000D01*
X162500000Y-107500000D02*
X162500000Y-107500000D01*
X163500000Y-75000000D02*
X147500000Y-75000000D01*
X147500000Y-75000000D02*
X146000000Y-73500000D01*
X146000000Y-73500000D02*
X146000000Y-73500000D01*
X118655000Y-78850000D02*
X118630000Y-78825000D01*
X118630000Y-78825000D02*
X118630000Y-71250000D01*
X124520000Y-71250000D02*
X126000000Y-69770000D01*
X118630000Y-71250000D02*
X124520000Y-71250000D01*
X118655000Y-95000000D02*
X118655000Y-78850000D01*
X166500000Y-94500000D02*
X166500000Y-90250000D01*
X166500000Y-90250000D02*
X164750000Y-88500000D01*
X164750000Y-88500000D02*
X157000000Y-88500000D01*
X157000000Y-88500000D02*
X157000000Y-88500000D01*
X156434315Y-88500000D02*
X157000000Y-88500000D01*
X156209316Y-88275001D02*
X156434315Y-88500000D01*
X154854999Y-88275001D02*
X156209316Y-88275001D01*
X153155000Y-89975000D02*
X154854999Y-88275001D01*
X158200002Y-95225001D02*
X157737501Y-94762499D01*
X164000000Y-95035000D02*
X163809999Y-95225001D01*
X163809999Y-95225001D02*
X158200002Y-95225001D01*
X157737501Y-94762499D02*
X157725001Y-94750000D01*
X148025002Y-95520002D02*
X156979998Y-95520002D01*
X156979998Y-95520002D02*
X157337502Y-95162498D01*
X145239847Y-92734847D02*
X148025002Y-95520002D01*
X157337502Y-95162498D02*
X157737501Y-94762499D01*
X165355000Y-106750000D02*
X154555016Y-106750000D01*
X165290000Y-81210000D02*
X164652500Y-81847500D01*
X164652500Y-81847500D02*
X164550000Y-81950000D01*
X151980000Y-82925002D02*
X152855002Y-82050000D01*
X156326996Y-82050000D02*
X156341998Y-82065002D01*
X156341998Y-82065002D02*
X157038002Y-82065002D01*
X151980000Y-83750000D02*
X151980000Y-82925002D01*
X157038002Y-82065002D02*
X157053004Y-82050000D01*
X164450000Y-82050000D02*
X164652500Y-81847500D01*
X152855002Y-82050000D02*
X156326996Y-82050000D01*
X157053004Y-82050000D02*
X164450000Y-82050000D01*
X153987347Y-99012653D02*
X160487347Y-99012653D01*
X153400000Y-99600000D02*
X153987347Y-99012653D01*
X152300000Y-79450013D02*
X154097503Y-81247516D01*
X154097503Y-81247516D02*
X154991889Y-81247516D01*
X158109957Y-82850000D02*
X153255000Y-82850000D01*
X153255000Y-82850000D02*
X153191502Y-82786502D01*
X158000000Y-78775000D02*
X160475000Y-78775000D01*
X160475000Y-78775000D02*
X160500000Y-78775000D01*
X154200000Y-92900000D02*
X160810001Y-92900000D01*
X153524999Y-93575001D02*
X154200000Y-92900000D01*
X153400000Y-93575001D02*
X153524999Y-93575001D01*
D14*
X177605000Y-111627986D02*
X174987553Y-114245434D01*
X96602448Y-114245434D01*
X93985000Y-111627987D01*
X93985000Y-103873061D01*
X101990000Y-103873061D01*
X101990000Y-104076939D01*
X102029774Y-104276898D01*
X102107795Y-104465256D01*
X102140000Y-104513455D01*
X102140001Y-106431521D01*
X102135719Y-106475000D01*
X102152805Y-106648490D01*
X102203412Y-106815313D01*
X102285590Y-106969059D01*
X102368468Y-107070046D01*
X102368471Y-107070049D01*
X102396184Y-107103817D01*
X102429951Y-107131529D01*
X105043465Y-109745044D01*
X105054774Y-109801898D01*
X105132795Y-109990256D01*
X105246063Y-110159774D01*
X105390226Y-110303937D01*
X105559744Y-110417205D01*
X105748102Y-110495226D01*
X105948061Y-110535000D01*
X106151939Y-110535000D01*
X106351898Y-110495226D01*
X106540256Y-110417205D01*
X106709774Y-110303937D01*
X106853937Y-110159774D01*
X106967205Y-109990256D01*
X107045226Y-109801898D01*
X107085000Y-109601939D01*
X107085000Y-109398061D01*
X107045226Y-109198102D01*
X106967205Y-109009744D01*
X106853937Y-108840226D01*
X106709774Y-108696063D01*
X106540256Y-108582795D01*
X106351898Y-108504774D01*
X106295044Y-108493465D01*
X103910000Y-106108422D01*
X103910000Y-104513454D01*
X103942205Y-104465256D01*
X104020226Y-104276898D01*
X104031535Y-104220043D01*
X104120044Y-104131534D01*
X104153817Y-104103817D01*
X104264411Y-103969059D01*
X104346589Y-103815313D01*
X104397195Y-103648490D01*
X104410000Y-103518477D01*
X104410000Y-103518469D01*
X104414281Y-103475000D01*
X104410000Y-103431531D01*
X104410000Y-91513454D01*
X104442205Y-91465256D01*
X104520226Y-91276898D01*
X104560000Y-91076939D01*
X104560000Y-90873061D01*
X104520226Y-90673102D01*
X104442205Y-90484744D01*
X104410000Y-90436546D01*
X104410000Y-85680893D01*
X107647845Y-82443049D01*
X107653102Y-82445226D01*
X107853061Y-82485000D01*
X108056939Y-82485000D01*
X108256898Y-82445226D01*
X108445256Y-82367205D01*
X108614774Y-82253937D01*
X108758937Y-82109774D01*
X108872205Y-81940256D01*
X108950226Y-81751898D01*
X108990000Y-81551939D01*
X108990000Y-81348061D01*
X108950226Y-81148102D01*
X108872205Y-80959744D01*
X108758937Y-80790226D01*
X108614774Y-80646063D01*
X108445256Y-80532795D01*
X108256898Y-80454774D01*
X108056939Y-80415000D01*
X107853061Y-80415000D01*
X107653102Y-80454774D01*
X107464744Y-80532795D01*
X107418631Y-80563606D01*
X107389314Y-80560719D01*
X107345848Y-80565000D01*
X107345838Y-80565000D01*
X107215825Y-80577805D01*
X107049002Y-80628411D01*
X106895256Y-80710589D01*
X106895254Y-80710590D01*
X106895255Y-80710590D01*
X106794268Y-80793468D01*
X106794266Y-80793470D01*
X106760498Y-80821183D01*
X106732785Y-80854951D01*
X103033534Y-84554203D01*
X103030941Y-84555589D01*
X102896183Y-84666183D01*
X102785589Y-84800941D01*
X102703411Y-84954687D01*
X102652805Y-85121510D01*
X102635718Y-85295000D01*
X102640001Y-85338487D01*
X102640000Y-90436546D01*
X102607795Y-90484744D01*
X102529774Y-90673102D01*
X102490000Y-90873061D01*
X102490000Y-91076939D01*
X102529774Y-91276898D01*
X102607795Y-91465256D01*
X102640000Y-91513454D01*
X102640001Y-103014196D01*
X102534744Y-103057795D01*
X102365226Y-103171063D01*
X102221063Y-103315226D01*
X102107795Y-103484744D01*
X102029774Y-103673102D01*
X101990000Y-103873061D01*
X93985000Y-103873061D01*
X93985000Y-77898061D01*
X113465000Y-77898061D01*
X113465000Y-78101939D01*
X113504774Y-78301898D01*
X113582795Y-78490256D01*
X113696063Y-78659774D01*
X113840226Y-78803937D01*
X114009744Y-78917205D01*
X114198102Y-78995226D01*
X114398061Y-79035000D01*
X114601939Y-79035000D01*
X114801898Y-78995226D01*
X114990256Y-78917205D01*
X115159774Y-78803937D01*
X115240001Y-78723710D01*
X115240000Y-84296289D01*
X115196063Y-84340226D01*
X115082795Y-84509744D01*
X115004774Y-84698102D01*
X114965000Y-84898061D01*
X114965000Y-85101939D01*
X115004774Y-85301898D01*
X115082795Y-85490256D01*
X115196063Y-85659774D01*
X115340226Y-85803937D01*
X115509744Y-85917205D01*
X115698102Y-85995226D01*
X115895001Y-86034391D01*
X115895000Y-104446289D01*
X115851063Y-104490226D01*
X115737795Y-104659744D01*
X115659774Y-104848102D01*
X115620000Y-105048061D01*
X115620000Y-105251939D01*
X115659774Y-105451898D01*
X115737795Y-105640256D01*
X115851063Y-105809774D01*
X115995226Y-105953937D01*
X116164744Y-106067205D01*
X116353102Y-106145226D01*
X116553061Y-106185000D01*
X116640001Y-106185000D01*
X116640001Y-108281514D01*
X116640000Y-108281524D01*
X116640001Y-108936545D01*
X116607795Y-108984744D01*
X116529774Y-109173102D01*
X116490000Y-109373061D01*
X116490000Y-109576939D01*
X116529774Y-109776898D01*
X116607795Y-109965256D01*
X116721063Y-110134774D01*
X116865226Y-110278937D01*
X117034744Y-110392205D01*
X117223102Y-110470226D01*
X117423061Y-110510000D01*
X117626939Y-110510000D01*
X117826898Y-110470226D01*
X118015256Y-110392205D01*
X118184774Y-110278937D01*
X118328937Y-110134774D01*
X118442205Y-109965256D01*
X118520226Y-109776898D01*
X118560000Y-109576939D01*
X118560000Y-109373061D01*
X130490000Y-109373061D01*
X130490000Y-109576939D01*
X130529774Y-109776898D01*
X130607795Y-109965256D01*
X130721063Y-110134774D01*
X130865226Y-110278937D01*
X131034744Y-110392205D01*
X131223102Y-110470226D01*
X131423061Y-110510000D01*
X131626939Y-110510000D01*
X131826898Y-110470226D01*
X132015256Y-110392205D01*
X132184774Y-110278937D01*
X132328937Y-110134774D01*
X132442205Y-109965256D01*
X132520226Y-109776898D01*
X132531535Y-109720043D01*
X132878517Y-109373061D01*
X140240000Y-109373061D01*
X140240000Y-109576939D01*
X140279774Y-109776898D01*
X140357795Y-109965256D01*
X140471063Y-110134774D01*
X140615226Y-110278937D01*
X140784744Y-110392205D01*
X140973102Y-110470226D01*
X141173061Y-110510000D01*
X141376939Y-110510000D01*
X141576898Y-110470226D01*
X141765256Y-110392205D01*
X141934774Y-110278937D01*
X142078937Y-110134774D01*
X142192205Y-109965256D01*
X142270226Y-109776898D01*
X142310000Y-109576939D01*
X142310000Y-109373061D01*
X142270226Y-109173102D01*
X142192205Y-108984744D01*
X142160000Y-108936546D01*
X142160000Y-106648061D01*
X153520016Y-106648061D01*
X153520016Y-106851939D01*
X153559790Y-107051898D01*
X153637811Y-107240256D01*
X153751079Y-107409774D01*
X153895242Y-107553937D01*
X154064760Y-107667205D01*
X154253118Y-107745226D01*
X154453077Y-107785000D01*
X154656955Y-107785000D01*
X154856914Y-107745226D01*
X155045272Y-107667205D01*
X155214790Y-107553937D01*
X155258727Y-107510000D01*
X158465000Y-107510000D01*
X158465000Y-107601939D01*
X158504774Y-107801898D01*
X158582795Y-107990256D01*
X158696063Y-108159774D01*
X158776289Y-108240000D01*
X156953711Y-108240000D01*
X156909774Y-108196063D01*
X156740256Y-108082795D01*
X156551898Y-108004774D01*
X156351939Y-107965000D01*
X156148061Y-107965000D01*
X155948102Y-108004774D01*
X155759744Y-108082795D01*
X155590226Y-108196063D01*
X155446063Y-108340226D01*
X155332795Y-108509744D01*
X155254774Y-108698102D01*
X155215000Y-108898061D01*
X155215000Y-109101939D01*
X155254774Y-109301898D01*
X155332795Y-109490256D01*
X155446063Y-109659774D01*
X155590226Y-109803937D01*
X155759744Y-109917205D01*
X155948102Y-109995226D01*
X156148061Y-110035000D01*
X156351939Y-110035000D01*
X156551898Y-109995226D01*
X156740256Y-109917205D01*
X156909774Y-109803937D01*
X156953711Y-109760000D01*
X161296289Y-109760000D01*
X161340226Y-109803937D01*
X161509744Y-109917205D01*
X161698102Y-109995226D01*
X161898061Y-110035000D01*
X162101939Y-110035000D01*
X162301898Y-109995226D01*
X162490256Y-109917205D01*
X162659774Y-109803937D01*
X162803937Y-109659774D01*
X162917205Y-109490256D01*
X162995226Y-109301898D01*
X163035000Y-109101939D01*
X163035000Y-108898061D01*
X162995226Y-108698102D01*
X162917205Y-108509744D01*
X162884612Y-108460965D01*
X162990256Y-108417205D01*
X163159774Y-108303937D01*
X163303937Y-108159774D01*
X163417205Y-107990256D01*
X163495226Y-107801898D01*
X163535000Y-107601939D01*
X163535000Y-107510000D01*
X164651289Y-107510000D01*
X164695226Y-107553937D01*
X164864744Y-107667205D01*
X165053102Y-107745226D01*
X165253061Y-107785000D01*
X165456939Y-107785000D01*
X165656898Y-107745226D01*
X165845256Y-107667205D01*
X166014774Y-107553937D01*
X166158937Y-107409774D01*
X166272205Y-107240256D01*
X166350226Y-107051898D01*
X166390000Y-106851939D01*
X166390000Y-106648061D01*
X166350226Y-106448102D01*
X166272205Y-106259744D01*
X166158937Y-106090226D01*
X166014774Y-105946063D01*
X165845256Y-105832795D01*
X165656898Y-105754774D01*
X165456939Y-105715000D01*
X165253061Y-105715000D01*
X165053102Y-105754774D01*
X164864744Y-105832795D01*
X164695226Y-105946063D01*
X164651289Y-105990000D01*
X155258727Y-105990000D01*
X155214790Y-105946063D01*
X155045272Y-105832795D01*
X154856914Y-105754774D01*
X154656955Y-105715000D01*
X154453077Y-105715000D01*
X154253118Y-105754774D01*
X154064760Y-105832795D01*
X153895242Y-105946063D01*
X153751079Y-106090226D01*
X153637811Y-106259744D01*
X153559790Y-106448102D01*
X153520016Y-106648061D01*
X142160000Y-106648061D01*
X142160000Y-106030906D01*
X142207207Y-105960256D01*
X142285228Y-105771898D01*
X142325002Y-105571939D01*
X142325002Y-105368061D01*
X142285228Y-105168102D01*
X142207207Y-104979744D01*
X142093939Y-104810226D01*
X141949776Y-104666063D01*
X141780258Y-104552795D01*
X141591900Y-104474774D01*
X141391941Y-104435000D01*
X141188063Y-104435000D01*
X140988104Y-104474774D01*
X140799746Y-104552795D01*
X140630228Y-104666063D01*
X140486065Y-104810226D01*
X140372797Y-104979744D01*
X140294776Y-105168102D01*
X140255002Y-105368061D01*
X140255002Y-105571939D01*
X140294776Y-105771898D01*
X140372797Y-105960256D01*
X140390001Y-105986003D01*
X140390000Y-108936545D01*
X140357795Y-108984744D01*
X140279774Y-109173102D01*
X140240000Y-109373061D01*
X132878517Y-109373061D01*
X133120049Y-109131530D01*
X133153817Y-109103817D01*
X133231022Y-109009744D01*
X133264411Y-108969059D01*
X133346589Y-108815314D01*
X133397195Y-108648490D01*
X133410000Y-108518477D01*
X133410000Y-108518469D01*
X133414281Y-108475000D01*
X133410000Y-108431531D01*
X133410000Y-101898061D01*
X165465000Y-101898061D01*
X165465000Y-102101939D01*
X165504774Y-102301898D01*
X165582795Y-102490256D01*
X165696063Y-102659774D01*
X165840226Y-102803937D01*
X166009744Y-102917205D01*
X166198102Y-102995226D01*
X166398061Y-103035000D01*
X166601939Y-103035000D01*
X166801898Y-102995226D01*
X166990256Y-102917205D01*
X167159774Y-102803937D01*
X167203711Y-102760000D01*
X168796289Y-102760000D01*
X168840226Y-102803937D01*
X169009744Y-102917205D01*
X169198102Y-102995226D01*
X169398061Y-103035000D01*
X169601939Y-103035000D01*
X169801898Y-102995226D01*
X169990256Y-102917205D01*
X170159774Y-102803937D01*
X170303937Y-102659774D01*
X170417205Y-102490256D01*
X170495226Y-102301898D01*
X170535000Y-102101939D01*
X170535000Y-101898061D01*
X170495226Y-101698102D01*
X170417205Y-101509744D01*
X170303937Y-101340226D01*
X170159774Y-101196063D01*
X169990256Y-101082795D01*
X169801898Y-101004774D01*
X169601939Y-100965000D01*
X169398061Y-100965000D01*
X169198102Y-101004774D01*
X169009744Y-101082795D01*
X168840226Y-101196063D01*
X168796289Y-101240000D01*
X167203711Y-101240000D01*
X167159774Y-101196063D01*
X166990256Y-101082795D01*
X166801898Y-101004774D01*
X166601939Y-100965000D01*
X166398061Y-100965000D01*
X166198102Y-101004774D01*
X166009744Y-101082795D01*
X165840226Y-101196063D01*
X165696063Y-101340226D01*
X165582795Y-101509744D01*
X165504774Y-101698102D01*
X165465000Y-101898061D01*
X133410000Y-101898061D01*
X133410000Y-99498061D01*
X152365000Y-99498061D01*
X152365000Y-99701939D01*
X152404774Y-99901898D01*
X152482795Y-100090256D01*
X152596063Y-100259774D01*
X152740226Y-100403937D01*
X152909744Y-100517205D01*
X153098102Y-100595226D01*
X153298061Y-100635000D01*
X153501939Y-100635000D01*
X153701898Y-100595226D01*
X153890256Y-100517205D01*
X154059774Y-100403937D01*
X154203937Y-100259774D01*
X154317205Y-100090256D01*
X154395226Y-99901898D01*
X154420934Y-99772653D01*
X159783636Y-99772653D01*
X159827573Y-99816590D01*
X159997091Y-99929858D01*
X160185449Y-100007879D01*
X160385408Y-100047653D01*
X160589286Y-100047653D01*
X160789245Y-100007879D01*
X160977603Y-99929858D01*
X161147121Y-99816590D01*
X161291284Y-99672427D01*
X161404552Y-99502909D01*
X161482573Y-99314551D01*
X161522347Y-99114592D01*
X161522347Y-98910714D01*
X161482573Y-98710755D01*
X161404552Y-98522397D01*
X161291284Y-98352879D01*
X161147121Y-98208716D01*
X160977603Y-98095448D01*
X160789245Y-98017427D01*
X160589286Y-97977653D01*
X160385408Y-97977653D01*
X160185449Y-98017427D01*
X159997091Y-98095448D01*
X159827573Y-98208716D01*
X159783636Y-98252653D01*
X154024669Y-98252653D01*
X153987346Y-98248977D01*
X153950023Y-98252653D01*
X153950014Y-98252653D01*
X153838361Y-98263650D01*
X153695100Y-98307107D01*
X153563070Y-98377679D01*
X153479430Y-98446321D01*
X153447346Y-98472652D01*
X153423547Y-98501651D01*
X153360198Y-98565000D01*
X153298061Y-98565000D01*
X153098102Y-98604774D01*
X152909744Y-98682795D01*
X152740226Y-98796063D01*
X152596063Y-98940226D01*
X152482795Y-99109744D01*
X152404774Y-99298102D01*
X152365000Y-99498061D01*
X133410000Y-99498061D01*
X133410000Y-92632908D01*
X144204847Y-92632908D01*
X144204847Y-92836786D01*
X144244621Y-93036745D01*
X144322642Y-93225103D01*
X144435910Y-93394621D01*
X144580073Y-93538784D01*
X144749591Y-93652052D01*
X144937949Y-93730073D01*
X145137908Y-93769847D01*
X145200046Y-93769847D01*
X147461203Y-96031005D01*
X147485001Y-96060003D01*
X147513999Y-96083801D01*
X147600725Y-96154976D01*
X147732755Y-96225548D01*
X147876016Y-96269005D01*
X147987669Y-96280002D01*
X147987679Y-96280002D01*
X148025002Y-96283678D01*
X148062325Y-96280002D01*
X156942676Y-96280002D01*
X156979998Y-96283678D01*
X157017320Y-96280002D01*
X157017331Y-96280002D01*
X157128984Y-96269005D01*
X157272245Y-96225548D01*
X157404274Y-96154976D01*
X157519999Y-96060003D01*
X157543802Y-96030999D01*
X157742277Y-95832524D01*
X157775726Y-95859975D01*
X157907755Y-95930547D01*
X158051016Y-95974004D01*
X158162669Y-95985001D01*
X158162678Y-95985001D01*
X158200001Y-95988677D01*
X158237326Y-95985001D01*
X163588920Y-95985001D01*
X163698102Y-96030226D01*
X163898061Y-96070000D01*
X164101939Y-96070000D01*
X164301898Y-96030226D01*
X164490256Y-95952205D01*
X164659774Y-95838937D01*
X164803937Y-95694774D01*
X164917205Y-95525256D01*
X164995226Y-95336898D01*
X165035000Y-95136939D01*
X165035000Y-94933061D01*
X164995226Y-94733102D01*
X164917205Y-94544744D01*
X164803937Y-94375226D01*
X164659774Y-94231063D01*
X164490256Y-94117795D01*
X164301898Y-94039774D01*
X164101939Y-94000000D01*
X163898061Y-94000000D01*
X163698102Y-94039774D01*
X163509744Y-94117795D01*
X163472319Y-94142801D01*
X163417205Y-94009744D01*
X163303937Y-93840226D01*
X163159774Y-93696063D01*
X162990256Y-93582795D01*
X162801898Y-93504774D01*
X162601939Y-93465000D01*
X162544105Y-93465000D01*
X162540001Y-93459999D01*
X162424276Y-93365026D01*
X162292247Y-93294454D01*
X162148986Y-93250997D01*
X162037333Y-93240000D01*
X162037322Y-93240000D01*
X162000000Y-93236324D01*
X161962678Y-93240000D01*
X161789445Y-93240000D01*
X161805227Y-93201898D01*
X161845001Y-93001939D01*
X161845001Y-92798061D01*
X161805227Y-92598102D01*
X161727312Y-92409999D01*
X163812679Y-92409999D01*
X163850001Y-92413675D01*
X163887323Y-92409999D01*
X163887334Y-92409999D01*
X163998987Y-92399002D01*
X164142248Y-92355545D01*
X164274226Y-92285000D01*
X164351939Y-92285000D01*
X164551898Y-92245226D01*
X164740256Y-92167205D01*
X164909774Y-92053937D01*
X165053937Y-91909774D01*
X165167205Y-91740256D01*
X165245226Y-91551898D01*
X165285000Y-91351939D01*
X165285000Y-91148061D01*
X165245226Y-90948102D01*
X165167205Y-90759744D01*
X165053937Y-90590226D01*
X164909774Y-90446063D01*
X164890933Y-90433474D01*
X164910225Y-90386899D01*
X164949999Y-90186940D01*
X164949999Y-89983062D01*
X164910225Y-89783103D01*
X164876229Y-89701031D01*
X165740001Y-90564803D01*
X165740000Y-93796289D01*
X165696063Y-93840226D01*
X165582795Y-94009744D01*
X165504774Y-94198102D01*
X165465000Y-94398061D01*
X165465000Y-94601939D01*
X165504774Y-94801898D01*
X165582795Y-94990256D01*
X165696063Y-95159774D01*
X165840226Y-95303937D01*
X166009744Y-95417205D01*
X166198102Y-95495226D01*
X166398061Y-95535000D01*
X166601939Y-95535000D01*
X166801898Y-95495226D01*
X166990256Y-95417205D01*
X167159774Y-95303937D01*
X167303937Y-95159774D01*
X167417205Y-94990256D01*
X167495226Y-94801898D01*
X167535000Y-94601939D01*
X167535000Y-94398061D01*
X167495226Y-94198102D01*
X167417205Y-94009744D01*
X167303937Y-93840226D01*
X167260000Y-93796289D01*
X167260000Y-90287325D01*
X167263676Y-90250000D01*
X167260000Y-90212675D01*
X167260000Y-90212667D01*
X167249003Y-90101014D01*
X167205546Y-89957753D01*
X167134974Y-89825724D01*
X167040001Y-89709999D01*
X167011003Y-89686201D01*
X165584801Y-88260000D01*
X165656289Y-88260000D01*
X165700226Y-88303937D01*
X165869744Y-88417205D01*
X166058102Y-88495226D01*
X166258061Y-88535000D01*
X166461939Y-88535000D01*
X166661898Y-88495226D01*
X166850256Y-88417205D01*
X167019774Y-88303937D01*
X167163937Y-88159774D01*
X167277205Y-87990256D01*
X167355226Y-87801898D01*
X167395000Y-87601939D01*
X167395000Y-87398061D01*
X167355226Y-87198102D01*
X167277205Y-87009744D01*
X167163937Y-86840226D01*
X167083711Y-86760000D01*
X168796289Y-86760000D01*
X168840226Y-86803937D01*
X169009744Y-86917205D01*
X169198102Y-86995226D01*
X169398061Y-87035000D01*
X169601939Y-87035000D01*
X169801898Y-86995226D01*
X169990256Y-86917205D01*
X170159774Y-86803937D01*
X170303937Y-86659774D01*
X170417205Y-86490256D01*
X170495226Y-86301898D01*
X170535000Y-86101939D01*
X170535000Y-85898061D01*
X170495226Y-85698102D01*
X170417205Y-85509744D01*
X170303937Y-85340226D01*
X170159774Y-85196063D01*
X169990256Y-85082795D01*
X169801898Y-85004774D01*
X169601939Y-84965000D01*
X169398061Y-84965000D01*
X169198102Y-85004774D01*
X169009744Y-85082795D01*
X168840226Y-85196063D01*
X168796289Y-85240000D01*
X163723711Y-85240000D01*
X163803937Y-85159774D01*
X163917205Y-84990256D01*
X163995226Y-84801898D01*
X164035000Y-84601939D01*
X164035000Y-84398061D01*
X163995226Y-84198102D01*
X163917205Y-84009744D01*
X163803937Y-83840226D01*
X163659774Y-83696063D01*
X163490256Y-83582795D01*
X163301898Y-83504774D01*
X163101939Y-83465000D01*
X162898061Y-83465000D01*
X162698102Y-83504774D01*
X162509744Y-83582795D01*
X162340226Y-83696063D01*
X162196063Y-83840226D01*
X162082795Y-84009744D01*
X162004774Y-84198102D01*
X161980525Y-84320009D01*
X161765000Y-84320009D01*
X161765000Y-84128061D01*
X161725226Y-83928102D01*
X161647205Y-83739744D01*
X161533937Y-83570226D01*
X161389774Y-83426063D01*
X161220256Y-83312795D01*
X161031898Y-83234774D01*
X160831939Y-83195000D01*
X160628061Y-83195000D01*
X160428102Y-83234774D01*
X160239744Y-83312795D01*
X160070226Y-83426063D01*
X159926063Y-83570226D01*
X159812795Y-83739744D01*
X159734774Y-83928102D01*
X159695000Y-84128061D01*
X159695000Y-84190199D01*
X159615201Y-84269998D01*
X156221159Y-84269998D01*
X156167205Y-84139743D01*
X156053937Y-83970225D01*
X155909774Y-83826062D01*
X155740256Y-83712794D01*
X155551898Y-83634773D01*
X155427355Y-83610000D01*
X157406246Y-83610000D01*
X157450183Y-83653937D01*
X157619701Y-83767205D01*
X157808059Y-83845226D01*
X158008018Y-83885000D01*
X158211896Y-83885000D01*
X158411855Y-83845226D01*
X158600213Y-83767205D01*
X158769731Y-83653937D01*
X158913894Y-83509774D01*
X159027162Y-83340256D01*
X159105183Y-83151898D01*
X159144957Y-82951939D01*
X159144957Y-82810000D01*
X164412678Y-82810000D01*
X164450000Y-82813676D01*
X164487322Y-82810000D01*
X164487333Y-82810000D01*
X164598986Y-82799003D01*
X164742247Y-82755546D01*
X164874276Y-82684974D01*
X164990001Y-82590001D01*
X165013804Y-82560997D01*
X165329801Y-82245000D01*
X165391939Y-82245000D01*
X165591898Y-82205226D01*
X165780256Y-82127205D01*
X165949774Y-82013937D01*
X166093937Y-81869774D01*
X166207205Y-81700256D01*
X166285226Y-81511898D01*
X166325000Y-81311939D01*
X166325000Y-81108061D01*
X166285226Y-80908102D01*
X166207205Y-80719744D01*
X166093937Y-80550226D01*
X166011881Y-80468170D01*
X166035000Y-80351939D01*
X166035000Y-80148061D01*
X165995226Y-79948102D01*
X165917205Y-79759744D01*
X165803937Y-79590226D01*
X165659774Y-79446063D01*
X165490256Y-79332795D01*
X165301898Y-79254774D01*
X165257756Y-79245994D01*
X165248976Y-79201852D01*
X165170955Y-79013494D01*
X165057687Y-78843976D01*
X164913524Y-78699813D01*
X164744006Y-78586545D01*
X164555648Y-78508524D01*
X164355689Y-78468750D01*
X164293552Y-78468750D01*
X162713804Y-76889003D01*
X162690001Y-76859999D01*
X162574276Y-76765026D01*
X162442247Y-76694454D01*
X162298986Y-76650997D01*
X162187333Y-76640000D01*
X162187322Y-76640000D01*
X162150000Y-76636324D01*
X162112678Y-76640000D01*
X152637322Y-76640000D01*
X152599999Y-76636324D01*
X152562676Y-76640000D01*
X152562667Y-76640000D01*
X152451014Y-76650997D01*
X152307753Y-76694454D01*
X152175723Y-76765026D01*
X152092083Y-76833668D01*
X152059999Y-76859999D01*
X152036200Y-76888998D01*
X151960198Y-76965000D01*
X151898061Y-76965000D01*
X151698102Y-77004774D01*
X151509744Y-77082795D01*
X151340226Y-77196063D01*
X151196063Y-77340226D01*
X151099698Y-77484447D01*
X151001938Y-77465001D01*
X150798060Y-77465001D01*
X150598101Y-77504775D01*
X150409743Y-77582796D01*
X150240225Y-77696064D01*
X150096062Y-77840227D01*
X149982794Y-78009745D01*
X149904773Y-78198103D01*
X149864999Y-78398062D01*
X149864999Y-78601940D01*
X149904773Y-78801899D01*
X149982794Y-78990257D01*
X150096062Y-79159775D01*
X150139999Y-79203712D01*
X150140000Y-93921635D01*
X150077795Y-94014732D01*
X149999774Y-94203090D01*
X149960000Y-94403049D01*
X149960000Y-94606927D01*
X149990448Y-94760002D01*
X148339804Y-94760002D01*
X146274847Y-92695046D01*
X146274847Y-92632908D01*
X146235073Y-92432949D01*
X146157052Y-92244591D01*
X146043784Y-92075073D01*
X145899621Y-91930910D01*
X145730103Y-91817642D01*
X145541745Y-91739621D01*
X145341786Y-91699847D01*
X145137908Y-91699847D01*
X144937949Y-91739621D01*
X144749591Y-91817642D01*
X144580073Y-91930910D01*
X144435910Y-92075073D01*
X144322642Y-92244591D01*
X144244621Y-92432949D01*
X144204847Y-92632908D01*
X133410000Y-92632908D01*
X133410000Y-91513454D01*
X133442205Y-91465256D01*
X133520226Y-91276898D01*
X133560000Y-91076939D01*
X133560000Y-90873061D01*
X133520226Y-90673102D01*
X133442205Y-90484744D01*
X133410000Y-90436546D01*
X133410000Y-78513454D01*
X133442205Y-78465256D01*
X133520226Y-78276898D01*
X133560000Y-78076939D01*
X133560000Y-77873061D01*
X133520226Y-77673102D01*
X133442205Y-77484744D01*
X133328937Y-77315226D01*
X133184774Y-77171063D01*
X133015256Y-77057795D01*
X132826898Y-76979774D01*
X132626939Y-76940000D01*
X132423061Y-76940000D01*
X132223102Y-76979774D01*
X132034744Y-77057795D01*
X131865226Y-77171063D01*
X131721063Y-77315226D01*
X131607795Y-77484744D01*
X131529774Y-77673102D01*
X131490000Y-77873061D01*
X131490000Y-78076939D01*
X131529774Y-78276898D01*
X131607795Y-78465256D01*
X131640000Y-78513454D01*
X131640001Y-90436544D01*
X131607795Y-90484744D01*
X131529774Y-90673102D01*
X131490000Y-90873061D01*
X131490000Y-91076939D01*
X131529774Y-91276898D01*
X131607795Y-91465256D01*
X131640000Y-91513454D01*
X131640001Y-108108420D01*
X131279957Y-108468465D01*
X131223102Y-108479774D01*
X131034744Y-108557795D01*
X130865226Y-108671063D01*
X130721063Y-108815226D01*
X130607795Y-108984744D01*
X130529774Y-109173102D01*
X130490000Y-109373061D01*
X118560000Y-109373061D01*
X118520226Y-109173102D01*
X118442205Y-108984744D01*
X118410000Y-108936546D01*
X118410000Y-96006544D01*
X118553061Y-96035000D01*
X118756939Y-96035000D01*
X118956898Y-95995226D01*
X119145256Y-95917205D01*
X119314774Y-95803937D01*
X119458937Y-95659774D01*
X119572205Y-95490256D01*
X119650226Y-95301898D01*
X119690000Y-95101939D01*
X119690000Y-94898061D01*
X119650226Y-94698102D01*
X119572205Y-94509744D01*
X119458937Y-94340226D01*
X119415000Y-94296289D01*
X119415000Y-78887322D01*
X119418676Y-78849999D01*
X119415000Y-78812677D01*
X119415000Y-78812667D01*
X119404003Y-78701014D01*
X119390000Y-78654851D01*
X119390000Y-73398061D01*
X144965000Y-73398061D01*
X144965000Y-73601939D01*
X145004774Y-73801898D01*
X145082795Y-73990256D01*
X145196063Y-74159774D01*
X145340226Y-74303937D01*
X145509744Y-74417205D01*
X145698102Y-74495226D01*
X145898061Y-74535000D01*
X145960199Y-74535000D01*
X146936201Y-75511003D01*
X146959999Y-75540001D01*
X147075724Y-75634974D01*
X147207753Y-75705546D01*
X147351014Y-75749003D01*
X147462667Y-75760000D01*
X147462676Y-75760000D01*
X147499999Y-75763676D01*
X147537322Y-75760000D01*
X162796289Y-75760000D01*
X162840226Y-75803937D01*
X163009744Y-75917205D01*
X163198102Y-75995226D01*
X163398061Y-76035000D01*
X163601939Y-76035000D01*
X163801898Y-75995226D01*
X163990256Y-75917205D01*
X164159774Y-75803937D01*
X164303937Y-75659774D01*
X164417205Y-75490256D01*
X164495226Y-75301898D01*
X164535000Y-75101939D01*
X164535000Y-74898061D01*
X164495226Y-74698102D01*
X164417205Y-74509744D01*
X164303937Y-74340226D01*
X164159774Y-74196063D01*
X163990256Y-74082795D01*
X163801898Y-74004774D01*
X163601939Y-73965000D01*
X163398061Y-73965000D01*
X163198102Y-74004774D01*
X163009744Y-74082795D01*
X162840226Y-74196063D01*
X162796289Y-74240000D01*
X147814802Y-74240000D01*
X147035000Y-73460199D01*
X147035000Y-73398061D01*
X146995226Y-73198102D01*
X146917205Y-73009744D01*
X146803937Y-72840226D01*
X146659774Y-72696063D01*
X146490256Y-72582795D01*
X146301898Y-72504774D01*
X146101939Y-72465000D01*
X145898061Y-72465000D01*
X145698102Y-72504774D01*
X145509744Y-72582795D01*
X145340226Y-72696063D01*
X145196063Y-72840226D01*
X145082795Y-73009744D01*
X145004774Y-73198102D01*
X144965000Y-73398061D01*
X119390000Y-73398061D01*
X119390000Y-72010000D01*
X124482678Y-72010000D01*
X124520000Y-72013676D01*
X124557322Y-72010000D01*
X124557333Y-72010000D01*
X124668986Y-71999003D01*
X124812247Y-71955546D01*
X124944276Y-71884974D01*
X125060001Y-71790001D01*
X125083804Y-71760997D01*
X126039802Y-70805000D01*
X126101939Y-70805000D01*
X126301898Y-70765226D01*
X126490256Y-70687205D01*
X126659774Y-70573937D01*
X126803937Y-70429774D01*
X126917205Y-70260256D01*
X126995226Y-70071898D01*
X127035000Y-69871939D01*
X127035000Y-69668061D01*
X126995226Y-69468102D01*
X126917205Y-69279744D01*
X126803937Y-69110226D01*
X126659774Y-68966063D01*
X126490256Y-68852795D01*
X126301898Y-68774774D01*
X126101939Y-68735000D01*
X125898061Y-68735000D01*
X125698102Y-68774774D01*
X125509744Y-68852795D01*
X125340226Y-68966063D01*
X125196063Y-69110226D01*
X125082795Y-69279744D01*
X125004774Y-69468102D01*
X124965000Y-69668061D01*
X124965000Y-69730198D01*
X124205199Y-70490000D01*
X118667333Y-70490000D01*
X118630000Y-70486323D01*
X118592667Y-70490000D01*
X118481014Y-70500997D01*
X118337753Y-70544454D01*
X118205724Y-70615026D01*
X118089999Y-70709999D01*
X117995026Y-70825724D01*
X117924454Y-70957753D01*
X117880997Y-71101014D01*
X117866323Y-71250000D01*
X117870001Y-71287343D01*
X117870000Y-76997628D01*
X117826898Y-76979774D01*
X117626939Y-76940000D01*
X117423061Y-76940000D01*
X117223102Y-76979774D01*
X117034744Y-77057795D01*
X116865226Y-77171063D01*
X116760000Y-77276289D01*
X116760000Y-73203711D01*
X116803937Y-73159774D01*
X116917205Y-72990256D01*
X116995226Y-72801898D01*
X117035000Y-72601939D01*
X117035000Y-72398061D01*
X116995226Y-72198102D01*
X116917205Y-72009744D01*
X116803937Y-71840226D01*
X116659774Y-71696063D01*
X116490256Y-71582795D01*
X116301898Y-71504774D01*
X116101939Y-71465000D01*
X115898061Y-71465000D01*
X115698102Y-71504774D01*
X115509744Y-71582795D01*
X115340226Y-71696063D01*
X115196063Y-71840226D01*
X115082795Y-72009744D01*
X115004774Y-72198102D01*
X114965000Y-72398061D01*
X114965000Y-72601939D01*
X115004774Y-72801898D01*
X115082795Y-72990256D01*
X115196063Y-73159774D01*
X115240001Y-73203712D01*
X115240001Y-77276290D01*
X115159774Y-77196063D01*
X114990256Y-77082795D01*
X114801898Y-77004774D01*
X114601939Y-76965000D01*
X114398061Y-76965000D01*
X114198102Y-77004774D01*
X114009744Y-77082795D01*
X113840226Y-77196063D01*
X113696063Y-77340226D01*
X113582795Y-77509744D01*
X113504774Y-77698102D01*
X113465000Y-77898061D01*
X93985000Y-77898061D01*
X93985000Y-67281655D01*
X118200000Y-67281655D01*
X118200000Y-67628345D01*
X118267636Y-67968373D01*
X118400308Y-68288673D01*
X118592919Y-68576935D01*
X118838065Y-68822081D01*
X119126327Y-69014692D01*
X119446627Y-69147364D01*
X119786655Y-69215000D01*
X120133345Y-69215000D01*
X120473373Y-69147364D01*
X120793673Y-69014692D01*
X121081935Y-68822081D01*
X121327081Y-68576935D01*
X121519692Y-68288673D01*
X121652364Y-67968373D01*
X121720000Y-67628345D01*
X121720000Y-67281655D01*
X122160000Y-67281655D01*
X122160000Y-67628345D01*
X122227636Y-67968373D01*
X122360308Y-68288673D01*
X122552919Y-68576935D01*
X122798065Y-68822081D01*
X123086327Y-69014692D01*
X123406627Y-69147364D01*
X123746655Y-69215000D01*
X124093345Y-69215000D01*
X124433373Y-69147364D01*
X124753673Y-69014692D01*
X125041935Y-68822081D01*
X125287081Y-68576935D01*
X125479692Y-68288673D01*
X125612364Y-67968373D01*
X125680000Y-67628345D01*
X125680000Y-67281655D01*
X126120000Y-67281655D01*
X126120000Y-67628345D01*
X126187636Y-67968373D01*
X126320308Y-68288673D01*
X126512919Y-68576935D01*
X126758065Y-68822081D01*
X127046327Y-69014692D01*
X127366627Y-69147364D01*
X127706655Y-69215000D01*
X128053345Y-69215000D01*
X128393373Y-69147364D01*
X128713673Y-69014692D01*
X129001935Y-68822081D01*
X129247081Y-68576935D01*
X129439692Y-68288673D01*
X129572364Y-67968373D01*
X129640000Y-67628345D01*
X129640000Y-67281655D01*
X129572364Y-66941627D01*
X129439692Y-66621327D01*
X129247081Y-66333065D01*
X129001935Y-66087919D01*
X128713673Y-65895308D01*
X128393373Y-65762636D01*
X128053345Y-65695000D01*
X127706655Y-65695000D01*
X127366627Y-65762636D01*
X127046327Y-65895308D01*
X126758065Y-66087919D01*
X126512919Y-66333065D01*
X126320308Y-66621327D01*
X126187636Y-66941627D01*
X126120000Y-67281655D01*
X125680000Y-67281655D01*
X125612364Y-66941627D01*
X125479692Y-66621327D01*
X125287081Y-66333065D01*
X125041935Y-66087919D01*
X124753673Y-65895308D01*
X124433373Y-65762636D01*
X124093345Y-65695000D01*
X123746655Y-65695000D01*
X123406627Y-65762636D01*
X123086327Y-65895308D01*
X122798065Y-66087919D01*
X122552919Y-66333065D01*
X122360308Y-66621327D01*
X122227636Y-66941627D01*
X122160000Y-67281655D01*
X121720000Y-67281655D01*
X121652364Y-66941627D01*
X121519692Y-66621327D01*
X121327081Y-66333065D01*
X121081935Y-66087919D01*
X120793673Y-65895308D01*
X120473373Y-65762636D01*
X120133345Y-65695000D01*
X119786655Y-65695000D01*
X119446627Y-65762636D01*
X119126327Y-65895308D01*
X118838065Y-66087919D01*
X118592919Y-66333065D01*
X118400308Y-66621327D01*
X118267636Y-66941627D01*
X118200000Y-67281655D01*
X93985000Y-67281655D01*
X93985000Y-63291655D01*
X118200000Y-63291655D01*
X118200000Y-63638345D01*
X118267636Y-63978373D01*
X118400308Y-64298673D01*
X118592919Y-64586935D01*
X118838065Y-64832081D01*
X119126327Y-65024692D01*
X119446627Y-65157364D01*
X119786655Y-65225000D01*
X120133345Y-65225000D01*
X120473373Y-65157364D01*
X120793673Y-65024692D01*
X121081935Y-64832081D01*
X121327081Y-64586935D01*
X121519692Y-64298673D01*
X121652364Y-63978373D01*
X121720000Y-63638345D01*
X121720000Y-63291655D01*
X122160000Y-63291655D01*
X122160000Y-63638345D01*
X122227636Y-63978373D01*
X122360308Y-64298673D01*
X122552919Y-64586935D01*
X122798065Y-64832081D01*
X123086327Y-65024692D01*
X123406627Y-65157364D01*
X123746655Y-65225000D01*
X124093345Y-65225000D01*
X124433373Y-65157364D01*
X124753673Y-65024692D01*
X125041935Y-64832081D01*
X125287081Y-64586935D01*
X125479692Y-64298673D01*
X125612364Y-63978373D01*
X125680000Y-63638345D01*
X125680000Y-63291655D01*
X126120000Y-63291655D01*
X126120000Y-63638345D01*
X126187636Y-63978373D01*
X126320308Y-64298673D01*
X126512919Y-64586935D01*
X126758065Y-64832081D01*
X127046327Y-65024692D01*
X127366627Y-65157364D01*
X127706655Y-65225000D01*
X128053345Y-65225000D01*
X128393373Y-65157364D01*
X128713673Y-65024692D01*
X129001935Y-64832081D01*
X129247081Y-64586935D01*
X129439692Y-64298673D01*
X129572364Y-63978373D01*
X129595003Y-63864555D01*
X132648000Y-63864555D01*
X132648000Y-64485445D01*
X132769130Y-65094404D01*
X133006734Y-65668032D01*
X133351682Y-66184283D01*
X133790717Y-66623318D01*
X134306968Y-66968266D01*
X134880596Y-67205870D01*
X135489555Y-67327000D01*
X136110445Y-67327000D01*
X136338408Y-67281655D01*
X141960000Y-67281655D01*
X141960000Y-67628345D01*
X142027636Y-67968373D01*
X142160308Y-68288673D01*
X142352919Y-68576935D01*
X142598065Y-68822081D01*
X142886327Y-69014692D01*
X143206627Y-69147364D01*
X143546655Y-69215000D01*
X143893345Y-69215000D01*
X144233373Y-69147364D01*
X144553673Y-69014692D01*
X144841935Y-68822081D01*
X145087081Y-68576935D01*
X145279692Y-68288673D01*
X145412364Y-67968373D01*
X145480000Y-67628345D01*
X145480000Y-67281655D01*
X145920000Y-67281655D01*
X145920000Y-67628345D01*
X145987636Y-67968373D01*
X146120308Y-68288673D01*
X146312919Y-68576935D01*
X146558065Y-68822081D01*
X146846327Y-69014692D01*
X147166627Y-69147364D01*
X147506655Y-69215000D01*
X147853345Y-69215000D01*
X148193373Y-69147364D01*
X148513673Y-69014692D01*
X148801935Y-68822081D01*
X149047081Y-68576935D01*
X149239692Y-68288673D01*
X149372364Y-67968373D01*
X149440000Y-67628345D01*
X149440000Y-67281655D01*
X149372364Y-66941627D01*
X149352016Y-66892500D01*
X149876928Y-66892500D01*
X149876928Y-68017500D01*
X149899997Y-68251720D01*
X149968316Y-68476939D01*
X150079261Y-68684502D01*
X150228567Y-68866433D01*
X150410498Y-69015739D01*
X150618061Y-69126684D01*
X150843280Y-69195003D01*
X151077500Y-69218072D01*
X152202500Y-69218072D01*
X152436720Y-69195003D01*
X152661939Y-69126684D01*
X152869502Y-69015739D01*
X153051433Y-68866433D01*
X153200739Y-68684502D01*
X153311684Y-68476939D01*
X153380003Y-68251720D01*
X153403072Y-68017500D01*
X153403072Y-66892500D01*
X153380003Y-66658280D01*
X153311684Y-66433061D01*
X153200739Y-66225498D01*
X153051433Y-66043567D01*
X152869502Y-65894261D01*
X152661939Y-65783316D01*
X152436720Y-65714997D01*
X152202500Y-65691928D01*
X151077500Y-65691928D01*
X150843280Y-65714997D01*
X150618061Y-65783316D01*
X150410498Y-65894261D01*
X150228567Y-66043567D01*
X150079261Y-66225498D01*
X149968316Y-66433061D01*
X149899997Y-66658280D01*
X149876928Y-66892500D01*
X149352016Y-66892500D01*
X149239692Y-66621327D01*
X149047081Y-66333065D01*
X148801935Y-66087919D01*
X148513673Y-65895308D01*
X148193373Y-65762636D01*
X147853345Y-65695000D01*
X147506655Y-65695000D01*
X147166627Y-65762636D01*
X146846327Y-65895308D01*
X146558065Y-66087919D01*
X146312919Y-66333065D01*
X146120308Y-66621327D01*
X145987636Y-66941627D01*
X145920000Y-67281655D01*
X145480000Y-67281655D01*
X145412364Y-66941627D01*
X145279692Y-66621327D01*
X145087081Y-66333065D01*
X144841935Y-66087919D01*
X144553673Y-65895308D01*
X144233373Y-65762636D01*
X143893345Y-65695000D01*
X143546655Y-65695000D01*
X143206627Y-65762636D01*
X142886327Y-65895308D01*
X142598065Y-66087919D01*
X142352919Y-66333065D01*
X142160308Y-66621327D01*
X142027636Y-66941627D01*
X141960000Y-67281655D01*
X136338408Y-67281655D01*
X136719404Y-67205870D01*
X137293032Y-66968266D01*
X137809283Y-66623318D01*
X138248318Y-66184283D01*
X138593266Y-65668032D01*
X138830870Y-65094404D01*
X138952000Y-64485445D01*
X138952000Y-63864555D01*
X138838043Y-63291655D01*
X141960000Y-63291655D01*
X141960000Y-63638345D01*
X142027636Y-63978373D01*
X142160308Y-64298673D01*
X142352919Y-64586935D01*
X142598065Y-64832081D01*
X142886327Y-65024692D01*
X143206627Y-65157364D01*
X143546655Y-65225000D01*
X143893345Y-65225000D01*
X144233373Y-65157364D01*
X144553673Y-65024692D01*
X144841935Y-64832081D01*
X145087081Y-64586935D01*
X145279692Y-64298673D01*
X145412364Y-63978373D01*
X145480000Y-63638345D01*
X145480000Y-63291655D01*
X145920000Y-63291655D01*
X145920000Y-63638345D01*
X145987636Y-63978373D01*
X146120308Y-64298673D01*
X146312919Y-64586935D01*
X146558065Y-64832081D01*
X146846327Y-65024692D01*
X147166627Y-65157364D01*
X147506655Y-65225000D01*
X147853345Y-65225000D01*
X148193373Y-65157364D01*
X148513673Y-65024692D01*
X148801935Y-64832081D01*
X148944485Y-64689531D01*
X150595074Y-64689531D01*
X150705921Y-64966714D01*
X151016840Y-65120089D01*
X151351705Y-65209860D01*
X151697650Y-65232576D01*
X152041380Y-65187366D01*
X152369685Y-65075966D01*
X152574079Y-64966714D01*
X152684926Y-64689531D01*
X151640000Y-63644605D01*
X150595074Y-64689531D01*
X148944485Y-64689531D01*
X149047081Y-64586935D01*
X149239692Y-64298673D01*
X149372364Y-63978373D01*
X149440000Y-63638345D01*
X149440000Y-63522650D01*
X149872424Y-63522650D01*
X149917634Y-63866380D01*
X150029034Y-64194685D01*
X150138286Y-64399079D01*
X150415469Y-64509926D01*
X151460395Y-63465000D01*
X151819605Y-63465000D01*
X152864531Y-64509926D01*
X153141714Y-64399079D01*
X153295089Y-64088160D01*
X153384860Y-63753295D01*
X153407576Y-63407350D01*
X153362366Y-63063620D01*
X153250966Y-62735315D01*
X153141714Y-62530921D01*
X152864531Y-62420074D01*
X151819605Y-63465000D01*
X151460395Y-63465000D01*
X150415469Y-62420074D01*
X150138286Y-62530921D01*
X149984911Y-62841840D01*
X149895140Y-63176705D01*
X149872424Y-63522650D01*
X149440000Y-63522650D01*
X149440000Y-63291655D01*
X149372364Y-62951627D01*
X149239692Y-62631327D01*
X149047081Y-62343065D01*
X148944485Y-62240469D01*
X150595074Y-62240469D01*
X151640000Y-63285395D01*
X152684926Y-62240469D01*
X152574079Y-61963286D01*
X152263160Y-61809911D01*
X151928295Y-61720140D01*
X151582350Y-61697424D01*
X151238620Y-61742634D01*
X150910315Y-61854034D01*
X150705921Y-61963286D01*
X150595074Y-62240469D01*
X148944485Y-62240469D01*
X148801935Y-62097919D01*
X148513673Y-61905308D01*
X148193373Y-61772636D01*
X147853345Y-61705000D01*
X147506655Y-61705000D01*
X147166627Y-61772636D01*
X146846327Y-61905308D01*
X146558065Y-62097919D01*
X146312919Y-62343065D01*
X146120308Y-62631327D01*
X145987636Y-62951627D01*
X145920000Y-63291655D01*
X145480000Y-63291655D01*
X145412364Y-62951627D01*
X145279692Y-62631327D01*
X145087081Y-62343065D01*
X144841935Y-62097919D01*
X144553673Y-61905308D01*
X144233373Y-61772636D01*
X143893345Y-61705000D01*
X143546655Y-61705000D01*
X143206627Y-61772636D01*
X142886327Y-61905308D01*
X142598065Y-62097919D01*
X142352919Y-62343065D01*
X142160308Y-62631327D01*
X142027636Y-62951627D01*
X141960000Y-63291655D01*
X138838043Y-63291655D01*
X138830870Y-63255596D01*
X138593266Y-62681968D01*
X138248318Y-62165717D01*
X137809283Y-61726682D01*
X137293032Y-61381734D01*
X136719404Y-61144130D01*
X136110445Y-61023000D01*
X135489555Y-61023000D01*
X134880596Y-61144130D01*
X134306968Y-61381734D01*
X133790717Y-61726682D01*
X133351682Y-62165717D01*
X133006734Y-62681968D01*
X132769130Y-63255596D01*
X132648000Y-63864555D01*
X129595003Y-63864555D01*
X129640000Y-63638345D01*
X129640000Y-63291655D01*
X129572364Y-62951627D01*
X129439692Y-62631327D01*
X129247081Y-62343065D01*
X129001935Y-62097919D01*
X128713673Y-61905308D01*
X128393373Y-61772636D01*
X128053345Y-61705000D01*
X127706655Y-61705000D01*
X127366627Y-61772636D01*
X127046327Y-61905308D01*
X126758065Y-62097919D01*
X126512919Y-62343065D01*
X126320308Y-62631327D01*
X126187636Y-62951627D01*
X126120000Y-63291655D01*
X125680000Y-63291655D01*
X125612364Y-62951627D01*
X125479692Y-62631327D01*
X125287081Y-62343065D01*
X125041935Y-62097919D01*
X124753673Y-61905308D01*
X124433373Y-61772636D01*
X124093345Y-61705000D01*
X123746655Y-61705000D01*
X123406627Y-61772636D01*
X123086327Y-61905308D01*
X122798065Y-62097919D01*
X122552919Y-62343065D01*
X122360308Y-62631327D01*
X122227636Y-62951627D01*
X122160000Y-63291655D01*
X121720000Y-63291655D01*
X121652364Y-62951627D01*
X121519692Y-62631327D01*
X121327081Y-62343065D01*
X121081935Y-62097919D01*
X120793673Y-61905308D01*
X120473373Y-61772636D01*
X120133345Y-61705000D01*
X119786655Y-61705000D01*
X119446627Y-61772636D01*
X119126327Y-61905308D01*
X118838065Y-62097919D01*
X118592919Y-62343065D01*
X118400308Y-62631327D01*
X118267636Y-62951627D01*
X118200000Y-63291655D01*
X93985000Y-63291655D01*
X93985000Y-60699531D01*
X118915074Y-60699531D01*
X119025921Y-60976714D01*
X119336840Y-61130089D01*
X119671705Y-61219860D01*
X120017650Y-61242576D01*
X120361380Y-61197366D01*
X120689685Y-61085966D01*
X120894079Y-60976714D01*
X121004926Y-60699531D01*
X119960000Y-59654605D01*
X118915074Y-60699531D01*
X93985000Y-60699531D01*
X93985000Y-59532650D01*
X118192424Y-59532650D01*
X118237634Y-59876380D01*
X118349034Y-60204685D01*
X118458286Y-60409079D01*
X118735469Y-60519926D01*
X119780395Y-59475000D01*
X120139605Y-59475000D01*
X121184531Y-60519926D01*
X121461714Y-60409079D01*
X121615089Y-60098160D01*
X121704860Y-59763295D01*
X121727576Y-59417350D01*
X121712359Y-59301655D01*
X122160000Y-59301655D01*
X122160000Y-59648345D01*
X122227636Y-59988373D01*
X122360308Y-60308673D01*
X122552919Y-60596935D01*
X122798065Y-60842081D01*
X123086327Y-61034692D01*
X123406627Y-61167364D01*
X123746655Y-61235000D01*
X124093345Y-61235000D01*
X124433373Y-61167364D01*
X124753673Y-61034692D01*
X125041935Y-60842081D01*
X125287081Y-60596935D01*
X125479692Y-60308673D01*
X125612364Y-59988373D01*
X125680000Y-59648345D01*
X125680000Y-59301655D01*
X126120000Y-59301655D01*
X126120000Y-59648345D01*
X126187636Y-59988373D01*
X126320308Y-60308673D01*
X126512919Y-60596935D01*
X126758065Y-60842081D01*
X127046327Y-61034692D01*
X127366627Y-61167364D01*
X127706655Y-61235000D01*
X128053345Y-61235000D01*
X128393373Y-61167364D01*
X128713673Y-61034692D01*
X129001935Y-60842081D01*
X129247081Y-60596935D01*
X129439692Y-60308673D01*
X129572364Y-59988373D01*
X129640000Y-59648345D01*
X129640000Y-59301655D01*
X141960000Y-59301655D01*
X141960000Y-59648345D01*
X142027636Y-59988373D01*
X142160308Y-60308673D01*
X142352919Y-60596935D01*
X142598065Y-60842081D01*
X142886327Y-61034692D01*
X143206627Y-61167364D01*
X143546655Y-61235000D01*
X143893345Y-61235000D01*
X144233373Y-61167364D01*
X144553673Y-61034692D01*
X144841935Y-60842081D01*
X145087081Y-60596935D01*
X145279692Y-60308673D01*
X145412364Y-59988373D01*
X145480000Y-59648345D01*
X145480000Y-59301655D01*
X145920000Y-59301655D01*
X145920000Y-59648345D01*
X145987636Y-59988373D01*
X146120308Y-60308673D01*
X146312919Y-60596935D01*
X146558065Y-60842081D01*
X146846327Y-61034692D01*
X147166627Y-61167364D01*
X147506655Y-61235000D01*
X147853345Y-61235000D01*
X148193373Y-61167364D01*
X148513673Y-61034692D01*
X148801935Y-60842081D01*
X149047081Y-60596935D01*
X149239692Y-60308673D01*
X149372364Y-59988373D01*
X149440000Y-59648345D01*
X149440000Y-59301655D01*
X149880000Y-59301655D01*
X149880000Y-59648345D01*
X149947636Y-59988373D01*
X150080308Y-60308673D01*
X150272919Y-60596935D01*
X150518065Y-60842081D01*
X150806327Y-61034692D01*
X151126627Y-61167364D01*
X151466655Y-61235000D01*
X151813345Y-61235000D01*
X152153373Y-61167364D01*
X152473673Y-61034692D01*
X152761935Y-60842081D01*
X153007081Y-60596935D01*
X153199692Y-60308673D01*
X153332364Y-59988373D01*
X153400000Y-59648345D01*
X153400000Y-59301655D01*
X153332364Y-58961627D01*
X153199692Y-58641327D01*
X153007081Y-58353065D01*
X152761935Y-58107919D01*
X152473673Y-57915308D01*
X152153373Y-57782636D01*
X151813345Y-57715000D01*
X151466655Y-57715000D01*
X151126627Y-57782636D01*
X150806327Y-57915308D01*
X150518065Y-58107919D01*
X150272919Y-58353065D01*
X150080308Y-58641327D01*
X149947636Y-58961627D01*
X149880000Y-59301655D01*
X149440000Y-59301655D01*
X149372364Y-58961627D01*
X149239692Y-58641327D01*
X149047081Y-58353065D01*
X148801935Y-58107919D01*
X148513673Y-57915308D01*
X148193373Y-57782636D01*
X147853345Y-57715000D01*
X147506655Y-57715000D01*
X147166627Y-57782636D01*
X146846327Y-57915308D01*
X146558065Y-58107919D01*
X146312919Y-58353065D01*
X146120308Y-58641327D01*
X145987636Y-58961627D01*
X145920000Y-59301655D01*
X145480000Y-59301655D01*
X145412364Y-58961627D01*
X145279692Y-58641327D01*
X145087081Y-58353065D01*
X144841935Y-58107919D01*
X144553673Y-57915308D01*
X144233373Y-57782636D01*
X143893345Y-57715000D01*
X143546655Y-57715000D01*
X143206627Y-57782636D01*
X142886327Y-57915308D01*
X142598065Y-58107919D01*
X142352919Y-58353065D01*
X142160308Y-58641327D01*
X142027636Y-58961627D01*
X141960000Y-59301655D01*
X129640000Y-59301655D01*
X129572364Y-58961627D01*
X129439692Y-58641327D01*
X129247081Y-58353065D01*
X129001935Y-58107919D01*
X128713673Y-57915308D01*
X128393373Y-57782636D01*
X128053345Y-57715000D01*
X127706655Y-57715000D01*
X127366627Y-57782636D01*
X127046327Y-57915308D01*
X126758065Y-58107919D01*
X126512919Y-58353065D01*
X126320308Y-58641327D01*
X126187636Y-58961627D01*
X126120000Y-59301655D01*
X125680000Y-59301655D01*
X125612364Y-58961627D01*
X125479692Y-58641327D01*
X125287081Y-58353065D01*
X125041935Y-58107919D01*
X124753673Y-57915308D01*
X124433373Y-57782636D01*
X124093345Y-57715000D01*
X123746655Y-57715000D01*
X123406627Y-57782636D01*
X123086327Y-57915308D01*
X122798065Y-58107919D01*
X122552919Y-58353065D01*
X122360308Y-58641327D01*
X122227636Y-58961627D01*
X122160000Y-59301655D01*
X121712359Y-59301655D01*
X121682366Y-59073620D01*
X121570966Y-58745315D01*
X121461714Y-58540921D01*
X121184531Y-58430074D01*
X120139605Y-59475000D01*
X119780395Y-59475000D01*
X118735469Y-58430074D01*
X118458286Y-58540921D01*
X118304911Y-58851840D01*
X118215140Y-59186705D01*
X118192424Y-59532650D01*
X93985000Y-59532650D01*
X93985000Y-58250469D01*
X118915074Y-58250469D01*
X119960000Y-59295395D01*
X121004926Y-58250469D01*
X120894079Y-57973286D01*
X120583160Y-57819911D01*
X120248295Y-57730140D01*
X119902350Y-57707424D01*
X119558620Y-57752634D01*
X119230315Y-57864034D01*
X119025921Y-57973286D01*
X118915074Y-58250469D01*
X93985000Y-58250469D01*
X93985000Y-55385434D01*
X177605001Y-55385434D01*
X177605000Y-111627986D01*
G04 #@! TA.AperFunction,Conductor*
D15*
G36*
X177605000Y-111627986D02*
G01*
X174987553Y-114245434D01*
X96602448Y-114245434D01*
X93985000Y-111627987D01*
X93985000Y-103873061D01*
X101990000Y-103873061D01*
X101990000Y-104076939D01*
X102029774Y-104276898D01*
X102107795Y-104465256D01*
X102140000Y-104513455D01*
X102140001Y-106431521D01*
X102135719Y-106475000D01*
X102152805Y-106648490D01*
X102203412Y-106815313D01*
X102285590Y-106969059D01*
X102368468Y-107070046D01*
X102368471Y-107070049D01*
X102396184Y-107103817D01*
X102429951Y-107131529D01*
X105043465Y-109745044D01*
X105054774Y-109801898D01*
X105132795Y-109990256D01*
X105246063Y-110159774D01*
X105390226Y-110303937D01*
X105559744Y-110417205D01*
X105748102Y-110495226D01*
X105948061Y-110535000D01*
X106151939Y-110535000D01*
X106351898Y-110495226D01*
X106540256Y-110417205D01*
X106709774Y-110303937D01*
X106853937Y-110159774D01*
X106967205Y-109990256D01*
X107045226Y-109801898D01*
X107085000Y-109601939D01*
X107085000Y-109398061D01*
X107045226Y-109198102D01*
X106967205Y-109009744D01*
X106853937Y-108840226D01*
X106709774Y-108696063D01*
X106540256Y-108582795D01*
X106351898Y-108504774D01*
X106295044Y-108493465D01*
X103910000Y-106108422D01*
X103910000Y-104513454D01*
X103942205Y-104465256D01*
X104020226Y-104276898D01*
X104031535Y-104220043D01*
X104120044Y-104131534D01*
X104153817Y-104103817D01*
X104264411Y-103969059D01*
X104346589Y-103815313D01*
X104397195Y-103648490D01*
X104410000Y-103518477D01*
X104410000Y-103518469D01*
X104414281Y-103475000D01*
X104410000Y-103431531D01*
X104410000Y-91513454D01*
X104442205Y-91465256D01*
X104520226Y-91276898D01*
X104560000Y-91076939D01*
X104560000Y-90873061D01*
X104520226Y-90673102D01*
X104442205Y-90484744D01*
X104410000Y-90436546D01*
X104410000Y-85680893D01*
X107647845Y-82443049D01*
X107653102Y-82445226D01*
X107853061Y-82485000D01*
X108056939Y-82485000D01*
X108256898Y-82445226D01*
X108445256Y-82367205D01*
X108614774Y-82253937D01*
X108758937Y-82109774D01*
X108872205Y-81940256D01*
X108950226Y-81751898D01*
X108990000Y-81551939D01*
X108990000Y-81348061D01*
X108950226Y-81148102D01*
X108872205Y-80959744D01*
X108758937Y-80790226D01*
X108614774Y-80646063D01*
X108445256Y-80532795D01*
X108256898Y-80454774D01*
X108056939Y-80415000D01*
X107853061Y-80415000D01*
X107653102Y-80454774D01*
X107464744Y-80532795D01*
X107418631Y-80563606D01*
X107389314Y-80560719D01*
X107345848Y-80565000D01*
X107345838Y-80565000D01*
X107215825Y-80577805D01*
X107049002Y-80628411D01*
X106895256Y-80710589D01*
X106895254Y-80710590D01*
X106895255Y-80710590D01*
X106794268Y-80793468D01*
X106794266Y-80793470D01*
X106760498Y-80821183D01*
X106732785Y-80854951D01*
X103033534Y-84554203D01*
X103030941Y-84555589D01*
X102896183Y-84666183D01*
X102785589Y-84800941D01*
X102703411Y-84954687D01*
X102652805Y-85121510D01*
X102635718Y-85295000D01*
X102640001Y-85338487D01*
X102640000Y-90436546D01*
X102607795Y-90484744D01*
X102529774Y-90673102D01*
X102490000Y-90873061D01*
X102490000Y-91076939D01*
X102529774Y-91276898D01*
X102607795Y-91465256D01*
X102640000Y-91513454D01*
X102640001Y-103014196D01*
X102534744Y-103057795D01*
X102365226Y-103171063D01*
X102221063Y-103315226D01*
X102107795Y-103484744D01*
X102029774Y-103673102D01*
X101990000Y-103873061D01*
X93985000Y-103873061D01*
X93985000Y-77898061D01*
X113465000Y-77898061D01*
X113465000Y-78101939D01*
X113504774Y-78301898D01*
X113582795Y-78490256D01*
X113696063Y-78659774D01*
X113840226Y-78803937D01*
X114009744Y-78917205D01*
X114198102Y-78995226D01*
X114398061Y-79035000D01*
X114601939Y-79035000D01*
X114801898Y-78995226D01*
X114990256Y-78917205D01*
X115159774Y-78803937D01*
X115240001Y-78723710D01*
X115240000Y-84296289D01*
X115196063Y-84340226D01*
X115082795Y-84509744D01*
X115004774Y-84698102D01*
X114965000Y-84898061D01*
X114965000Y-85101939D01*
X115004774Y-85301898D01*
X115082795Y-85490256D01*
X115196063Y-85659774D01*
X115340226Y-85803937D01*
X115509744Y-85917205D01*
X115698102Y-85995226D01*
X115895001Y-86034391D01*
X115895000Y-104446289D01*
X115851063Y-104490226D01*
X115737795Y-104659744D01*
X115659774Y-104848102D01*
X115620000Y-105048061D01*
X115620000Y-105251939D01*
X115659774Y-105451898D01*
X115737795Y-105640256D01*
X115851063Y-105809774D01*
X115995226Y-105953937D01*
X116164744Y-106067205D01*
X116353102Y-106145226D01*
X116553061Y-106185000D01*
X116640001Y-106185000D01*
X116640001Y-108281514D01*
X116640000Y-108281524D01*
X116640001Y-108936545D01*
X116607795Y-108984744D01*
X116529774Y-109173102D01*
X116490000Y-109373061D01*
X116490000Y-109576939D01*
X116529774Y-109776898D01*
X116607795Y-109965256D01*
X116721063Y-110134774D01*
X116865226Y-110278937D01*
X117034744Y-110392205D01*
X117223102Y-110470226D01*
X117423061Y-110510000D01*
X117626939Y-110510000D01*
X117826898Y-110470226D01*
X118015256Y-110392205D01*
X118184774Y-110278937D01*
X118328937Y-110134774D01*
X118442205Y-109965256D01*
X118520226Y-109776898D01*
X118560000Y-109576939D01*
X118560000Y-109373061D01*
X130490000Y-109373061D01*
X130490000Y-109576939D01*
X130529774Y-109776898D01*
X130607795Y-109965256D01*
X130721063Y-110134774D01*
X130865226Y-110278937D01*
X131034744Y-110392205D01*
X131223102Y-110470226D01*
X131423061Y-110510000D01*
X131626939Y-110510000D01*
X131826898Y-110470226D01*
X132015256Y-110392205D01*
X132184774Y-110278937D01*
X132328937Y-110134774D01*
X132442205Y-109965256D01*
X132520226Y-109776898D01*
X132531535Y-109720043D01*
X132878517Y-109373061D01*
X140240000Y-109373061D01*
X140240000Y-109576939D01*
X140279774Y-109776898D01*
X140357795Y-109965256D01*
X140471063Y-110134774D01*
X140615226Y-110278937D01*
X140784744Y-110392205D01*
X140973102Y-110470226D01*
X141173061Y-110510000D01*
X141376939Y-110510000D01*
X141576898Y-110470226D01*
X141765256Y-110392205D01*
X141934774Y-110278937D01*
X142078937Y-110134774D01*
X142192205Y-109965256D01*
X142270226Y-109776898D01*
X142310000Y-109576939D01*
X142310000Y-109373061D01*
X142270226Y-109173102D01*
X142192205Y-108984744D01*
X142160000Y-108936546D01*
X142160000Y-106648061D01*
X153520016Y-106648061D01*
X153520016Y-106851939D01*
X153559790Y-107051898D01*
X153637811Y-107240256D01*
X153751079Y-107409774D01*
X153895242Y-107553937D01*
X154064760Y-107667205D01*
X154253118Y-107745226D01*
X154453077Y-107785000D01*
X154656955Y-107785000D01*
X154856914Y-107745226D01*
X155045272Y-107667205D01*
X155214790Y-107553937D01*
X155258727Y-107510000D01*
X158465000Y-107510000D01*
X158465000Y-107601939D01*
X158504774Y-107801898D01*
X158582795Y-107990256D01*
X158696063Y-108159774D01*
X158776289Y-108240000D01*
X156953711Y-108240000D01*
X156909774Y-108196063D01*
X156740256Y-108082795D01*
X156551898Y-108004774D01*
X156351939Y-107965000D01*
X156148061Y-107965000D01*
X155948102Y-108004774D01*
X155759744Y-108082795D01*
X155590226Y-108196063D01*
X155446063Y-108340226D01*
X155332795Y-108509744D01*
X155254774Y-108698102D01*
X155215000Y-108898061D01*
X155215000Y-109101939D01*
X155254774Y-109301898D01*
X155332795Y-109490256D01*
X155446063Y-109659774D01*
X155590226Y-109803937D01*
X155759744Y-109917205D01*
X155948102Y-109995226D01*
X156148061Y-110035000D01*
X156351939Y-110035000D01*
X156551898Y-109995226D01*
X156740256Y-109917205D01*
X156909774Y-109803937D01*
X156953711Y-109760000D01*
X161296289Y-109760000D01*
X161340226Y-109803937D01*
X161509744Y-109917205D01*
X161698102Y-109995226D01*
X161898061Y-110035000D01*
X162101939Y-110035000D01*
X162301898Y-109995226D01*
X162490256Y-109917205D01*
X162659774Y-109803937D01*
X162803937Y-109659774D01*
X162917205Y-109490256D01*
X162995226Y-109301898D01*
X163035000Y-109101939D01*
X163035000Y-108898061D01*
X162995226Y-108698102D01*
X162917205Y-108509744D01*
X162884612Y-108460965D01*
X162990256Y-108417205D01*
X163159774Y-108303937D01*
X163303937Y-108159774D01*
X163417205Y-107990256D01*
X163495226Y-107801898D01*
X163535000Y-107601939D01*
X163535000Y-107510000D01*
X164651289Y-107510000D01*
X164695226Y-107553937D01*
X164864744Y-107667205D01*
X165053102Y-107745226D01*
X165253061Y-107785000D01*
X165456939Y-107785000D01*
X165656898Y-107745226D01*
X165845256Y-107667205D01*
X166014774Y-107553937D01*
X166158937Y-107409774D01*
X166272205Y-107240256D01*
X166350226Y-107051898D01*
X166390000Y-106851939D01*
X166390000Y-106648061D01*
X166350226Y-106448102D01*
X166272205Y-106259744D01*
X166158937Y-106090226D01*
X166014774Y-105946063D01*
X165845256Y-105832795D01*
X165656898Y-105754774D01*
X165456939Y-105715000D01*
X165253061Y-105715000D01*
X165053102Y-105754774D01*
X164864744Y-105832795D01*
X164695226Y-105946063D01*
X164651289Y-105990000D01*
X155258727Y-105990000D01*
X155214790Y-105946063D01*
X155045272Y-105832795D01*
X154856914Y-105754774D01*
X154656955Y-105715000D01*
X154453077Y-105715000D01*
X154253118Y-105754774D01*
X154064760Y-105832795D01*
X153895242Y-105946063D01*
X153751079Y-106090226D01*
X153637811Y-106259744D01*
X153559790Y-106448102D01*
X153520016Y-106648061D01*
X142160000Y-106648061D01*
X142160000Y-106030906D01*
X142207207Y-105960256D01*
X142285228Y-105771898D01*
X142325002Y-105571939D01*
X142325002Y-105368061D01*
X142285228Y-105168102D01*
X142207207Y-104979744D01*
X142093939Y-104810226D01*
X141949776Y-104666063D01*
X141780258Y-104552795D01*
X141591900Y-104474774D01*
X141391941Y-104435000D01*
X141188063Y-104435000D01*
X140988104Y-104474774D01*
X140799746Y-104552795D01*
X140630228Y-104666063D01*
X140486065Y-104810226D01*
X140372797Y-104979744D01*
X140294776Y-105168102D01*
X140255002Y-105368061D01*
X140255002Y-105571939D01*
X140294776Y-105771898D01*
X140372797Y-105960256D01*
X140390001Y-105986003D01*
X140390000Y-108936545D01*
X140357795Y-108984744D01*
X140279774Y-109173102D01*
X140240000Y-109373061D01*
X132878517Y-109373061D01*
X133120049Y-109131530D01*
X133153817Y-109103817D01*
X133231022Y-109009744D01*
X133264411Y-108969059D01*
X133346589Y-108815314D01*
X133397195Y-108648490D01*
X133410000Y-108518477D01*
X133410000Y-108518469D01*
X133414281Y-108475000D01*
X133410000Y-108431531D01*
X133410000Y-101898061D01*
X165465000Y-101898061D01*
X165465000Y-102101939D01*
X165504774Y-102301898D01*
X165582795Y-102490256D01*
X165696063Y-102659774D01*
X165840226Y-102803937D01*
X166009744Y-102917205D01*
X166198102Y-102995226D01*
X166398061Y-103035000D01*
X166601939Y-103035000D01*
X166801898Y-102995226D01*
X166990256Y-102917205D01*
X167159774Y-102803937D01*
X167203711Y-102760000D01*
X168796289Y-102760000D01*
X168840226Y-102803937D01*
X169009744Y-102917205D01*
X169198102Y-102995226D01*
X169398061Y-103035000D01*
X169601939Y-103035000D01*
X169801898Y-102995226D01*
X169990256Y-102917205D01*
X170159774Y-102803937D01*
X170303937Y-102659774D01*
X170417205Y-102490256D01*
X170495226Y-102301898D01*
X170535000Y-102101939D01*
X170535000Y-101898061D01*
X170495226Y-101698102D01*
X170417205Y-101509744D01*
X170303937Y-101340226D01*
X170159774Y-101196063D01*
X169990256Y-101082795D01*
X169801898Y-101004774D01*
X169601939Y-100965000D01*
X169398061Y-100965000D01*
X169198102Y-101004774D01*
X169009744Y-101082795D01*
X168840226Y-101196063D01*
X168796289Y-101240000D01*
X167203711Y-101240000D01*
X167159774Y-101196063D01*
X166990256Y-101082795D01*
X166801898Y-101004774D01*
X166601939Y-100965000D01*
X166398061Y-100965000D01*
X166198102Y-101004774D01*
X166009744Y-101082795D01*
X165840226Y-101196063D01*
X165696063Y-101340226D01*
X165582795Y-101509744D01*
X165504774Y-101698102D01*
X165465000Y-101898061D01*
X133410000Y-101898061D01*
X133410000Y-99498061D01*
X152365000Y-99498061D01*
X152365000Y-99701939D01*
X152404774Y-99901898D01*
X152482795Y-100090256D01*
X152596063Y-100259774D01*
X152740226Y-100403937D01*
X152909744Y-100517205D01*
X153098102Y-100595226D01*
X153298061Y-100635000D01*
X153501939Y-100635000D01*
X153701898Y-100595226D01*
X153890256Y-100517205D01*
X154059774Y-100403937D01*
X154203937Y-100259774D01*
X154317205Y-100090256D01*
X154395226Y-99901898D01*
X154420934Y-99772653D01*
X159783636Y-99772653D01*
X159827573Y-99816590D01*
X159997091Y-99929858D01*
X160185449Y-100007879D01*
X160385408Y-100047653D01*
X160589286Y-100047653D01*
X160789245Y-100007879D01*
X160977603Y-99929858D01*
X161147121Y-99816590D01*
X161291284Y-99672427D01*
X161404552Y-99502909D01*
X161482573Y-99314551D01*
X161522347Y-99114592D01*
X161522347Y-98910714D01*
X161482573Y-98710755D01*
X161404552Y-98522397D01*
X161291284Y-98352879D01*
X161147121Y-98208716D01*
X160977603Y-98095448D01*
X160789245Y-98017427D01*
X160589286Y-97977653D01*
X160385408Y-97977653D01*
X160185449Y-98017427D01*
X159997091Y-98095448D01*
X159827573Y-98208716D01*
X159783636Y-98252653D01*
X154024669Y-98252653D01*
X153987346Y-98248977D01*
X153950023Y-98252653D01*
X153950014Y-98252653D01*
X153838361Y-98263650D01*
X153695100Y-98307107D01*
X153563070Y-98377679D01*
X153479430Y-98446321D01*
X153447346Y-98472652D01*
X153423547Y-98501651D01*
X153360198Y-98565000D01*
X153298061Y-98565000D01*
X153098102Y-98604774D01*
X152909744Y-98682795D01*
X152740226Y-98796063D01*
X152596063Y-98940226D01*
X152482795Y-99109744D01*
X152404774Y-99298102D01*
X152365000Y-99498061D01*
X133410000Y-99498061D01*
X133410000Y-92632908D01*
X144204847Y-92632908D01*
X144204847Y-92836786D01*
X144244621Y-93036745D01*
X144322642Y-93225103D01*
X144435910Y-93394621D01*
X144580073Y-93538784D01*
X144749591Y-93652052D01*
X144937949Y-93730073D01*
X145137908Y-93769847D01*
X145200046Y-93769847D01*
X147461203Y-96031005D01*
X147485001Y-96060003D01*
X147513999Y-96083801D01*
X147600725Y-96154976D01*
X147732755Y-96225548D01*
X147876016Y-96269005D01*
X147987669Y-96280002D01*
X147987679Y-96280002D01*
X148025002Y-96283678D01*
X148062325Y-96280002D01*
X156942676Y-96280002D01*
X156979998Y-96283678D01*
X157017320Y-96280002D01*
X157017331Y-96280002D01*
X157128984Y-96269005D01*
X157272245Y-96225548D01*
X157404274Y-96154976D01*
X157519999Y-96060003D01*
X157543802Y-96030999D01*
X157742277Y-95832524D01*
X157775726Y-95859975D01*
X157907755Y-95930547D01*
X158051016Y-95974004D01*
X158162669Y-95985001D01*
X158162678Y-95985001D01*
X158200001Y-95988677D01*
X158237326Y-95985001D01*
X163588920Y-95985001D01*
X163698102Y-96030226D01*
X163898061Y-96070000D01*
X164101939Y-96070000D01*
X164301898Y-96030226D01*
X164490256Y-95952205D01*
X164659774Y-95838937D01*
X164803937Y-95694774D01*
X164917205Y-95525256D01*
X164995226Y-95336898D01*
X165035000Y-95136939D01*
X165035000Y-94933061D01*
X164995226Y-94733102D01*
X164917205Y-94544744D01*
X164803937Y-94375226D01*
X164659774Y-94231063D01*
X164490256Y-94117795D01*
X164301898Y-94039774D01*
X164101939Y-94000000D01*
X163898061Y-94000000D01*
X163698102Y-94039774D01*
X163509744Y-94117795D01*
X163472319Y-94142801D01*
X163417205Y-94009744D01*
X163303937Y-93840226D01*
X163159774Y-93696063D01*
X162990256Y-93582795D01*
X162801898Y-93504774D01*
X162601939Y-93465000D01*
X162544105Y-93465000D01*
X162540001Y-93459999D01*
X162424276Y-93365026D01*
X162292247Y-93294454D01*
X162148986Y-93250997D01*
X162037333Y-93240000D01*
X162037322Y-93240000D01*
X162000000Y-93236324D01*
X161962678Y-93240000D01*
X161789445Y-93240000D01*
X161805227Y-93201898D01*
X161845001Y-93001939D01*
X161845001Y-92798061D01*
X161805227Y-92598102D01*
X161727312Y-92409999D01*
X163812679Y-92409999D01*
X163850001Y-92413675D01*
X163887323Y-92409999D01*
X163887334Y-92409999D01*
X163998987Y-92399002D01*
X164142248Y-92355545D01*
X164274226Y-92285000D01*
X164351939Y-92285000D01*
X164551898Y-92245226D01*
X164740256Y-92167205D01*
X164909774Y-92053937D01*
X165053937Y-91909774D01*
X165167205Y-91740256D01*
X165245226Y-91551898D01*
X165285000Y-91351939D01*
X165285000Y-91148061D01*
X165245226Y-90948102D01*
X165167205Y-90759744D01*
X165053937Y-90590226D01*
X164909774Y-90446063D01*
X164890933Y-90433474D01*
X164910225Y-90386899D01*
X164949999Y-90186940D01*
X164949999Y-89983062D01*
X164910225Y-89783103D01*
X164876229Y-89701031D01*
X165740001Y-90564803D01*
X165740000Y-93796289D01*
X165696063Y-93840226D01*
X165582795Y-94009744D01*
X165504774Y-94198102D01*
X165465000Y-94398061D01*
X165465000Y-94601939D01*
X165504774Y-94801898D01*
X165582795Y-94990256D01*
X165696063Y-95159774D01*
X165840226Y-95303937D01*
X166009744Y-95417205D01*
X166198102Y-95495226D01*
X166398061Y-95535000D01*
X166601939Y-95535000D01*
X166801898Y-95495226D01*
X166990256Y-95417205D01*
X167159774Y-95303937D01*
X167303937Y-95159774D01*
X167417205Y-94990256D01*
X167495226Y-94801898D01*
X167535000Y-94601939D01*
X167535000Y-94398061D01*
X167495226Y-94198102D01*
X167417205Y-94009744D01*
X167303937Y-93840226D01*
X167260000Y-93796289D01*
X167260000Y-90287325D01*
X167263676Y-90250000D01*
X167260000Y-90212675D01*
X167260000Y-90212667D01*
X167249003Y-90101014D01*
X167205546Y-89957753D01*
X167134974Y-89825724D01*
X167040001Y-89709999D01*
X167011003Y-89686201D01*
X165584801Y-88260000D01*
X165656289Y-88260000D01*
X165700226Y-88303937D01*
X165869744Y-88417205D01*
X166058102Y-88495226D01*
X166258061Y-88535000D01*
X166461939Y-88535000D01*
X166661898Y-88495226D01*
X166850256Y-88417205D01*
X167019774Y-88303937D01*
X167163937Y-88159774D01*
X167277205Y-87990256D01*
X167355226Y-87801898D01*
X167395000Y-87601939D01*
X167395000Y-87398061D01*
X167355226Y-87198102D01*
X167277205Y-87009744D01*
X167163937Y-86840226D01*
X167083711Y-86760000D01*
X168796289Y-86760000D01*
X168840226Y-86803937D01*
X169009744Y-86917205D01*
X169198102Y-86995226D01*
X169398061Y-87035000D01*
X169601939Y-87035000D01*
X169801898Y-86995226D01*
X169990256Y-86917205D01*
X170159774Y-86803937D01*
X170303937Y-86659774D01*
X170417205Y-86490256D01*
X170495226Y-86301898D01*
X170535000Y-86101939D01*
X170535000Y-85898061D01*
X170495226Y-85698102D01*
X170417205Y-85509744D01*
X170303937Y-85340226D01*
X170159774Y-85196063D01*
X169990256Y-85082795D01*
X169801898Y-85004774D01*
X169601939Y-84965000D01*
X169398061Y-84965000D01*
X169198102Y-85004774D01*
X169009744Y-85082795D01*
X168840226Y-85196063D01*
X168796289Y-85240000D01*
X163723711Y-85240000D01*
X163803937Y-85159774D01*
X163917205Y-84990256D01*
X163995226Y-84801898D01*
X164035000Y-84601939D01*
X164035000Y-84398061D01*
X163995226Y-84198102D01*
X163917205Y-84009744D01*
X163803937Y-83840226D01*
X163659774Y-83696063D01*
X163490256Y-83582795D01*
X163301898Y-83504774D01*
X163101939Y-83465000D01*
X162898061Y-83465000D01*
X162698102Y-83504774D01*
X162509744Y-83582795D01*
X162340226Y-83696063D01*
X162196063Y-83840226D01*
X162082795Y-84009744D01*
X162004774Y-84198102D01*
X161980525Y-84320009D01*
X161765000Y-84320009D01*
X161765000Y-84128061D01*
X161725226Y-83928102D01*
X161647205Y-83739744D01*
X161533937Y-83570226D01*
X161389774Y-83426063D01*
X161220256Y-83312795D01*
X161031898Y-83234774D01*
X160831939Y-83195000D01*
X160628061Y-83195000D01*
X160428102Y-83234774D01*
X160239744Y-83312795D01*
X160070226Y-83426063D01*
X159926063Y-83570226D01*
X159812795Y-83739744D01*
X159734774Y-83928102D01*
X159695000Y-84128061D01*
X159695000Y-84190199D01*
X159615201Y-84269998D01*
X156221159Y-84269998D01*
X156167205Y-84139743D01*
X156053937Y-83970225D01*
X155909774Y-83826062D01*
X155740256Y-83712794D01*
X155551898Y-83634773D01*
X155427355Y-83610000D01*
X157406246Y-83610000D01*
X157450183Y-83653937D01*
X157619701Y-83767205D01*
X157808059Y-83845226D01*
X158008018Y-83885000D01*
X158211896Y-83885000D01*
X158411855Y-83845226D01*
X158600213Y-83767205D01*
X158769731Y-83653937D01*
X158913894Y-83509774D01*
X159027162Y-83340256D01*
X159105183Y-83151898D01*
X159144957Y-82951939D01*
X159144957Y-82810000D01*
X164412678Y-82810000D01*
X164450000Y-82813676D01*
X164487322Y-82810000D01*
X164487333Y-82810000D01*
X164598986Y-82799003D01*
X164742247Y-82755546D01*
X164874276Y-82684974D01*
X164990001Y-82590001D01*
X165013804Y-82560997D01*
X165329801Y-82245000D01*
X165391939Y-82245000D01*
X165591898Y-82205226D01*
X165780256Y-82127205D01*
X165949774Y-82013937D01*
X166093937Y-81869774D01*
X166207205Y-81700256D01*
X166285226Y-81511898D01*
X166325000Y-81311939D01*
X166325000Y-81108061D01*
X166285226Y-80908102D01*
X166207205Y-80719744D01*
X166093937Y-80550226D01*
X166011881Y-80468170D01*
X166035000Y-80351939D01*
X166035000Y-80148061D01*
X165995226Y-79948102D01*
X165917205Y-79759744D01*
X165803937Y-79590226D01*
X165659774Y-79446063D01*
X165490256Y-79332795D01*
X165301898Y-79254774D01*
X165257756Y-79245994D01*
X165248976Y-79201852D01*
X165170955Y-79013494D01*
X165057687Y-78843976D01*
X164913524Y-78699813D01*
X164744006Y-78586545D01*
X164555648Y-78508524D01*
X164355689Y-78468750D01*
X164293552Y-78468750D01*
X162713804Y-76889003D01*
X162690001Y-76859999D01*
X162574276Y-76765026D01*
X162442247Y-76694454D01*
X162298986Y-76650997D01*
X162187333Y-76640000D01*
X162187322Y-76640000D01*
X162150000Y-76636324D01*
X162112678Y-76640000D01*
X152637322Y-76640000D01*
X152599999Y-76636324D01*
X152562676Y-76640000D01*
X152562667Y-76640000D01*
X152451014Y-76650997D01*
X152307753Y-76694454D01*
X152175723Y-76765026D01*
X152092083Y-76833668D01*
X152059999Y-76859999D01*
X152036200Y-76888998D01*
X151960198Y-76965000D01*
X151898061Y-76965000D01*
X151698102Y-77004774D01*
X151509744Y-77082795D01*
X151340226Y-77196063D01*
X151196063Y-77340226D01*
X151099698Y-77484447D01*
X151001938Y-77465001D01*
X150798060Y-77465001D01*
X150598101Y-77504775D01*
X150409743Y-77582796D01*
X150240225Y-77696064D01*
X150096062Y-77840227D01*
X149982794Y-78009745D01*
X149904773Y-78198103D01*
X149864999Y-78398062D01*
X149864999Y-78601940D01*
X149904773Y-78801899D01*
X149982794Y-78990257D01*
X150096062Y-79159775D01*
X150139999Y-79203712D01*
X150140000Y-93921635D01*
X150077795Y-94014732D01*
X149999774Y-94203090D01*
X149960000Y-94403049D01*
X149960000Y-94606927D01*
X149990448Y-94760002D01*
X148339804Y-94760002D01*
X146274847Y-92695046D01*
X146274847Y-92632908D01*
X146235073Y-92432949D01*
X146157052Y-92244591D01*
X146043784Y-92075073D01*
X145899621Y-91930910D01*
X145730103Y-91817642D01*
X145541745Y-91739621D01*
X145341786Y-91699847D01*
X145137908Y-91699847D01*
X144937949Y-91739621D01*
X144749591Y-91817642D01*
X144580073Y-91930910D01*
X144435910Y-92075073D01*
X144322642Y-92244591D01*
X144244621Y-92432949D01*
X144204847Y-92632908D01*
X133410000Y-92632908D01*
X133410000Y-91513454D01*
X133442205Y-91465256D01*
X133520226Y-91276898D01*
X133560000Y-91076939D01*
X133560000Y-90873061D01*
X133520226Y-90673102D01*
X133442205Y-90484744D01*
X133410000Y-90436546D01*
X133410000Y-78513454D01*
X133442205Y-78465256D01*
X133520226Y-78276898D01*
X133560000Y-78076939D01*
X133560000Y-77873061D01*
X133520226Y-77673102D01*
X133442205Y-77484744D01*
X133328937Y-77315226D01*
X133184774Y-77171063D01*
X133015256Y-77057795D01*
X132826898Y-76979774D01*
X132626939Y-76940000D01*
X132423061Y-76940000D01*
X132223102Y-76979774D01*
X132034744Y-77057795D01*
X131865226Y-77171063D01*
X131721063Y-77315226D01*
X131607795Y-77484744D01*
X131529774Y-77673102D01*
X131490000Y-77873061D01*
X131490000Y-78076939D01*
X131529774Y-78276898D01*
X131607795Y-78465256D01*
X131640000Y-78513454D01*
X131640001Y-90436544D01*
X131607795Y-90484744D01*
X131529774Y-90673102D01*
X131490000Y-90873061D01*
X131490000Y-91076939D01*
X131529774Y-91276898D01*
X131607795Y-91465256D01*
X131640000Y-91513454D01*
X131640001Y-108108420D01*
X131279957Y-108468465D01*
X131223102Y-108479774D01*
X131034744Y-108557795D01*
X130865226Y-108671063D01*
X130721063Y-108815226D01*
X130607795Y-108984744D01*
X130529774Y-109173102D01*
X130490000Y-109373061D01*
X118560000Y-109373061D01*
X118520226Y-109173102D01*
X118442205Y-108984744D01*
X118410000Y-108936546D01*
X118410000Y-96006544D01*
X118553061Y-96035000D01*
X118756939Y-96035000D01*
X118956898Y-95995226D01*
X119145256Y-95917205D01*
X119314774Y-95803937D01*
X119458937Y-95659774D01*
X119572205Y-95490256D01*
X119650226Y-95301898D01*
X119690000Y-95101939D01*
X119690000Y-94898061D01*
X119650226Y-94698102D01*
X119572205Y-94509744D01*
X119458937Y-94340226D01*
X119415000Y-94296289D01*
X119415000Y-78887322D01*
X119418676Y-78849999D01*
X119415000Y-78812677D01*
X119415000Y-78812667D01*
X119404003Y-78701014D01*
X119390000Y-78654851D01*
X119390000Y-73398061D01*
X144965000Y-73398061D01*
X144965000Y-73601939D01*
X145004774Y-73801898D01*
X145082795Y-73990256D01*
X145196063Y-74159774D01*
X145340226Y-74303937D01*
X145509744Y-74417205D01*
X145698102Y-74495226D01*
X145898061Y-74535000D01*
X145960199Y-74535000D01*
X146936201Y-75511003D01*
X146959999Y-75540001D01*
X147075724Y-75634974D01*
X147207753Y-75705546D01*
X147351014Y-75749003D01*
X147462667Y-75760000D01*
X147462676Y-75760000D01*
X147499999Y-75763676D01*
X147537322Y-75760000D01*
X162796289Y-75760000D01*
X162840226Y-75803937D01*
X163009744Y-75917205D01*
X163198102Y-75995226D01*
X163398061Y-76035000D01*
X163601939Y-76035000D01*
X163801898Y-75995226D01*
X163990256Y-75917205D01*
X164159774Y-75803937D01*
X164303937Y-75659774D01*
X164417205Y-75490256D01*
X164495226Y-75301898D01*
X164535000Y-75101939D01*
X164535000Y-74898061D01*
X164495226Y-74698102D01*
X164417205Y-74509744D01*
X164303937Y-74340226D01*
X164159774Y-74196063D01*
X163990256Y-74082795D01*
X163801898Y-74004774D01*
X163601939Y-73965000D01*
X163398061Y-73965000D01*
X163198102Y-74004774D01*
X163009744Y-74082795D01*
X162840226Y-74196063D01*
X162796289Y-74240000D01*
X147814802Y-74240000D01*
X147035000Y-73460199D01*
X147035000Y-73398061D01*
X146995226Y-73198102D01*
X146917205Y-73009744D01*
X146803937Y-72840226D01*
X146659774Y-72696063D01*
X146490256Y-72582795D01*
X146301898Y-72504774D01*
X146101939Y-72465000D01*
X145898061Y-72465000D01*
X145698102Y-72504774D01*
X145509744Y-72582795D01*
X145340226Y-72696063D01*
X145196063Y-72840226D01*
X145082795Y-73009744D01*
X145004774Y-73198102D01*
X144965000Y-73398061D01*
X119390000Y-73398061D01*
X119390000Y-72010000D01*
X124482678Y-72010000D01*
X124520000Y-72013676D01*
X124557322Y-72010000D01*
X124557333Y-72010000D01*
X124668986Y-71999003D01*
X124812247Y-71955546D01*
X124944276Y-71884974D01*
X125060001Y-71790001D01*
X125083804Y-71760997D01*
X126039802Y-70805000D01*
X126101939Y-70805000D01*
X126301898Y-70765226D01*
X126490256Y-70687205D01*
X126659774Y-70573937D01*
X126803937Y-70429774D01*
X126917205Y-70260256D01*
X126995226Y-70071898D01*
X127035000Y-69871939D01*
X127035000Y-69668061D01*
X126995226Y-69468102D01*
X126917205Y-69279744D01*
X126803937Y-69110226D01*
X126659774Y-68966063D01*
X126490256Y-68852795D01*
X126301898Y-68774774D01*
X126101939Y-68735000D01*
X125898061Y-68735000D01*
X125698102Y-68774774D01*
X125509744Y-68852795D01*
X125340226Y-68966063D01*
X125196063Y-69110226D01*
X125082795Y-69279744D01*
X125004774Y-69468102D01*
X124965000Y-69668061D01*
X124965000Y-69730198D01*
X124205199Y-70490000D01*
X118667333Y-70490000D01*
X118630000Y-70486323D01*
X118592667Y-70490000D01*
X118481014Y-70500997D01*
X118337753Y-70544454D01*
X118205724Y-70615026D01*
X118089999Y-70709999D01*
X117995026Y-70825724D01*
X117924454Y-70957753D01*
X117880997Y-71101014D01*
X117866323Y-71250000D01*
X117870001Y-71287343D01*
X117870000Y-76997628D01*
X117826898Y-76979774D01*
X117626939Y-76940000D01*
X117423061Y-76940000D01*
X117223102Y-76979774D01*
X117034744Y-77057795D01*
X116865226Y-77171063D01*
X116760000Y-77276289D01*
X116760000Y-73203711D01*
X116803937Y-73159774D01*
X116917205Y-72990256D01*
X116995226Y-72801898D01*
X117035000Y-72601939D01*
X117035000Y-72398061D01*
X116995226Y-72198102D01*
X116917205Y-72009744D01*
X116803937Y-71840226D01*
X116659774Y-71696063D01*
X116490256Y-71582795D01*
X116301898Y-71504774D01*
X116101939Y-71465000D01*
X115898061Y-71465000D01*
X115698102Y-71504774D01*
X115509744Y-71582795D01*
X115340226Y-71696063D01*
X115196063Y-71840226D01*
X115082795Y-72009744D01*
X115004774Y-72198102D01*
X114965000Y-72398061D01*
X114965000Y-72601939D01*
X115004774Y-72801898D01*
X115082795Y-72990256D01*
X115196063Y-73159774D01*
X115240001Y-73203712D01*
X115240001Y-77276290D01*
X115159774Y-77196063D01*
X114990256Y-77082795D01*
X114801898Y-77004774D01*
X114601939Y-76965000D01*
X114398061Y-76965000D01*
X114198102Y-77004774D01*
X114009744Y-77082795D01*
X113840226Y-77196063D01*
X113696063Y-77340226D01*
X113582795Y-77509744D01*
X113504774Y-77698102D01*
X113465000Y-77898061D01*
X93985000Y-77898061D01*
X93985000Y-67281655D01*
X118200000Y-67281655D01*
X118200000Y-67628345D01*
X118267636Y-67968373D01*
X118400308Y-68288673D01*
X118592919Y-68576935D01*
X118838065Y-68822081D01*
X119126327Y-69014692D01*
X119446627Y-69147364D01*
X119786655Y-69215000D01*
X120133345Y-69215000D01*
X120473373Y-69147364D01*
X120793673Y-69014692D01*
X121081935Y-68822081D01*
X121327081Y-68576935D01*
X121519692Y-68288673D01*
X121652364Y-67968373D01*
X121720000Y-67628345D01*
X121720000Y-67281655D01*
X122160000Y-67281655D01*
X122160000Y-67628345D01*
X122227636Y-67968373D01*
X122360308Y-68288673D01*
X122552919Y-68576935D01*
X122798065Y-68822081D01*
X123086327Y-69014692D01*
X123406627Y-69147364D01*
X123746655Y-69215000D01*
X124093345Y-69215000D01*
X124433373Y-69147364D01*
X124753673Y-69014692D01*
X125041935Y-68822081D01*
X125287081Y-68576935D01*
X125479692Y-68288673D01*
X125612364Y-67968373D01*
X125680000Y-67628345D01*
X125680000Y-67281655D01*
X126120000Y-67281655D01*
X126120000Y-67628345D01*
X126187636Y-67968373D01*
X126320308Y-68288673D01*
X126512919Y-68576935D01*
X126758065Y-68822081D01*
X127046327Y-69014692D01*
X127366627Y-69147364D01*
X127706655Y-69215000D01*
X128053345Y-69215000D01*
X128393373Y-69147364D01*
X128713673Y-69014692D01*
X129001935Y-68822081D01*
X129247081Y-68576935D01*
X129439692Y-68288673D01*
X129572364Y-67968373D01*
X129640000Y-67628345D01*
X129640000Y-67281655D01*
X129572364Y-66941627D01*
X129439692Y-66621327D01*
X129247081Y-66333065D01*
X129001935Y-66087919D01*
X128713673Y-65895308D01*
X128393373Y-65762636D01*
X128053345Y-65695000D01*
X127706655Y-65695000D01*
X127366627Y-65762636D01*
X127046327Y-65895308D01*
X126758065Y-66087919D01*
X126512919Y-66333065D01*
X126320308Y-66621327D01*
X126187636Y-66941627D01*
X126120000Y-67281655D01*
X125680000Y-67281655D01*
X125612364Y-66941627D01*
X125479692Y-66621327D01*
X125287081Y-66333065D01*
X125041935Y-66087919D01*
X124753673Y-65895308D01*
X124433373Y-65762636D01*
X124093345Y-65695000D01*
X123746655Y-65695000D01*
X123406627Y-65762636D01*
X123086327Y-65895308D01*
X122798065Y-66087919D01*
X122552919Y-66333065D01*
X122360308Y-66621327D01*
X122227636Y-66941627D01*
X122160000Y-67281655D01*
X121720000Y-67281655D01*
X121652364Y-66941627D01*
X121519692Y-66621327D01*
X121327081Y-66333065D01*
X121081935Y-66087919D01*
X120793673Y-65895308D01*
X120473373Y-65762636D01*
X120133345Y-65695000D01*
X119786655Y-65695000D01*
X119446627Y-65762636D01*
X119126327Y-65895308D01*
X118838065Y-66087919D01*
X118592919Y-66333065D01*
X118400308Y-66621327D01*
X118267636Y-66941627D01*
X118200000Y-67281655D01*
X93985000Y-67281655D01*
X93985000Y-63291655D01*
X118200000Y-63291655D01*
X118200000Y-63638345D01*
X118267636Y-63978373D01*
X118400308Y-64298673D01*
X118592919Y-64586935D01*
X118838065Y-64832081D01*
X119126327Y-65024692D01*
X119446627Y-65157364D01*
X119786655Y-65225000D01*
X120133345Y-65225000D01*
X120473373Y-65157364D01*
X120793673Y-65024692D01*
X121081935Y-64832081D01*
X121327081Y-64586935D01*
X121519692Y-64298673D01*
X121652364Y-63978373D01*
X121720000Y-63638345D01*
X121720000Y-63291655D01*
X122160000Y-63291655D01*
X122160000Y-63638345D01*
X122227636Y-63978373D01*
X122360308Y-64298673D01*
X122552919Y-64586935D01*
X122798065Y-64832081D01*
X123086327Y-65024692D01*
X123406627Y-65157364D01*
X123746655Y-65225000D01*
X124093345Y-65225000D01*
X124433373Y-65157364D01*
X124753673Y-65024692D01*
X125041935Y-64832081D01*
X125287081Y-64586935D01*
X125479692Y-64298673D01*
X125612364Y-63978373D01*
X125680000Y-63638345D01*
X125680000Y-63291655D01*
X126120000Y-63291655D01*
X126120000Y-63638345D01*
X126187636Y-63978373D01*
X126320308Y-64298673D01*
X126512919Y-64586935D01*
X126758065Y-64832081D01*
X127046327Y-65024692D01*
X127366627Y-65157364D01*
X127706655Y-65225000D01*
X128053345Y-65225000D01*
X128393373Y-65157364D01*
X128713673Y-65024692D01*
X129001935Y-64832081D01*
X129247081Y-64586935D01*
X129439692Y-64298673D01*
X129572364Y-63978373D01*
X129595003Y-63864555D01*
X132648000Y-63864555D01*
X132648000Y-64485445D01*
X132769130Y-65094404D01*
X133006734Y-65668032D01*
X133351682Y-66184283D01*
X133790717Y-66623318D01*
X134306968Y-66968266D01*
X134880596Y-67205870D01*
X135489555Y-67327000D01*
X136110445Y-67327000D01*
X136338408Y-67281655D01*
X141960000Y-67281655D01*
X141960000Y-67628345D01*
X142027636Y-67968373D01*
X142160308Y-68288673D01*
X142352919Y-68576935D01*
X142598065Y-68822081D01*
X142886327Y-69014692D01*
X143206627Y-69147364D01*
X143546655Y-69215000D01*
X143893345Y-69215000D01*
X144233373Y-69147364D01*
X144553673Y-69014692D01*
X144841935Y-68822081D01*
X145087081Y-68576935D01*
X145279692Y-68288673D01*
X145412364Y-67968373D01*
X145480000Y-67628345D01*
X145480000Y-67281655D01*
X145920000Y-67281655D01*
X145920000Y-67628345D01*
X145987636Y-67968373D01*
X146120308Y-68288673D01*
X146312919Y-68576935D01*
X146558065Y-68822081D01*
X146846327Y-69014692D01*
X147166627Y-69147364D01*
X147506655Y-69215000D01*
X147853345Y-69215000D01*
X148193373Y-69147364D01*
X148513673Y-69014692D01*
X148801935Y-68822081D01*
X149047081Y-68576935D01*
X149239692Y-68288673D01*
X149372364Y-67968373D01*
X149440000Y-67628345D01*
X149440000Y-67281655D01*
X149372364Y-66941627D01*
X149352016Y-66892500D01*
X149876928Y-66892500D01*
X149876928Y-68017500D01*
X149899997Y-68251720D01*
X149968316Y-68476939D01*
X150079261Y-68684502D01*
X150228567Y-68866433D01*
X150410498Y-69015739D01*
X150618061Y-69126684D01*
X150843280Y-69195003D01*
X151077500Y-69218072D01*
X152202500Y-69218072D01*
X152436720Y-69195003D01*
X152661939Y-69126684D01*
X152869502Y-69015739D01*
X153051433Y-68866433D01*
X153200739Y-68684502D01*
X153311684Y-68476939D01*
X153380003Y-68251720D01*
X153403072Y-68017500D01*
X153403072Y-66892500D01*
X153380003Y-66658280D01*
X153311684Y-66433061D01*
X153200739Y-66225498D01*
X153051433Y-66043567D01*
X152869502Y-65894261D01*
X152661939Y-65783316D01*
X152436720Y-65714997D01*
X152202500Y-65691928D01*
X151077500Y-65691928D01*
X150843280Y-65714997D01*
X150618061Y-65783316D01*
X150410498Y-65894261D01*
X150228567Y-66043567D01*
X150079261Y-66225498D01*
X149968316Y-66433061D01*
X149899997Y-66658280D01*
X149876928Y-66892500D01*
X149352016Y-66892500D01*
X149239692Y-66621327D01*
X149047081Y-66333065D01*
X148801935Y-66087919D01*
X148513673Y-65895308D01*
X148193373Y-65762636D01*
X147853345Y-65695000D01*
X147506655Y-65695000D01*
X147166627Y-65762636D01*
X146846327Y-65895308D01*
X146558065Y-66087919D01*
X146312919Y-66333065D01*
X146120308Y-66621327D01*
X145987636Y-66941627D01*
X145920000Y-67281655D01*
X145480000Y-67281655D01*
X145412364Y-66941627D01*
X145279692Y-66621327D01*
X145087081Y-66333065D01*
X144841935Y-66087919D01*
X144553673Y-65895308D01*
X144233373Y-65762636D01*
X143893345Y-65695000D01*
X143546655Y-65695000D01*
X143206627Y-65762636D01*
X142886327Y-65895308D01*
X142598065Y-66087919D01*
X142352919Y-66333065D01*
X142160308Y-66621327D01*
X142027636Y-66941627D01*
X141960000Y-67281655D01*
X136338408Y-67281655D01*
X136719404Y-67205870D01*
X137293032Y-66968266D01*
X137809283Y-66623318D01*
X138248318Y-66184283D01*
X138593266Y-65668032D01*
X138830870Y-65094404D01*
X138952000Y-64485445D01*
X138952000Y-63864555D01*
X138838043Y-63291655D01*
X141960000Y-63291655D01*
X141960000Y-63638345D01*
X142027636Y-63978373D01*
X142160308Y-64298673D01*
X142352919Y-64586935D01*
X142598065Y-64832081D01*
X142886327Y-65024692D01*
X143206627Y-65157364D01*
X143546655Y-65225000D01*
X143893345Y-65225000D01*
X144233373Y-65157364D01*
X144553673Y-65024692D01*
X144841935Y-64832081D01*
X145087081Y-64586935D01*
X145279692Y-64298673D01*
X145412364Y-63978373D01*
X145480000Y-63638345D01*
X145480000Y-63291655D01*
X145920000Y-63291655D01*
X145920000Y-63638345D01*
X145987636Y-63978373D01*
X146120308Y-64298673D01*
X146312919Y-64586935D01*
X146558065Y-64832081D01*
X146846327Y-65024692D01*
X147166627Y-65157364D01*
X147506655Y-65225000D01*
X147853345Y-65225000D01*
X148193373Y-65157364D01*
X148513673Y-65024692D01*
X148801935Y-64832081D01*
X148944485Y-64689531D01*
X150595074Y-64689531D01*
X150705921Y-64966714D01*
X151016840Y-65120089D01*
X151351705Y-65209860D01*
X151697650Y-65232576D01*
X152041380Y-65187366D01*
X152369685Y-65075966D01*
X152574079Y-64966714D01*
X152684926Y-64689531D01*
X151640000Y-63644605D01*
X150595074Y-64689531D01*
X148944485Y-64689531D01*
X149047081Y-64586935D01*
X149239692Y-64298673D01*
X149372364Y-63978373D01*
X149440000Y-63638345D01*
X149440000Y-63522650D01*
X149872424Y-63522650D01*
X149917634Y-63866380D01*
X150029034Y-64194685D01*
X150138286Y-64399079D01*
X150415469Y-64509926D01*
X151460395Y-63465000D01*
X151819605Y-63465000D01*
X152864531Y-64509926D01*
X153141714Y-64399079D01*
X153295089Y-64088160D01*
X153384860Y-63753295D01*
X153407576Y-63407350D01*
X153362366Y-63063620D01*
X153250966Y-62735315D01*
X153141714Y-62530921D01*
X152864531Y-62420074D01*
X151819605Y-63465000D01*
X151460395Y-63465000D01*
X150415469Y-62420074D01*
X150138286Y-62530921D01*
X149984911Y-62841840D01*
X149895140Y-63176705D01*
X149872424Y-63522650D01*
X149440000Y-63522650D01*
X149440000Y-63291655D01*
X149372364Y-62951627D01*
X149239692Y-62631327D01*
X149047081Y-62343065D01*
X148944485Y-62240469D01*
X150595074Y-62240469D01*
X151640000Y-63285395D01*
X152684926Y-62240469D01*
X152574079Y-61963286D01*
X152263160Y-61809911D01*
X151928295Y-61720140D01*
X151582350Y-61697424D01*
X151238620Y-61742634D01*
X150910315Y-61854034D01*
X150705921Y-61963286D01*
X150595074Y-62240469D01*
X148944485Y-62240469D01*
X148801935Y-62097919D01*
X148513673Y-61905308D01*
X148193373Y-61772636D01*
X147853345Y-61705000D01*
X147506655Y-61705000D01*
X147166627Y-61772636D01*
X146846327Y-61905308D01*
X146558065Y-62097919D01*
X146312919Y-62343065D01*
X146120308Y-62631327D01*
X145987636Y-62951627D01*
X145920000Y-63291655D01*
X145480000Y-63291655D01*
X145412364Y-62951627D01*
X145279692Y-62631327D01*
X145087081Y-62343065D01*
X144841935Y-62097919D01*
X144553673Y-61905308D01*
X144233373Y-61772636D01*
X143893345Y-61705000D01*
X143546655Y-61705000D01*
X143206627Y-61772636D01*
X142886327Y-61905308D01*
X142598065Y-62097919D01*
X142352919Y-62343065D01*
X142160308Y-62631327D01*
X142027636Y-62951627D01*
X141960000Y-63291655D01*
X138838043Y-63291655D01*
X138830870Y-63255596D01*
X138593266Y-62681968D01*
X138248318Y-62165717D01*
X137809283Y-61726682D01*
X137293032Y-61381734D01*
X136719404Y-61144130D01*
X136110445Y-61023000D01*
X135489555Y-61023000D01*
X134880596Y-61144130D01*
X134306968Y-61381734D01*
X133790717Y-61726682D01*
X133351682Y-62165717D01*
X133006734Y-62681968D01*
X132769130Y-63255596D01*
X132648000Y-63864555D01*
X129595003Y-63864555D01*
X129640000Y-63638345D01*
X129640000Y-63291655D01*
X129572364Y-62951627D01*
X129439692Y-62631327D01*
X129247081Y-62343065D01*
X129001935Y-62097919D01*
X128713673Y-61905308D01*
X128393373Y-61772636D01*
X128053345Y-61705000D01*
X127706655Y-61705000D01*
X127366627Y-61772636D01*
X127046327Y-61905308D01*
X126758065Y-62097919D01*
X126512919Y-62343065D01*
X126320308Y-62631327D01*
X126187636Y-62951627D01*
X126120000Y-63291655D01*
X125680000Y-63291655D01*
X125612364Y-62951627D01*
X125479692Y-62631327D01*
X125287081Y-62343065D01*
X125041935Y-62097919D01*
X124753673Y-61905308D01*
X124433373Y-61772636D01*
X124093345Y-61705000D01*
X123746655Y-61705000D01*
X123406627Y-61772636D01*
X123086327Y-61905308D01*
X122798065Y-62097919D01*
X122552919Y-62343065D01*
X122360308Y-62631327D01*
X122227636Y-62951627D01*
X122160000Y-63291655D01*
X121720000Y-63291655D01*
X121652364Y-62951627D01*
X121519692Y-62631327D01*
X121327081Y-62343065D01*
X121081935Y-62097919D01*
X120793673Y-61905308D01*
X120473373Y-61772636D01*
X120133345Y-61705000D01*
X119786655Y-61705000D01*
X119446627Y-61772636D01*
X119126327Y-61905308D01*
X118838065Y-62097919D01*
X118592919Y-62343065D01*
X118400308Y-62631327D01*
X118267636Y-62951627D01*
X118200000Y-63291655D01*
X93985000Y-63291655D01*
X93985000Y-60699531D01*
X118915074Y-60699531D01*
X119025921Y-60976714D01*
X119336840Y-61130089D01*
X119671705Y-61219860D01*
X120017650Y-61242576D01*
X120361380Y-61197366D01*
X120689685Y-61085966D01*
X120894079Y-60976714D01*
X121004926Y-60699531D01*
X119960000Y-59654605D01*
X118915074Y-60699531D01*
X93985000Y-60699531D01*
X93985000Y-59532650D01*
X118192424Y-59532650D01*
X118237634Y-59876380D01*
X118349034Y-60204685D01*
X118458286Y-60409079D01*
X118735469Y-60519926D01*
X119780395Y-59475000D01*
X120139605Y-59475000D01*
X121184531Y-60519926D01*
X121461714Y-60409079D01*
X121615089Y-60098160D01*
X121704860Y-59763295D01*
X121727576Y-59417350D01*
X121712359Y-59301655D01*
X122160000Y-59301655D01*
X122160000Y-59648345D01*
X122227636Y-59988373D01*
X122360308Y-60308673D01*
X122552919Y-60596935D01*
X122798065Y-60842081D01*
X123086327Y-61034692D01*
X123406627Y-61167364D01*
X123746655Y-61235000D01*
X124093345Y-61235000D01*
X124433373Y-61167364D01*
X124753673Y-61034692D01*
X125041935Y-60842081D01*
X125287081Y-60596935D01*
X125479692Y-60308673D01*
X125612364Y-59988373D01*
X125680000Y-59648345D01*
X125680000Y-59301655D01*
X126120000Y-59301655D01*
X126120000Y-59648345D01*
X126187636Y-59988373D01*
X126320308Y-60308673D01*
X126512919Y-60596935D01*
X126758065Y-60842081D01*
X127046327Y-61034692D01*
X127366627Y-61167364D01*
X127706655Y-61235000D01*
X128053345Y-61235000D01*
X128393373Y-61167364D01*
X128713673Y-61034692D01*
X129001935Y-60842081D01*
X129247081Y-60596935D01*
X129439692Y-60308673D01*
X129572364Y-59988373D01*
X129640000Y-59648345D01*
X129640000Y-59301655D01*
X141960000Y-59301655D01*
X141960000Y-59648345D01*
X142027636Y-59988373D01*
X142160308Y-60308673D01*
X142352919Y-60596935D01*
X142598065Y-60842081D01*
X142886327Y-61034692D01*
X143206627Y-61167364D01*
X143546655Y-61235000D01*
X143893345Y-61235000D01*
X144233373Y-61167364D01*
X144553673Y-61034692D01*
X144841935Y-60842081D01*
X145087081Y-60596935D01*
X145279692Y-60308673D01*
X145412364Y-59988373D01*
X145480000Y-59648345D01*
X145480000Y-59301655D01*
X145920000Y-59301655D01*
X145920000Y-59648345D01*
X145987636Y-59988373D01*
X146120308Y-60308673D01*
X146312919Y-60596935D01*
X146558065Y-60842081D01*
X146846327Y-61034692D01*
X147166627Y-61167364D01*
X147506655Y-61235000D01*
X147853345Y-61235000D01*
X148193373Y-61167364D01*
X148513673Y-61034692D01*
X148801935Y-60842081D01*
X149047081Y-60596935D01*
X149239692Y-60308673D01*
X149372364Y-59988373D01*
X149440000Y-59648345D01*
X149440000Y-59301655D01*
X149880000Y-59301655D01*
X149880000Y-59648345D01*
X149947636Y-59988373D01*
X150080308Y-60308673D01*
X150272919Y-60596935D01*
X150518065Y-60842081D01*
X150806327Y-61034692D01*
X151126627Y-61167364D01*
X151466655Y-61235000D01*
X151813345Y-61235000D01*
X152153373Y-61167364D01*
X152473673Y-61034692D01*
X152761935Y-60842081D01*
X153007081Y-60596935D01*
X153199692Y-60308673D01*
X153332364Y-59988373D01*
X153400000Y-59648345D01*
X153400000Y-59301655D01*
X153332364Y-58961627D01*
X153199692Y-58641327D01*
X153007081Y-58353065D01*
X152761935Y-58107919D01*
X152473673Y-57915308D01*
X152153373Y-57782636D01*
X151813345Y-57715000D01*
X151466655Y-57715000D01*
X151126627Y-57782636D01*
X150806327Y-57915308D01*
X150518065Y-58107919D01*
X150272919Y-58353065D01*
X150080308Y-58641327D01*
X149947636Y-58961627D01*
X149880000Y-59301655D01*
X149440000Y-59301655D01*
X149372364Y-58961627D01*
X149239692Y-58641327D01*
X149047081Y-58353065D01*
X148801935Y-58107919D01*
X148513673Y-57915308D01*
X148193373Y-57782636D01*
X147853345Y-57715000D01*
X147506655Y-57715000D01*
X147166627Y-57782636D01*
X146846327Y-57915308D01*
X146558065Y-58107919D01*
X146312919Y-58353065D01*
X146120308Y-58641327D01*
X145987636Y-58961627D01*
X145920000Y-59301655D01*
X145480000Y-59301655D01*
X145412364Y-58961627D01*
X145279692Y-58641327D01*
X145087081Y-58353065D01*
X144841935Y-58107919D01*
X144553673Y-57915308D01*
X144233373Y-57782636D01*
X143893345Y-57715000D01*
X143546655Y-57715000D01*
X143206627Y-57782636D01*
X142886327Y-57915308D01*
X142598065Y-58107919D01*
X142352919Y-58353065D01*
X142160308Y-58641327D01*
X142027636Y-58961627D01*
X141960000Y-59301655D01*
X129640000Y-59301655D01*
X129572364Y-58961627D01*
X129439692Y-58641327D01*
X129247081Y-58353065D01*
X129001935Y-58107919D01*
X128713673Y-57915308D01*
X128393373Y-57782636D01*
X128053345Y-57715000D01*
X127706655Y-57715000D01*
X127366627Y-57782636D01*
X127046327Y-57915308D01*
X126758065Y-58107919D01*
X126512919Y-58353065D01*
X126320308Y-58641327D01*
X126187636Y-58961627D01*
X126120000Y-59301655D01*
X125680000Y-59301655D01*
X125612364Y-58961627D01*
X125479692Y-58641327D01*
X125287081Y-58353065D01*
X125041935Y-58107919D01*
X124753673Y-57915308D01*
X124433373Y-57782636D01*
X124093345Y-57715000D01*
X123746655Y-57715000D01*
X123406627Y-57782636D01*
X123086327Y-57915308D01*
X122798065Y-58107919D01*
X122552919Y-58353065D01*
X122360308Y-58641327D01*
X122227636Y-58961627D01*
X122160000Y-59301655D01*
X121712359Y-59301655D01*
X121682366Y-59073620D01*
X121570966Y-58745315D01*
X121461714Y-58540921D01*
X121184531Y-58430074D01*
X120139605Y-59475000D01*
X119780395Y-59475000D01*
X118735469Y-58430074D01*
X118458286Y-58540921D01*
X118304911Y-58851840D01*
X118215140Y-59186705D01*
X118192424Y-59532650D01*
X93985000Y-59532650D01*
X93985000Y-58250469D01*
X118915074Y-58250469D01*
X119960000Y-59295395D01*
X121004926Y-58250469D01*
X120894079Y-57973286D01*
X120583160Y-57819911D01*
X120248295Y-57730140D01*
X119902350Y-57707424D01*
X119558620Y-57752634D01*
X119230315Y-57864034D01*
X119025921Y-57973286D01*
X118915074Y-58250469D01*
X93985000Y-58250469D01*
X93985000Y-55385434D01*
X177605001Y-55385434D01*
X177605000Y-111627986D01*
G37*
G04 #@! TD.AperFunction*
M02*
