M48
; DRILL file {KiCad (5.1.7)-1} date 01/10/22 20:36:10
; FORMAT={-:-/ absolute / inch / decimal}
; #@! TF.CreationDate,2022-01-10T20:36:10+10:30
; #@! TF.GenerationSoftware,Kicad,Pcbnew,(5.1.7)-1
FMAT,2
INCH
T1C0.0157
T2C0.0500
T3C0.1201
%
G90
G05
T1
X4.0561Y-4.0935
X4.0758Y-3.5817
X4.1752Y-4.311
X4.2502Y-3.2067
X4.311Y-4.2126
X4.3307Y-3.7008
X4.4488Y-2.7559
X4.4488Y-2.7953
X4.5079Y-3.0709
X4.5669Y-2.8543
X4.5669Y-3.3465
X4.5927Y-4.1398
X4.627Y-3.0699
X4.627Y-3.5817
X4.627Y-4.31
X4.6715Y-3.7402
X4.8819Y-3.1988
X4.9606Y-2.7469
X4.9982Y-4.2303
X5.1781Y-4.31
X5.2175Y-3.0699
X5.2175Y-3.5817
X5.4724Y-3.189
X5.4724Y-3.7008
X5.562Y-4.31
X5.5626Y-4.1524
X5.7181Y-3.651
X5.7346Y-3.8858
X5.748Y-2.8937
X5.7949Y-3.9461
X5.8445Y-4.0854
X5.9409Y-3.0906
X5.9447Y-3.7207
X5.9646Y-3.002
X5.9835Y-3.2972
X5.9843Y-3.0709
X5.9961Y-3.128
X6.0297Y-3.5423
X6.0312Y-3.2593
X6.0394Y-3.6841
X6.0394Y-3.9213
X6.0531Y-2.8642
X6.0848Y-4.2028
X6.102Y-3.1987
X6.1024Y-3.7992
X6.1063Y-3.7008
X6.1122Y-3.3319
X6.1122Y-3.3858
X6.1122Y-3.4449
X6.1122Y-3.5138
X6.1122Y-3.5728
X6.1122Y-3.622
X6.122Y-3.1457
X6.1516Y-4.2913
X6.1744Y-3.1969
X6.1811Y-3.4843
X6.2101Y-3.7308
X6.2205Y-3.1014
X6.2248Y-3.2618
X6.228Y-4.0955
X6.2598Y-3.5335
X6.2598Y-3.5728
X6.278Y-3.9386
X6.2795Y-4.2323
X6.3184Y-3.8981
X6.3189Y-3.1014
X6.328Y-3.3161
X6.3311Y-3.6575
X6.3386Y-3.5433
X6.378Y-3.3022
X6.378Y-3.3858
X6.378Y-3.9173
X6.378Y-4.2913
X6.3976Y-2.3622
X6.3976Y-2.4606
X6.3976Y-2.6575
X6.3976Y-3.1299
X6.3976Y-3.7205
X6.3976Y-4.2323
X6.4173Y-3.3268
X6.437Y-2.9528
X6.4533Y-3.5467
X6.4567Y-3.7415
X6.4567Y-3.878
X6.4665Y-3.5925
X6.4667Y-3.1301
X6.4961Y-2.2638
X6.4961Y-2.3622
X6.4961Y-2.4606
X6.4961Y-2.6575
X6.4961Y-3.1594
X6.5075Y-3.1972
X6.51Y-4.2028
X6.5496Y-3.4449
X6.5551Y-3.7205
X6.5551Y-4.0157
X6.5945Y-2.2638
X6.5945Y-2.3622
X6.5945Y-2.4606
X6.5945Y-2.5591
X6.5945Y-2.6575
X6.5945Y-2.7559
X6.6732Y-3.3858
X6.6732Y-4.0157
X6.6929Y-2.2638
X6.6929Y-2.3622
X6.6929Y-2.4606
X6.6929Y-2.5591
X6.6929Y-2.6575
X6.6929Y-2.7559
X6.753Y-3.19
X6.753Y-3.5837
X6.753Y-3.9577
X6.753Y-4.2726
T2
X4.7228Y-2.3415
X4.7228Y-2.4986
X4.7228Y-2.6557
X4.8787Y-2.3415
X4.8787Y-2.4986
X4.8787Y-2.6557
X5.0346Y-2.3415
X5.0346Y-2.4986
X5.0346Y-2.6557
X5.6583Y-2.3415
X5.6583Y-2.4986
X5.6583Y-2.6557
X5.8142Y-2.3415
X5.8142Y-2.4986
X5.8142Y-2.6557
X5.9701Y-2.3415
X5.9701Y-2.4986
X5.9701Y-2.6557
T3
X5.3465Y-2.5266
T0
M30
