G04 #@! TF.GenerationSoftware,KiCad,Pcbnew,(5.1.7)-1*
G04 #@! TF.CreationDate,2022-01-10T20:36:18+10:30*
G04 #@! TF.ProjectId,BSPD,42535044-2e6b-4696-9361-645f70636258,4*
G04 #@! TF.SameCoordinates,Original*
G04 #@! TF.FileFunction,Soldermask,Bot*
G04 #@! TF.FilePolarity,Negative*
%FSLAX46Y46*%
G04 Gerber Fmt 4.6, Leading zero omitted, Abs format (unit mm)*
G04 Created by KiCad (PCBNEW (5.1.7)-1) date 2022-01-10 20:36:18*
%MOMM*%
%LPD*%
G01*
G04 APERTURE LIST*
%ADD10C,2.352000*%
%ADD11C,3.152000*%
%ADD12C,0.100000*%
G04 APERTURE END LIST*
D10*
X147680000Y-59475000D03*
X127880000Y-59475000D03*
X123920000Y-59475000D03*
X143720000Y-59475000D03*
X119960000Y-59475000D03*
X147680000Y-63465000D03*
X127880000Y-63465000D03*
X123920000Y-63465000D03*
X143720000Y-63465000D03*
X119960000Y-63465000D03*
X119960000Y-67455000D03*
X123920000Y-67455000D03*
X127880000Y-67455000D03*
X143720000Y-67455000D03*
X147680000Y-67455000D03*
X151640000Y-59475000D03*
X151640000Y-63465000D03*
D11*
X135800000Y-64175000D03*
G36*
G01*
X150464000Y-68043000D02*
X150464000Y-66867000D01*
G75*
G02*
X151052000Y-66279000I588000J0D01*
G01*
X152228000Y-66279000D01*
G75*
G02*
X152816000Y-66867000I0J-588000D01*
G01*
X152816000Y-68043000D01*
G75*
G02*
X152228000Y-68631000I-588000J0D01*
G01*
X151052000Y-68631000D01*
G75*
G02*
X150464000Y-68043000I0J588000D01*
G01*
G37*
D12*
G36*
X150465990Y-68042804D02*
G01*
X150477268Y-68157318D01*
X150510616Y-68267249D01*
X150564767Y-68368559D01*
X150637642Y-68457358D01*
X150726441Y-68530233D01*
X150827751Y-68584384D01*
X150937682Y-68617732D01*
X151052196Y-68629010D01*
X151053822Y-68630175D01*
X151053626Y-68632165D01*
X151052000Y-68633000D01*
X150995640Y-68633000D01*
X150995444Y-68632990D01*
X150886904Y-68622300D01*
X150886519Y-68622224D01*
X150788048Y-68592353D01*
X150787686Y-68592203D01*
X150696942Y-68543699D01*
X150696616Y-68543481D01*
X150617074Y-68478203D01*
X150616797Y-68477926D01*
X150551519Y-68398384D01*
X150551301Y-68398058D01*
X150502797Y-68307314D01*
X150502647Y-68306952D01*
X150472776Y-68208481D01*
X150472700Y-68208096D01*
X150462010Y-68099556D01*
X150462000Y-68099360D01*
X150462000Y-68043000D01*
X150463000Y-68041268D01*
X150465000Y-68041268D01*
X150465990Y-68042804D01*
G37*
G36*
X152817165Y-68041374D02*
G01*
X152818000Y-68043000D01*
X152818000Y-68099360D01*
X152817990Y-68099556D01*
X152807300Y-68208096D01*
X152807224Y-68208481D01*
X152777353Y-68306952D01*
X152777203Y-68307314D01*
X152728699Y-68398058D01*
X152728481Y-68398384D01*
X152663203Y-68477926D01*
X152662926Y-68478203D01*
X152583384Y-68543481D01*
X152583058Y-68543699D01*
X152492314Y-68592203D01*
X152491952Y-68592353D01*
X152393481Y-68622224D01*
X152393096Y-68622300D01*
X152284556Y-68632990D01*
X152284360Y-68633000D01*
X152228000Y-68633000D01*
X152226268Y-68632000D01*
X152226268Y-68630000D01*
X152227804Y-68629010D01*
X152342318Y-68617732D01*
X152452249Y-68584384D01*
X152553559Y-68530233D01*
X152642358Y-68457358D01*
X152715233Y-68368559D01*
X152769384Y-68267249D01*
X152802732Y-68157318D01*
X152814010Y-68042804D01*
X152815175Y-68041178D01*
X152817165Y-68041374D01*
G37*
G36*
X151053732Y-66278000D02*
G01*
X151053732Y-66280000D01*
X151052196Y-66280990D01*
X150937682Y-66292268D01*
X150827751Y-66325616D01*
X150726441Y-66379767D01*
X150637642Y-66452642D01*
X150564767Y-66541441D01*
X150510616Y-66642751D01*
X150477268Y-66752682D01*
X150465990Y-66867196D01*
X150464825Y-66868822D01*
X150462835Y-66868626D01*
X150462000Y-66867000D01*
X150462000Y-66810640D01*
X150462010Y-66810444D01*
X150472700Y-66701904D01*
X150472776Y-66701519D01*
X150502647Y-66603048D01*
X150502797Y-66602686D01*
X150551301Y-66511942D01*
X150551519Y-66511616D01*
X150616797Y-66432074D01*
X150617074Y-66431797D01*
X150696616Y-66366519D01*
X150696942Y-66366301D01*
X150787686Y-66317797D01*
X150788048Y-66317647D01*
X150886519Y-66287776D01*
X150886904Y-66287700D01*
X150995444Y-66277010D01*
X150995640Y-66277000D01*
X151052000Y-66277000D01*
X151053732Y-66278000D01*
G37*
G36*
X152284556Y-66277010D02*
G01*
X152393096Y-66287700D01*
X152393481Y-66287776D01*
X152491952Y-66317647D01*
X152492314Y-66317797D01*
X152583058Y-66366301D01*
X152583384Y-66366519D01*
X152662926Y-66431797D01*
X152663203Y-66432074D01*
X152728481Y-66511616D01*
X152728699Y-66511942D01*
X152777203Y-66602686D01*
X152777353Y-66603048D01*
X152807224Y-66701519D01*
X152807300Y-66701904D01*
X152817990Y-66810444D01*
X152818000Y-66810640D01*
X152818000Y-66867000D01*
X152817000Y-66868732D01*
X152815000Y-66868732D01*
X152814010Y-66867196D01*
X152802732Y-66752682D01*
X152769384Y-66642751D01*
X152715233Y-66541441D01*
X152642358Y-66452642D01*
X152553559Y-66379767D01*
X152452249Y-66325616D01*
X152342318Y-66292268D01*
X152227804Y-66280990D01*
X152226178Y-66279825D01*
X152226374Y-66277835D01*
X152228000Y-66277000D01*
X152284360Y-66277000D01*
X152284556Y-66277010D01*
G37*
M02*
