G04 #@! TF.GenerationSoftware,KiCad,Pcbnew,(5.1.7)-1*
G04 #@! TF.CreationDate,2022-01-10T20:36:18+10:30*
G04 #@! TF.ProjectId,BSPD,42535044-2e6b-4696-9361-645f70636258,4*
G04 #@! TF.SameCoordinates,Original*
G04 #@! TF.FileFunction,Soldermask,Top*
G04 #@! TF.FilePolarity,Negative*
%FSLAX46Y46*%
G04 Gerber Fmt 4.6, Leading zero omitted, Abs format (unit mm)*
G04 Created by KiCad (PCBNEW (5.1.7)-1) date 2022-01-10 20:36:18*
%MOMM*%
%LPD*%
G01*
G04 APERTURE LIST*
%ADD10C,2.352000*%
%ADD11C,3.152000*%
%ADD12C,0.100000*%
G04 APERTURE END LIST*
G36*
G01*
X144996000Y-95975000D02*
X144996000Y-97525000D01*
G75*
G02*
X144945000Y-97576000I-51000J0D01*
G01*
X144345000Y-97576000D01*
G75*
G02*
X144294000Y-97525000I0J51000D01*
G01*
X144294000Y-95975000D01*
G75*
G02*
X144345000Y-95924000I51000J0D01*
G01*
X144945000Y-95924000D01*
G75*
G02*
X144996000Y-95975000I0J-51000D01*
G01*
G37*
G36*
G01*
X144996000Y-101375000D02*
X144996000Y-102925000D01*
G75*
G02*
X144945000Y-102976000I-51000J0D01*
G01*
X144345000Y-102976000D01*
G75*
G02*
X144294000Y-102925000I0J51000D01*
G01*
X144294000Y-101375000D01*
G75*
G02*
X144345000Y-101324000I51000J0D01*
G01*
X144945000Y-101324000D01*
G75*
G02*
X144996000Y-101375000I0J-51000D01*
G01*
G37*
G36*
G01*
X146266000Y-95975000D02*
X146266000Y-97525000D01*
G75*
G02*
X146215000Y-97576000I-51000J0D01*
G01*
X145615000Y-97576000D01*
G75*
G02*
X145564000Y-97525000I0J51000D01*
G01*
X145564000Y-95975000D01*
G75*
G02*
X145615000Y-95924000I51000J0D01*
G01*
X146215000Y-95924000D01*
G75*
G02*
X146266000Y-95975000I0J-51000D01*
G01*
G37*
G36*
G01*
X146266000Y-101375000D02*
X146266000Y-102925000D01*
G75*
G02*
X146215000Y-102976000I-51000J0D01*
G01*
X145615000Y-102976000D01*
G75*
G02*
X145564000Y-102925000I0J51000D01*
G01*
X145564000Y-101375000D01*
G75*
G02*
X145615000Y-101324000I51000J0D01*
G01*
X146215000Y-101324000D01*
G75*
G02*
X146266000Y-101375000I0J-51000D01*
G01*
G37*
G36*
G01*
X147536000Y-95975000D02*
X147536000Y-97525000D01*
G75*
G02*
X147485000Y-97576000I-51000J0D01*
G01*
X146885000Y-97576000D01*
G75*
G02*
X146834000Y-97525000I0J51000D01*
G01*
X146834000Y-95975000D01*
G75*
G02*
X146885000Y-95924000I51000J0D01*
G01*
X147485000Y-95924000D01*
G75*
G02*
X147536000Y-95975000I0J-51000D01*
G01*
G37*
G36*
G01*
X147536000Y-101375000D02*
X147536000Y-102925000D01*
G75*
G02*
X147485000Y-102976000I-51000J0D01*
G01*
X146885000Y-102976000D01*
G75*
G02*
X146834000Y-102925000I0J51000D01*
G01*
X146834000Y-101375000D01*
G75*
G02*
X146885000Y-101324000I51000J0D01*
G01*
X147485000Y-101324000D01*
G75*
G02*
X147536000Y-101375000I0J-51000D01*
G01*
G37*
G36*
G01*
X148806000Y-95975000D02*
X148806000Y-97525000D01*
G75*
G02*
X148755000Y-97576000I-51000J0D01*
G01*
X148155000Y-97576000D01*
G75*
G02*
X148104000Y-97525000I0J51000D01*
G01*
X148104000Y-95975000D01*
G75*
G02*
X148155000Y-95924000I51000J0D01*
G01*
X148755000Y-95924000D01*
G75*
G02*
X148806000Y-95975000I0J-51000D01*
G01*
G37*
G36*
G01*
X148806000Y-101375000D02*
X148806000Y-102925000D01*
G75*
G02*
X148755000Y-102976000I-51000J0D01*
G01*
X148155000Y-102976000D01*
G75*
G02*
X148104000Y-102925000I0J51000D01*
G01*
X148104000Y-101375000D01*
G75*
G02*
X148155000Y-101324000I51000J0D01*
G01*
X148755000Y-101324000D01*
G75*
G02*
X148806000Y-101375000I0J-51000D01*
G01*
G37*
G36*
G01*
X150076000Y-95975000D02*
X150076000Y-97525000D01*
G75*
G02*
X150025000Y-97576000I-51000J0D01*
G01*
X149425000Y-97576000D01*
G75*
G02*
X149374000Y-97525000I0J51000D01*
G01*
X149374000Y-95975000D01*
G75*
G02*
X149425000Y-95924000I51000J0D01*
G01*
X150025000Y-95924000D01*
G75*
G02*
X150076000Y-95975000I0J-51000D01*
G01*
G37*
G36*
G01*
X150076000Y-101375000D02*
X150076000Y-102925000D01*
G75*
G02*
X150025000Y-102976000I-51000J0D01*
G01*
X149425000Y-102976000D01*
G75*
G02*
X149374000Y-102925000I0J51000D01*
G01*
X149374000Y-101375000D01*
G75*
G02*
X149425000Y-101324000I51000J0D01*
G01*
X150025000Y-101324000D01*
G75*
G02*
X150076000Y-101375000I0J-51000D01*
G01*
G37*
G36*
G01*
X151346000Y-95975000D02*
X151346000Y-97525000D01*
G75*
G02*
X151295000Y-97576000I-51000J0D01*
G01*
X150695000Y-97576000D01*
G75*
G02*
X150644000Y-97525000I0J51000D01*
G01*
X150644000Y-95975000D01*
G75*
G02*
X150695000Y-95924000I51000J0D01*
G01*
X151295000Y-95924000D01*
G75*
G02*
X151346000Y-95975000I0J-51000D01*
G01*
G37*
G36*
G01*
X151346000Y-101375000D02*
X151346000Y-102925000D01*
G75*
G02*
X151295000Y-102976000I-51000J0D01*
G01*
X150695000Y-102976000D01*
G75*
G02*
X150644000Y-102925000I0J51000D01*
G01*
X150644000Y-101375000D01*
G75*
G02*
X150695000Y-101324000I51000J0D01*
G01*
X151295000Y-101324000D01*
G75*
G02*
X151346000Y-101375000I0J-51000D01*
G01*
G37*
G36*
G01*
X152616000Y-95975000D02*
X152616000Y-97525000D01*
G75*
G02*
X152565000Y-97576000I-51000J0D01*
G01*
X151965000Y-97576000D01*
G75*
G02*
X151914000Y-97525000I0J51000D01*
G01*
X151914000Y-95975000D01*
G75*
G02*
X151965000Y-95924000I51000J0D01*
G01*
X152565000Y-95924000D01*
G75*
G02*
X152616000Y-95975000I0J-51000D01*
G01*
G37*
G36*
G01*
X152616000Y-101375000D02*
X152616000Y-102925000D01*
G75*
G02*
X152565000Y-102976000I-51000J0D01*
G01*
X151965000Y-102976000D01*
G75*
G02*
X151914000Y-102925000I0J51000D01*
G01*
X151914000Y-101375000D01*
G75*
G02*
X151965000Y-101324000I51000J0D01*
G01*
X152565000Y-101324000D01*
G75*
G02*
X152616000Y-101375000I0J-51000D01*
G01*
G37*
G36*
G01*
X158596000Y-76575000D02*
X158596000Y-78125000D01*
G75*
G02*
X158545000Y-78176000I-51000J0D01*
G01*
X157945000Y-78176000D01*
G75*
G02*
X157894000Y-78125000I0J51000D01*
G01*
X157894000Y-76575000D01*
G75*
G02*
X157945000Y-76524000I51000J0D01*
G01*
X158545000Y-76524000D01*
G75*
G02*
X158596000Y-76575000I0J-51000D01*
G01*
G37*
G36*
G01*
X158596000Y-81975000D02*
X158596000Y-83525000D01*
G75*
G02*
X158545000Y-83576000I-51000J0D01*
G01*
X157945000Y-83576000D01*
G75*
G02*
X157894000Y-83525000I0J51000D01*
G01*
X157894000Y-81975000D01*
G75*
G02*
X157945000Y-81924000I51000J0D01*
G01*
X158545000Y-81924000D01*
G75*
G02*
X158596000Y-81975000I0J-51000D01*
G01*
G37*
G36*
G01*
X159866000Y-76575000D02*
X159866000Y-78125000D01*
G75*
G02*
X159815000Y-78176000I-51000J0D01*
G01*
X159215000Y-78176000D01*
G75*
G02*
X159164000Y-78125000I0J51000D01*
G01*
X159164000Y-76575000D01*
G75*
G02*
X159215000Y-76524000I51000J0D01*
G01*
X159815000Y-76524000D01*
G75*
G02*
X159866000Y-76575000I0J-51000D01*
G01*
G37*
G36*
G01*
X159866000Y-81975000D02*
X159866000Y-83525000D01*
G75*
G02*
X159815000Y-83576000I-51000J0D01*
G01*
X159215000Y-83576000D01*
G75*
G02*
X159164000Y-83525000I0J51000D01*
G01*
X159164000Y-81975000D01*
G75*
G02*
X159215000Y-81924000I51000J0D01*
G01*
X159815000Y-81924000D01*
G75*
G02*
X159866000Y-81975000I0J-51000D01*
G01*
G37*
G36*
G01*
X161136000Y-76575000D02*
X161136000Y-78125000D01*
G75*
G02*
X161085000Y-78176000I-51000J0D01*
G01*
X160485000Y-78176000D01*
G75*
G02*
X160434000Y-78125000I0J51000D01*
G01*
X160434000Y-76575000D01*
G75*
G02*
X160485000Y-76524000I51000J0D01*
G01*
X161085000Y-76524000D01*
G75*
G02*
X161136000Y-76575000I0J-51000D01*
G01*
G37*
G36*
G01*
X161136000Y-81975000D02*
X161136000Y-83525000D01*
G75*
G02*
X161085000Y-83576000I-51000J0D01*
G01*
X160485000Y-83576000D01*
G75*
G02*
X160434000Y-83525000I0J51000D01*
G01*
X160434000Y-81975000D01*
G75*
G02*
X160485000Y-81924000I51000J0D01*
G01*
X161085000Y-81924000D01*
G75*
G02*
X161136000Y-81975000I0J-51000D01*
G01*
G37*
G36*
G01*
X162406000Y-76575000D02*
X162406000Y-78125000D01*
G75*
G02*
X162355000Y-78176000I-51000J0D01*
G01*
X161755000Y-78176000D01*
G75*
G02*
X161704000Y-78125000I0J51000D01*
G01*
X161704000Y-76575000D01*
G75*
G02*
X161755000Y-76524000I51000J0D01*
G01*
X162355000Y-76524000D01*
G75*
G02*
X162406000Y-76575000I0J-51000D01*
G01*
G37*
G36*
G01*
X162406000Y-81975000D02*
X162406000Y-83525000D01*
G75*
G02*
X162355000Y-83576000I-51000J0D01*
G01*
X161755000Y-83576000D01*
G75*
G02*
X161704000Y-83525000I0J51000D01*
G01*
X161704000Y-81975000D01*
G75*
G02*
X161755000Y-81924000I51000J0D01*
G01*
X162355000Y-81924000D01*
G75*
G02*
X162406000Y-81975000I0J-51000D01*
G01*
G37*
G36*
G01*
X163676000Y-76575000D02*
X163676000Y-78125000D01*
G75*
G02*
X163625000Y-78176000I-51000J0D01*
G01*
X163025000Y-78176000D01*
G75*
G02*
X162974000Y-78125000I0J51000D01*
G01*
X162974000Y-76575000D01*
G75*
G02*
X163025000Y-76524000I51000J0D01*
G01*
X163625000Y-76524000D01*
G75*
G02*
X163676000Y-76575000I0J-51000D01*
G01*
G37*
G36*
G01*
X163676000Y-81975000D02*
X163676000Y-83525000D01*
G75*
G02*
X163625000Y-83576000I-51000J0D01*
G01*
X163025000Y-83576000D01*
G75*
G02*
X162974000Y-83525000I0J51000D01*
G01*
X162974000Y-81975000D01*
G75*
G02*
X163025000Y-81924000I51000J0D01*
G01*
X163625000Y-81924000D01*
G75*
G02*
X163676000Y-81975000I0J-51000D01*
G01*
G37*
G36*
G01*
X164946000Y-76575000D02*
X164946000Y-78125000D01*
G75*
G02*
X164895000Y-78176000I-51000J0D01*
G01*
X164295000Y-78176000D01*
G75*
G02*
X164244000Y-78125000I0J51000D01*
G01*
X164244000Y-76575000D01*
G75*
G02*
X164295000Y-76524000I51000J0D01*
G01*
X164895000Y-76524000D01*
G75*
G02*
X164946000Y-76575000I0J-51000D01*
G01*
G37*
G36*
G01*
X164946000Y-81975000D02*
X164946000Y-83525000D01*
G75*
G02*
X164895000Y-83576000I-51000J0D01*
G01*
X164295000Y-83576000D01*
G75*
G02*
X164244000Y-83525000I0J51000D01*
G01*
X164244000Y-81975000D01*
G75*
G02*
X164295000Y-81924000I51000J0D01*
G01*
X164895000Y-81924000D01*
G75*
G02*
X164946000Y-81975000I0J-51000D01*
G01*
G37*
G36*
G01*
X166216000Y-76575000D02*
X166216000Y-78125000D01*
G75*
G02*
X166165000Y-78176000I-51000J0D01*
G01*
X165565000Y-78176000D01*
G75*
G02*
X165514000Y-78125000I0J51000D01*
G01*
X165514000Y-76575000D01*
G75*
G02*
X165565000Y-76524000I51000J0D01*
G01*
X166165000Y-76524000D01*
G75*
G02*
X166216000Y-76575000I0J-51000D01*
G01*
G37*
G36*
G01*
X166216000Y-81975000D02*
X166216000Y-83525000D01*
G75*
G02*
X166165000Y-83576000I-51000J0D01*
G01*
X165565000Y-83576000D01*
G75*
G02*
X165514000Y-83525000I0J51000D01*
G01*
X165514000Y-81975000D01*
G75*
G02*
X165565000Y-81924000I51000J0D01*
G01*
X166165000Y-81924000D01*
G75*
G02*
X166216000Y-81975000I0J-51000D01*
G01*
G37*
G36*
G01*
X155874000Y-76678828D02*
X155874000Y-75721172D01*
G75*
G02*
X156146172Y-75449000I272172J0D01*
G01*
X156853828Y-75449000D01*
G75*
G02*
X157126000Y-75721172I0J-272172D01*
G01*
X157126000Y-76678828D01*
G75*
G02*
X156853828Y-76951000I-272172J0D01*
G01*
X156146172Y-76951000D01*
G75*
G02*
X155874000Y-76678828I0J272172D01*
G01*
G37*
G36*
G01*
X153824000Y-76678828D02*
X153824000Y-75721172D01*
G75*
G02*
X154096172Y-75449000I272172J0D01*
G01*
X154803828Y-75449000D01*
G75*
G02*
X155076000Y-75721172I0J-272172D01*
G01*
X155076000Y-76678828D01*
G75*
G02*
X154803828Y-76951000I-272172J0D01*
G01*
X154096172Y-76951000D01*
G75*
G02*
X153824000Y-76678828I0J272172D01*
G01*
G37*
G36*
G01*
X155126000Y-77921172D02*
X155126000Y-78878828D01*
G75*
G02*
X154853828Y-79151000I-272172J0D01*
G01*
X154146172Y-79151000D01*
G75*
G02*
X153874000Y-78878828I0J272172D01*
G01*
X153874000Y-77921172D01*
G75*
G02*
X154146172Y-77649000I272172J0D01*
G01*
X154853828Y-77649000D01*
G75*
G02*
X155126000Y-77921172I0J-272172D01*
G01*
G37*
G36*
G01*
X157176000Y-77921172D02*
X157176000Y-78878828D01*
G75*
G02*
X156903828Y-79151000I-272172J0D01*
G01*
X156196172Y-79151000D01*
G75*
G02*
X155924000Y-78878828I0J272172D01*
G01*
X155924000Y-77921172D01*
G75*
G02*
X156196172Y-77649000I272172J0D01*
G01*
X156903828Y-77649000D01*
G75*
G02*
X157176000Y-77921172I0J-272172D01*
G01*
G37*
G36*
G01*
X160604000Y-72528828D02*
X160604000Y-71571172D01*
G75*
G02*
X160876172Y-71299000I272172J0D01*
G01*
X161583828Y-71299000D01*
G75*
G02*
X161856000Y-71571172I0J-272172D01*
G01*
X161856000Y-72528828D01*
G75*
G02*
X161583828Y-72801000I-272172J0D01*
G01*
X160876172Y-72801000D01*
G75*
G02*
X160604000Y-72528828I0J272172D01*
G01*
G37*
G36*
G01*
X158554000Y-72528828D02*
X158554000Y-71571172D01*
G75*
G02*
X158826172Y-71299000I272172J0D01*
G01*
X159533828Y-71299000D01*
G75*
G02*
X159806000Y-71571172I0J-272172D01*
G01*
X159806000Y-72528828D01*
G75*
G02*
X159533828Y-72801000I-272172J0D01*
G01*
X158826172Y-72801000D01*
G75*
G02*
X158554000Y-72528828I0J272172D01*
G01*
G37*
G36*
G01*
X160629000Y-59078828D02*
X160629000Y-58121172D01*
G75*
G02*
X160901172Y-57849000I272172J0D01*
G01*
X161608828Y-57849000D01*
G75*
G02*
X161881000Y-58121172I0J-272172D01*
G01*
X161881000Y-59078828D01*
G75*
G02*
X161608828Y-59351000I-272172J0D01*
G01*
X160901172Y-59351000D01*
G75*
G02*
X160629000Y-59078828I0J272172D01*
G01*
G37*
G36*
G01*
X158579000Y-59078828D02*
X158579000Y-58121172D01*
G75*
G02*
X158851172Y-57849000I272172J0D01*
G01*
X159558828Y-57849000D01*
G75*
G02*
X159831000Y-58121172I0J-272172D01*
G01*
X159831000Y-59078828D01*
G75*
G02*
X159558828Y-59351000I-272172J0D01*
G01*
X158851172Y-59351000D01*
G75*
G02*
X158579000Y-59078828I0J272172D01*
G01*
G37*
G36*
G01*
X163856000Y-71596172D02*
X163856000Y-72553828D01*
G75*
G02*
X163583828Y-72826000I-272172J0D01*
G01*
X162876172Y-72826000D01*
G75*
G02*
X162604000Y-72553828I0J272172D01*
G01*
X162604000Y-71596172D01*
G75*
G02*
X162876172Y-71324000I272172J0D01*
G01*
X163583828Y-71324000D01*
G75*
G02*
X163856000Y-71596172I0J-272172D01*
G01*
G37*
G36*
G01*
X165906000Y-71596172D02*
X165906000Y-72553828D01*
G75*
G02*
X165633828Y-72826000I-272172J0D01*
G01*
X164926172Y-72826000D01*
G75*
G02*
X164654000Y-72553828I0J272172D01*
G01*
X164654000Y-71596172D01*
G75*
G02*
X164926172Y-71324000I272172J0D01*
G01*
X165633828Y-71324000D01*
G75*
G02*
X165906000Y-71596172I0J-272172D01*
G01*
G37*
G36*
G01*
X163756000Y-58121172D02*
X163756000Y-59078828D01*
G75*
G02*
X163483828Y-59351000I-272172J0D01*
G01*
X162776172Y-59351000D01*
G75*
G02*
X162504000Y-59078828I0J272172D01*
G01*
X162504000Y-58121172D01*
G75*
G02*
X162776172Y-57849000I272172J0D01*
G01*
X163483828Y-57849000D01*
G75*
G02*
X163756000Y-58121172I0J-272172D01*
G01*
G37*
G36*
G01*
X165806000Y-58121172D02*
X165806000Y-59078828D01*
G75*
G02*
X165533828Y-59351000I-272172J0D01*
G01*
X164826172Y-59351000D01*
G75*
G02*
X164554000Y-59078828I0J272172D01*
G01*
X164554000Y-58121172D01*
G75*
G02*
X164826172Y-57849000I272172J0D01*
G01*
X165533828Y-57849000D01*
G75*
G02*
X165806000Y-58121172I0J-272172D01*
G01*
G37*
G36*
G01*
X115083828Y-104576000D02*
X114126172Y-104576000D01*
G75*
G02*
X113854000Y-104303828I0J272172D01*
G01*
X113854000Y-103596172D01*
G75*
G02*
X114126172Y-103324000I272172J0D01*
G01*
X115083828Y-103324000D01*
G75*
G02*
X115356000Y-103596172I0J-272172D01*
G01*
X115356000Y-104303828D01*
G75*
G02*
X115083828Y-104576000I-272172J0D01*
G01*
G37*
G36*
G01*
X115083828Y-106626000D02*
X114126172Y-106626000D01*
G75*
G02*
X113854000Y-106353828I0J272172D01*
G01*
X113854000Y-105646172D01*
G75*
G02*
X114126172Y-105374000I272172J0D01*
G01*
X115083828Y-105374000D01*
G75*
G02*
X115356000Y-105646172I0J-272172D01*
G01*
X115356000Y-106353828D01*
G75*
G02*
X115083828Y-106626000I-272172J0D01*
G01*
G37*
G36*
G01*
X112883828Y-104551000D02*
X111926172Y-104551000D01*
G75*
G02*
X111654000Y-104278828I0J272172D01*
G01*
X111654000Y-103571172D01*
G75*
G02*
X111926172Y-103299000I272172J0D01*
G01*
X112883828Y-103299000D01*
G75*
G02*
X113156000Y-103571172I0J-272172D01*
G01*
X113156000Y-104278828D01*
G75*
G02*
X112883828Y-104551000I-272172J0D01*
G01*
G37*
G36*
G01*
X112883828Y-106601000D02*
X111926172Y-106601000D01*
G75*
G02*
X111654000Y-106328828I0J272172D01*
G01*
X111654000Y-105621172D01*
G75*
G02*
X111926172Y-105349000I272172J0D01*
G01*
X112883828Y-105349000D01*
G75*
G02*
X113156000Y-105621172I0J-272172D01*
G01*
X113156000Y-106328828D01*
G75*
G02*
X112883828Y-106601000I-272172J0D01*
G01*
G37*
G36*
G01*
X115458828Y-91526000D02*
X114501172Y-91526000D01*
G75*
G02*
X114229000Y-91253828I0J272172D01*
G01*
X114229000Y-90546172D01*
G75*
G02*
X114501172Y-90274000I272172J0D01*
G01*
X115458828Y-90274000D01*
G75*
G02*
X115731000Y-90546172I0J-272172D01*
G01*
X115731000Y-91253828D01*
G75*
G02*
X115458828Y-91526000I-272172J0D01*
G01*
G37*
G36*
G01*
X115458828Y-93576000D02*
X114501172Y-93576000D01*
G75*
G02*
X114229000Y-93303828I0J272172D01*
G01*
X114229000Y-92596172D01*
G75*
G02*
X114501172Y-92324000I272172J0D01*
G01*
X115458828Y-92324000D01*
G75*
G02*
X115731000Y-92596172I0J-272172D01*
G01*
X115731000Y-93303828D01*
G75*
G02*
X115458828Y-93576000I-272172J0D01*
G01*
G37*
G36*
G01*
X113308828Y-91526000D02*
X112351172Y-91526000D01*
G75*
G02*
X112079000Y-91253828I0J272172D01*
G01*
X112079000Y-90546172D01*
G75*
G02*
X112351172Y-90274000I272172J0D01*
G01*
X113308828Y-90274000D01*
G75*
G02*
X113581000Y-90546172I0J-272172D01*
G01*
X113581000Y-91253828D01*
G75*
G02*
X113308828Y-91526000I-272172J0D01*
G01*
G37*
G36*
G01*
X113308828Y-93576000D02*
X112351172Y-93576000D01*
G75*
G02*
X112079000Y-93303828I0J272172D01*
G01*
X112079000Y-92596172D01*
G75*
G02*
X112351172Y-92324000I272172J0D01*
G01*
X113308828Y-92324000D01*
G75*
G02*
X113581000Y-92596172I0J-272172D01*
G01*
X113581000Y-93303828D01*
G75*
G02*
X113308828Y-93576000I-272172J0D01*
G01*
G37*
G36*
G01*
X144383828Y-78526000D02*
X143426172Y-78526000D01*
G75*
G02*
X143154000Y-78253828I0J272172D01*
G01*
X143154000Y-77546172D01*
G75*
G02*
X143426172Y-77274000I272172J0D01*
G01*
X144383828Y-77274000D01*
G75*
G02*
X144656000Y-77546172I0J-272172D01*
G01*
X144656000Y-78253828D01*
G75*
G02*
X144383828Y-78526000I-272172J0D01*
G01*
G37*
G36*
G01*
X144383828Y-80576000D02*
X143426172Y-80576000D01*
G75*
G02*
X143154000Y-80303828I0J272172D01*
G01*
X143154000Y-79596172D01*
G75*
G02*
X143426172Y-79324000I272172J0D01*
G01*
X144383828Y-79324000D01*
G75*
G02*
X144656000Y-79596172I0J-272172D01*
G01*
X144656000Y-80303828D01*
G75*
G02*
X144383828Y-80576000I-272172J0D01*
G01*
G37*
G36*
G01*
X115258828Y-78526000D02*
X114301172Y-78526000D01*
G75*
G02*
X114029000Y-78253828I0J272172D01*
G01*
X114029000Y-77546172D01*
G75*
G02*
X114301172Y-77274000I272172J0D01*
G01*
X115258828Y-77274000D01*
G75*
G02*
X115531000Y-77546172I0J-272172D01*
G01*
X115531000Y-78253828D01*
G75*
G02*
X115258828Y-78526000I-272172J0D01*
G01*
G37*
G36*
G01*
X115258828Y-80576000D02*
X114301172Y-80576000D01*
G75*
G02*
X114029000Y-80303828I0J272172D01*
G01*
X114029000Y-79596172D01*
G75*
G02*
X114301172Y-79324000I272172J0D01*
G01*
X115258828Y-79324000D01*
G75*
G02*
X115531000Y-79596172I0J-272172D01*
G01*
X115531000Y-80303828D01*
G75*
G02*
X115258828Y-80576000I-272172J0D01*
G01*
G37*
G36*
G01*
X142308828Y-78481000D02*
X141351172Y-78481000D01*
G75*
G02*
X141079000Y-78208828I0J272172D01*
G01*
X141079000Y-77501172D01*
G75*
G02*
X141351172Y-77229000I272172J0D01*
G01*
X142308828Y-77229000D01*
G75*
G02*
X142581000Y-77501172I0J-272172D01*
G01*
X142581000Y-78208828D01*
G75*
G02*
X142308828Y-78481000I-272172J0D01*
G01*
G37*
G36*
G01*
X142308828Y-80531000D02*
X141351172Y-80531000D01*
G75*
G02*
X141079000Y-80258828I0J272172D01*
G01*
X141079000Y-79551172D01*
G75*
G02*
X141351172Y-79279000I272172J0D01*
G01*
X142308828Y-79279000D01*
G75*
G02*
X142581000Y-79551172I0J-272172D01*
G01*
X142581000Y-80258828D01*
G75*
G02*
X142308828Y-80531000I-272172J0D01*
G01*
G37*
G36*
G01*
X113208828Y-78481000D02*
X112251172Y-78481000D01*
G75*
G02*
X111979000Y-78208828I0J272172D01*
G01*
X111979000Y-77501172D01*
G75*
G02*
X112251172Y-77229000I272172J0D01*
G01*
X113208828Y-77229000D01*
G75*
G02*
X113481000Y-77501172I0J-272172D01*
G01*
X113481000Y-78208828D01*
G75*
G02*
X113208828Y-78481000I-272172J0D01*
G01*
G37*
G36*
G01*
X113208828Y-80531000D02*
X112251172Y-80531000D01*
G75*
G02*
X111979000Y-80258828I0J272172D01*
G01*
X111979000Y-79551172D01*
G75*
G02*
X112251172Y-79279000I272172J0D01*
G01*
X113208828Y-79279000D01*
G75*
G02*
X113481000Y-79551172I0J-272172D01*
G01*
X113481000Y-80258828D01*
G75*
G02*
X113208828Y-80531000I-272172J0D01*
G01*
G37*
G36*
G01*
X129383828Y-78526000D02*
X128426172Y-78526000D01*
G75*
G02*
X128154000Y-78253828I0J272172D01*
G01*
X128154000Y-77546172D01*
G75*
G02*
X128426172Y-77274000I272172J0D01*
G01*
X129383828Y-77274000D01*
G75*
G02*
X129656000Y-77546172I0J-272172D01*
G01*
X129656000Y-78253828D01*
G75*
G02*
X129383828Y-78526000I-272172J0D01*
G01*
G37*
G36*
G01*
X129383828Y-80576000D02*
X128426172Y-80576000D01*
G75*
G02*
X128154000Y-80303828I0J272172D01*
G01*
X128154000Y-79596172D01*
G75*
G02*
X128426172Y-79324000I272172J0D01*
G01*
X129383828Y-79324000D01*
G75*
G02*
X129656000Y-79596172I0J-272172D01*
G01*
X129656000Y-80303828D01*
G75*
G02*
X129383828Y-80576000I-272172J0D01*
G01*
G37*
G36*
G01*
X129433828Y-104576000D02*
X128476172Y-104576000D01*
G75*
G02*
X128204000Y-104303828I0J272172D01*
G01*
X128204000Y-103596172D01*
G75*
G02*
X128476172Y-103324000I272172J0D01*
G01*
X129433828Y-103324000D01*
G75*
G02*
X129706000Y-103596172I0J-272172D01*
G01*
X129706000Y-104303828D01*
G75*
G02*
X129433828Y-104576000I-272172J0D01*
G01*
G37*
G36*
G01*
X129433828Y-106626000D02*
X128476172Y-106626000D01*
G75*
G02*
X128204000Y-106353828I0J272172D01*
G01*
X128204000Y-105646172D01*
G75*
G02*
X128476172Y-105374000I272172J0D01*
G01*
X129433828Y-105374000D01*
G75*
G02*
X129706000Y-105646172I0J-272172D01*
G01*
X129706000Y-106353828D01*
G75*
G02*
X129433828Y-106626000I-272172J0D01*
G01*
G37*
G36*
G01*
X127333828Y-78481000D02*
X126376172Y-78481000D01*
G75*
G02*
X126104000Y-78208828I0J272172D01*
G01*
X126104000Y-77501172D01*
G75*
G02*
X126376172Y-77229000I272172J0D01*
G01*
X127333828Y-77229000D01*
G75*
G02*
X127606000Y-77501172I0J-272172D01*
G01*
X127606000Y-78208828D01*
G75*
G02*
X127333828Y-78481000I-272172J0D01*
G01*
G37*
G36*
G01*
X127333828Y-80531000D02*
X126376172Y-80531000D01*
G75*
G02*
X126104000Y-80258828I0J272172D01*
G01*
X126104000Y-79551172D01*
G75*
G02*
X126376172Y-79279000I272172J0D01*
G01*
X127333828Y-79279000D01*
G75*
G02*
X127606000Y-79551172I0J-272172D01*
G01*
X127606000Y-80258828D01*
G75*
G02*
X127333828Y-80531000I-272172J0D01*
G01*
G37*
G36*
G01*
X127333828Y-104531000D02*
X126376172Y-104531000D01*
G75*
G02*
X126104000Y-104258828I0J272172D01*
G01*
X126104000Y-103551172D01*
G75*
G02*
X126376172Y-103279000I272172J0D01*
G01*
X127333828Y-103279000D01*
G75*
G02*
X127606000Y-103551172I0J-272172D01*
G01*
X127606000Y-104258828D01*
G75*
G02*
X127333828Y-104531000I-272172J0D01*
G01*
G37*
G36*
G01*
X127333828Y-106581000D02*
X126376172Y-106581000D01*
G75*
G02*
X126104000Y-106308828I0J272172D01*
G01*
X126104000Y-105601172D01*
G75*
G02*
X126376172Y-105329000I272172J0D01*
G01*
X127333828Y-105329000D01*
G75*
G02*
X127606000Y-105601172I0J-272172D01*
G01*
X127606000Y-106308828D01*
G75*
G02*
X127333828Y-106581000I-272172J0D01*
G01*
G37*
G36*
G01*
X144333828Y-91526000D02*
X143376172Y-91526000D01*
G75*
G02*
X143104000Y-91253828I0J272172D01*
G01*
X143104000Y-90546172D01*
G75*
G02*
X143376172Y-90274000I272172J0D01*
G01*
X144333828Y-90274000D01*
G75*
G02*
X144606000Y-90546172I0J-272172D01*
G01*
X144606000Y-91253828D01*
G75*
G02*
X144333828Y-91526000I-272172J0D01*
G01*
G37*
G36*
G01*
X144333828Y-93576000D02*
X143376172Y-93576000D01*
G75*
G02*
X143104000Y-93303828I0J272172D01*
G01*
X143104000Y-92596172D01*
G75*
G02*
X143376172Y-92324000I272172J0D01*
G01*
X144333828Y-92324000D01*
G75*
G02*
X144606000Y-92596172I0J-272172D01*
G01*
X144606000Y-93303828D01*
G75*
G02*
X144333828Y-93576000I-272172J0D01*
G01*
G37*
G36*
G01*
X129233828Y-91526000D02*
X128276172Y-91526000D01*
G75*
G02*
X128004000Y-91253828I0J272172D01*
G01*
X128004000Y-90546172D01*
G75*
G02*
X128276172Y-90274000I272172J0D01*
G01*
X129233828Y-90274000D01*
G75*
G02*
X129506000Y-90546172I0J-272172D01*
G01*
X129506000Y-91253828D01*
G75*
G02*
X129233828Y-91526000I-272172J0D01*
G01*
G37*
G36*
G01*
X129233828Y-93576000D02*
X128276172Y-93576000D01*
G75*
G02*
X128004000Y-93303828I0J272172D01*
G01*
X128004000Y-92596172D01*
G75*
G02*
X128276172Y-92324000I272172J0D01*
G01*
X129233828Y-92324000D01*
G75*
G02*
X129506000Y-92596172I0J-272172D01*
G01*
X129506000Y-93303828D01*
G75*
G02*
X129233828Y-93576000I-272172J0D01*
G01*
G37*
G36*
G01*
X142233828Y-91481000D02*
X141276172Y-91481000D01*
G75*
G02*
X141004000Y-91208828I0J272172D01*
G01*
X141004000Y-90501172D01*
G75*
G02*
X141276172Y-90229000I272172J0D01*
G01*
X142233828Y-90229000D01*
G75*
G02*
X142506000Y-90501172I0J-272172D01*
G01*
X142506000Y-91208828D01*
G75*
G02*
X142233828Y-91481000I-272172J0D01*
G01*
G37*
G36*
G01*
X142233828Y-93531000D02*
X141276172Y-93531000D01*
G75*
G02*
X141004000Y-93258828I0J272172D01*
G01*
X141004000Y-92551172D01*
G75*
G02*
X141276172Y-92279000I272172J0D01*
G01*
X142233828Y-92279000D01*
G75*
G02*
X142506000Y-92551172I0J-272172D01*
G01*
X142506000Y-93258828D01*
G75*
G02*
X142233828Y-93531000I-272172J0D01*
G01*
G37*
G36*
G01*
X127033828Y-91481000D02*
X126076172Y-91481000D01*
G75*
G02*
X125804000Y-91208828I0J272172D01*
G01*
X125804000Y-90501172D01*
G75*
G02*
X126076172Y-90229000I272172J0D01*
G01*
X127033828Y-90229000D01*
G75*
G02*
X127306000Y-90501172I0J-272172D01*
G01*
X127306000Y-91208828D01*
G75*
G02*
X127033828Y-91481000I-272172J0D01*
G01*
G37*
G36*
G01*
X127033828Y-93531000D02*
X126076172Y-93531000D01*
G75*
G02*
X125804000Y-93258828I0J272172D01*
G01*
X125804000Y-92551172D01*
G75*
G02*
X126076172Y-92279000I272172J0D01*
G01*
X127033828Y-92279000D01*
G75*
G02*
X127306000Y-92551172I0J-272172D01*
G01*
X127306000Y-93258828D01*
G75*
G02*
X127033828Y-93531000I-272172J0D01*
G01*
G37*
D10*
X147680000Y-59475000D03*
X127880000Y-59475000D03*
X123920000Y-59475000D03*
X143720000Y-59475000D03*
X119960000Y-59475000D03*
X147680000Y-63465000D03*
X127880000Y-63465000D03*
X123920000Y-63465000D03*
X143720000Y-63465000D03*
X119960000Y-63465000D03*
X119960000Y-67455000D03*
X123920000Y-67455000D03*
X127880000Y-67455000D03*
X143720000Y-67455000D03*
X147680000Y-67455000D03*
X151640000Y-59475000D03*
X151640000Y-63465000D03*
D11*
X135800000Y-64175000D03*
G36*
G01*
X150464000Y-68043000D02*
X150464000Y-66867000D01*
G75*
G02*
X151052000Y-66279000I588000J0D01*
G01*
X152228000Y-66279000D01*
G75*
G02*
X152816000Y-66867000I0J-588000D01*
G01*
X152816000Y-68043000D01*
G75*
G02*
X152228000Y-68631000I-588000J0D01*
G01*
X151052000Y-68631000D01*
G75*
G02*
X150464000Y-68043000I0J588000D01*
G01*
G37*
G36*
G01*
X158541000Y-104275000D02*
X158541000Y-105825000D01*
G75*
G02*
X158490000Y-105876000I-51000J0D01*
G01*
X157890000Y-105876000D01*
G75*
G02*
X157839000Y-105825000I0J51000D01*
G01*
X157839000Y-104275000D01*
G75*
G02*
X157890000Y-104224000I51000J0D01*
G01*
X158490000Y-104224000D01*
G75*
G02*
X158541000Y-104275000I0J-51000D01*
G01*
G37*
G36*
G01*
X158541000Y-109675000D02*
X158541000Y-111225000D01*
G75*
G02*
X158490000Y-111276000I-51000J0D01*
G01*
X157890000Y-111276000D01*
G75*
G02*
X157839000Y-111225000I0J51000D01*
G01*
X157839000Y-109675000D01*
G75*
G02*
X157890000Y-109624000I51000J0D01*
G01*
X158490000Y-109624000D01*
G75*
G02*
X158541000Y-109675000I0J-51000D01*
G01*
G37*
G36*
G01*
X159811000Y-104275000D02*
X159811000Y-105825000D01*
G75*
G02*
X159760000Y-105876000I-51000J0D01*
G01*
X159160000Y-105876000D01*
G75*
G02*
X159109000Y-105825000I0J51000D01*
G01*
X159109000Y-104275000D01*
G75*
G02*
X159160000Y-104224000I51000J0D01*
G01*
X159760000Y-104224000D01*
G75*
G02*
X159811000Y-104275000I0J-51000D01*
G01*
G37*
G36*
G01*
X159811000Y-109675000D02*
X159811000Y-111225000D01*
G75*
G02*
X159760000Y-111276000I-51000J0D01*
G01*
X159160000Y-111276000D01*
G75*
G02*
X159109000Y-111225000I0J51000D01*
G01*
X159109000Y-109675000D01*
G75*
G02*
X159160000Y-109624000I51000J0D01*
G01*
X159760000Y-109624000D01*
G75*
G02*
X159811000Y-109675000I0J-51000D01*
G01*
G37*
G36*
G01*
X161081000Y-104275000D02*
X161081000Y-105825000D01*
G75*
G02*
X161030000Y-105876000I-51000J0D01*
G01*
X160430000Y-105876000D01*
G75*
G02*
X160379000Y-105825000I0J51000D01*
G01*
X160379000Y-104275000D01*
G75*
G02*
X160430000Y-104224000I51000J0D01*
G01*
X161030000Y-104224000D01*
G75*
G02*
X161081000Y-104275000I0J-51000D01*
G01*
G37*
G36*
G01*
X161081000Y-109675000D02*
X161081000Y-111225000D01*
G75*
G02*
X161030000Y-111276000I-51000J0D01*
G01*
X160430000Y-111276000D01*
G75*
G02*
X160379000Y-111225000I0J51000D01*
G01*
X160379000Y-109675000D01*
G75*
G02*
X160430000Y-109624000I51000J0D01*
G01*
X161030000Y-109624000D01*
G75*
G02*
X161081000Y-109675000I0J-51000D01*
G01*
G37*
G36*
G01*
X162351000Y-104275000D02*
X162351000Y-105825000D01*
G75*
G02*
X162300000Y-105876000I-51000J0D01*
G01*
X161700000Y-105876000D01*
G75*
G02*
X161649000Y-105825000I0J51000D01*
G01*
X161649000Y-104275000D01*
G75*
G02*
X161700000Y-104224000I51000J0D01*
G01*
X162300000Y-104224000D01*
G75*
G02*
X162351000Y-104275000I0J-51000D01*
G01*
G37*
G36*
G01*
X162351000Y-109675000D02*
X162351000Y-111225000D01*
G75*
G02*
X162300000Y-111276000I-51000J0D01*
G01*
X161700000Y-111276000D01*
G75*
G02*
X161649000Y-111225000I0J51000D01*
G01*
X161649000Y-109675000D01*
G75*
G02*
X161700000Y-109624000I51000J0D01*
G01*
X162300000Y-109624000D01*
G75*
G02*
X162351000Y-109675000I0J-51000D01*
G01*
G37*
G36*
G01*
X163621000Y-104275000D02*
X163621000Y-105825000D01*
G75*
G02*
X163570000Y-105876000I-51000J0D01*
G01*
X162970000Y-105876000D01*
G75*
G02*
X162919000Y-105825000I0J51000D01*
G01*
X162919000Y-104275000D01*
G75*
G02*
X162970000Y-104224000I51000J0D01*
G01*
X163570000Y-104224000D01*
G75*
G02*
X163621000Y-104275000I0J-51000D01*
G01*
G37*
G36*
G01*
X163621000Y-109675000D02*
X163621000Y-111225000D01*
G75*
G02*
X163570000Y-111276000I-51000J0D01*
G01*
X162970000Y-111276000D01*
G75*
G02*
X162919000Y-111225000I0J51000D01*
G01*
X162919000Y-109675000D01*
G75*
G02*
X162970000Y-109624000I51000J0D01*
G01*
X163570000Y-109624000D01*
G75*
G02*
X163621000Y-109675000I0J-51000D01*
G01*
G37*
G36*
G01*
X164891000Y-104275000D02*
X164891000Y-105825000D01*
G75*
G02*
X164840000Y-105876000I-51000J0D01*
G01*
X164240000Y-105876000D01*
G75*
G02*
X164189000Y-105825000I0J51000D01*
G01*
X164189000Y-104275000D01*
G75*
G02*
X164240000Y-104224000I51000J0D01*
G01*
X164840000Y-104224000D01*
G75*
G02*
X164891000Y-104275000I0J-51000D01*
G01*
G37*
G36*
G01*
X164891000Y-109675000D02*
X164891000Y-111225000D01*
G75*
G02*
X164840000Y-111276000I-51000J0D01*
G01*
X164240000Y-111276000D01*
G75*
G02*
X164189000Y-111225000I0J51000D01*
G01*
X164189000Y-109675000D01*
G75*
G02*
X164240000Y-109624000I51000J0D01*
G01*
X164840000Y-109624000D01*
G75*
G02*
X164891000Y-109675000I0J-51000D01*
G01*
G37*
G36*
G01*
X166161000Y-104275000D02*
X166161000Y-105825000D01*
G75*
G02*
X166110000Y-105876000I-51000J0D01*
G01*
X165510000Y-105876000D01*
G75*
G02*
X165459000Y-105825000I0J51000D01*
G01*
X165459000Y-104275000D01*
G75*
G02*
X165510000Y-104224000I51000J0D01*
G01*
X166110000Y-104224000D01*
G75*
G02*
X166161000Y-104275000I0J-51000D01*
G01*
G37*
G36*
G01*
X166161000Y-109675000D02*
X166161000Y-111225000D01*
G75*
G02*
X166110000Y-111276000I-51000J0D01*
G01*
X165510000Y-111276000D01*
G75*
G02*
X165459000Y-111225000I0J51000D01*
G01*
X165459000Y-109675000D01*
G75*
G02*
X165510000Y-109624000I51000J0D01*
G01*
X166110000Y-109624000D01*
G75*
G02*
X166161000Y-109675000I0J-51000D01*
G01*
G37*
G36*
G01*
X158541000Y-95825000D02*
X158541000Y-97375000D01*
G75*
G02*
X158490000Y-97426000I-51000J0D01*
G01*
X157890000Y-97426000D01*
G75*
G02*
X157839000Y-97375000I0J51000D01*
G01*
X157839000Y-95825000D01*
G75*
G02*
X157890000Y-95774000I51000J0D01*
G01*
X158490000Y-95774000D01*
G75*
G02*
X158541000Y-95825000I0J-51000D01*
G01*
G37*
G36*
G01*
X158541000Y-101225000D02*
X158541000Y-102775000D01*
G75*
G02*
X158490000Y-102826000I-51000J0D01*
G01*
X157890000Y-102826000D01*
G75*
G02*
X157839000Y-102775000I0J51000D01*
G01*
X157839000Y-101225000D01*
G75*
G02*
X157890000Y-101174000I51000J0D01*
G01*
X158490000Y-101174000D01*
G75*
G02*
X158541000Y-101225000I0J-51000D01*
G01*
G37*
G36*
G01*
X159811000Y-95825000D02*
X159811000Y-97375000D01*
G75*
G02*
X159760000Y-97426000I-51000J0D01*
G01*
X159160000Y-97426000D01*
G75*
G02*
X159109000Y-97375000I0J51000D01*
G01*
X159109000Y-95825000D01*
G75*
G02*
X159160000Y-95774000I51000J0D01*
G01*
X159760000Y-95774000D01*
G75*
G02*
X159811000Y-95825000I0J-51000D01*
G01*
G37*
G36*
G01*
X159811000Y-101225000D02*
X159811000Y-102775000D01*
G75*
G02*
X159760000Y-102826000I-51000J0D01*
G01*
X159160000Y-102826000D01*
G75*
G02*
X159109000Y-102775000I0J51000D01*
G01*
X159109000Y-101225000D01*
G75*
G02*
X159160000Y-101174000I51000J0D01*
G01*
X159760000Y-101174000D01*
G75*
G02*
X159811000Y-101225000I0J-51000D01*
G01*
G37*
G36*
G01*
X161081000Y-95825000D02*
X161081000Y-97375000D01*
G75*
G02*
X161030000Y-97426000I-51000J0D01*
G01*
X160430000Y-97426000D01*
G75*
G02*
X160379000Y-97375000I0J51000D01*
G01*
X160379000Y-95825000D01*
G75*
G02*
X160430000Y-95774000I51000J0D01*
G01*
X161030000Y-95774000D01*
G75*
G02*
X161081000Y-95825000I0J-51000D01*
G01*
G37*
G36*
G01*
X161081000Y-101225000D02*
X161081000Y-102775000D01*
G75*
G02*
X161030000Y-102826000I-51000J0D01*
G01*
X160430000Y-102826000D01*
G75*
G02*
X160379000Y-102775000I0J51000D01*
G01*
X160379000Y-101225000D01*
G75*
G02*
X160430000Y-101174000I51000J0D01*
G01*
X161030000Y-101174000D01*
G75*
G02*
X161081000Y-101225000I0J-51000D01*
G01*
G37*
G36*
G01*
X162351000Y-95825000D02*
X162351000Y-97375000D01*
G75*
G02*
X162300000Y-97426000I-51000J0D01*
G01*
X161700000Y-97426000D01*
G75*
G02*
X161649000Y-97375000I0J51000D01*
G01*
X161649000Y-95825000D01*
G75*
G02*
X161700000Y-95774000I51000J0D01*
G01*
X162300000Y-95774000D01*
G75*
G02*
X162351000Y-95825000I0J-51000D01*
G01*
G37*
G36*
G01*
X162351000Y-101225000D02*
X162351000Y-102775000D01*
G75*
G02*
X162300000Y-102826000I-51000J0D01*
G01*
X161700000Y-102826000D01*
G75*
G02*
X161649000Y-102775000I0J51000D01*
G01*
X161649000Y-101225000D01*
G75*
G02*
X161700000Y-101174000I51000J0D01*
G01*
X162300000Y-101174000D01*
G75*
G02*
X162351000Y-101225000I0J-51000D01*
G01*
G37*
G36*
G01*
X163621000Y-95825000D02*
X163621000Y-97375000D01*
G75*
G02*
X163570000Y-97426000I-51000J0D01*
G01*
X162970000Y-97426000D01*
G75*
G02*
X162919000Y-97375000I0J51000D01*
G01*
X162919000Y-95825000D01*
G75*
G02*
X162970000Y-95774000I51000J0D01*
G01*
X163570000Y-95774000D01*
G75*
G02*
X163621000Y-95825000I0J-51000D01*
G01*
G37*
G36*
G01*
X163621000Y-101225000D02*
X163621000Y-102775000D01*
G75*
G02*
X163570000Y-102826000I-51000J0D01*
G01*
X162970000Y-102826000D01*
G75*
G02*
X162919000Y-102775000I0J51000D01*
G01*
X162919000Y-101225000D01*
G75*
G02*
X162970000Y-101174000I51000J0D01*
G01*
X163570000Y-101174000D01*
G75*
G02*
X163621000Y-101225000I0J-51000D01*
G01*
G37*
G36*
G01*
X164891000Y-95825000D02*
X164891000Y-97375000D01*
G75*
G02*
X164840000Y-97426000I-51000J0D01*
G01*
X164240000Y-97426000D01*
G75*
G02*
X164189000Y-97375000I0J51000D01*
G01*
X164189000Y-95825000D01*
G75*
G02*
X164240000Y-95774000I51000J0D01*
G01*
X164840000Y-95774000D01*
G75*
G02*
X164891000Y-95825000I0J-51000D01*
G01*
G37*
G36*
G01*
X164891000Y-101225000D02*
X164891000Y-102775000D01*
G75*
G02*
X164840000Y-102826000I-51000J0D01*
G01*
X164240000Y-102826000D01*
G75*
G02*
X164189000Y-102775000I0J51000D01*
G01*
X164189000Y-101225000D01*
G75*
G02*
X164240000Y-101174000I51000J0D01*
G01*
X164840000Y-101174000D01*
G75*
G02*
X164891000Y-101225000I0J-51000D01*
G01*
G37*
G36*
G01*
X166161000Y-95825000D02*
X166161000Y-97375000D01*
G75*
G02*
X166110000Y-97426000I-51000J0D01*
G01*
X165510000Y-97426000D01*
G75*
G02*
X165459000Y-97375000I0J51000D01*
G01*
X165459000Y-95825000D01*
G75*
G02*
X165510000Y-95774000I51000J0D01*
G01*
X166110000Y-95774000D01*
G75*
G02*
X166161000Y-95825000I0J-51000D01*
G01*
G37*
G36*
G01*
X166161000Y-101225000D02*
X166161000Y-102775000D01*
G75*
G02*
X166110000Y-102826000I-51000J0D01*
G01*
X165510000Y-102826000D01*
G75*
G02*
X165459000Y-102775000I0J51000D01*
G01*
X165459000Y-101225000D01*
G75*
G02*
X165510000Y-101174000I51000J0D01*
G01*
X166110000Y-101174000D01*
G75*
G02*
X166161000Y-101225000I0J-51000D01*
G01*
G37*
G36*
G01*
X158541000Y-86725000D02*
X158541000Y-88275000D01*
G75*
G02*
X158490000Y-88326000I-51000J0D01*
G01*
X157890000Y-88326000D01*
G75*
G02*
X157839000Y-88275000I0J51000D01*
G01*
X157839000Y-86725000D01*
G75*
G02*
X157890000Y-86674000I51000J0D01*
G01*
X158490000Y-86674000D01*
G75*
G02*
X158541000Y-86725000I0J-51000D01*
G01*
G37*
G36*
G01*
X158541000Y-92125000D02*
X158541000Y-93675000D01*
G75*
G02*
X158490000Y-93726000I-51000J0D01*
G01*
X157890000Y-93726000D01*
G75*
G02*
X157839000Y-93675000I0J51000D01*
G01*
X157839000Y-92125000D01*
G75*
G02*
X157890000Y-92074000I51000J0D01*
G01*
X158490000Y-92074000D01*
G75*
G02*
X158541000Y-92125000I0J-51000D01*
G01*
G37*
G36*
G01*
X159811000Y-86725000D02*
X159811000Y-88275000D01*
G75*
G02*
X159760000Y-88326000I-51000J0D01*
G01*
X159160000Y-88326000D01*
G75*
G02*
X159109000Y-88275000I0J51000D01*
G01*
X159109000Y-86725000D01*
G75*
G02*
X159160000Y-86674000I51000J0D01*
G01*
X159760000Y-86674000D01*
G75*
G02*
X159811000Y-86725000I0J-51000D01*
G01*
G37*
G36*
G01*
X159811000Y-92125000D02*
X159811000Y-93675000D01*
G75*
G02*
X159760000Y-93726000I-51000J0D01*
G01*
X159160000Y-93726000D01*
G75*
G02*
X159109000Y-93675000I0J51000D01*
G01*
X159109000Y-92125000D01*
G75*
G02*
X159160000Y-92074000I51000J0D01*
G01*
X159760000Y-92074000D01*
G75*
G02*
X159811000Y-92125000I0J-51000D01*
G01*
G37*
G36*
G01*
X161081000Y-86725000D02*
X161081000Y-88275000D01*
G75*
G02*
X161030000Y-88326000I-51000J0D01*
G01*
X160430000Y-88326000D01*
G75*
G02*
X160379000Y-88275000I0J51000D01*
G01*
X160379000Y-86725000D01*
G75*
G02*
X160430000Y-86674000I51000J0D01*
G01*
X161030000Y-86674000D01*
G75*
G02*
X161081000Y-86725000I0J-51000D01*
G01*
G37*
G36*
G01*
X161081000Y-92125000D02*
X161081000Y-93675000D01*
G75*
G02*
X161030000Y-93726000I-51000J0D01*
G01*
X160430000Y-93726000D01*
G75*
G02*
X160379000Y-93675000I0J51000D01*
G01*
X160379000Y-92125000D01*
G75*
G02*
X160430000Y-92074000I51000J0D01*
G01*
X161030000Y-92074000D01*
G75*
G02*
X161081000Y-92125000I0J-51000D01*
G01*
G37*
G36*
G01*
X162351000Y-86725000D02*
X162351000Y-88275000D01*
G75*
G02*
X162300000Y-88326000I-51000J0D01*
G01*
X161700000Y-88326000D01*
G75*
G02*
X161649000Y-88275000I0J51000D01*
G01*
X161649000Y-86725000D01*
G75*
G02*
X161700000Y-86674000I51000J0D01*
G01*
X162300000Y-86674000D01*
G75*
G02*
X162351000Y-86725000I0J-51000D01*
G01*
G37*
G36*
G01*
X162351000Y-92125000D02*
X162351000Y-93675000D01*
G75*
G02*
X162300000Y-93726000I-51000J0D01*
G01*
X161700000Y-93726000D01*
G75*
G02*
X161649000Y-93675000I0J51000D01*
G01*
X161649000Y-92125000D01*
G75*
G02*
X161700000Y-92074000I51000J0D01*
G01*
X162300000Y-92074000D01*
G75*
G02*
X162351000Y-92125000I0J-51000D01*
G01*
G37*
G36*
G01*
X163621000Y-86725000D02*
X163621000Y-88275000D01*
G75*
G02*
X163570000Y-88326000I-51000J0D01*
G01*
X162970000Y-88326000D01*
G75*
G02*
X162919000Y-88275000I0J51000D01*
G01*
X162919000Y-86725000D01*
G75*
G02*
X162970000Y-86674000I51000J0D01*
G01*
X163570000Y-86674000D01*
G75*
G02*
X163621000Y-86725000I0J-51000D01*
G01*
G37*
G36*
G01*
X163621000Y-92125000D02*
X163621000Y-93675000D01*
G75*
G02*
X163570000Y-93726000I-51000J0D01*
G01*
X162970000Y-93726000D01*
G75*
G02*
X162919000Y-93675000I0J51000D01*
G01*
X162919000Y-92125000D01*
G75*
G02*
X162970000Y-92074000I51000J0D01*
G01*
X163570000Y-92074000D01*
G75*
G02*
X163621000Y-92125000I0J-51000D01*
G01*
G37*
G36*
G01*
X164891000Y-86725000D02*
X164891000Y-88275000D01*
G75*
G02*
X164840000Y-88326000I-51000J0D01*
G01*
X164240000Y-88326000D01*
G75*
G02*
X164189000Y-88275000I0J51000D01*
G01*
X164189000Y-86725000D01*
G75*
G02*
X164240000Y-86674000I51000J0D01*
G01*
X164840000Y-86674000D01*
G75*
G02*
X164891000Y-86725000I0J-51000D01*
G01*
G37*
G36*
G01*
X164891000Y-92125000D02*
X164891000Y-93675000D01*
G75*
G02*
X164840000Y-93726000I-51000J0D01*
G01*
X164240000Y-93726000D01*
G75*
G02*
X164189000Y-93675000I0J51000D01*
G01*
X164189000Y-92125000D01*
G75*
G02*
X164240000Y-92074000I51000J0D01*
G01*
X164840000Y-92074000D01*
G75*
G02*
X164891000Y-92125000I0J-51000D01*
G01*
G37*
G36*
G01*
X166161000Y-86725000D02*
X166161000Y-88275000D01*
G75*
G02*
X166110000Y-88326000I-51000J0D01*
G01*
X165510000Y-88326000D01*
G75*
G02*
X165459000Y-88275000I0J51000D01*
G01*
X165459000Y-86725000D01*
G75*
G02*
X165510000Y-86674000I51000J0D01*
G01*
X166110000Y-86674000D01*
G75*
G02*
X166161000Y-86725000I0J-51000D01*
G01*
G37*
G36*
G01*
X166161000Y-92125000D02*
X166161000Y-93675000D01*
G75*
G02*
X166110000Y-93726000I-51000J0D01*
G01*
X165510000Y-93726000D01*
G75*
G02*
X165459000Y-93675000I0J51000D01*
G01*
X165459000Y-92125000D01*
G75*
G02*
X165510000Y-92074000I51000J0D01*
G01*
X166110000Y-92074000D01*
G75*
G02*
X166161000Y-92125000I0J-51000D01*
G01*
G37*
G36*
G01*
X162549000Y-66950000D02*
X162549000Y-63650000D01*
G75*
G02*
X162600000Y-63599000I51000J0D01*
G01*
X164200000Y-63599000D01*
G75*
G02*
X164251000Y-63650000I0J-51000D01*
G01*
X164251000Y-66950000D01*
G75*
G02*
X164200000Y-67001000I-51000J0D01*
G01*
X162600000Y-67001000D01*
G75*
G02*
X162549000Y-66950000I0J51000D01*
G01*
G37*
G36*
G01*
X157800001Y-68251000D02*
X156199999Y-68251000D01*
G75*
G02*
X156149000Y-68200001I0J50999D01*
G01*
X156149000Y-66999999D01*
G75*
G02*
X156199999Y-66949000I50999J0D01*
G01*
X157800001Y-66949000D01*
G75*
G02*
X157851000Y-66999999I0J-50999D01*
G01*
X157851000Y-68200001D01*
G75*
G02*
X157800001Y-68251000I-50999J0D01*
G01*
G37*
G36*
G01*
X157800001Y-65951000D02*
X156199999Y-65951000D01*
G75*
G02*
X156149000Y-65900001I0J50999D01*
G01*
X156149000Y-64699999D01*
G75*
G02*
X156199999Y-64649000I50999J0D01*
G01*
X157800001Y-64649000D01*
G75*
G02*
X157851000Y-64699999I0J-50999D01*
G01*
X157851000Y-65900001D01*
G75*
G02*
X157800001Y-65951000I-50999J0D01*
G01*
G37*
G36*
G01*
X157800001Y-63651000D02*
X156199999Y-63651000D01*
G75*
G02*
X156149000Y-63600001I0J50999D01*
G01*
X156149000Y-62399999D01*
G75*
G02*
X156199999Y-62349000I50999J0D01*
G01*
X157800001Y-62349000D01*
G75*
G02*
X157851000Y-62399999I0J-50999D01*
G01*
X157851000Y-63600001D01*
G75*
G02*
X157800001Y-63651000I-50999J0D01*
G01*
G37*
G36*
G01*
X138349000Y-80346001D02*
X138349000Y-79145999D01*
G75*
G02*
X138399999Y-79095000I50999J0D01*
G01*
X139600001Y-79095000D01*
G75*
G02*
X139651000Y-79145999I0J-50999D01*
G01*
X139651000Y-80346001D01*
G75*
G02*
X139600001Y-80397000I-50999J0D01*
G01*
X138399999Y-80397000D01*
G75*
G02*
X138349000Y-80346001I0J50999D01*
G01*
G37*
G36*
G01*
X137149000Y-77246000D02*
X137149000Y-75746000D01*
G75*
G02*
X137200000Y-75695000I51000J0D01*
G01*
X138800000Y-75695000D01*
G75*
G02*
X138851000Y-75746000I0J-51000D01*
G01*
X138851000Y-77246000D01*
G75*
G02*
X138800000Y-77297000I-51000J0D01*
G01*
X137200000Y-77297000D01*
G75*
G02*
X137149000Y-77246000I0J51000D01*
G01*
G37*
G36*
G01*
X136349000Y-80346001D02*
X136349000Y-79145999D01*
G75*
G02*
X136399999Y-79095000I50999J0D01*
G01*
X137600001Y-79095000D01*
G75*
G02*
X137651000Y-79145999I0J-50999D01*
G01*
X137651000Y-80346001D01*
G75*
G02*
X137600001Y-80397000I-50999J0D01*
G01*
X136399999Y-80397000D01*
G75*
G02*
X136349000Y-80346001I0J50999D01*
G01*
G37*
G36*
G01*
X109349000Y-80346001D02*
X109349000Y-79145999D01*
G75*
G02*
X109399999Y-79095000I50999J0D01*
G01*
X110600001Y-79095000D01*
G75*
G02*
X110651000Y-79145999I0J-50999D01*
G01*
X110651000Y-80346001D01*
G75*
G02*
X110600001Y-80397000I-50999J0D01*
G01*
X109399999Y-80397000D01*
G75*
G02*
X109349000Y-80346001I0J50999D01*
G01*
G37*
G36*
G01*
X108149000Y-77246000D02*
X108149000Y-75746000D01*
G75*
G02*
X108200000Y-75695000I51000J0D01*
G01*
X109800000Y-75695000D01*
G75*
G02*
X109851000Y-75746000I0J-51000D01*
G01*
X109851000Y-77246000D01*
G75*
G02*
X109800000Y-77297000I-51000J0D01*
G01*
X108200000Y-77297000D01*
G75*
G02*
X108149000Y-77246000I0J51000D01*
G01*
G37*
G36*
G01*
X107349000Y-80346001D02*
X107349000Y-79145999D01*
G75*
G02*
X107399999Y-79095000I50999J0D01*
G01*
X108600001Y-79095000D01*
G75*
G02*
X108651000Y-79145999I0J-50999D01*
G01*
X108651000Y-80346001D01*
G75*
G02*
X108600001Y-80397000I-50999J0D01*
G01*
X107399999Y-80397000D01*
G75*
G02*
X107349000Y-80346001I0J50999D01*
G01*
G37*
G36*
G01*
X123349000Y-80346001D02*
X123349000Y-79145999D01*
G75*
G02*
X123399999Y-79095000I50999J0D01*
G01*
X124600001Y-79095000D01*
G75*
G02*
X124651000Y-79145999I0J-50999D01*
G01*
X124651000Y-80346001D01*
G75*
G02*
X124600001Y-80397000I-50999J0D01*
G01*
X123399999Y-80397000D01*
G75*
G02*
X123349000Y-80346001I0J50999D01*
G01*
G37*
G36*
G01*
X122149000Y-77246000D02*
X122149000Y-75746000D01*
G75*
G02*
X122200000Y-75695000I51000J0D01*
G01*
X123800000Y-75695000D01*
G75*
G02*
X123851000Y-75746000I0J-51000D01*
G01*
X123851000Y-77246000D01*
G75*
G02*
X123800000Y-77297000I-51000J0D01*
G01*
X122200000Y-77297000D01*
G75*
G02*
X122149000Y-77246000I0J51000D01*
G01*
G37*
G36*
G01*
X121349000Y-80346001D02*
X121349000Y-79145999D01*
G75*
G02*
X121399999Y-79095000I50999J0D01*
G01*
X122600001Y-79095000D01*
G75*
G02*
X122651000Y-79145999I0J-50999D01*
G01*
X122651000Y-80346001D01*
G75*
G02*
X122600001Y-80397000I-50999J0D01*
G01*
X121399999Y-80397000D01*
G75*
G02*
X121349000Y-80346001I0J50999D01*
G01*
G37*
G36*
G01*
X123349000Y-106396001D02*
X123349000Y-105195999D01*
G75*
G02*
X123399999Y-105145000I50999J0D01*
G01*
X124600001Y-105145000D01*
G75*
G02*
X124651000Y-105195999I0J-50999D01*
G01*
X124651000Y-106396001D01*
G75*
G02*
X124600001Y-106447000I-50999J0D01*
G01*
X123399999Y-106447000D01*
G75*
G02*
X123349000Y-106396001I0J50999D01*
G01*
G37*
G36*
G01*
X122149000Y-103296000D02*
X122149000Y-101796000D01*
G75*
G02*
X122200000Y-101745000I51000J0D01*
G01*
X123800000Y-101745000D01*
G75*
G02*
X123851000Y-101796000I0J-51000D01*
G01*
X123851000Y-103296000D01*
G75*
G02*
X123800000Y-103347000I-51000J0D01*
G01*
X122200000Y-103347000D01*
G75*
G02*
X122149000Y-103296000I0J51000D01*
G01*
G37*
G36*
G01*
X121349000Y-106396001D02*
X121349000Y-105195999D01*
G75*
G02*
X121399999Y-105145000I50999J0D01*
G01*
X122600001Y-105145000D01*
G75*
G02*
X122651000Y-105195999I0J-50999D01*
G01*
X122651000Y-106396001D01*
G75*
G02*
X122600001Y-106447000I-50999J0D01*
G01*
X121399999Y-106447000D01*
G75*
G02*
X121349000Y-106396001I0J50999D01*
G01*
G37*
G36*
G01*
X109349000Y-93346001D02*
X109349000Y-92145999D01*
G75*
G02*
X109399999Y-92095000I50999J0D01*
G01*
X110600001Y-92095000D01*
G75*
G02*
X110651000Y-92145999I0J-50999D01*
G01*
X110651000Y-93346001D01*
G75*
G02*
X110600001Y-93397000I-50999J0D01*
G01*
X109399999Y-93397000D01*
G75*
G02*
X109349000Y-93346001I0J50999D01*
G01*
G37*
G36*
G01*
X108149000Y-90246000D02*
X108149000Y-88746000D01*
G75*
G02*
X108200000Y-88695000I51000J0D01*
G01*
X109800000Y-88695000D01*
G75*
G02*
X109851000Y-88746000I0J-51000D01*
G01*
X109851000Y-90246000D01*
G75*
G02*
X109800000Y-90297000I-51000J0D01*
G01*
X108200000Y-90297000D01*
G75*
G02*
X108149000Y-90246000I0J51000D01*
G01*
G37*
G36*
G01*
X107349000Y-93346001D02*
X107349000Y-92145999D01*
G75*
G02*
X107399999Y-92095000I50999J0D01*
G01*
X108600001Y-92095000D01*
G75*
G02*
X108651000Y-92145999I0J-50999D01*
G01*
X108651000Y-93346001D01*
G75*
G02*
X108600001Y-93397000I-50999J0D01*
G01*
X107399999Y-93397000D01*
G75*
G02*
X107349000Y-93346001I0J50999D01*
G01*
G37*
G36*
G01*
X138349000Y-93346001D02*
X138349000Y-92145999D01*
G75*
G02*
X138399999Y-92095000I50999J0D01*
G01*
X139600001Y-92095000D01*
G75*
G02*
X139651000Y-92145999I0J-50999D01*
G01*
X139651000Y-93346001D01*
G75*
G02*
X139600001Y-93397000I-50999J0D01*
G01*
X138399999Y-93397000D01*
G75*
G02*
X138349000Y-93346001I0J50999D01*
G01*
G37*
G36*
G01*
X137149000Y-90246000D02*
X137149000Y-88746000D01*
G75*
G02*
X137200000Y-88695000I51000J0D01*
G01*
X138800000Y-88695000D01*
G75*
G02*
X138851000Y-88746000I0J-51000D01*
G01*
X138851000Y-90246000D01*
G75*
G02*
X138800000Y-90297000I-51000J0D01*
G01*
X137200000Y-90297000D01*
G75*
G02*
X137149000Y-90246000I0J51000D01*
G01*
G37*
G36*
G01*
X136349000Y-93346001D02*
X136349000Y-92145999D01*
G75*
G02*
X136399999Y-92095000I50999J0D01*
G01*
X137600001Y-92095000D01*
G75*
G02*
X137651000Y-92145999I0J-50999D01*
G01*
X137651000Y-93346001D01*
G75*
G02*
X137600001Y-93397000I-50999J0D01*
G01*
X136399999Y-93397000D01*
G75*
G02*
X136349000Y-93346001I0J50999D01*
G01*
G37*
G36*
G01*
X123349000Y-93346001D02*
X123349000Y-92145999D01*
G75*
G02*
X123399999Y-92095000I50999J0D01*
G01*
X124600001Y-92095000D01*
G75*
G02*
X124651000Y-92145999I0J-50999D01*
G01*
X124651000Y-93346001D01*
G75*
G02*
X124600001Y-93397000I-50999J0D01*
G01*
X123399999Y-93397000D01*
G75*
G02*
X123349000Y-93346001I0J50999D01*
G01*
G37*
G36*
G01*
X122149000Y-90246000D02*
X122149000Y-88746000D01*
G75*
G02*
X122200000Y-88695000I51000J0D01*
G01*
X123800000Y-88695000D01*
G75*
G02*
X123851000Y-88746000I0J-51000D01*
G01*
X123851000Y-90246000D01*
G75*
G02*
X123800000Y-90297000I-51000J0D01*
G01*
X122200000Y-90297000D01*
G75*
G02*
X122149000Y-90246000I0J51000D01*
G01*
G37*
G36*
G01*
X121349000Y-93346001D02*
X121349000Y-92145999D01*
G75*
G02*
X121399999Y-92095000I50999J0D01*
G01*
X122600001Y-92095000D01*
G75*
G02*
X122651000Y-92145999I0J-50999D01*
G01*
X122651000Y-93346001D01*
G75*
G02*
X122600001Y-93397000I-50999J0D01*
G01*
X121399999Y-93397000D01*
G75*
G02*
X121349000Y-93346001I0J50999D01*
G01*
G37*
G36*
G01*
X108849000Y-106396001D02*
X108849000Y-105195999D01*
G75*
G02*
X108899999Y-105145000I50999J0D01*
G01*
X110100001Y-105145000D01*
G75*
G02*
X110151000Y-105195999I0J-50999D01*
G01*
X110151000Y-106396001D01*
G75*
G02*
X110100001Y-106447000I-50999J0D01*
G01*
X108899999Y-106447000D01*
G75*
G02*
X108849000Y-106396001I0J50999D01*
G01*
G37*
G36*
G01*
X107649000Y-103296000D02*
X107649000Y-101796000D01*
G75*
G02*
X107700000Y-101745000I51000J0D01*
G01*
X109300000Y-101745000D01*
G75*
G02*
X109351000Y-101796000I0J-51000D01*
G01*
X109351000Y-103296000D01*
G75*
G02*
X109300000Y-103347000I-51000J0D01*
G01*
X107700000Y-103347000D01*
G75*
G02*
X107649000Y-103296000I0J51000D01*
G01*
G37*
G36*
G01*
X106849000Y-106396001D02*
X106849000Y-105195999D01*
G75*
G02*
X106899999Y-105145000I50999J0D01*
G01*
X108100001Y-105145000D01*
G75*
G02*
X108151000Y-105195999I0J-50999D01*
G01*
X108151000Y-106396001D01*
G75*
G02*
X108100001Y-106447000I-50999J0D01*
G01*
X106899999Y-106447000D01*
G75*
G02*
X106849000Y-106396001I0J50999D01*
G01*
G37*
G36*
G01*
X133521172Y-79324000D02*
X134478828Y-79324000D01*
G75*
G02*
X134751000Y-79596172I0J-272172D01*
G01*
X134751000Y-80303828D01*
G75*
G02*
X134478828Y-80576000I-272172J0D01*
G01*
X133521172Y-80576000D01*
G75*
G02*
X133249000Y-80303828I0J272172D01*
G01*
X133249000Y-79596172D01*
G75*
G02*
X133521172Y-79324000I272172J0D01*
G01*
G37*
G36*
G01*
X133521172Y-77274000D02*
X134478828Y-77274000D01*
G75*
G02*
X134751000Y-77546172I0J-272172D01*
G01*
X134751000Y-78253828D01*
G75*
G02*
X134478828Y-78526000I-272172J0D01*
G01*
X133521172Y-78526000D01*
G75*
G02*
X133249000Y-78253828I0J272172D01*
G01*
X133249000Y-77546172D01*
G75*
G02*
X133521172Y-77274000I272172J0D01*
G01*
G37*
G36*
G01*
X105708828Y-78526000D02*
X104751172Y-78526000D01*
G75*
G02*
X104479000Y-78253828I0J272172D01*
G01*
X104479000Y-77546172D01*
G75*
G02*
X104751172Y-77274000I272172J0D01*
G01*
X105708828Y-77274000D01*
G75*
G02*
X105981000Y-77546172I0J-272172D01*
G01*
X105981000Y-78253828D01*
G75*
G02*
X105708828Y-78526000I-272172J0D01*
G01*
G37*
G36*
G01*
X105708828Y-80576000D02*
X104751172Y-80576000D01*
G75*
G02*
X104479000Y-80303828I0J272172D01*
G01*
X104479000Y-79596172D01*
G75*
G02*
X104751172Y-79324000I272172J0D01*
G01*
X105708828Y-79324000D01*
G75*
G02*
X105981000Y-79596172I0J-272172D01*
G01*
X105981000Y-80303828D01*
G75*
G02*
X105708828Y-80576000I-272172J0D01*
G01*
G37*
G36*
G01*
X118521172Y-79324000D02*
X119478828Y-79324000D01*
G75*
G02*
X119751000Y-79596172I0J-272172D01*
G01*
X119751000Y-80303828D01*
G75*
G02*
X119478828Y-80576000I-272172J0D01*
G01*
X118521172Y-80576000D01*
G75*
G02*
X118249000Y-80303828I0J272172D01*
G01*
X118249000Y-79596172D01*
G75*
G02*
X118521172Y-79324000I272172J0D01*
G01*
G37*
G36*
G01*
X118521172Y-77274000D02*
X119478828Y-77274000D01*
G75*
G02*
X119751000Y-77546172I0J-272172D01*
G01*
X119751000Y-78253828D01*
G75*
G02*
X119478828Y-78526000I-272172J0D01*
G01*
X118521172Y-78526000D01*
G75*
G02*
X118249000Y-78253828I0J272172D01*
G01*
X118249000Y-77546172D01*
G75*
G02*
X118521172Y-77274000I272172J0D01*
G01*
G37*
G36*
G01*
X119733828Y-104576000D02*
X118776172Y-104576000D01*
G75*
G02*
X118504000Y-104303828I0J272172D01*
G01*
X118504000Y-103596172D01*
G75*
G02*
X118776172Y-103324000I272172J0D01*
G01*
X119733828Y-103324000D01*
G75*
G02*
X120006000Y-103596172I0J-272172D01*
G01*
X120006000Y-104303828D01*
G75*
G02*
X119733828Y-104576000I-272172J0D01*
G01*
G37*
G36*
G01*
X119733828Y-106626000D02*
X118776172Y-106626000D01*
G75*
G02*
X118504000Y-106353828I0J272172D01*
G01*
X118504000Y-105646172D01*
G75*
G02*
X118776172Y-105374000I272172J0D01*
G01*
X119733828Y-105374000D01*
G75*
G02*
X120006000Y-105646172I0J-272172D01*
G01*
X120006000Y-106353828D01*
G75*
G02*
X119733828Y-106626000I-272172J0D01*
G01*
G37*
G36*
G01*
X104521172Y-92324000D02*
X105478828Y-92324000D01*
G75*
G02*
X105751000Y-92596172I0J-272172D01*
G01*
X105751000Y-93303828D01*
G75*
G02*
X105478828Y-93576000I-272172J0D01*
G01*
X104521172Y-93576000D01*
G75*
G02*
X104249000Y-93303828I0J272172D01*
G01*
X104249000Y-92596172D01*
G75*
G02*
X104521172Y-92324000I272172J0D01*
G01*
G37*
G36*
G01*
X104521172Y-90274000D02*
X105478828Y-90274000D01*
G75*
G02*
X105751000Y-90546172I0J-272172D01*
G01*
X105751000Y-91253828D01*
G75*
G02*
X105478828Y-91526000I-272172J0D01*
G01*
X104521172Y-91526000D01*
G75*
G02*
X104249000Y-91253828I0J272172D01*
G01*
X104249000Y-90546172D01*
G75*
G02*
X104521172Y-90274000I272172J0D01*
G01*
G37*
G36*
G01*
X133521172Y-92324000D02*
X134478828Y-92324000D01*
G75*
G02*
X134751000Y-92596172I0J-272172D01*
G01*
X134751000Y-93303828D01*
G75*
G02*
X134478828Y-93576000I-272172J0D01*
G01*
X133521172Y-93576000D01*
G75*
G02*
X133249000Y-93303828I0J272172D01*
G01*
X133249000Y-92596172D01*
G75*
G02*
X133521172Y-92324000I272172J0D01*
G01*
G37*
G36*
G01*
X133521172Y-90274000D02*
X134478828Y-90274000D01*
G75*
G02*
X134751000Y-90546172I0J-272172D01*
G01*
X134751000Y-91253828D01*
G75*
G02*
X134478828Y-91526000I-272172J0D01*
G01*
X133521172Y-91526000D01*
G75*
G02*
X133249000Y-91253828I0J272172D01*
G01*
X133249000Y-90546172D01*
G75*
G02*
X133521172Y-90274000I272172J0D01*
G01*
G37*
G36*
G01*
X118521172Y-92324000D02*
X119478828Y-92324000D01*
G75*
G02*
X119751000Y-92596172I0J-272172D01*
G01*
X119751000Y-93303828D01*
G75*
G02*
X119478828Y-93576000I-272172J0D01*
G01*
X118521172Y-93576000D01*
G75*
G02*
X118249000Y-93303828I0J272172D01*
G01*
X118249000Y-92596172D01*
G75*
G02*
X118521172Y-92324000I272172J0D01*
G01*
G37*
G36*
G01*
X118521172Y-90274000D02*
X119478828Y-90274000D01*
G75*
G02*
X119751000Y-90546172I0J-272172D01*
G01*
X119751000Y-91253828D01*
G75*
G02*
X119478828Y-91526000I-272172J0D01*
G01*
X118521172Y-91526000D01*
G75*
G02*
X118249000Y-91253828I0J272172D01*
G01*
X118249000Y-90546172D01*
G75*
G02*
X118521172Y-90274000I272172J0D01*
G01*
G37*
G36*
G01*
X104021172Y-105374000D02*
X104978828Y-105374000D01*
G75*
G02*
X105251000Y-105646172I0J-272172D01*
G01*
X105251000Y-106353828D01*
G75*
G02*
X104978828Y-106626000I-272172J0D01*
G01*
X104021172Y-106626000D01*
G75*
G02*
X103749000Y-106353828I0J272172D01*
G01*
X103749000Y-105646172D01*
G75*
G02*
X104021172Y-105374000I272172J0D01*
G01*
G37*
G36*
G01*
X104021172Y-103324000D02*
X104978828Y-103324000D01*
G75*
G02*
X105251000Y-103596172I0J-272172D01*
G01*
X105251000Y-104303828D01*
G75*
G02*
X104978828Y-104576000I-272172J0D01*
G01*
X104021172Y-104576000D01*
G75*
G02*
X103749000Y-104303828I0J272172D01*
G01*
X103749000Y-103596172D01*
G75*
G02*
X104021172Y-103324000I272172J0D01*
G01*
G37*
G36*
G01*
X155478828Y-102101000D02*
X154521172Y-102101000D01*
G75*
G02*
X154249000Y-101828828I0J272172D01*
G01*
X154249000Y-101121172D01*
G75*
G02*
X154521172Y-100849000I272172J0D01*
G01*
X155478828Y-100849000D01*
G75*
G02*
X155751000Y-101121172I0J-272172D01*
G01*
X155751000Y-101828828D01*
G75*
G02*
X155478828Y-102101000I-272172J0D01*
G01*
G37*
G36*
G01*
X155478828Y-104151000D02*
X154521172Y-104151000D01*
G75*
G02*
X154249000Y-103878828I0J272172D01*
G01*
X154249000Y-103171172D01*
G75*
G02*
X154521172Y-102899000I272172J0D01*
G01*
X155478828Y-102899000D01*
G75*
G02*
X155751000Y-103171172I0J-272172D01*
G01*
X155751000Y-103878828D01*
G75*
G02*
X155478828Y-104151000I-272172J0D01*
G01*
G37*
G36*
G01*
X151649000Y-73228828D02*
X151649000Y-72271172D01*
G75*
G02*
X151921172Y-71999000I272172J0D01*
G01*
X152628828Y-71999000D01*
G75*
G02*
X152901000Y-72271172I0J-272172D01*
G01*
X152901000Y-73228828D01*
G75*
G02*
X152628828Y-73501000I-272172J0D01*
G01*
X151921172Y-73501000D01*
G75*
G02*
X151649000Y-73228828I0J272172D01*
G01*
G37*
G36*
G01*
X149599000Y-73228828D02*
X149599000Y-72271172D01*
G75*
G02*
X149871172Y-71999000I272172J0D01*
G01*
X150578828Y-71999000D01*
G75*
G02*
X150851000Y-72271172I0J-272172D01*
G01*
X150851000Y-73228828D01*
G75*
G02*
X150578828Y-73501000I-272172J0D01*
G01*
X149871172Y-73501000D01*
G75*
G02*
X149599000Y-73228828I0J272172D01*
G01*
G37*
G36*
G01*
X149474000Y-76728828D02*
X149474000Y-75771172D01*
G75*
G02*
X149746172Y-75499000I272172J0D01*
G01*
X150453828Y-75499000D01*
G75*
G02*
X150726000Y-75771172I0J-272172D01*
G01*
X150726000Y-76728828D01*
G75*
G02*
X150453828Y-77001000I-272172J0D01*
G01*
X149746172Y-77001000D01*
G75*
G02*
X149474000Y-76728828I0J272172D01*
G01*
G37*
G36*
G01*
X147424000Y-76728828D02*
X147424000Y-75771172D01*
G75*
G02*
X147696172Y-75499000I272172J0D01*
G01*
X148403828Y-75499000D01*
G75*
G02*
X148676000Y-75771172I0J-272172D01*
G01*
X148676000Y-76728828D01*
G75*
G02*
X148403828Y-77001000I-272172J0D01*
G01*
X147696172Y-77001000D01*
G75*
G02*
X147424000Y-76728828I0J272172D01*
G01*
G37*
G36*
G01*
X115450000Y-67951000D02*
X114550000Y-67951000D01*
G75*
G02*
X114499000Y-67900000I0J51000D01*
G01*
X114499000Y-67100000D01*
G75*
G02*
X114550000Y-67049000I51000J0D01*
G01*
X115450000Y-67049000D01*
G75*
G02*
X115501000Y-67100000I0J-51000D01*
G01*
X115501000Y-67900000D01*
G75*
G02*
X115450000Y-67951000I-51000J0D01*
G01*
G37*
G36*
G01*
X113450000Y-68901000D02*
X112550000Y-68901000D01*
G75*
G02*
X112499000Y-68850000I0J51000D01*
G01*
X112499000Y-68050000D01*
G75*
G02*
X112550000Y-67999000I51000J0D01*
G01*
X113450000Y-67999000D01*
G75*
G02*
X113501000Y-68050000I0J-51000D01*
G01*
X113501000Y-68850000D01*
G75*
G02*
X113450000Y-68901000I-51000J0D01*
G01*
G37*
G36*
G01*
X113450000Y-67001000D02*
X112550000Y-67001000D01*
G75*
G02*
X112499000Y-66950000I0J51000D01*
G01*
X112499000Y-66150000D01*
G75*
G02*
X112550000Y-66099000I51000J0D01*
G01*
X113450000Y-66099000D01*
G75*
G02*
X113501000Y-66150000I0J-51000D01*
G01*
X113501000Y-66950000D01*
G75*
G02*
X113450000Y-67001000I-51000J0D01*
G01*
G37*
G36*
G01*
X155479316Y-100151000D02*
X154520684Y-100151000D01*
G75*
G02*
X154249000Y-99879316I0J271684D01*
G01*
X154249000Y-99170684D01*
G75*
G02*
X154520684Y-98899000I271684J0D01*
G01*
X155479316Y-98899000D01*
G75*
G02*
X155751000Y-99170684I0J-271684D01*
G01*
X155751000Y-99879316D01*
G75*
G02*
X155479316Y-100151000I-271684J0D01*
G01*
G37*
G36*
G01*
X155478828Y-98101000D02*
X154521172Y-98101000D01*
G75*
G02*
X154249000Y-97828828I0J272172D01*
G01*
X154249000Y-97121172D01*
G75*
G02*
X154521172Y-96849000I272172J0D01*
G01*
X155478828Y-96849000D01*
G75*
G02*
X155751000Y-97121172I0J-272172D01*
G01*
X155751000Y-97828828D01*
G75*
G02*
X155478828Y-98101000I-272172J0D01*
G01*
G37*
G36*
G01*
X158549000Y-70479316D02*
X158549000Y-69520684D01*
G75*
G02*
X158820684Y-69249000I271684J0D01*
G01*
X159529316Y-69249000D01*
G75*
G02*
X159801000Y-69520684I0J-271684D01*
G01*
X159801000Y-70479316D01*
G75*
G02*
X159529316Y-70751000I-271684J0D01*
G01*
X158820684Y-70751000D01*
G75*
G02*
X158549000Y-70479316I0J271684D01*
G01*
G37*
G36*
G01*
X160599000Y-70478828D02*
X160599000Y-69521172D01*
G75*
G02*
X160871172Y-69249000I272172J0D01*
G01*
X161578828Y-69249000D01*
G75*
G02*
X161851000Y-69521172I0J-272172D01*
G01*
X161851000Y-70478828D01*
G75*
G02*
X161578828Y-70751000I-272172J0D01*
G01*
X160871172Y-70751000D01*
G75*
G02*
X160599000Y-70478828I0J272172D01*
G01*
G37*
G36*
G01*
X158549000Y-61079316D02*
X158549000Y-60120684D01*
G75*
G02*
X158820684Y-59849000I271684J0D01*
G01*
X159529316Y-59849000D01*
G75*
G02*
X159801000Y-60120684I0J-271684D01*
G01*
X159801000Y-61079316D01*
G75*
G02*
X159529316Y-61351000I-271684J0D01*
G01*
X158820684Y-61351000D01*
G75*
G02*
X158549000Y-61079316I0J271684D01*
G01*
G37*
G36*
G01*
X160599000Y-61078828D02*
X160599000Y-60121172D01*
G75*
G02*
X160871172Y-59849000I272172J0D01*
G01*
X161578828Y-59849000D01*
G75*
G02*
X161851000Y-60121172I0J-272172D01*
G01*
X161851000Y-61078828D01*
G75*
G02*
X161578828Y-61351000I-272172J0D01*
G01*
X160871172Y-61351000D01*
G75*
G02*
X160599000Y-61078828I0J272172D01*
G01*
G37*
G36*
G01*
X168849000Y-80479316D02*
X168849000Y-79520684D01*
G75*
G02*
X169120684Y-79249000I271684J0D01*
G01*
X169829316Y-79249000D01*
G75*
G02*
X170101000Y-79520684I0J-271684D01*
G01*
X170101000Y-80479316D01*
G75*
G02*
X169829316Y-80751000I-271684J0D01*
G01*
X169120684Y-80751000D01*
G75*
G02*
X168849000Y-80479316I0J271684D01*
G01*
G37*
G36*
G01*
X170899000Y-80478828D02*
X170899000Y-79521172D01*
G75*
G02*
X171171172Y-79249000I272172J0D01*
G01*
X171878828Y-79249000D01*
G75*
G02*
X172151000Y-79521172I0J-272172D01*
G01*
X172151000Y-80478828D01*
G75*
G02*
X171878828Y-80751000I-272172J0D01*
G01*
X171171172Y-80751000D01*
G75*
G02*
X170899000Y-80478828I0J272172D01*
G01*
G37*
G36*
G01*
X168849000Y-99979316D02*
X168849000Y-99020684D01*
G75*
G02*
X169120684Y-98749000I271684J0D01*
G01*
X169829316Y-98749000D01*
G75*
G02*
X170101000Y-99020684I0J-271684D01*
G01*
X170101000Y-99979316D01*
G75*
G02*
X169829316Y-100251000I-271684J0D01*
G01*
X169120684Y-100251000D01*
G75*
G02*
X168849000Y-99979316I0J271684D01*
G01*
G37*
G36*
G01*
X170899000Y-99978828D02*
X170899000Y-99021172D01*
G75*
G02*
X171171172Y-98749000I272172J0D01*
G01*
X171878828Y-98749000D01*
G75*
G02*
X172151000Y-99021172I0J-272172D01*
G01*
X172151000Y-99978828D01*
G75*
G02*
X171878828Y-100251000I-272172J0D01*
G01*
X171171172Y-100251000D01*
G75*
G02*
X170899000Y-99978828I0J272172D01*
G01*
G37*
G36*
G01*
X168849000Y-90479316D02*
X168849000Y-89520684D01*
G75*
G02*
X169120684Y-89249000I271684J0D01*
G01*
X169829316Y-89249000D01*
G75*
G02*
X170101000Y-89520684I0J-271684D01*
G01*
X170101000Y-90479316D01*
G75*
G02*
X169829316Y-90751000I-271684J0D01*
G01*
X169120684Y-90751000D01*
G75*
G02*
X168849000Y-90479316I0J271684D01*
G01*
G37*
G36*
G01*
X170899000Y-90478828D02*
X170899000Y-89521172D01*
G75*
G02*
X171171172Y-89249000I272172J0D01*
G01*
X171878828Y-89249000D01*
G75*
G02*
X172151000Y-89521172I0J-272172D01*
G01*
X172151000Y-90478828D01*
G75*
G02*
X171878828Y-90751000I-272172J0D01*
G01*
X171171172Y-90751000D01*
G75*
G02*
X170899000Y-90478828I0J272172D01*
G01*
G37*
G36*
G01*
X168849000Y-107979316D02*
X168849000Y-107020684D01*
G75*
G02*
X169120684Y-106749000I271684J0D01*
G01*
X169829316Y-106749000D01*
G75*
G02*
X170101000Y-107020684I0J-271684D01*
G01*
X170101000Y-107979316D01*
G75*
G02*
X169829316Y-108251000I-271684J0D01*
G01*
X169120684Y-108251000D01*
G75*
G02*
X168849000Y-107979316I0J271684D01*
G01*
G37*
G36*
G01*
X170899000Y-107978828D02*
X170899000Y-107021172D01*
G75*
G02*
X171171172Y-106749000I272172J0D01*
G01*
X171878828Y-106749000D01*
G75*
G02*
X172151000Y-107021172I0J-272172D01*
G01*
X172151000Y-107978828D01*
G75*
G02*
X171878828Y-108251000I-272172J0D01*
G01*
X171171172Y-108251000D01*
G75*
G02*
X170899000Y-107978828I0J272172D01*
G01*
G37*
D12*
G36*
X150465990Y-68042804D02*
G01*
X150477268Y-68157318D01*
X150510616Y-68267249D01*
X150564767Y-68368559D01*
X150637642Y-68457358D01*
X150726441Y-68530233D01*
X150827751Y-68584384D01*
X150937682Y-68617732D01*
X151052196Y-68629010D01*
X151053822Y-68630175D01*
X151053626Y-68632165D01*
X151052000Y-68633000D01*
X150995640Y-68633000D01*
X150995444Y-68632990D01*
X150886904Y-68622300D01*
X150886519Y-68622224D01*
X150788048Y-68592353D01*
X150787686Y-68592203D01*
X150696942Y-68543699D01*
X150696616Y-68543481D01*
X150617074Y-68478203D01*
X150616797Y-68477926D01*
X150551519Y-68398384D01*
X150551301Y-68398058D01*
X150502797Y-68307314D01*
X150502647Y-68306952D01*
X150472776Y-68208481D01*
X150472700Y-68208096D01*
X150462010Y-68099556D01*
X150462000Y-68099360D01*
X150462000Y-68043000D01*
X150463000Y-68041268D01*
X150465000Y-68041268D01*
X150465990Y-68042804D01*
G37*
G36*
X152817165Y-68041374D02*
G01*
X152818000Y-68043000D01*
X152818000Y-68099360D01*
X152817990Y-68099556D01*
X152807300Y-68208096D01*
X152807224Y-68208481D01*
X152777353Y-68306952D01*
X152777203Y-68307314D01*
X152728699Y-68398058D01*
X152728481Y-68398384D01*
X152663203Y-68477926D01*
X152662926Y-68478203D01*
X152583384Y-68543481D01*
X152583058Y-68543699D01*
X152492314Y-68592203D01*
X152491952Y-68592353D01*
X152393481Y-68622224D01*
X152393096Y-68622300D01*
X152284556Y-68632990D01*
X152284360Y-68633000D01*
X152228000Y-68633000D01*
X152226268Y-68632000D01*
X152226268Y-68630000D01*
X152227804Y-68629010D01*
X152342318Y-68617732D01*
X152452249Y-68584384D01*
X152553559Y-68530233D01*
X152642358Y-68457358D01*
X152715233Y-68368559D01*
X152769384Y-68267249D01*
X152802732Y-68157318D01*
X152814010Y-68042804D01*
X152815175Y-68041178D01*
X152817165Y-68041374D01*
G37*
G36*
X151053732Y-66278000D02*
G01*
X151053732Y-66280000D01*
X151052196Y-66280990D01*
X150937682Y-66292268D01*
X150827751Y-66325616D01*
X150726441Y-66379767D01*
X150637642Y-66452642D01*
X150564767Y-66541441D01*
X150510616Y-66642751D01*
X150477268Y-66752682D01*
X150465990Y-66867196D01*
X150464825Y-66868822D01*
X150462835Y-66868626D01*
X150462000Y-66867000D01*
X150462000Y-66810640D01*
X150462010Y-66810444D01*
X150472700Y-66701904D01*
X150472776Y-66701519D01*
X150502647Y-66603048D01*
X150502797Y-66602686D01*
X150551301Y-66511942D01*
X150551519Y-66511616D01*
X150616797Y-66432074D01*
X150617074Y-66431797D01*
X150696616Y-66366519D01*
X150696942Y-66366301D01*
X150787686Y-66317797D01*
X150788048Y-66317647D01*
X150886519Y-66287776D01*
X150886904Y-66287700D01*
X150995444Y-66277010D01*
X150995640Y-66277000D01*
X151052000Y-66277000D01*
X151053732Y-66278000D01*
G37*
G36*
X152284556Y-66277010D02*
G01*
X152393096Y-66287700D01*
X152393481Y-66287776D01*
X152491952Y-66317647D01*
X152492314Y-66317797D01*
X152583058Y-66366301D01*
X152583384Y-66366519D01*
X152662926Y-66431797D01*
X152663203Y-66432074D01*
X152728481Y-66511616D01*
X152728699Y-66511942D01*
X152777203Y-66602686D01*
X152777353Y-66603048D01*
X152807224Y-66701519D01*
X152807300Y-66701904D01*
X152817990Y-66810444D01*
X152818000Y-66810640D01*
X152818000Y-66867000D01*
X152817000Y-66868732D01*
X152815000Y-66868732D01*
X152814010Y-66867196D01*
X152802732Y-66752682D01*
X152769384Y-66642751D01*
X152715233Y-66541441D01*
X152642358Y-66452642D01*
X152553559Y-66379767D01*
X152452249Y-66325616D01*
X152342318Y-66292268D01*
X152227804Y-66280990D01*
X152226178Y-66279825D01*
X152226374Y-66277835D01*
X152228000Y-66277000D01*
X152284360Y-66277000D01*
X152284556Y-66277010D01*
G37*
M02*
